
<svg width="169" height="206" viewBox="0 0 169 206" fill="none" xmlns="http://www.w3.org/2000/svg">
<path d="M3 203V3L166 16.9651V200.007L3 203Z" fill="#831B0C" stroke="white" stroke-width="5"/>
<path d="M51.678 94.0529C50.2781 94.0621 49.0464 93.8102 47.983 93.2972C46.9395 92.764 46.1246 92.0194 45.5383 91.0632C44.9519 90.087 44.6543 88.939 44.6456 87.619L44.6184 83.4791C44.6096 82.1391 44.8921 80.9872 45.4658 80.0235C46.0394 79.0597 46.8446 78.3144 47.8811 77.7875C48.9376 77.2406 50.1658 76.9625 51.5657 76.9533C53.6457 76.9397 55.3092 77.4687 56.5563 78.5406C57.8032 79.5924 58.4627 81.0381 58.5348 82.8777L54.7849 82.9023C54.7192 82.0427 54.4049 81.3848 53.8419 80.9285C53.2987 80.452 52.5472 80.2169 51.5872 80.2232C50.5872 80.2298 49.7991 80.515 49.2228 81.0788C48.6463 81.6226 48.3615 82.4045 48.3682 83.4245L48.3956 87.5944C48.4023 88.6143 48.6974 89.4024 49.2811 89.9586C49.8648 90.5148 50.6566 90.7896 51.6566 90.783C52.6165 90.7767 53.365 90.5418 53.902 90.0783C54.4588 89.5946 54.7644 88.9226 54.8188 88.0622L58.5687 88.0376C58.5208 89.8779 57.8804 91.3422 56.6475 92.4303C55.4145 93.4984 53.758 94.0393 51.678 94.0529ZM69.5757 93.9054C68.1758 93.9146 66.9541 93.6626 65.9107 93.1494C64.8872 92.6162 64.0823 91.8714 63.496 90.9153C62.9295 89.939 62.642 88.7908 62.6333 87.4708L62.6065 83.3909C62.5979 82.071 62.8704 80.9291 63.424 79.9655C63.9976 78.9817 64.7927 78.2265 65.8092 77.6998C66.8456 77.153 68.0638 76.8749 69.4638 76.8658C70.8838 76.8564 72.1055 77.1184 73.1291 77.6517C74.1525 78.165 74.9474 78.9098 75.5138 79.8861C76.1001 80.8422 76.3975 81.9703 76.406 83.2703L76.433 87.3802C76.4417 88.7002 76.1593 89.8521 75.5857 90.8358C75.032 91.7995 74.247 92.5547 73.2305 93.1014C72.214 93.628 70.9957 93.8961 69.5757 93.9054ZM69.5543 90.6355C70.5542 90.6289 71.3225 90.3538 71.8589 89.8103C72.4152 89.2466 72.6899 88.4448 72.6831 87.4048L72.6563 83.3249C72.6493 82.2649 72.3641 81.4668 71.8006 80.9305C71.257 80.394 70.4853 80.1291 69.4853 80.1357C68.5053 80.1421 67.7371 80.4172 67.1807 80.9608C66.6242 81.5045 66.3495 82.3063 66.3564 83.3663L66.3832 87.4462C66.3901 88.4862 66.6753 89.2843 67.239 89.8406C67.8025 90.377 68.5743 90.6419 69.5543 90.6355ZM86.1539 93.8265C84.5139 93.8373 83.1802 93.276 82.1527 92.1427C81.1453 91.0093 80.6352 89.4826 80.6226 87.5627L80.5932 83.0928C80.5805 81.1528 81.0704 79.6096 82.0629 78.463C83.0553 77.3165 84.3816 76.7378 86.0415 76.7269C87.4015 76.7179 88.4841 77.1008 89.2892 77.8755C90.0941 78.6303 90.501 79.6776 90.5098 81.0176L89.6641 80.1531L90.5341 80.1474L90.3883 76.2183L90.3579 71.5984L94.1079 71.5738L94.2517 93.4733L90.5918 93.4973L90.5711 90.3474L89.7311 90.3529L90.5654 89.4774C90.5742 90.8174 90.1812 91.88 89.3863 92.6652C88.5913 93.4305 87.5138 93.8176 86.1539 93.8265ZM87.4526 90.5779C88.4125 90.5716 89.1507 90.2867 89.667 89.7233C90.2032 89.1398 90.4679 88.338 90.4612 87.3181L90.434 83.1781C90.4273 82.1582 90.1521 81.37 89.6085 80.8135C89.0847 80.2369 88.3428 79.9518 87.3828 79.9581C86.4228 79.9644 85.6747 80.2493 85.1384 80.8129C84.6021 81.3764 84.3373 82.1782 84.3441 83.2181L84.3713 87.3581C84.3782 88.398 84.6534 89.1962 85.1971 89.7527C85.7408 90.3091 86.4926 90.5842 87.4526 90.5779ZM105.582 93.6989C104.182 93.7081 102.96 93.4461 101.916 92.9129C100.873 92.3798 100.058 91.6351 99.4718 90.6789C98.9053 89.7026 98.6179 88.5645 98.6093 87.2645L98.5821 83.1246C98.5736 81.8246 98.8461 80.6928 99.3998 79.7292C99.9734 78.7454 100.778 77.9801 101.815 77.4333C102.851 76.8864 104.069 76.6084 105.469 76.5992C106.849 76.5902 108.051 76.8523 109.075 77.3856C110.118 77.9187 110.923 78.6735 111.49 79.6498C112.076 80.6059 112.373 81.734 112.382 83.034L112.401 86.0039L102.232 86.0707L102.239 87.2407C102.247 88.4007 102.533 89.2788 103.097 89.8751C103.66 90.4514 104.492 90.736 105.592 90.7287C106.432 90.7232 107.111 90.5788 107.629 90.2953C108.147 89.9919 108.475 89.5598 108.611 88.9989L112.301 88.9746C112.03 90.3964 111.278 91.5414 110.043 92.4095C108.829 93.2575 107.342 93.6873 105.582 93.6989ZM108.758 83.9278L108.752 83.0278C108.744 81.8878 108.469 81.0196 107.925 80.4232C107.381 79.8068 106.568 79.5021 105.489 79.5092C104.409 79.5163 103.591 79.8316 103.035 80.4553C102.479 81.079 102.205 81.9608 102.212 83.1008L102.216 83.7308L109.026 83.626L108.758 83.9278ZM116.359 96.6281L126.674 68.3598L130.574 68.3342L120.259 96.6025L116.359 96.6281ZM41.4469 134.121C39.8069 134.132 38.4732 133.571 37.4457 132.437C36.4383 131.304 35.9282 129.777 35.9156 127.857L35.8863 123.387C35.8735 121.447 36.3634 119.904 37.3559 118.758C38.3484 117.611 39.6746 117.032 41.3346 117.021C42.6945 117.012 43.7771 117.395 44.5822 118.17C45.3871 118.925 45.794 119.972 45.8028 121.312L44.9571 120.448L45.8271 120.442L45.6813 116.513L45.651 111.893L49.4009 111.868L49.5447 133.768L45.8848 133.792L45.8641 130.642L45.0241 130.647L45.8584 129.772C45.8672 131.112 45.4742 132.175 44.6793 132.96C43.8843 133.725 42.8068 134.112 41.4469 134.121ZM42.7456 130.872C43.7055 130.866 44.4437 130.581 44.96 130.018C45.4962 129.434 45.7609 128.633 45.7542 127.613L45.727 123.473C45.7203 122.453 45.4451 121.664 44.9015 121.108C44.3777 120.531 43.6358 120.246 42.6758 120.253C41.7158 120.259 40.9677 120.544 40.4314 121.107C39.8951 121.671 39.6303 122.473 39.6372 123.513L39.6644 127.653C39.6712 128.693 39.9464 129.491 40.4901 130.047C41.0338 130.604 41.7856 130.879 42.7456 130.872ZM60.8747 133.993C59.4748 134.003 58.253 133.741 57.2095 133.207C56.166 132.674 55.3511 131.93 54.7648 130.973C54.1983 129.997 53.9109 128.859 53.9023 127.559L53.8751 123.419C53.8666 122.119 54.1392 120.987 54.6928 120.024C55.2664 119.04 56.0714 118.275 57.1078 117.728C58.1442 117.181 59.3624 116.903 60.7624 116.894C62.1424 116.885 63.3441 117.147 64.3677 117.68C65.4112 118.213 66.2162 118.968 66.7826 119.944C67.3689 120.9 67.6663 122.029 67.6748 123.329L67.6943 126.298L57.5246 126.365L57.5322 127.535C57.5399 128.695 57.8256 129.573 58.3896 130.17C58.9534 130.746 59.7853 131.03 60.8852 131.023C61.7252 131.018 62.4043 130.873 62.9224 130.59C63.4404 130.286 63.7676 129.854 63.9039 129.293L67.5939 129.269C67.3232 130.691 66.5707 131.836 65.3364 132.704C64.1219 133.552 62.6347 133.982 60.8747 133.993ZM64.0506 124.222L64.0447 123.322C64.0372 122.182 63.7615 121.314 63.2176 120.718C62.6735 120.101 61.8615 119.797 60.7815 119.804C59.7016 119.811 58.8836 120.126 58.3277 120.75C57.7718 121.374 57.4976 122.255 57.5051 123.395L57.5092 124.025L64.3186 123.921L64.0506 124.222ZM78.2024 133.85C76.9425 133.858 75.8412 133.665 74.8986 133.271C73.956 132.877 73.2124 132.332 72.6678 131.636C72.1431 130.919 71.8576 130.081 71.8113 129.121L75.5612 129.097C75.6046 129.617 75.8573 130.035 76.3194 130.352C76.8015 130.669 77.4226 130.825 78.1825 130.82L79.5025 130.811C80.4225 130.805 81.1113 130.62 81.5689 130.257C82.0266 129.894 82.2533 129.403 82.2493 128.783C82.2454 128.203 82.0325 127.754 81.6104 127.437C81.2082 127.1 80.5767 126.884 79.7161 126.789L77.6742 126.503C75.7925 126.255 74.4093 125.764 73.5244 125.03C72.6396 124.296 72.1923 123.189 72.1826 121.709C72.1725 120.169 72.6846 118.976 73.7191 118.129C74.7534 117.262 76.2806 116.822 78.3005 116.809L79.4405 116.801C81.2805 116.789 82.7531 117.189 83.8585 118.002C84.9638 118.815 85.5611 119.911 85.6501 121.29L81.9002 121.315C81.8373 120.875 81.5849 120.517 81.1431 120.24C80.7213 119.963 80.1604 119.826 79.4604 119.831L78.3204 119.839C77.4604 119.844 76.8315 120.008 76.4336 120.331C76.0556 120.633 75.8686 121.085 75.8725 121.685C75.8762 122.245 76.0489 122.663 76.3908 122.941C76.7325 123.199 77.2837 123.385 78.0445 123.5L80.1764 123.786C82.1382 124.054 83.5816 124.574 84.5067 125.348C85.4517 126.102 85.9291 127.229 85.939 128.729C85.9495 130.329 85.4077 131.582 84.3136 132.489C83.2395 133.376 81.6424 133.827 79.5224 133.841L78.2024 133.85ZM90.0987 133.501L90.0762 130.082L95.8361 130.044L95.7725 120.354L90.7626 120.387L90.7403 116.997L99.3501 116.94L99.436 130.02L104.536 129.987L104.558 133.406L90.0987 133.501ZM97.232 114.194C96.472 114.199 95.8708 114.013 95.4283 113.636C94.9857 113.239 94.7622 112.71 94.7579 112.05C94.7536 111.39 94.9701 110.869 95.4076 110.486C95.845 110.083 96.4437 109.879 97.2037 109.874C97.9636 109.869 98.5649 110.065 99.0076 110.462C99.45 110.84 99.6735 111.358 99.6778 112.018C99.6821 112.678 99.4656 113.209 99.0282 113.612C98.5908 113.995 97.992 114.189 97.232 114.194ZM110.402 138.768L110.382 135.648L115.271 135.616C116.111 135.611 116.74 135.396 117.157 134.974C117.575 134.571 117.781 133.99 117.776 133.23L117.768 132L117.807 128.909L116.997 128.915L117.802 128.099C117.811 129.439 117.418 130.492 116.623 131.257C115.848 132.002 114.79 132.379 113.45 132.388C111.77 132.399 110.426 131.838 109.419 130.704C108.432 129.571 107.931 128.034 107.919 126.094L107.898 122.884C107.885 120.964 108.365 119.431 109.337 118.285C110.33 117.138 111.666 116.559 113.346 116.548C114.686 116.54 115.749 116.913 116.534 117.667C117.338 118.402 117.745 119.44 117.754 120.779L116.939 119.975L117.749 119.97L117.638 116.82L121.388 116.796L121.496 133.295C121.507 134.955 120.966 136.269 119.872 137.236C118.779 138.223 117.272 138.723 115.352 138.736L110.402 138.768ZM114.689 129.14C115.649 129.134 116.387 128.849 116.903 128.285C117.439 127.702 117.704 126.9 117.698 125.88L117.679 123C117.672 121.98 117.397 121.192 116.853 120.635C116.329 120.059 115.587 119.774 114.627 119.78C113.667 119.786 112.929 120.071 112.413 120.635C111.897 121.198 111.642 122 111.649 123.04L111.668 125.92C111.674 126.96 111.94 127.758 112.463 128.314C112.987 128.871 113.729 129.146 114.689 129.14ZM126.104 133.265L125.996 116.765L129.656 116.741L129.677 119.891L130.697 119.884L129.682 120.761C129.673 119.401 130.057 118.339 130.832 117.574C131.627 116.808 132.714 116.421 134.094 116.412C135.714 116.401 137.007 116.933 137.975 118.007C138.962 119.08 139.461 120.527 139.473 122.347L139.544 133.177L135.794 133.201L135.726 122.761C135.719 121.762 135.454 120.993 134.931 120.457C134.407 119.92 133.675 119.655 132.735 119.661C131.815 119.667 131.087 119.952 130.551 120.515C130.035 121.079 129.78 121.881 129.787 122.921L129.854 133.24L126.104 133.265Z" fill="#EF6B3A"/>
</svg>
