<svg width="144" height="178" viewBox="0 0 144 178" fill="none" xmlns="http://www.w3.org/2000/svg">
<path d="M3.25 174.5V3L140.75 17.5V170L3.25 174.5Z" fill="#831B0C" stroke="white" stroke-width="5"/>
<path d="M35.9014 99.8124L35.7576 77.9129L39.5075 77.8882L39.5429 83.2881L39.4736 86.4387L40.4936 86.432L39.4793 87.3086C39.4704 85.9487 39.8534 84.8861 40.6284 84.121C41.4234 83.3558 42.5109 82.9686 43.8909 82.9596C45.5108 82.9489 46.8044 83.4804 47.7714 84.5541C48.7585 85.6276 49.258 87.0744 49.27 88.8944L49.3411 99.7241L45.5912 99.7488L45.5226 89.309C45.516 88.309 45.251 87.5407 44.7275 87.0042C44.2039 86.4676 43.4722 86.2024 42.5322 86.2086C41.6122 86.2146 40.8841 86.4994 40.3478 87.0629C39.8314 87.6263 39.5767 88.428 39.5835 89.468L39.6513 99.7878L35.9014 99.8124ZM60.5809 99.9203C59.181 99.9295 57.9593 99.6775 56.9159 99.1644C55.8924 98.6311 55.0874 97.8863 54.5012 96.9302C53.9347 95.9539 53.6472 94.8057 53.6385 93.4858L53.6117 89.4059C53.603 88.0859 53.8755 86.9441 54.4292 85.9804C55.0028 84.9966 55.7978 84.2414 56.8144 83.7147C57.8508 83.1679 59.069 82.8899 60.469 82.8807C61.889 82.8713 63.1107 83.1333 64.1342 83.6666C65.1576 84.1799 65.9525 84.9247 66.519 85.901C67.1053 86.8572 67.4027 87.9852 67.4112 89.2852L67.4382 93.3951C67.4469 94.7151 67.1644 95.867 66.5909 96.8508C66.0372 97.8144 65.2522 98.5696 64.2357 99.1163C63.2192 99.643 62.0009 99.911 60.5809 99.9203ZM60.5594 96.6504C61.5594 96.6438 62.3276 96.3688 62.8641 95.8252C63.4204 95.2615 63.6951 94.4597 63.6883 93.4197L63.6615 89.3398C63.6545 88.2799 63.3693 87.4817 62.8057 86.9454C62.2622 86.409 61.4905 86.144 60.4905 86.1506C59.5105 86.157 58.7423 86.4321 58.1858 86.9758C57.6294 87.5194 57.3547 88.3212 57.3616 89.3812L57.3884 93.4611C57.3953 94.5011 57.6805 95.2993 58.2442 95.8556C58.8077 96.3919 59.5795 96.6568 60.5594 96.6504ZM71.1272 99.581L71.0188 83.0814L74.0788 83.0613L74.0933 85.2812L74.7233 85.2771L74.2169 85.8204C74.2108 84.9004 74.466 84.1588 74.9823 83.5954C75.4986 83.0319 76.1667 82.7476 76.9867 82.7422C77.8667 82.7364 78.5491 83.0919 79.0338 83.8087C79.5385 84.5254 79.7949 85.4938 79.8029 86.7138L79.1332 85.2481L80.1532 85.2414L79.7668 85.784C79.7607 84.864 80.0159 84.1223 80.5322 83.5589C81.0485 82.9955 81.7366 82.711 82.5966 82.7053C83.6166 82.6986 84.4291 83.0733 85.034 83.8293C85.639 84.5854 85.9458 85.6134 85.9543 86.9134L86.0369 99.4831L82.737 99.5048L82.6554 87.085C82.6518 86.545 82.5291 86.1258 82.2871 85.8274C82.045 85.509 81.694 85.3513 81.234 85.3543C80.794 85.3572 80.445 85.5095 80.187 85.8112C79.9489 86.1128 79.8318 86.5436 79.8354 87.1035L79.917 99.5233L77.2171 99.541L77.1355 87.1213C77.1318 86.5613 77.009 86.1321 76.767 85.8337C76.5251 85.5353 76.1741 85.3876 75.7141 85.3906C75.2541 85.3936 74.9051 85.5459 74.6671 85.8475C74.449 86.1489 74.3419 86.5796 74.3456 87.1396L74.4271 99.5593L71.1272 99.581ZM96.5869 99.7138C95.1869 99.723 93.9652 99.461 92.9217 98.9278C91.8781 98.3947 91.0632 97.65 90.4769 96.6939C89.9105 95.7176 89.623 94.5794 89.6145 93.2794L89.5873 89.1395C89.5788 87.8396 89.8513 86.7077 90.405 85.7441C90.9786 84.7603 91.7836 83.995 92.82 83.4482C93.8564 82.9014 95.0746 82.6234 96.4746 82.6142C97.8546 82.6051 99.0563 82.8672 100.08 83.4005C101.123 83.9336 101.928 84.6884 102.495 85.6647C103.081 86.6208 103.378 87.7489 103.387 89.0489L103.407 92.0188L93.2367 92.0856L93.2444 93.2556C93.252 94.4156 93.5378 95.2937 94.1017 95.89C94.6655 96.4663 95.4974 96.7509 96.5974 96.7437C97.4374 96.7381 98.1164 96.5937 98.6346 96.3103C99.1526 96.0069 99.4798 95.5747 99.6161 95.0138L103.306 94.9895C103.035 96.4114 102.283 97.5563 101.049 98.4245C99.8341 99.2724 98.3469 99.7022 96.5869 99.7138ZM99.7628 89.9427L99.7569 89.0427C99.7494 87.9028 99.4737 87.0346 98.9298 86.4381C98.3857 85.8217 97.5737 85.517 96.4937 85.5241C95.4137 85.5312 94.5958 85.8466 94.0399 86.4702C93.4839 87.0939 93.2097 87.9757 93.2172 89.1157L93.2214 89.7457L100.031 89.6409L99.7628 89.9427Z" fill="#EF6B3A"/>
</svg>
