<svg width="110" height="142" viewBox="0 0 110 142" fill="none" xmlns="http://www.w3.org/2000/svg">
<path d="M3 139.5V3L107.5 11V139.5H3Z" fill="#831B0C" stroke="white" stroke-width="5"/>
<path d="M19.7716 80.6346C18.8383 80.6407 18.0171 80.4728 17.3082 80.1308C16.6125 79.7753 16.0693 79.2789 15.6784 78.6415C15.2875 77.9907 15.0891 77.2253 15.0833 76.3453L15.0652 73.5854C15.0593 72.6921 15.2476 71.9241 15.6301 71.2816C16.0125 70.6391 16.5493 70.1422 17.2403 69.791C17.9446 69.4264 18.7634 69.241 19.6967 69.2349C21.0833 69.2258 22.1923 69.5785 23.0237 70.293C23.855 70.9942 24.2947 71.958 24.3427 73.1844L21.8428 73.2008C21.799 72.6278 21.5895 72.1892 21.2141 71.8849C20.852 71.5673 20.351 71.4106 19.711 71.4148C19.0444 71.4192 18.5189 71.6093 18.1347 71.9852C17.7504 72.3477 17.5605 72.869 17.565 73.549L17.5833 76.3289C17.5877 77.0089 17.7845 77.5343 18.1736 77.9051C18.5627 78.2758 19.0906 78.459 19.7573 78.4547C20.3972 78.4505 20.8962 78.2938 21.2542 77.9848C21.6254 77.6624 21.8292 77.2144 21.8654 76.6408L24.3653 76.6244C24.3334 77.8513 23.9065 78.8274 23.0845 79.5528C22.2625 80.2649 21.1582 80.6255 19.7716 80.6346ZM31.7034 80.5362C30.7701 80.5424 29.9556 80.3744 29.26 80.0323C28.5777 79.6767 28.0411 79.1803 27.6502 78.5428C27.2726 77.8919 27.0809 77.1265 27.0751 76.2465L27.0572 73.5266C27.0515 72.6466 27.2331 71.8854 27.6022 71.243C27.9846 70.5871 28.5147 70.0836 29.1924 69.7325C29.8833 69.3679 30.6954 69.1826 31.6288 69.1765C32.5754 69.1703 33.3899 69.3449 34.0723 69.7004C34.7545 70.0426 35.2845 70.5392 35.6621 71.19C36.0529 71.8275 36.2512 72.5795 36.2569 73.4462L36.2749 76.1861C36.2807 77.0661 36.0924 77.834 35.71 78.4899C35.3409 79.1323 34.8175 79.6358 34.1399 80.0002C33.4622 80.3513 32.65 80.53 31.7034 80.5362ZM31.6891 78.3563C32.3557 78.3519 32.8679 78.1685 33.2255 77.8062C33.5964 77.4304 33.7795 76.8959 33.775 76.2025L33.7571 73.4826C33.7525 72.7759 33.5623 72.2438 33.1866 71.8863C32.8242 71.5287 32.3097 71.3521 31.6431 71.3564C30.9898 71.3607 30.4776 71.5441 30.1067 71.9065C29.7357 72.269 29.5525 72.8035 29.5572 73.5102L29.5751 76.2301C29.5796 76.9234 29.7698 77.4555 30.1455 77.8264C30.5212 78.1839 31.0357 78.3606 31.6891 78.3563ZM39.2342 80.3068L39.162 69.307L41.6019 69.291L41.6157 71.3909L42.2957 71.3865L41.6195 71.9709C41.6136 71.0643 41.8689 70.3559 42.3856 69.8458C42.9156 69.3357 43.6406 69.0776 44.5605 69.0715C45.6405 69.0644 46.5029 69.4188 47.1476 70.1346C47.8056 70.8503 48.1386 71.8148 48.1466 73.0281L48.194 80.2479L45.6941 80.2643L45.6484 73.3045C45.644 72.6378 45.4673 72.1256 45.1183 71.7679C44.7692 71.4102 44.2814 71.2334 43.6547 71.2375C43.0414 71.2416 42.556 71.4314 42.1985 71.8071C41.8543 72.1827 41.6844 72.7172 41.689 73.4105L41.7342 80.2903L39.2342 80.3068ZM56.886 80.1908C55.8327 80.1977 55.0041 79.9098 54.4003 79.3271C53.8098 78.7443 53.5112 77.9396 53.5044 76.913L53.4687 71.4731L50.4888 71.4926L50.4739 69.2327L53.4538 69.2131L53.4335 66.1132L55.9534 66.0966L55.9738 69.1966L60.1937 69.1688L60.2085 71.4288L55.9886 71.4565L56.0244 76.8964C56.0289 77.5897 56.3712 77.9341 57.0512 77.9297L60.0511 77.91L60.066 80.1699L56.886 80.1908ZM66.4593 80.3279C65.326 80.3354 64.4307 80.0413 63.7735 79.4456C63.1162 78.8499 62.7843 78.0454 62.7776 77.032C62.7705 75.9521 63.125 75.1164 63.8412 74.525C64.5573 73.9336 65.5753 73.6336 66.8953 73.6249L69.6352 73.6069L69.6291 72.6669C69.6256 72.1336 69.4495 71.7214 69.1009 71.4304C68.7523 71.126 68.2779 70.9758 67.6779 70.9797C67.1313 70.9833 66.6788 71.1063 66.3203 71.3487C65.9619 71.591 65.7507 71.9191 65.6868 72.3328L63.2468 72.3489C63.36 71.3081 63.8212 70.4784 64.6305 69.8597C65.4398 69.2411 66.4778 68.9276 67.7444 68.9192C69.0911 68.9104 70.1533 69.2434 70.931 69.9183C71.7221 70.5798 72.1214 71.4839 72.1289 72.6305L72.1779 80.0904L69.7579 80.1063L69.7453 78.1863L69.3453 78.1889L69.7418 77.6463C69.7471 78.4596 69.4514 79.1083 68.8545 79.5922C68.2577 80.0761 67.4593 80.3214 66.4593 80.3279ZM67.267 78.4426C67.9736 78.4379 68.5457 78.2542 68.9834 77.8913C69.4343 77.5283 69.6579 77.0602 69.6542 76.4869L69.6454 75.1469L66.9454 75.1646C66.4388 75.168 66.0331 75.3173 65.7283 75.6126C65.4236 75.908 65.2728 76.2956 65.276 76.7756C65.2794 77.2956 65.4554 77.7078 65.8041 78.0122C66.166 78.3031 66.6536 78.4466 67.267 78.4426ZM79.7312 80.2408C78.7979 80.2469 77.9768 80.0789 77.2679 79.7369C76.5722 79.3815 76.0289 78.885 75.638 78.2476C75.2471 77.5968 75.0487 76.8314 75.0429 75.9515L75.0248 73.1915C75.0189 72.2982 75.2072 71.5303 75.5897 70.8878C75.9722 70.2452 76.5089 69.7484 77.1999 69.3971C77.9042 69.0325 78.723 68.8471 79.6563 68.841C81.043 68.8319 82.152 69.1846 82.9834 69.8992C83.8147 70.6004 84.2543 71.5642 84.3024 72.7906L81.8024 72.807C81.7587 72.2339 81.5491 71.7953 81.1738 71.4911C80.8117 71.1735 80.3106 71.0167 79.6707 71.0209C79.004 71.0253 78.4786 71.2155 78.0944 71.5913C77.7101 71.9538 77.5202 72.4751 77.5246 73.1551L77.5429 75.935C77.5474 76.615 77.7441 77.1404 78.1333 77.5112C78.5224 77.882 79.0503 78.0652 79.7169 78.0608C80.3569 78.0566 80.8559 77.9 81.2138 77.591C81.5851 77.2685 81.7888 76.8205 81.825 76.2469L84.325 76.2305C84.293 77.4574 83.8661 78.4336 83.0442 79.159C82.2222 79.871 81.1179 80.2316 79.7312 80.2408ZM92.8618 79.9545C91.8085 79.9614 90.9799 79.6735 90.3761 79.0908C89.7856 78.508 89.487 77.7033 89.4802 76.6766L89.4445 71.2368L86.4645 71.2563L86.4497 68.9964L89.4296 68.9768L89.4093 65.8769L91.9292 65.8603L91.9496 68.9602L96.1695 68.9325L96.1843 71.1925L91.9644 71.2202L92.0002 76.6601C92.0047 77.3534 92.347 77.6978 93.027 77.6934L96.0269 77.6737L96.0417 79.9336L92.8618 79.9545Z" fill="#EF6B3A"/>
</svg>
