<svg width="121" height="162" viewBox="0 0 121 162" fill="none" xmlns="http://www.w3.org/2000/svg">
<path d="M5.5 158.5L3 3L118 14.5V155.5L5.5 158.5Z" fill="#831B0C" stroke="white" stroke-width="5"/>
<path d="M17.2293 92.1997L17.1209 75.7001L20.1808 75.68L20.1954 77.8999L20.8254 77.8958L20.3189 78.4391C20.3129 77.5191 20.568 76.7774 21.0843 76.214C21.6006 75.6506 22.2688 75.3662 23.0888 75.3609C23.9688 75.3551 24.6511 75.7106 25.1358 76.4274C25.6405 77.1441 25.8969 78.1125 25.9049 79.3324L25.2353 77.8668L26.2553 77.8601L25.8688 78.4027C25.8628 77.4827 26.1179 76.741 26.6342 76.1776C27.1505 75.6142 27.8387 75.3297 28.6987 75.324C29.7186 75.3173 30.5311 75.692 31.1361 76.448C31.7411 77.2041 32.0478 78.2321 32.0564 79.532L32.1389 92.1018L28.839 92.1235L28.7574 79.7037C28.7539 79.1637 28.6311 78.7445 28.3892 78.4461C28.1471 78.1277 27.796 77.97 27.336 77.973C26.896 77.9759 26.547 78.1282 26.289 78.4299C26.051 78.7315 25.9338 79.1623 25.9375 79.7222L26.0191 92.142L23.3191 92.1597L23.2375 79.74C23.2339 79.18 23.111 78.7508 22.8691 78.4524C22.6271 78.154 22.2761 78.0063 21.8161 78.0093C21.3562 78.0123 21.0071 78.1646 20.7691 78.4662C20.5511 78.7676 20.4439 79.1983 20.4476 79.7583L20.5292 92.178L17.2293 92.1997ZM42.659 92.3327C40.559 92.3465 38.9052 91.7773 37.6976 90.6252C36.4899 89.4531 35.8794 87.8571 35.8661 85.8372L35.7988 75.5774L39.5487 75.5527L39.6159 85.7825C39.6228 86.8425 39.8882 87.6608 40.412 88.2373C40.9357 88.7939 41.6775 89.0691 42.6375 89.0627C43.5775 89.0566 44.3056 88.7718 44.8219 88.2084C45.3581 87.6248 45.6227 86.8031 45.6157 85.7431L45.5485 75.5133L49.2985 75.4887L49.3659 85.7485C49.3791 87.7684 48.7796 89.3724 47.5674 90.5604C46.3551 91.7284 44.7189 92.3191 42.659 92.3327ZM60.0167 92.1887C58.7567 92.1969 57.6554 92.0042 56.7128 91.6103C55.7702 91.2165 55.0266 90.6714 54.482 89.975C53.9573 89.2584 53.6718 88.4203 53.6255 87.4605L57.3754 87.4359C57.4188 87.9556 57.6716 88.374 58.1337 88.691C58.6157 89.0078 59.2368 89.1637 59.9968 89.1587L61.3167 89.1501C62.2367 89.144 62.9255 88.9595 63.3831 88.5965C63.8408 88.2335 64.0675 87.742 64.0635 87.122C64.0597 86.542 63.8467 86.0934 63.4246 85.7761C63.0224 85.4388 62.391 85.2229 61.5303 85.1286L59.4884 84.842C57.6067 84.5943 56.2235 84.1034 55.3386 83.3692C54.4538 82.635 54.0065 81.5279 53.9968 80.0479C53.9867 78.508 54.4988 77.3146 55.5333 76.4678C56.5676 75.601 58.0948 75.1609 60.1147 75.1476L61.2547 75.1402C63.0947 75.1281 64.5673 75.5284 65.6727 76.3412C66.7781 77.1539 67.3753 78.25 67.4643 79.6295L63.7144 79.6541C63.6515 79.2145 63.3992 78.8562 62.9573 78.579C62.5355 78.3018 61.9746 78.1655 61.2746 78.1701L60.1346 78.1776C59.2747 78.1832 58.6457 78.3474 58.2478 78.67C57.8698 78.9725 57.6828 79.4237 57.6867 80.0237C57.6904 80.5837 57.8631 81.0026 58.205 81.2803C58.5467 81.5381 59.0979 81.7245 59.8587 81.8395L61.9906 82.1255C63.9524 82.3926 65.3959 82.9131 66.321 83.6871C67.2659 84.4409 67.7433 85.5678 67.7532 87.0677C67.7637 88.6677 67.2219 89.9213 66.1279 90.8285C65.0537 91.7156 63.4566 92.1661 61.3366 92.18L60.0167 92.1887ZM71.9129 91.8405L71.8905 88.4206L77.6503 88.3827L77.5867 78.693L72.5768 78.7259L72.5545 75.3359L81.1643 75.2794L81.2503 88.3591L86.3501 88.3256L86.3726 91.7455L71.9129 91.8405ZM79.0463 72.5332C78.2863 72.5382 77.685 72.3522 77.2425 71.9751C76.7999 71.578 76.5765 71.0494 76.5721 70.3894C76.5678 69.7295 76.7844 69.208 77.2219 68.8251C77.6592 68.4223 78.2579 68.2183 79.0179 68.2133C79.7779 68.2083 80.3792 68.4044 80.8218 68.8015C81.2643 69.1786 81.4877 69.6971 81.492 70.3571C81.4963 71.0171 81.2798 71.5485 80.8425 71.9514C80.405 72.3343 79.8062 72.5282 79.0463 72.5332ZM96.7126 91.9776C95.3127 91.9868 94.081 91.7349 93.0176 91.2219C91.9741 90.6887 91.1592 89.944 90.5729 88.9879C89.9864 88.0117 89.6889 86.8636 89.6802 85.5437L89.653 81.4038C89.6442 80.0638 89.9267 78.9119 90.5003 77.9481C91.074 76.9843 91.8792 76.239 92.9157 75.7122C93.9721 75.1652 95.2003 74.8872 96.6003 74.878C98.6803 74.8643 100.344 75.3934 101.591 76.4652C102.838 77.5171 103.497 78.9628 103.569 80.8023L99.8195 80.827C99.7538 79.9674 99.4395 79.3094 98.8765 78.8531C98.3333 78.3767 97.5818 78.1416 96.6218 78.1479C95.6218 78.1545 94.8337 78.4397 94.2574 79.0035C93.6809 79.5473 93.396 80.3291 93.4027 81.3491L93.4301 85.519C93.4368 86.539 93.732 87.3271 94.3157 87.8833C94.8994 88.4394 95.6912 88.7143 96.6912 88.7077C97.6511 88.7014 98.3996 88.4665 98.9366 88.0029C99.4934 87.5192 99.799 86.8472 99.8534 85.9869L103.603 85.9622C103.555 87.8026 102.915 89.2668 101.682 90.3549C100.449 91.4231 98.7926 91.9639 96.7126 91.9776Z" fill="#EF6B3A"/>
</svg>
