<svg width="260" height="232" viewBox="0 0 260 232" fill="none" xmlns="http://www.w3.org/2000/svg">
<path d="M65.5 25L29.5 19.5L3.5 182L231 228.5L257 52.5L231 48L233 25L201.5 22L198.5 44.5L98 29.5L100.5 7.5L68.5 3L65.5 25Z" fill="#1B201B" stroke="white" stroke-width="5"/>
<path d="M40.8387 123.727L41.3135 120.28L45.6823 120.881C46.673 121.018 47.4726 120.855 48.0812 120.394C48.6898 119.933 49.061 119.217 49.1947 118.246L50.8115 106.507L44.2435 105.602L44.7183 102.155L55.0012 103.571L52.8974 118.847C52.6245 120.828 51.8145 122.311 50.4675 123.297C49.1205 124.282 47.4365 124.636 45.4155 124.357L40.8387 123.727ZM53.3865 100.562C52.6337 100.459 52.0652 100.189 51.6811 99.7522C51.2998 99.2959 51.1542 98.7409 51.2442 98.087C51.3343 97.4332 51.6232 96.9481 52.1109 96.6317C52.6014 96.2954 53.223 96.1792 53.9759 96.2829C54.7288 96.3865 55.2959 96.6665 55.6772 97.1228C56.0613 97.5593 56.2083 98.1045 56.1182 98.7583C56.0282 99.4121 55.7379 99.9071 55.2475 100.243C54.7597 100.56 54.1394 100.666 53.3865 100.562ZM65.8376 121.992C64.4507 121.801 63.2775 121.377 62.3182 120.72C61.3814 120.045 60.6912 119.193 60.2476 118.163C59.8266 117.116 59.7061 115.938 59.8862 114.631L60.4428 110.589C60.6229 109.281 61.0559 108.19 61.7416 107.316C62.4499 106.424 63.3447 105.79 64.4261 105.414C65.5301 105.021 66.7755 104.92 68.1624 105.111C69.5691 105.305 70.7409 105.739 71.6777 106.413C72.6172 107.067 73.2975 107.918 73.7185 108.965C74.1621 109.995 74.2953 111.154 74.1179 112.442L73.5572 116.514C73.3771 117.821 72.9329 118.921 72.2246 119.813C71.5388 120.687 70.6539 121.322 69.5698 121.718C68.4884 122.094 67.2443 122.185 65.8376 121.992ZM66.2837 118.752C67.2744 118.889 68.074 118.726 68.6826 118.265C69.3138 117.787 69.7003 117.032 69.8422 116.002L70.3989 111.96C70.5435 110.91 70.3753 110.079 69.8942 109.468C69.4329 108.859 68.7069 108.487 67.7163 108.35C66.7454 108.217 65.9458 108.379 65.3174 108.838C64.6889 109.296 64.3024 110.05 64.1578 111.101L63.6011 115.142C63.4592 116.173 63.6275 117.003 64.1058 117.635C64.5869 118.246 65.3129 118.618 66.2837 118.752ZM83.6536 124.476C81.5732 124.189 80.0178 123.389 78.9872 122.076C77.9595 120.744 77.5834 119.077 77.859 117.076L79.2588 106.912L82.9737 107.423L81.578 117.558C81.4334 118.608 81.5791 119.456 82.0151 120.101C82.4538 120.727 83.1487 121.105 84.0997 121.236C85.0309 121.364 85.7923 121.187 86.3838 120.703C86.9979 120.202 87.3773 119.426 87.5219 118.376L88.9176 108.242L92.6325 108.754L91.2327 118.918C90.9571 120.919 90.1345 122.421 88.7649 123.423C87.3981 124.406 85.6943 124.757 83.6536 124.476ZM95.3923 125.789L97.6435 109.444L101.15 109.927L100.721 113.047L101.642 113.174L100.28 114.925C100.523 113.161 101.102 111.888 102.018 111.106C102.933 110.324 104.163 110.039 105.709 110.252C107.472 110.494 108.784 111.23 109.644 112.459C110.505 113.688 110.803 115.263 110.538 117.185L110.374 118.374L106.481 117.838L106.608 116.917C106.752 115.867 106.587 115.016 106.111 114.365C105.655 113.717 104.952 113.327 104.001 113.196C103.03 113.062 102.238 113.246 101.624 113.747C101.029 114.251 100.66 115.027 100.515 116.078L99.1073 126.301L95.3923 125.789ZM112.707 128.174L114.958 111.828L118.584 112.328L118.154 115.448L119.165 115.587L118.036 116.31C118.221 114.963 118.752 113.966 119.629 113.319C120.525 112.676 121.656 112.448 123.024 112.636C124.628 112.857 125.833 113.568 126.636 114.769C127.46 115.973 127.747 117.476 127.499 119.279L126.022 130.008L122.307 129.496L123.731 119.154C123.867 118.163 123.715 117.365 123.273 116.759C122.832 116.153 122.146 115.786 121.214 115.658C120.303 115.532 119.542 115.71 118.93 116.191C118.339 116.675 117.972 117.432 117.83 118.462L116.422 128.686L112.707 128.174ZM135.301 131.589C133.617 131.357 132.351 130.728 131.503 129.703C130.655 128.677 130.334 127.412 130.542 125.906C130.763 124.301 131.468 123.137 132.658 122.412C133.848 121.688 135.424 121.461 137.385 121.731L141.457 122.291L141.649 120.895C141.758 120.102 141.585 119.452 141.13 118.946C140.678 118.419 140.006 118.094 139.114 117.972C138.302 117.86 137.604 117.945 137.02 118.228C136.436 118.511 136.052 118.953 135.868 119.553L132.242 119.054C132.634 117.533 133.496 116.4 134.83 115.655C136.164 114.91 137.773 114.668 139.655 114.927C141.656 115.202 143.162 115.925 144.171 117.093C145.204 118.245 145.603 119.673 145.368 121.377L143.842 132.462L140.246 131.967L140.638 129.114L140.044 129.032L140.749 128.311C140.583 129.52 140.004 130.419 139.015 131.01C138.025 131.6 136.787 131.793 135.301 131.589ZM136.904 128.963C137.954 129.107 138.843 128.957 139.571 128.512C140.318 128.07 140.75 127.423 140.867 126.571L141.142 124.58L137.13 124.027C136.377 123.924 135.742 124.058 135.227 124.431C134.711 124.805 134.404 125.348 134.306 126.061C134.199 126.834 134.372 127.483 134.825 128.01C135.3 128.52 135.993 128.837 136.904 128.963ZM157.471 134.339C156.401 134.192 155.49 133.844 154.738 133.296C154.005 132.751 153.466 132.051 153.119 131.196C152.776 130.321 152.676 129.358 152.821 128.308L154.617 115.261L149.387 114.541L149.849 111.183L158.795 112.415L156.535 128.82C156.454 129.414 156.557 129.913 156.844 130.316C157.154 130.702 157.607 130.936 158.201 131.018L163.135 131.697L162.672 135.055L157.471 134.339ZM166.138 135.533L166.604 132.145L172.31 132.93L173.632 123.331L168.669 122.648L169.132 119.289L177.661 120.464L175.877 133.422L180.929 134.117L180.462 137.505L166.138 135.533ZM175.958 117.443C175.205 117.34 174.636 117.069 174.252 116.633C173.871 116.177 173.725 115.622 173.815 114.968C173.905 114.314 174.194 113.829 174.682 113.512C175.172 113.176 175.794 113.06 176.547 113.164C177.3 113.267 177.867 113.547 178.248 114.004C178.632 114.44 178.779 114.985 178.689 115.639C178.599 116.293 178.309 116.788 177.818 117.124C177.331 117.441 176.71 117.547 175.958 117.443ZM189.954 139.085C188.706 138.913 187.643 138.565 186.767 138.041C185.89 137.516 185.232 136.87 184.793 136.103C184.376 135.319 184.213 134.449 184.304 133.492L188.019 134.004C187.988 134.524 188.178 134.975 188.59 135.354C189.022 135.737 189.614 135.98 190.367 136.084L191.675 136.264C192.586 136.389 193.295 136.305 193.799 136.011C194.304 135.717 194.599 135.263 194.683 134.649C194.763 134.074 194.616 133.6 194.244 133.226C193.894 132.834 193.3 132.53 192.461 132.314L190.481 131.738C188.654 131.224 187.355 130.541 186.585 129.688C185.814 128.835 185.529 127.675 185.731 126.209C185.941 124.683 186.619 123.575 187.764 122.885C188.911 122.175 190.486 121.958 192.487 122.233L193.616 122.389C195.439 122.64 196.839 123.247 197.817 124.209C198.795 125.171 199.229 126.342 199.12 127.72L195.405 127.208C195.406 126.764 195.207 126.373 194.81 126.036C194.432 125.701 193.896 125.486 193.203 125.39L192.073 125.235C191.222 125.118 190.576 125.19 190.136 125.453C189.718 125.698 189.469 126.118 189.387 126.712C189.31 127.267 189.422 127.706 189.72 128.03C190.021 128.334 190.54 128.597 191.277 128.82L193.346 129.408C195.25 129.952 196.604 130.674 197.409 131.572C198.236 132.453 198.548 133.637 198.343 135.123C198.125 136.708 197.409 137.871 196.197 138.613C195.007 139.337 193.362 139.555 191.262 139.265L189.954 139.085ZM201.065 140.343L203.316 123.997L206.347 124.415L206.044 126.614L206.668 126.7L206.089 127.165C206.215 126.254 206.573 125.556 207.165 125.072C207.757 124.589 208.459 124.403 209.271 124.514C210.143 124.635 210.767 125.084 211.144 125.863C211.542 126.644 211.657 127.639 211.49 128.848L211.037 127.302L212.048 127.441L211.588 127.922C211.713 127.011 212.072 126.313 212.663 125.83C213.255 125.346 213.976 125.163 214.828 125.28C215.839 125.419 216.589 125.906 217.08 126.741C217.571 127.575 217.727 128.637 217.55 129.925L215.835 142.377L212.566 141.927L214.261 129.623C214.334 129.088 214.273 128.656 214.076 128.326C213.882 127.976 213.557 127.77 213.101 127.707C212.665 127.647 212.298 127.748 212 128.009C211.721 128.274 211.543 128.683 211.467 129.238L209.772 141.542L207.098 141.174L208.792 128.87C208.869 128.315 208.808 127.873 208.612 127.543C208.415 127.213 208.088 127.017 207.633 126.954C207.177 126.891 206.81 126.992 206.531 127.256C206.272 127.523 206.105 127.934 206.028 128.489L204.334 140.793L201.065 140.343Z" fill="#EF6B3A"/>
</svg>
