<svg width="191" height="198" viewBox="0 0 191 198" fill="none" xmlns="http://www.w3.org/2000/svg">
<g filter="url(#filter0_d_142_6)">
<path d="M7 152L32 3L184 25L163 186.5L7 152Z" fill="#1B201B" stroke="white" stroke-width="5"/>
<path d="M35.1256 71.9718C33.7408 71.7658 32.5625 71.3277 31.5905 70.6574C30.6413 69.9702 29.9505 69.1092 29.518 68.0743C29.0886 67.0196 28.9709 65.8395 29.1652 64.5338L29.7743 60.4389C29.9715 59.1135 30.4276 58.0187 31.1425 57.1545C31.8574 56.2903 32.7675 55.6775 33.8727 55.3162C35.0006 54.938 36.257 54.852 37.6417 55.058C39.6991 55.364 41.2616 56.1424 42.3292 57.3931C43.3997 58.624 43.8293 60.1539 43.6179 61.9827L39.9087 61.4309C39.9759 60.5714 39.7664 59.873 39.2801 59.3356C38.8166 58.7814 38.1101 58.4336 37.1606 58.2924C36.1715 58.1452 35.3489 58.3059 34.6928 58.7745C34.0396 59.2233 33.638 59.9521 33.4879 60.961L32.8743 65.0856C32.7243 66.0945 32.8949 66.9186 33.3861 67.5579C33.8774 68.1971 34.6176 68.5903 35.6067 68.7374C36.5563 68.8787 37.332 68.7616 37.9338 68.386C38.5583 67.9936 38.9635 67.3766 39.1494 66.5347L42.8586 67.0865C42.5285 68.8977 41.6707 70.2461 40.2853 71.1319C38.9029 71.9979 37.1829 72.2779 35.1256 71.9718ZM46.7605 73.3994L49.1883 57.079L52.6898 57.5999L52.2263 60.7156L53.1462 60.8524L51.7657 62.5882C52.0276 60.8276 52.6205 59.561 53.5442 58.7885C54.4679 58.016 55.7013 57.7446 57.2443 57.9741C59.0049 58.236 60.3088 58.986 61.1558 60.2241C62.0028 61.4623 62.2836 63.0408 61.9982 64.9596L61.8216 66.1466L57.9344 65.5683L58.0712 64.6484C58.2272 63.6 58.0709 62.7477 57.6023 62.0916C57.1536 61.4385 56.4544 61.0413 55.5048 60.9C54.5355 60.7558 53.7411 60.9308 53.1216 61.425C52.522 61.9222 52.1441 62.695 51.9882 63.7435L50.4696 73.9512L46.7605 73.3994ZM70.6512 77.2567C69.2664 77.0507 68.0994 76.6042 67.1502 75.917C66.201 75.2299 65.5102 74.3688 65.0777 73.3339C64.668 72.2822 64.5588 71.1134 64.7501 69.8276L65.3593 65.7326C65.5506 64.4468 65.9938 63.3703 66.689 62.5031C67.4069 61.6191 68.3199 60.9866 69.428 60.6055C70.5361 60.2244 71.7826 60.1369 73.1674 60.3429C74.5323 60.5459 75.6795 60.9896 76.609 61.6738C77.5582 62.3609 78.2377 63.2304 78.6474 64.2821C79.0798 65.317 79.2004 66.4774 79.0091 67.7632L78.5721 70.7009L68.5128 69.2044L68.3406 70.3617C68.1699 71.5091 68.3174 72.4207 68.783 73.0966C69.2516 73.7526 70.0299 74.1616 71.1179 74.3235C71.9487 74.4471 72.6419 74.4087 73.1975 74.2082C73.756 73.988 74.1456 73.6112 74.3665 73.0779L78.0164 73.6209C77.5305 74.9842 76.611 76 75.2579 76.6682C73.9276 77.3195 72.392 77.5157 70.6512 77.2567ZM75.2906 68.0896L75.423 67.1994C75.5908 66.0718 75.4517 65.1715 75.0059 64.4986C74.563 63.8059 73.8074 63.3801 72.7392 63.2212C71.6709 63.0623 70.8142 63.2482 70.1691 63.7791C69.524 64.3099 69.1175 65.1392 68.9498 66.2668L68.8571 66.8899L75.6018 67.8326L75.2906 68.0896ZM86.6039 79.6299C84.9224 79.3798 83.6632 78.7375 82.8263 77.7031C81.9894 76.6687 81.6828 75.3997 81.9065 73.8963C82.1448 72.2939 82.8629 71.137 84.0606 70.4255C85.2583 69.714 86.8364 69.5039 88.7949 69.7952L92.8601 70.4L93.0676 69.0053C93.1853 68.2141 93.0194 67.5625 92.5698 67.0508C92.1231 66.5193 91.4547 66.1873 90.5645 66.0549C89.7534 65.9343 89.0543 66.0122 88.4673 66.2889C87.8802 66.5655 87.4915 67.0031 87.3014 67.6016L83.6812 67.0631C84.0888 65.5465 84.9637 64.423 86.3058 63.6926C87.6478 62.9621 89.2586 62.7366 91.1379 63.0162C93.1359 63.3134 94.6335 64.0518 95.6308 65.2314C96.6508 66.3942 97.0343 67.8262 96.7812 69.5275L95.1347 80.5957L91.5442 80.0615L91.968 77.2129L91.3745 77.1246L92.0871 76.4117C91.9076 77.6184 91.3198 78.5116 90.3237 79.0914C89.3275 79.6711 88.0876 79.8506 86.6039 79.6299ZM88.2355 77.0216C89.2839 77.1776 90.1743 77.037 90.9066 76.6C91.6586 76.166 92.0979 75.5236 92.2245 74.673L92.5202 72.6849L88.5143 72.0889C87.7626 71.9771 87.1269 72.1049 86.6071 72.4725C86.0874 72.84 85.7746 73.3798 85.6686 74.092C85.5538 74.8635 85.7198 75.515 86.1664 76.0465C86.6358 76.5612 87.3255 76.8862 88.2355 77.0216ZM108.031 82.5142C106.468 82.2817 105.306 81.664 104.546 80.6611C103.805 79.6612 103.548 78.3997 103.774 76.8764L104.975 68.8053L100.554 68.1475L101.052 64.7944L105.474 65.4522L106.158 60.8528L109.897 61.409L109.213 66.0084L115.474 66.9398L114.975 70.2929L108.714 69.3615L107.513 77.4326C107.36 78.4613 107.788 79.0507 108.797 79.2008L113.248 79.8629L112.749 83.216L108.031 82.5142ZM117.396 83.9073L117.899 80.5246L123.597 81.3721L125.023 71.7876L120.067 71.0504L120.566 67.6973L129.082 68.9642L127.158 81.9018L132.202 82.6523L131.699 86.035L117.396 83.9073ZM127.411 65.9253C126.659 65.8134 126.094 65.5372 125.715 65.0966C125.338 64.6362 125.199 64.0796 125.296 63.4268C125.393 62.774 125.687 62.292 126.178 61.9809C126.672 61.65 127.295 61.5404 128.047 61.6523C128.799 61.7641 129.363 62.0502 129.739 62.5106C130.118 62.9512 130.259 63.4979 130.162 64.1507C130.065 64.8036 129.77 65.2954 129.275 65.6263C128.784 65.9374 128.163 66.0371 127.411 65.9253ZM139.462 87.1899L136.519 70.0705L140.317 70.6355L141.958 81.0099C142.048 81.6299 142.125 82.2682 142.189 82.9247C142.273 83.5843 142.326 84.1078 142.35 84.4955C142.504 84.1343 142.708 83.649 142.961 83.0395C143.213 82.43 143.461 81.8502 143.705 81.3001L148.24 71.8141L152.008 72.3747L144.239 87.9006L139.462 87.1899ZM159.614 90.491C158.229 90.285 157.062 89.8384 156.113 89.1513C155.163 88.4641 154.473 87.6031 154.04 86.5682C153.63 85.5165 153.521 84.3477 153.713 83.0618L154.322 78.9669C154.513 77.6811 154.956 76.6046 155.651 75.7374C156.369 74.8534 157.282 74.2209 158.39 73.8398C159.499 73.4587 160.745 73.3711 162.13 73.5771C163.495 73.7802 164.642 74.2238 165.571 74.908C166.521 75.5952 167.2 76.4646 167.61 77.5164C168.042 78.5513 168.163 79.7116 167.971 80.9975L167.534 83.9352L157.475 82.4387L157.303 83.596C157.132 84.7434 157.28 85.655 157.745 86.3308C158.214 86.9869 158.992 87.3959 160.08 87.5578C160.911 87.6814 161.604 87.6429 162.16 87.4425C162.718 87.2223 163.108 86.8455 163.329 86.3122L166.979 86.8552C166.493 88.2185 165.573 89.2343 164.22 89.9025C162.89 90.5538 161.354 90.75 159.614 90.491ZM164.253 81.3239L164.385 80.4337C164.553 79.3061 164.414 78.4058 163.968 77.7329C163.525 77.0402 162.77 76.6144 161.702 76.4555C160.633 76.2966 159.777 76.4825 159.132 77.0134C158.486 77.5442 158.08 78.3734 157.912 79.501L157.819 80.1242L164.564 81.0669L164.253 81.3239ZM32.2752 111.685L32.2105 94.9935L35.2965 95.4526L35.1739 105.656C35.1677 106.241 35.1428 106.884 35.0991 107.586C35.0752 108.29 35.0492 108.872 35.0211 109.333C35.1481 108.887 35.3126 108.325 35.5145 107.647C35.7164 106.97 35.8996 106.35 36.0641 105.788L39.0947 96.0176L41.9731 96.4458L41.9988 106.671C41.9926 107.256 41.986 107.913 41.9789 108.639C41.9748 109.346 41.9686 109.932 41.9603 110.396C42.0705 109.927 42.2166 109.352 42.3988 108.672C42.6036 107.974 42.7769 107.353 42.9187 106.808L45.8603 97.0241L48.8276 97.4655L43.8479 113.406L40.02 112.837L40.0921 102.566C40.0954 102 40.0976 101.373 40.0987 100.686C40.1028 99.9791 40.1076 99.4035 40.113 98.9595C39.9889 99.3858 39.8259 99.9379 39.624 100.616C39.4448 101.276 39.2645 101.876 39.0832 102.416L36.1031 112.254L32.2752 111.685ZM49.771 114.287L52.1988 97.967L55.7003 98.4879L55.2368 101.604L56.1567 101.74L54.7762 103.476C55.0381 101.716 55.631 100.449 56.5547 99.6766C57.4784 98.9041 58.7118 98.6326 60.2548 98.8621C62.0154 99.1241 63.3193 99.8741 64.1663 101.112C65.0133 102.35 65.2941 103.929 65.0087 105.848L64.8321 107.035L60.9449 106.456L61.0817 105.536C61.2377 104.488 61.0814 103.636 60.6128 102.98C60.1641 102.326 59.4649 101.929 58.5153 101.788C57.546 101.644 56.7516 101.819 56.1321 102.313C55.5325 102.81 55.1546 103.583 54.9987 104.632L53.4801 114.839L49.771 114.287ZM67.0293 116.855L67.5325 113.472L73.2299 114.32L74.6557 104.735L69.7002 103.998L70.199 100.645L78.7153 101.912L76.7907 114.849L81.8352 115.6L81.3319 118.983L67.0293 116.855ZM77.0443 98.8727C76.2925 98.7609 75.727 98.4847 75.3477 98.0441C74.9714 97.5837 74.8318 97.0271 74.9289 96.3743C75.026 95.7214 75.3201 95.2395 75.8112 94.9283C76.3053 94.5974 76.9282 94.4879 77.6799 94.5997C78.4317 94.7116 78.9957 94.9977 79.3721 95.4581C79.7514 95.8987 79.8924 96.4454 79.7953 97.0982C79.6982 97.751 79.4026 98.2429 78.9086 98.5738C78.4174 98.8849 77.796 98.9845 77.0443 98.8727ZM93.2491 120.755C91.6863 120.523 90.5245 119.905 89.7638 118.902C89.0228 117.902 88.7657 116.641 88.9923 115.118L90.193 107.046L85.7716 106.389L86.2704 103.036L90.6918 103.693L91.376 99.0939L95.1149 99.6501L94.4306 104.25L100.692 105.181L100.193 108.534L93.9318 107.603L92.7311 115.674C92.5781 116.702 93.006 117.292 94.0149 117.442L98.466 118.104L97.9671 121.457L93.2491 120.755ZM102.614 122.149L103.118 118.766L108.815 119.613L110.241 110.029L105.285 109.292L105.784 105.938L114.3 107.205L112.376 120.143L117.42 120.893L116.917 124.276L102.614 122.149ZM112.629 104.166C111.878 104.055 111.312 103.778 110.933 103.338C110.556 102.877 110.417 102.321 110.514 101.668C110.611 101.015 110.905 100.533 111.396 100.222C111.89 99.8912 112.513 99.7816 113.265 99.8935C114.017 100.005 114.581 100.291 114.957 100.752C115.336 101.192 115.477 101.739 115.38 102.392C115.283 103.045 114.988 103.537 114.494 103.867C114.002 104.179 113.381 104.278 112.629 104.166ZM120.436 124.8L122.864 108.479L126.484 109.018L126.021 112.134L127.03 112.284L125.893 112.994C126.093 111.649 126.635 110.658 127.518 110.021C128.421 109.387 129.555 109.171 130.92 109.375C132.523 109.613 133.719 110.337 134.51 111.546C135.32 112.759 135.592 114.265 135.324 116.065L133.73 126.777L130.021 126.226L131.557 115.899C131.704 114.91 131.56 114.11 131.126 113.5C130.691 112.889 130.008 112.515 129.079 112.376C128.169 112.241 127.405 112.41 126.789 112.885C126.192 113.362 125.817 114.115 125.664 115.144L124.146 125.352L120.436 124.8ZM139.66 133.119L140.119 130.033L144.956 130.752C145.787 130.876 146.441 130.761 146.918 130.407C147.392 130.074 147.685 129.531 147.797 128.779L147.978 127.562L148.492 124.515L147.691 124.396L148.611 123.714C148.414 125.039 147.864 126.019 146.961 126.653C146.08 127.27 144.977 127.48 143.652 127.283C141.99 127.036 140.749 126.275 139.927 125C139.126 123.728 138.868 122.133 139.153 120.214L139.626 117.039C139.908 115.14 140.618 113.699 141.755 112.715C142.912 111.735 144.321 111.368 145.983 111.615C147.308 111.812 148.301 112.344 148.96 113.211C149.643 114.06 149.885 115.148 149.688 116.473L149.006 115.553L149.807 115.672L150.182 112.543L153.891 113.095L151.463 129.415C151.219 131.057 150.482 132.272 149.253 133.06C148.021 133.867 146.455 134.13 144.556 133.847L139.66 133.119ZM145.375 124.264C146.325 124.405 147.098 124.237 147.695 123.759C148.314 123.265 148.699 122.514 148.849 121.505L149.273 118.656C149.423 117.647 149.272 116.826 148.82 116.193C148.391 115.542 147.702 115.147 146.752 115.005C145.803 114.864 145.03 115.032 144.433 115.51C143.836 115.987 143.461 116.74 143.308 117.769L142.884 120.617C142.731 121.646 142.871 122.476 143.303 123.106C143.735 123.736 144.426 124.122 145.375 124.264Z" fill="#EF6B3A"/>
</g>
<defs>
<filter id="filter0_d_142_6" x="0.141602" y="0.175537" width="190.655" height="197.355" filterUnits="userSpaceOnUse" color-interpolation-filters="sRGB">
<feFlood flood-opacity="0" result="BackgroundImageFix"/>
<feColorMatrix in="SourceAlpha" type="matrix" values="0 0 0 0 0 0 0 0 0 0 0 0 0 0 0 0 0 0 127 0" result="hardAlpha"/>
<feOffset dy="4"/>
<feGaussianBlur stdDeviation="2"/>
<feComposite in2="hardAlpha" operator="out"/>
<feColorMatrix type="matrix" values="0 0 0 0 0 0 0 0 0 0 0 0 0 0 0 0 0 0 0.25 0"/>
<feBlend mode="normal" in2="BackgroundImageFix" result="effect1_dropShadow_142_6"/>
<feBlend mode="normal" in="SourceGraphic" in2="effect1_dropShadow_142_6" result="shape"/>
</filter>
</defs>
</svg>
