<svg width="324" height="249" viewBox="0 0 324 249" fill="none" xmlns="http://www.w3.org/2000/svg">
<path d="M33.0272 81.3791L18.033 77.6259L5.66182 75.4475L11.8351 75.0713L23.4094 75.605L35.2412 75.71L46.8156 76.2437L58.7248 75.229L71.4309 75.8589L64.7958 73.0418L59.1901 68.5101L53.7396 61.7386L49.2409 54.3723L48.7543 48.2483L53.2564 45.7025L61.6683 42.5881L69.2306 41.8795L77.4874 41.0046L85.6914 44.1804L92.8907 52.0016L100.707 60.7765L108.164 68.169L117.344 73.6807L128.249 77.3114L140.902 81.9919L150.932 85.0977L162.429 86.7512L185.423 90.0583L203.117 94.2664L216.645 99.4718L225.826 104.983L236.342 114.213L247.117 123.014L254.573 130.407L263.778 138.849L274.81 147.222L285.302 153.521L297.441 159.059L307.985 161.307L312.202 166.171L317.55 171.132L309.114 171.315L301.037 172.881L292.188 175.733L280.74 179.941L269.603 179.67L273.382 184.272L279.013 191.734L285.697 200.413L296.549 208.094L292.484 210.903L279.161 209.319L265.838 207.736L254.316 203.151L239.915 197.421L216.642 181.7L194.861 167.457L176.86 157.816L162.817 153.468L148.98 152.742L133.238 153.205L113.46 149.496L101.423 145.769L88.7455 138.158L78.6906 132.121L71.1317 122.917L62.8536 110.949L55.1925 99.9349L49.2025 91.0901L41.6683 84.8173L33.0272 81.3791Z" fill="#F7606F" stroke="white" stroke-width="5"/>
<path d="M109.32 82.4923L109.709 82.6566C111.119 83.2529 112.461 84.4137 113.733 86.139C114.301 87.3631 114.686 88.0178 114.888 88.1029L115.147 88.2125C115.438 88.1659 115.62 88.0563 115.693 87.8836L115.729 87.7972L115.787 87.0583C115.836 86.9432 115.967 86.9138 116.181 86.9702C116.329 87.1008 116.439 87.2828 116.51 87.5164L116.596 87.5529L116.651 87.4234C116.785 87.1067 116.715 86.6701 116.441 86.1134C116.593 86.0757 116.913 86.1603 117.403 86.3671C117.518 86.4158 117.914 86.9227 118.592 87.8877C118.793 87.9729 118.851 88.1162 118.766 88.3177L117.051 92.3762C116.247 94.2759 115.641 95.3089 115.232 95.475L115.134 95.5863L115.19 95.8137L115.172 95.8569C114.989 96.2887 114.265 96.2369 112.998 95.7014C112.65 95.7237 112.432 95.7165 112.346 95.68L112.173 95.607C112.368 95.1465 112.384 94.1862 112.221 92.7262C112.534 90.6196 112.548 89.3024 112.263 88.7745C112.033 88.0329 110.927 87.0392 108.943 85.7933L107.745 85.1345L105.988 84.5953L105.814 84.1653C105.272 84.0038 104.089 84.2333 102.266 84.8537L102.034 85.1626L101.997 85.2489L102.17 85.3219C103.764 84.8422 104.874 84.5823 105.502 84.5423L105.465 84.6287C104.458 85.085 102.784 85.5138 100.443 85.9152C99.4226 86.1623 98.4979 86.7044 97.6691 87.5415C96.2559 88.8779 95.2146 90.3377 94.5454 91.9208C93.3894 94.6552 92.8808 96.7812 93.0196 98.2988C92.8446 101.923 93.2256 104.713 94.1626 106.67C95.6408 108.55 97.2435 109.856 98.9705 110.586L99.6613 110.878C100.525 111.243 101.594 111.322 102.869 111.114C103.495 110.598 104.598 110.115 106.18 109.664C107.487 109.301 108.244 108.874 108.451 108.385L108.506 108.255L108.955 107.071C108.992 106.985 109.231 106.9 109.674 106.815C109.723 106.7 109.837 106.63 110.018 106.604L110.147 106.659L111.11 107.27L111.844 107.58C112.075 107.678 112.105 107.928 111.934 108.331C111.662 109.776 111.386 110.83 111.107 111.492C110.486 112.96 109.788 114.09 109.012 114.882L108.957 115.011L108.873 115.332L108.511 115.586L108.474 115.672C108.45 115.73 108.664 115.905 109.117 116.198L109.081 116.285L105.647 116.462L105.561 116.425C105.356 115.626 105.294 114.769 105.376 113.853L105.351 113.792C104.916 113.778 104.116 113.864 102.951 114.05C100.276 114.038 98.6792 113.923 98.1611 113.704L95.8991 111.832L95.4175 111.527L95.1584 111.417L94.5242 111.352C93.8621 111.073 92.9249 110.32 91.7125 109.095C90.654 108.308 89.9812 107.091 89.6941 105.443C88.9082 101.684 88.85 99.0128 89.5192 97.4297C89.6982 96.284 89.9033 95.4377 90.1345 94.8908C90.285 94.6151 90.5329 94.5503 90.8783 94.6963L90.8004 95.1214L90.7091 95.3373L90.8818 95.4103L91.1093 95.3538L91.1823 95.1811C91.3405 94.8069 91.119 94.4079 90.5178 93.9841C90.4315 93.9476 91.0371 92.3546 92.3347 89.205C92.6267 88.5142 93.5568 87.3976 95.1249 85.8552C95.1824 85.8795 95.4308 85.4926 95.8701 84.6944C95.9974 84.7143 96.2524 84.4319 96.6353 83.8474C97.9125 83.2338 99.3608 82.7773 100.98 82.478C101.746 82.1911 102.794 82.0403 104.123 82.0255C106.696 81.9595 108.428 82.1151 109.32 82.4923ZM107.451 82.8216L107.396 82.9511L107.482 82.9876C107.869 83.117 108.092 83.1098 108.153 82.9659L108.042 82.8679L107.999 82.8497C107.711 82.728 107.528 82.7186 107.451 82.8216ZM110.373 83.8536L110.33 83.8353L110.275 83.9648L110.912 84.3864L110.998 84.4229L111.139 84.3299C111.175 84.2435 110.92 84.0848 110.373 83.8536ZM103.154 82.6335L103.117 82.7198L103.16 82.7381C103.698 82.8298 104.375 82.7937 105.191 82.6296L105.209 82.5864L105.141 82.5068L105.098 82.4885C104.416 82.3359 103.768 82.3843 103.154 82.6335ZM109.622 84.9098C109.573 85.0249 110.125 85.4448 111.277 86.1696L111.42 86.4335L111.722 86.5613L111.925 86.4434L111.961 86.357C111.674 86.2353 111.432 85.9636 111.237 85.542C110.788 85.0805 110.448 84.8011 110.218 84.7037C109.93 84.582 109.731 84.6507 109.622 84.9098ZM114.23 88.3339L114.101 88.2792L114.064 88.3655C114.148 88.8083 114.291 89.0722 114.493 89.1574L114.536 89.1757L114.763 89.1191L114.782 89.076C114.644 88.6786 114.46 88.4313 114.23 88.3339ZM101.974 84.2212L102.103 84.2759C102.23 84.2958 102.347 84.2604 102.453 84.1696L102.367 84.1331C102.252 84.0844 102.121 84.1137 101.974 84.2212ZM101.261 84.5817L101.434 84.6547L101.662 84.5982L101.735 84.4255C101.504 84.3281 101.347 84.3802 101.261 84.5817ZM114.182 89.8914L114.041 89.9844L114.005 90.0708L114.098 90.2119L114.343 90.1122L114.226 89.9096L114.182 89.8914ZM97.9305 84.395C98.2759 84.541 98.5754 84.5149 98.8288 84.3167L98.8835 84.1871L98.7108 84.1141C98.423 83.9924 98.1629 84.0861 97.9305 84.395ZM114.464 93.3184L114.341 93.3682L114.286 93.4977L114.398 93.5957L114.582 93.5209L114.593 93.3731L114.464 93.3184ZM113.335 94.0625L113.299 94.1489C113.849 94.2118 114.154 94.1713 114.215 94.0274C114.206 93.888 114.171 93.7712 114.109 93.6771L113.936 93.6041C113.608 93.737 113.408 93.8898 113.335 94.0625ZM113.216 94.8264L112.97 94.926L112.879 95.1419L113.051 95.2149C113.224 95.2879 113.37 95.2647 113.488 95.1451L113.506 95.1019L113.475 94.9359L113.216 94.8264ZM95.0129 89.3703L94.9764 89.4567L95.1059 89.5114L95.3948 89.43L95.5226 89.1277L95.3499 89.0547C95.1983 89.0924 95.0859 89.1976 95.0129 89.3703ZM93.492 89.2362L93.4056 89.1997L92.9591 89.7743L92.7948 90.1629L92.8812 90.1994C92.9963 90.2481 93.1147 90.1285 93.2364 89.8407L93.492 89.2362ZM92.6987 90.6312L92.526 90.5582L92.4347 90.774L92.6074 90.8471L92.7303 90.7972L92.6987 90.6312ZM92.4042 94.578L92.0757 95.3552C91.8412 96.0703 91.8647 97.0981 92.1462 98.4385L92.1961 98.5614L92.3688 98.6344L92.46 98.4185C92.6068 96.5466 92.9118 94.7417 93.3751 93.0037L93.3319 92.9855C93.188 92.9246 92.8788 93.4555 92.4042 94.578ZM92.1862 92.8064L92.143 92.7882L91.9903 93.029L91.8261 93.4176L91.8826 93.645L92.0669 93.5703L92.1764 93.3112C92.2859 93.0522 92.2892 92.8839 92.1862 92.8064ZM90.7492 95.9649L90.6196 95.9102L90.5649 96.0397L90.6828 96.2422L90.726 96.2605L90.7808 96.1309L90.7492 95.9649ZM91.0121 98.1117L90.8461 98.1433C90.7731 98.316 90.7963 98.4616 90.9159 98.58L90.9591 98.5982L91.1069 98.6098L91.1616 98.4803L91.0121 98.1117ZM90.4761 99.2592L90.4329 99.241L90.3964 99.3273C90.2439 100.009 90.2683 100.393 90.4698 100.478L90.513 100.496C90.6281 100.545 90.71 100.512 90.7587 100.397L90.4761 99.2592ZM109.56 108.65L109.412 108.639L109.376 108.725L109.5 109.032L109.587 109.069C109.928 109.145 110.116 109.14 110.153 109.053L110.189 108.967L110.164 108.906L109.56 108.65ZM109.615 109.844L109.542 110.017C109.555 110.226 109.634 110.361 109.778 110.422C109.942 110.355 110.072 110.207 110.17 109.977L110.261 109.761C110.297 109.674 110.258 109.607 110.143 109.558C109.876 109.547 109.7 109.642 109.615 109.844ZM109.085 109.773L108.919 109.804L108.682 110.366L108.782 110.611L108.825 110.63L109.009 110.555L109.137 110.253C109.222 110.051 109.205 109.891 109.085 109.773ZM91.6327 102.903L91.6145 102.947C91.6978 104.034 91.8978 104.644 92.2144 104.778L92.2874 104.605C92.0569 103.626 91.8387 103.058 91.6327 102.903ZM90.1532 102.431L90.0121 102.524L90.0437 102.69L90.13 102.726L90.3143 102.651L90.2395 102.467L90.1532 102.431ZM107.309 110.243L107.186 110.293L107.131 110.422L107.347 110.514L107.531 110.439L107.568 110.353L107.309 110.243ZM108.863 110.9L108.691 110.827L108.618 111L108.747 111.055L108.845 110.943L108.863 110.9ZM90.2929 103.304L90.2497 103.286L90.2315 103.329C90.195 103.415 90.1962 103.653 90.235 104.043L90.4509 104.134L90.4874 104.048C90.5726 103.846 90.5077 103.598 90.2929 103.304ZM106.592 110.856L106.555 110.942L106.598 110.961L106.912 110.941L106.967 110.811L106.881 110.775C106.712 110.771 106.616 110.798 106.592 110.856ZM92.5549 105.176L92.3889 105.208C92.2307 105.582 92.4007 105.942 92.8989 106.289L92.9852 106.325L93.2127 106.269C93.1163 105.855 92.897 105.491 92.5549 105.176ZM108.536 112.034L108.493 112.016L108.365 112.318L108.44 112.503L108.483 112.521L108.629 112.175L108.536 112.034ZM90.632 104.669L90.5025 104.614C90.4529 105.373 90.5582 105.927 90.8184 106.274L91.0775 106.384L91.2052 106.082C91.1376 105.68 90.9465 105.209 90.632 104.669ZM93.3591 107.247L93.1 107.137L93.0818 107.18C93.0453 107.267 93.3791 107.56 94.0832 108.062L94.1197 107.975C94.0732 107.684 93.8196 107.441 93.3591 107.247ZM104.779 112.736L104.743 112.822C104.944 112.908 105.145 112.874 105.345 112.721L105.364 112.678L105.32 112.66C105.09 112.562 104.91 112.588 104.779 112.736ZM107.586 113.922L107.506 113.991L107.458 114.225L107.692 114.273L107.765 114.1L107.672 113.959L107.586 113.922ZM91.8051 107.913L91.664 108.006C91.6441 108.133 92.1596 108.639 93.2103 109.525C93.1616 109.64 93.3819 109.801 93.8712 110.008L94.1236 110.013L94.1419 109.969C94.1618 109.842 93.7388 109.358 92.8729 108.517C92.8231 108.394 92.5967 108.247 92.1937 108.077L91.8051 107.913ZM93.8776 108.789L93.8161 108.814L93.7796 108.9C94.3211 109.706 95.1388 110.34 96.2326 110.802L96.5348 110.93L96.6576 110.88C95.3511 109.717 94.4244 109.02 93.8776 108.789ZM97.174 110.742C97.3612 111.263 97.8578 111.693 98.6637 112.034C99.6501 112.349 100.186 112.406 100.271 112.204L100.308 112.118C100.368 111.974 100.039 111.75 99.3194 111.446L98.6718 111.172C97.7219 110.77 97.2227 110.627 97.174 110.742ZM102.225 112.878L102.084 112.971L102.257 113.044L102.38 112.994L102.355 112.933L102.225 112.878ZM107.033 115.47L106.349 115.283L106.276 115.455L106.419 115.719L106.635 115.811C107.374 115.988 107.768 116.018 107.817 115.903L107.853 115.817L107.033 115.47ZM99.0376 112.955L97.6394 112.771L97.5847 112.901L98.2207 113.322L98.4798 113.432C98.7676 113.554 99.6211 113.541 101.04 113.395L101.095 113.265L101.052 113.247C100.793 113.137 100.121 113.04 99.0376 112.955ZM130.283 100.922L131.346 101.778L131.734 101.943C133.034 103.442 134.152 105.051 135.088 106.77C136.021 108.657 136.353 109.917 136.085 110.551L135.999 110.514C135.939 110.014 135.794 109.715 135.564 109.618L135.521 109.599C135.434 109.563 135.367 109.602 135.318 109.717C135.299 110.083 135.327 110.739 135.402 111.687L135.488 111.723C135.545 111.747 135.678 111.634 135.886 111.383L135.93 111.401C136.004 111.466 135.928 111.926 135.702 112.781L135.726 113.808L135.402 114.333L134.875 115.942C134.369 116.577 133.78 117.448 133.109 118.555C132.762 119.053 130.56 120.531 126.502 122.988C124.888 123.595 123.534 123.667 122.44 123.205C121.384 122.894 120.223 122.471 118.956 121.936L118.136 121.589C117.647 121.382 116.542 120.423 114.823 118.712C113.189 115.274 112.634 112.935 113.157 111.698C113.112 110.762 113.099 109.909 113.12 109.137C113.278 108.763 114.19 107.69 115.855 105.917C116.415 104.593 117.121 103.806 117.973 103.555C120.555 101.22 123.065 100.059 125.502 100.071C127.596 100.176 129.189 100.46 130.283 100.922ZM116.78 111.194L116.671 111.453C116.745 112.4 116.838 113.423 116.95 114.523C116.829 114.81 117.205 115.445 118.08 116.425C118.343 117.249 119.106 118.131 120.37 119.073L121.111 119.488C122.487 119.764 123.552 119.892 124.307 119.872L126.409 119.234C128.751 118.188 130.143 117.063 130.584 115.859L130.749 115.47C130.771 114.937 131.001 114.152 131.439 113.116C131.779 112.31 132.105 111.701 132.414 111.289C132.5 111.087 132.151 110.346 131.369 109.066C131.05 107.574 130.514 106.516 129.76 105.892L129.242 105.673C125.813 104.393 124.014 103.954 123.843 104.357C122.778 104.789 121.95 105.304 121.358 105.902C120.023 106.492 119.289 106.944 119.155 107.261C118.397 108.332 117.605 109.643 116.78 111.194ZM122.536 101.311L122.315 101.472L122.242 101.645C122.415 101.718 123.548 101.484 125.642 100.945L126.042 100.961L126.283 101.114C128.297 101.728 129.34 101.948 129.413 101.776L129.431 101.732L128.795 101.311C126.838 100.483 124.751 100.483 122.536 101.311ZM125.52 103.641L125.502 103.685L125.533 103.851L126.138 104.106L129.495 104.711L129.532 104.625L128.784 104.105C126.73 103.508 125.642 103.354 125.52 103.641ZM114.197 111.526L113.969 111.583L113.841 111.885C113.485 112.888 113.527 113.551 113.968 113.873L114.03 113.848L114.048 113.804C114.406 112.395 114.456 111.636 114.197 111.526ZM126.054 102.137L125.963 102.353C128.318 103.043 129.513 103.345 129.55 103.258L129.259 102.983L129.216 102.965C127.834 102.38 126.78 102.105 126.054 102.137ZM130.418 102.048C130.391 102.511 130.623 102.847 131.112 103.054L131.526 103.279L131.63 103.273L131.721 103.057C131.855 102.74 131.632 102.425 131.052 102.112C130.666 101.983 130.454 101.961 130.418 102.048ZM114.857 116.946L114.555 116.818L114.482 116.991C114.698 117.523 115.295 117.996 116.274 118.41L116.749 118.611C116.69 118.348 116.06 117.793 114.857 116.946ZM121.306 121.555L121.269 121.641C121.233 121.728 121.418 121.891 121.826 122.131C122.315 122.338 122.59 122.369 122.651 122.225L122.687 122.139C122.707 122.012 122.655 121.854 122.531 121.666L122.143 121.502C121.826 121.368 121.547 121.385 121.306 121.555ZM132.977 116.82C132.641 117.695 132.518 118.186 132.609 118.292L132.695 118.329C132.829 118.012 133.105 117.722 133.522 117.457L133.577 117.327L133.376 116.479L133.289 116.443C133.232 116.418 133.128 116.544 132.977 116.82ZM133.267 108.189L133.094 108.116C133.109 108.563 133.392 109.056 133.945 109.595L134.118 109.668L134.302 109.593L134.32 109.55C134.05 108.825 133.699 108.371 133.267 108.189ZM132.883 106.449L132.846 106.535C132.787 106.917 133.038 107.447 133.599 108.126L133.729 108.18L133.87 108.087L133.888 108.044C133.829 107.782 133.494 107.25 132.883 106.449ZM130.636 103.819L130.531 103.826C130.895 104.489 131.236 104.887 131.553 105.021L131.632 104.953L131.651 104.91C131.348 104.341 131.01 103.977 130.636 103.819ZM117.556 118.748L117.501 118.878C117.428 119.05 117.795 119.307 118.601 119.648L118.662 119.623L118.698 119.537C118.397 119.206 118.016 118.943 117.556 118.748ZM133.038 104.275L132.854 104.35C133 104.887 133.232 105.222 133.548 105.356C133.682 105.039 133.541 104.691 133.125 104.312L133.038 104.275ZM120.624 104.269L120.496 104.571L120.625 104.626C121.146 104.438 121.448 104.244 121.533 104.043L121.552 103.999L121.336 103.908C121.114 103.95 120.877 104.07 120.624 104.269ZM131.221 106.408C131.272 106.769 131.413 106.998 131.643 107.095L131.723 107.027L131.759 106.941C131.869 106.681 131.808 106.503 131.578 106.406C131.364 106.35 131.245 106.35 131.221 106.408ZM130.609 119.533L130.59 119.576C130.821 119.674 131.119 119.529 131.487 119.141L131.523 119.055L131.394 119C131.221 118.927 130.959 119.105 130.609 119.533ZM122.479 102.407C122.739 102.516 123.056 102.447 123.432 102.199L123.487 102.07C122.937 102.007 122.601 102.119 122.479 102.407ZM131.628 119.048L131.844 119.139L131.962 119.342C132.185 118.894 132.198 118.662 132.001 118.646L131.915 118.61L132 118.289L131.628 119.048ZM123.51 122.843L123.553 122.861C124.144 122.907 124.464 122.873 124.512 122.758L124.463 122.635C123.999 122.608 123.681 122.678 123.51 122.843ZM114.589 115.051L114.38 115.065L114.344 115.151L114.543 115.642L114.716 115.715C114.801 115.514 114.759 115.293 114.589 115.051ZM116.394 118.969L116.375 119.013L116.937 119.25L117.06 119.2L117.028 119.034L116.942 118.997C116.654 118.876 116.471 118.866 116.394 118.969ZM134.964 114.046L134.78 114.121L134.707 114.294L134.763 114.521L135.009 114.421L135.082 114.249L135.007 114.064L134.964 114.046ZM117.285 104.944C117.429 105.005 117.601 104.959 117.801 104.806L117.838 104.719C117.579 104.61 117.394 104.685 117.285 104.944ZM113.975 109.041L113.834 109.134C113.753 109.405 113.742 109.553 113.799 109.577L113.904 109.57L113.995 109.355L114.018 109.059L113.975 109.041ZM129.719 103.941L129.701 103.984L130.279 103.821L130.211 103.741C129.85 103.792 129.686 103.859 129.719 103.941ZM118.769 103.841L118.812 103.859C118.939 103.879 119.046 103.788 119.131 103.587L119.044 103.55C118.934 103.571 118.842 103.668 118.769 103.841ZM116.838 109.131L116.592 109.231L116.555 109.317L116.685 109.372L116.826 109.279L116.881 109.15L116.838 109.131ZM122.141 103.689L121.968 103.616L121.895 103.788L121.982 103.825L122.105 103.775L122.141 103.689ZM141.168 103.946L141.291 103.896C141.904 104.291 142.57 104.641 143.29 104.945L146.83 106.442L146.905 106.626C146.513 107.071 146.257 107.437 146.135 107.725L145.825 108.459C145.599 109.314 145.659 109.814 146.004 109.96C146.311 109.717 147.014 109.658 148.115 109.784C150.872 109.762 152.985 110.061 154.453 110.682C155.431 111.096 156.299 111.971 157.057 113.309C157.758 113.979 158.278 114.996 158.617 116.361C159.006 118.731 158.665 121.182 157.594 123.715L157.448 124.06L155.832 127.041L155.185 129.414L153.895 131.261L153.859 131.347L153.713 131.693L155.317 132.473L156.051 132.783C156.54 132.99 156.81 133.155 156.86 133.277C155.856 135.33 155.196 136.289 154.88 136.155C154.158 136.258 153.466 136.169 152.804 135.889L151.898 135.505C150.516 134.921 148.983 134.494 147.3 134.223C146.353 133.653 146.062 132.937 146.427 132.073L147.041 130.501C147.443 129.551 147.979 128.963 148.651 128.739C149.507 127.438 150.35 126.285 151.182 125.279L153.066 121.546C153.152 121.583 153.329 121.284 153.597 120.651C153.926 119.874 153.775 118.504 153.146 116.542C152.366 115.737 151.905 115.304 151.761 115.244C150.091 114.538 148.296 114.61 146.376 115.461C146.261 115.412 145.258 115.819 143.366 116.682C142.829 116.828 142.22 117.708 141.539 119.319C140.367 122.251 139.854 123.747 139.998 123.808C141.064 124.496 141.548 124.955 141.451 125.186L141.378 125.358L140.446 124.914L139.737 124.665L139.664 124.837C139.615 124.953 140.101 125.328 141.122 125.963C141.239 126.249 141.199 126.623 141.005 127.084L140.968 127.17C140.676 127.861 140.222 128.534 139.606 129.189L134.579 127.115C134.09 126.908 133.833 126.512 133.81 125.925C133.926 125.329 134.247 124.21 134.772 122.566C134.833 122.422 135.331 122.446 136.268 122.638L136.612 122.427L136.63 122.384C136.703 122.211 136.691 121.918 136.595 121.504L137.161 120.166L138.201 117.705L140.053 113.806C141.197 111.1 141.654 109.698 141.423 109.601L141.207 109.51L139.069 108.911C138.867 108.826 138.667 108.538 138.467 108.046L138.54 107.873C138.782 107.704 138.957 107.49 139.067 107.231L139.656 105.597L141.168 103.946ZM144.595 106.311L140.818 105.376L140.781 105.462C140.745 105.548 140.936 105.697 141.356 105.908C143.227 106.699 144.217 106.965 144.327 106.706L144.609 106.52L144.645 106.434L144.559 106.397L144.595 106.311ZM152.84 110.764L152.822 110.807C153.024 110.892 153.296 111.211 153.639 111.763L154.06 112.093L155.459 112.634L155.539 112.566L155.557 112.523C155.602 112.338 155.48 112.185 155.192 112.063L155.019 111.99L154.551 111.894C154.076 111.252 153.695 110.87 153.407 110.748C153.148 110.639 152.959 110.644 152.84 110.764ZM149.576 110.3L149.558 110.343L149.589 110.509C151.088 110.735 151.874 110.762 151.947 110.59L151.861 110.553C151.228 110.285 150.466 110.201 149.576 110.3ZM141.225 106.82L141.3 107.004L141.386 107.041C141.772 107.17 141.996 107.163 142.057 107.019L141.859 106.885C141.485 106.726 141.274 106.705 141.225 106.82ZM141.248 107.848L141.212 107.934L142.051 108.238L142.18 108.293C142.468 108.414 142.61 108.559 142.607 108.727L142.552 108.857C142.347 108.94 142.215 109.054 142.154 109.197C142.249 109.373 142.397 109.504 142.599 109.589C142.685 109.626 142.753 109.586 142.801 109.471L143.447 108.065L143.458 107.917L143.329 107.862C143.108 107.904 142.435 107.891 141.31 107.823L141.248 107.848ZM148.616 110.403L148.641 110.464L148.623 110.507C148.919 110.531 149.079 110.513 149.103 110.456L149.139 110.369L149.053 110.333C148.798 110.293 148.653 110.316 148.616 110.403ZM139.877 106.759L139.858 106.802C139.822 106.888 139.863 106.991 139.983 107.109C140.213 107.207 140.527 107.187 140.924 107.049L140.943 107.006L140.252 106.714C140.038 106.658 139.913 106.673 139.877 106.759ZM154.48 113.747C154.431 113.862 154.654 114.058 155.148 114.334C155.299 114.297 155.406 114.206 155.466 114.062C155.527 113.918 155.346 113.706 154.922 113.425C154.7 113.467 154.553 113.574 154.48 113.747ZM145.613 110.405L145.54 110.578C145.943 110.748 146.484 110.672 147.163 110.348L147.182 110.305L147.157 110.244L147.114 110.226C146.768 110.08 146.268 110.139 145.613 110.405ZM156.23 114.181L156.028 114.299C156.024 114.468 156.109 114.588 156.282 114.661L156.498 114.753L156.787 114.671L156.805 114.628C156.825 114.501 156.705 114.382 156.446 114.273L156.23 114.181ZM151.255 112.587L151.219 112.673L151.435 112.765C151.891 112.89 152.143 112.895 152.192 112.779L152.228 112.693L151.926 112.565C151.54 112.436 151.316 112.443 151.255 112.587ZM144.266 109.378L144.05 109.287L143.854 109.509L143.526 110.286C143.379 110.632 143.225 110.838 143.061 110.904L142.97 111.12L142.887 111.797L142.741 112.143C142.643 112.373 142.648 112.562 142.756 112.709C142.785 112.721 143.011 112.427 143.435 111.826C143.971 111.679 144.276 111.52 144.349 111.347C144.41 111.203 144.386 110.82 144.276 110.196C144.384 109.699 144.381 109.427 144.266 109.378ZM139.656 108.243L139.62 108.33L140.051 108.512L140.297 108.413L140.315 108.369L140.136 108.192C139.841 108.169 139.681 108.186 139.656 108.243ZM155.058 114.907L154.854 114.668L154.731 114.718L154.713 114.761L154.874 114.982L154.917 115L155.058 114.907ZM151.606 113.804L151.656 113.927L151.699 113.945C152.332 114.213 152.673 114.289 152.722 114.174L152.413 113.942C151.899 113.792 151.63 113.747 151.606 113.804ZM144.634 112.841L144.579 112.971C145.364 113.201 146.662 113.02 148.472 112.429L148.491 112.385L148.232 112.276C148.116 112.227 147.686 112.283 146.94 112.442C145.573 112.305 144.804 112.438 144.634 112.841ZM155.664 115.52L155.621 115.502L155.567 115.631C155.53 115.717 155.547 116.2 155.617 117.077C155.519 117.308 155.528 117.447 155.643 117.496L155.889 117.396L155.962 117.223C156.157 116.763 156.058 116.195 155.664 115.52ZM142.018 110.361L142.049 110.527L142.136 110.564L142.503 110.057L142.373 110.003C142.287 109.966 142.168 110.086 142.018 110.361ZM152.77 115.263L152.716 115.393L153.795 115.849L154.022 115.793L154.095 115.62L153.934 115.399L153.718 115.308C153.135 115.163 152.819 115.148 152.77 115.263ZM148.204 114.147C148.886 114.3 149.269 114.275 149.355 114.074L149.262 113.933L149.132 113.878C148.7 113.695 148.391 113.785 148.204 114.147ZM146.603 114.081L146.567 114.167L146.696 114.222C147.315 114.043 147.679 113.823 147.789 113.564L147.702 113.528L147.739 113.442C147.509 113.344 147.13 113.557 146.603 114.081ZM143.461 112.244L143.438 112.539C143.341 112.77 143.114 112.945 142.758 113.066C142.841 113.271 142.852 113.445 142.791 113.589C142.182 115.028 141.979 115.79 142.18 115.876L142.224 115.894C142.673 115.473 143.074 114.845 143.427 114.011C143.848 112.933 143.956 112.317 143.75 112.162L143.664 112.126C143.577 112.089 143.51 112.129 143.461 112.244ZM155.399 117.952L155.345 118.082C155.143 119.523 155.072 120.291 155.134 120.385L155.349 120.119L155.513 119.731C155.725 118.667 155.687 118.074 155.399 117.952ZM157.306 118.86L157.263 118.842C156.675 120.392 156.497 121.215 156.727 121.313L156.813 121.349C157.314 119.763 157.479 118.933 157.306 118.86ZM145.957 114.164L145.552 114.4L145.516 114.487L145.522 114.591L145.738 114.682L146.087 114.219L145.957 114.164ZM144.566 114.085L144.443 114.135L144.475 114.301L144.647 114.374L144.702 114.244L144.652 114.122L144.566 114.085ZM154.631 124.345L154.613 124.388L154.523 124.961L154.739 125.052C154.868 124.666 154.832 124.43 154.631 124.345ZM151.676 126.76L151.701 126.822L151.744 126.84C151.83 126.876 151.934 126.751 152.056 126.463L152.275 125.945C152.16 125.896 151.96 126.168 151.676 126.76ZM151.125 127.341C151.212 127.616 151.183 127.926 151.037 128.271L151.123 128.308L151.472 127.844L151.782 127.111C151.466 126.977 151.247 127.054 151.125 127.341ZM153.189 127.756L153.102 127.72L153.011 127.935L153.098 127.972L153.189 127.756ZM154.091 128.392L153.639 129.219L153.183 130.298L153.226 130.316C153.795 130.014 154.165 129.661 154.335 129.258L154.353 129.215C154.524 128.812 154.436 128.538 154.091 128.392ZM152.128 129.903L152.092 129.99L152.135 130.008L152.509 129.606L152.545 129.52L152.459 129.483C152.372 129.447 152.262 129.587 152.128 129.903ZM135.39 123.03L135.23 123.167L135.212 123.21C135.051 123.752 135.128 124.09 135.445 124.224L135.704 124.334L135.888 124.259L135.925 124.173C135.8 123.746 135.779 123.433 135.865 123.231L135.39 123.03ZM151.929 130.735L151.757 130.662L151.684 130.835L151.783 131.081L151.949 131.049L151.986 130.963L151.929 130.735ZM153.841 132.714L153.786 132.843C155.082 133.391 155.772 133.564 155.857 133.362L155.893 133.276L155.289 133.021C154.385 132.672 153.902 132.57 153.841 132.714ZM136.345 125.826C136.284 125.97 136.628 126.2 137.377 126.517C138.816 127.125 139.566 127.357 139.627 127.213C139.7 127.041 139.247 126.748 138.268 126.334C137.174 125.871 136.533 125.702 136.345 125.826ZM147.991 130.902L147.861 130.847L147.752 131.107L147.827 131.291L147.956 131.346L148.054 131.234L148.072 131.191L147.991 130.902ZM153.846 133.785L153.792 133.914C153.788 134.083 153.887 134.209 154.089 134.294C154.549 134.489 154.865 134.504 155.037 134.339L155.092 134.209C155.107 134.012 154.985 133.859 154.726 133.75L154.51 133.658C154.223 133.537 154.001 133.579 153.846 133.785ZM148.466 132.426C148.455 132.693 148.551 132.869 148.752 132.954C150.319 133.583 151.138 133.81 151.211 133.638C151.119 133.293 150.814 133.012 150.296 132.793C149.161 132.347 148.551 132.225 148.466 132.426ZM147.04 132.79L146.794 132.89L146.758 132.976C146.673 133.178 147.019 133.443 147.796 133.771L148.012 133.863L148.394 133.922L148.412 133.879C148.246 133.47 147.846 133.131 147.213 132.863L147.04 132.79ZM181.141 105.577C181.774 105.845 182.219 106.236 182.476 106.752C181.741 107.527 180.896 108.884 179.942 110.821L177.874 114.629C177.789 114.83 178.322 115.174 179.473 115.661C182.869 117.097 184.501 117.973 184.367 118.29C184.511 118.351 184.647 118.51 184.775 118.768C184.329 119.02 184.07 119.233 183.997 119.406L183.942 119.535L183.707 120.454L182.342 122.116C182.257 122.317 182.351 122.697 182.625 123.253L182.588 123.34C181.8 123.278 181.19 123.156 180.758 122.973C180.31 122.75 180.11 122.58 180.159 122.465L180.195 122.379L180.602 122.5L180.904 122.628L181.15 122.528L181.187 122.442L181.032 122.326L178.121 121.146L175.765 120.099C175.621 120.038 175.122 120.777 174.268 122.316L174.225 122.297L173.912 121.351L173.582 121.771L173.472 122.03C173.16 122.848 173.079 123.323 173.227 123.453C173.342 123.502 173.552 123.286 173.858 122.804L173.986 122.502L174.115 122.557L174.103 122.704L172.049 126.721C169.876 132.826 168.918 135.932 169.177 136.042C168.932 137.024 169.097 137.637 169.673 137.88C169.904 138.215 170.25 138.48 170.711 138.675L171.488 139.004L174.133 139.969C174.191 139.993 173.969 140.799 173.468 142.385C173.331 142.87 173.09 143.158 172.746 143.25C172.418 143.383 171.967 143.328 171.391 143.085L168.03 141.766C166.217 140.999 164.904 139.85 164.092 138.32C163.408 137.691 163.37 136.657 163.978 135.218C164.249 134.417 165.122 132.071 166.597 128.182L169.597 122.53L170.804 120.037L170.95 119.692C171.259 118.397 171.169 117.647 170.68 117.44L169.385 116.893L167.874 116.254C167.442 116.071 166.967 115.989 166.451 116.008C166.175 115.858 165.979 115.317 165.864 114.386L168.352 110.909C168.401 110.794 170.172 111.458 173.667 112.901C173.826 112.527 174.228 112.138 174.874 111.732C176.888 107.291 177.995 105.112 178.197 105.198L178.251 105.068C178.276 105.011 178.216 104.951 178.072 104.89L178.127 104.761C178.163 104.675 179.168 104.947 181.141 105.577ZM179.007 106.049L178.964 106.031L178.854 106.29L178.984 106.345L179.057 106.172L179.007 106.049ZM180.827 106.92L180.581 107.02L180.545 107.106L180.255 108.154L180.341 108.191C180.832 107.991 181.133 107.762 181.242 107.503L181.315 107.33L181.259 107.103L180.827 106.92ZM178.597 107.861L178.523 107.677C178.343 107.94 178.156 108.302 177.962 108.763L177.889 108.935L177.975 108.972L178.415 108.293L178.597 107.861ZM177.96 109.729L177.874 109.692L175.894 113.894L175.876 113.937L175.951 114.121L176.037 114.158C176.239 114.243 176.492 113.926 176.796 113.206L177.216 112.213L178.024 110.061C178.039 109.864 178.018 109.753 177.96 109.729ZM168.392 111.536C168.307 111.738 168.394 111.893 168.653 112.003L169.3 112.277C170.481 112.776 171.599 113.18 172.655 113.491L172.691 113.405C172.752 113.261 172.077 112.891 170.667 112.295L168.854 111.528C168.595 111.418 168.441 111.421 168.392 111.536ZM181.936 117.058L181.283 117.037L180.765 116.818L180.031 116.508L179.976 116.637C180.537 117.078 181.047 117.395 181.507 117.59L182.5 118.01C182.558 118.034 182.605 118.003 182.642 117.917C182.718 117.576 182.627 117.351 182.367 117.241L181.936 117.058ZM182.962 118.001L182.796 118.033L182.76 118.119L182.871 118.217C183.159 118.339 183.341 118.348 183.419 118.245L183.437 118.202L182.962 118.001ZM168.736 112.649L168.613 112.699L168.504 112.958C168.382 113.245 169.285 113.797 171.214 114.612C172.192 115.026 172.712 115.161 172.773 115.017C172.919 114.672 171.732 113.949 169.211 112.85L168.736 112.649ZM177.768 116.925L177.584 117L177.566 117.043C177.505 117.187 177.986 117.492 179.01 117.959L179.763 118.226L180.683 118.819L180.855 118.892C181.057 118.977 181.194 118.933 181.267 118.761L181.224 118.742L178.07 117.053L177.768 116.925ZM182.029 119.846L181.784 119.946L181.765 119.989L181.883 120.192L182.099 120.283C182.358 120.392 182.553 120.373 182.684 120.225L182.591 120.084L182.029 119.846ZM168.486 114.324L168.258 114.381C168.21 114.496 168.257 114.584 168.401 114.645L169.462 115.144L170.646 115.594L170.708 115.569L170.744 115.483C170.447 115.221 169.824 114.89 168.874 114.488L168.486 114.324ZM171.507 116.568L168.021 114.942L167.984 115.028C167.899 115.23 168.95 115.793 171.138 116.718L171.52 116.777L171.538 116.734L171.507 116.568ZM177.626 119.308L177.41 119.217L177.355 119.346C177.36 119.416 177.803 119.773 178.684 120.417L178.77 120.453L178.807 120.367C178.48 119.856 178.086 119.503 177.626 119.308ZM179.645 120.67C180.313 121.258 180.949 121.68 181.553 121.935L181.799 121.835L181.909 121.576L181.834 121.392L180.884 120.991C180.107 120.662 179.694 120.555 179.645 120.67ZM172.987 119.688L172.841 120.033L172.916 120.217C173.043 120.237 173.143 120.161 173.216 119.988L173.289 119.815L173.331 119.477L173.287 119.458C173.16 119.439 173.06 119.515 172.987 119.688ZM174.256 121.14L174.113 120.876L174.058 121.006L174.158 121.251L174.201 121.27L174.256 121.14ZM172.838 120.642L172.751 120.606L172.617 120.804L172.526 121.019L172.459 121.297L172.632 121.37L172.796 120.981L172.888 120.765L172.838 120.642ZM171.665 123.658L171.535 123.603L171.389 123.949L171.446 124.176L171.532 124.213L171.605 124.04L171.665 123.658ZM167.274 128.265L166.893 129.529L166.211 131.022L166.071 131.472L166.201 131.527C166.373 131.6 166.746 130.96 167.318 129.607L167.737 128.614C168.297 127.29 168.52 126.603 168.404 126.555C168.203 126.47 167.826 127.04 167.274 128.265ZM168.639 132.862L168.552 132.826L168.381 133.11L168.235 133.455C168.15 133.657 168.159 133.796 168.262 133.874L168.348 133.91C168.476 133.93 168.576 133.854 168.649 133.681C168.815 133.208 168.811 132.935 168.639 132.862ZM168.199 134.865L167.826 135.267C167.546 135.929 167.513 136.407 167.728 136.702L167.887 136.565L168.052 136.177C168.327 135.445 168.376 135.008 168.199 134.865ZM166.388 134.455L166.258 134.401L165.984 135.048L165.961 135.344L166.004 135.362L166.127 135.312L166.437 134.578L166.388 134.455ZM166.49 137.705L166.471 137.748L166.362 138.007C166.342 138.134 166.394 138.292 166.518 138.48L166.82 138.608L166.857 138.522C166.991 138.205 166.868 137.933 166.49 137.705ZM170.917 140.594L171.09 140.667C172.228 140.945 172.839 140.983 172.925 140.781L172.875 140.659C171.631 140.472 170.978 140.45 170.917 140.594ZM165.301 137.508L165.214 137.471L165.141 137.644C164.924 138.4 165.088 138.893 165.635 139.125L166.067 139.307L166.208 139.214L166.226 139.171C166.25 139.113 166.034 138.903 165.577 138.54L165.301 137.508ZM191.513 123.296L196.921 125.429C197.382 125.624 198.261 126.233 199.559 127.257C200.559 129.546 201.029 131.203 200.968 132.229C201.321 133.159 201.271 134.682 200.818 136.797C201.084 137.452 200.882 138.571 200.213 140.155L199.8 141.252L197.82 145.454C197.455 146.317 197.537 147.607 198.067 149.324C198.644 150.687 199.077 151.43 199.364 151.552L199.328 151.638C199.182 151.984 198.447 152.317 197.123 152.64C196.058 153.072 195.425 153.245 195.224 153.16L195.181 153.142C194.744 152.89 193.938 151.548 192.76 149.116C188.804 149.004 186.806 148.957 186.765 148.973C185.496 148.844 184.171 148.488 182.789 147.903L182.573 147.812C181.129 146.896 180.06 145.732 179.368 144.32C179.239 144.062 179.126 143.166 179.028 141.632C178.778 140.779 178.848 139.893 179.237 138.971L179.766 137.719C180.107 136.913 180.639 136.256 181.363 135.748C182.236 134.726 183.358 133.877 184.73 133.202C185.421 132.85 186.028 132.699 186.549 132.75C188.387 132.576 190.039 132.8 191.507 133.421L193.469 134.199L193.728 134.308C194.821 134.771 195.532 135.258 195.858 135.769L196.117 135.879C196.261 135.939 196.358 135.912 196.406 135.797C196.662 134.31 196.691 132.796 196.495 131.254C196.312 129.922 195.357 128.89 193.63 128.16L191.969 127.153C190.31 126.824 189.413 126.818 189.279 127.135C188.346 127.657 187.579 128.469 186.977 129.572C186.858 129.691 186.31 129.544 185.331 129.13L185.036 129.107C184.921 129.058 184.673 129.242 184.294 129.659C183.536 129.203 183.206 128.86 183.304 128.629C183.434 128.481 183.973 127.487 184.92 125.649C185.94 124.519 187.551 123.758 189.753 123.366C190.754 123.246 191.34 123.223 191.513 123.296ZM196.038 126.074L195.897 126.167L195.954 126.394L196.213 126.504L196.292 126.436L196.254 126.165L196.038 126.074ZM199.174 127.806L199.087 127.77L199.051 127.856C199.184 128.184 199.336 128.384 199.509 128.457L199.552 128.476L199.589 128.389C199.456 128.062 199.317 127.867 199.174 127.806ZM192.174 125.102L192.119 125.231C192.112 125.33 192.237 125.434 192.496 125.544C192.756 125.653 193.152 125.719 193.685 125.741L193.758 125.568L193.586 125.495C192.952 125.227 192.482 125.096 192.174 125.102ZM187.704 124.841L187.668 124.927L187.711 124.945C187.97 125.055 188.474 124.946 189.224 124.618L189.278 124.488L189.235 124.47C188.947 124.348 188.437 124.472 187.704 124.841ZM193.834 127.076L193.545 127.157L193.583 127.428L194.144 127.665L194.328 127.59L194.179 127.222L193.834 127.076ZM186.008 127.89L185.842 127.921L185.568 128.569L185.612 128.587C185.739 128.607 185.839 128.531 185.912 128.358L186.058 128.013L186.008 127.89ZM200.221 137.969L200.178 137.951L200.141 138.038C200.101 138.292 200.11 138.432 200.168 138.456L200.302 138.258C200.305 138.09 200.278 137.994 200.221 137.969ZM198.589 139.061L198.423 139.092L198.368 139.222C198.301 139.702 198.325 139.967 198.44 140.016L198.526 140.052C198.684 139.678 198.72 139.354 198.632 139.079L198.589 139.061ZM185.829 133.972L185.263 133.987L185.172 134.203L185.258 134.239C185.459 134.325 185.652 134.27 185.836 134.076L185.872 133.99L185.829 133.972ZM183.62 137.873C183.091 139.685 182.971 140.652 183.259 140.774L183.453 141.517L183.435 141.561L183.065 141.353L183.01 141.483C183.241 142.462 184.071 143.628 185.502 144.979C185.654 145.179 185.906 145.387 186.256 145.603C186.774 145.822 189.119 145.812 193.291 145.574C193.582 145.528 193.764 145.418 193.837 145.245L193.928 145.03C194.168 143.74 194.536 142.267 195.033 140.611L194.965 140.531C195.098 140.215 194.891 139.822 194.343 139.353C192.469 137.848 191.143 136.931 190.366 136.602C187.972 136.167 186.164 136.268 184.945 136.906C184.208 137.205 183.766 137.527 183.62 137.873ZM197.802 140.56L197.709 140.419L197.654 140.549L197.784 140.604L197.802 140.56ZM197.628 141.454L197.369 141.344L197.296 141.517L197.371 141.701L197.555 141.626L197.628 141.454ZM195.79 141.949L195.606 142.024L195.662 142.251L195.853 142.281L195.908 142.152L195.833 141.967L195.79 141.949ZM197.29 142.736L197.16 142.681L197.142 142.724C196.737 143.842 196.621 144.438 196.794 144.511L196.917 144.461L196.953 144.375C197.209 143.77 197.321 143.224 197.29 142.736ZM195.022 143.405L194.96 143.43L194.851 143.689L194.907 143.917L194.951 143.935L195.196 143.835L195.306 143.576L195.195 143.478L195.022 143.405ZM196.976 149.015L196.847 148.961L196.737 149.22C196.694 149.643 196.744 149.884 196.888 149.945L197.018 150L197.073 149.87C197.152 149.361 197.12 149.076 196.976 149.015ZM181.033 142.428L180.91 142.478L180.892 142.521L180.942 142.644L181.157 142.735L181.194 142.649L181.119 142.464L181.033 142.428ZM195.346 149.14L195.161 149.215C195.162 149.453 195.223 149.631 195.342 149.75L195.386 149.768L195.631 149.668L195.668 149.582L195.561 149.232L195.346 149.14ZM188.83 147.098L188.793 147.185L188.966 147.258C189.369 147.428 189.974 147.48 190.782 147.415L190.801 147.372L190.628 147.299C189.601 147 189.001 146.933 188.83 147.098ZM195.985 150.276L195.826 150.412L195.789 150.498L195.889 150.744L196.062 150.817L196.228 150.786L196.264 150.699L196.158 150.349L195.985 150.276ZM185.175 146.113L184.991 146.188C184.987 146.356 185.072 146.477 185.245 146.55C185.586 146.626 185.774 146.621 185.811 146.534L185.829 146.491L185.736 146.35L185.175 146.113ZM180.213 144.728L180.011 144.846C180.016 145.153 180.596 145.789 181.75 146.751C182.096 147.135 182.629 147.48 183.349 147.784L183.367 147.741C183.404 147.654 182.924 147.265 181.927 146.572C181.367 146.132 180.839 145.535 180.343 144.783L180.213 144.728ZM222.584 135.871L222.621 135.785C222.77 136.153 223.261 136.598 224.092 137.119C224.668 137.363 225.597 138.536 226.879 140.639L227.349 141.092L227.565 141.183L228.178 141.9C228.724 142.776 228.994 143.382 228.987 143.718L228.951 143.805C228.902 143.92 228.638 144.063 228.159 144.233C227.865 144.686 226.859 145.38 225.141 146.316L225.068 146.489L224.928 146.939C224.525 146.768 224.08 146.699 223.592 146.73C223.419 146.657 223.346 146.389 223.372 145.925C222.757 145.054 222.516 144.46 222.649 144.143L223.752 142.981C223.983 142.434 223.197 141.644 221.395 140.61L218.661 139.251C217.683 138.838 216.18 138.66 214.153 138.719C213.025 138.819 211.88 139.523 210.717 140.829C209.742 142.012 209.07 142.678 208.702 142.827L208.398 142.342C208.111 142.459 207.87 142.747 207.676 143.208L208.365 143.143C208.451 143.179 208.466 143.304 208.41 143.518L207.268 145.376C207.371 145.454 207.285 146.418 207.011 148.27L206.772 148.475L206.699 148.647C206.782 148.852 206.697 149.376 206.442 150.218C206.336 151.191 206.828 152.315 207.918 153.59L209.494 156.241C212.056 157.324 214.553 157.718 216.984 157.423C219.66 156.552 221.107 155.858 221.326 155.34L221.427 154.619L221.463 154.533C221.594 154.384 222.519 153.961 224.239 153.263C224.297 153.288 224.442 153.587 224.675 154.16L224.602 154.333L224.411 154.303L224.083 154.114L224.04 154.095L223.967 154.268C225.025 154.817 225.456 155.321 225.261 155.782C225.466 156.581 225.552 157.703 225.518 159.148C225.69 159.221 225.688 159.627 225.511 160.366C225.796 160.656 225.931 160.9 225.915 161.097C225.806 161.356 225.572 161.427 225.214 161.309C224.467 161.231 223.648 161.444 222.756 161.949C222.174 160.516 221.855 159.787 221.797 159.763L218.783 160.27C217.836 160.345 216.901 160.509 215.979 160.764L210.93 160.309L210.203 160.103C209.281 159.714 208.036 158.848 206.466 157.506C204.861 155.844 204.07 154.746 204.092 154.212C202.903 150.283 202.644 147.527 203.313 145.944L203.804 144.421C204.497 143.424 205.135 142.235 205.719 140.854L208.071 138.54C208.412 137.734 209.397 136.929 211.026 136.125C212.121 135.061 214.206 134.501 217.284 134.445C218.396 134.542 220.163 135.017 222.584 135.871ZM214.345 135.136L214.272 135.309L216.882 135.395L218.581 135.349C219.176 135.465 219.492 135.48 219.529 135.394L219.547 135.351C218.309 134.827 216.59 134.762 214.388 135.155L214.345 135.136ZM223.435 137.35L223.194 137.198L223.089 137.204L223.034 137.334L223.127 137.475L223.343 137.566L223.435 137.35ZM218.551 136.864L218.46 137.079L218.898 137.367C220.597 138.085 221.607 138.342 221.931 138.14C221.967 138.053 221.761 137.898 221.313 137.675C220.034 137.168 219.114 136.898 218.551 136.864ZM222.782 138.652L222.264 138.433L222.246 138.477C222.173 138.649 222.412 138.886 222.964 139.187L223.166 139.069C223.227 138.925 223.099 138.786 222.782 138.652ZM223.568 139.442L223.482 139.406L223.463 139.449L223.502 139.72L223.631 139.775L223.686 139.645L223.568 139.442ZM216.521 136.972L216.448 137.145L216.62 137.218C217.343 137.354 217.735 137.35 217.796 137.206L217.721 137.022L217.635 136.985C216.916 136.919 216.545 136.915 216.521 136.972ZM213.54 135.356L213.251 135.437L213.196 135.567L213.326 135.621L213.694 135.472L213.712 135.429L213.54 135.356ZM218.738 138.469L219.133 138.738L219.176 138.756C220.109 139.117 220.641 139.223 220.772 139.075L220.827 138.945L220.352 138.744C219.373 138.331 218.835 138.239 218.738 138.469ZM222.06 139.518L221.672 139.353L221.635 139.44C221.599 139.526 221.957 139.762 222.71 140.148L222.746 140.062L222.06 139.518ZM225.493 141.63L225.277 141.539L225.204 141.712L225.29 141.748L225.475 141.674L225.493 141.63ZM214.792 137.208L214.51 137.394L214.492 137.438L214.664 137.511L214.867 137.393L214.792 137.208ZM227.171 143.561L227.152 143.604L227.375 143.8L227.418 143.818L227.743 143.65L227.835 143.435L227.785 143.312C227.497 143.19 227.292 143.273 227.171 143.561ZM211.877 137.604L211.963 137.641C212.463 137.581 212.762 137.436 212.859 137.206C212.514 137.06 212.186 137.192 211.877 137.604ZM209.783 138.704L209.765 138.747L209.84 138.932L209.883 138.95C210.309 138.825 210.571 138.647 210.668 138.417L210.705 138.33L210.618 138.294C210.159 138.337 209.881 138.474 209.783 138.704ZM209.641 139.763L209.511 139.709L208.168 140.719L208.077 140.934L208.133 141.162L208.263 141.217C208.378 141.265 208.795 140.882 209.513 140.066L209.641 139.763ZM205.498 144.628L205.443 144.757C205.321 145.045 205.378 145.273 205.612 145.44C205.814 145.525 206.037 145.077 206.283 144.095L206.331 143.861L206.201 143.806C206.115 143.769 205.881 144.043 205.498 144.628ZM206.508 145.971C206.274 146.042 206.09 146.236 205.956 146.552C205.896 146.696 205.903 147.039 205.98 147.58C205.946 148.142 206.058 148.478 206.317 148.588L206.372 148.458C206.555 148.026 206.6 147.197 206.508 145.971ZM224.579 155.952L224.406 155.879L224.333 156.051C224.187 156.397 224.265 157.736 224.568 160.069L224.809 160.222L224.993 160.147C224.861 159.175 224.821 158.107 224.873 156.941L224.579 155.952ZM223.177 156.377L223.141 156.463C223.075 157.182 223.128 157.577 223.301 157.65L223.46 157.514L223.533 157.342C223.613 156.832 223.494 156.511 223.177 156.377ZM205.022 149.363L204.893 149.309L204.802 149.525C204.795 149.861 204.921 150.084 205.18 150.194C205.278 149.963 205.225 149.687 205.022 149.363ZM219.483 157.411L219.57 157.447C219.726 157.479 219.998 157.357 220.387 157.08L220.441 156.951C220.153 156.829 219.834 156.982 219.483 157.411ZM205.441 150.66L205.332 150.919C205.366 151.239 205.47 151.436 205.642 151.509L205.729 151.545L205.82 151.329C205.827 150.993 205.7 150.77 205.441 150.66ZM204.449 151.564L204.189 151.454L204.171 151.497C203.989 151.929 204.255 152.584 204.969 153.463L205.357 153.627L205.394 153.541C205.528 153.224 205.213 152.565 204.449 151.564ZM222.76 160.374L222.651 160.633L222.744 160.774L223.003 160.883C223.089 160.92 223.39 160.81 223.906 160.553L223.924 160.51C223.961 160.423 223.765 160.205 223.336 159.854C223.135 159.769 222.943 159.942 222.76 160.374ZM215.912 158.395L215.955 158.413L216.023 158.493C216.865 158.509 217.352 158.359 217.486 158.042C216.522 158.076 215.997 158.193 215.912 158.395ZM204.911 154.202C204.987 154.743 205.75 155.829 207.198 157.459L207.995 158.101L208.082 158.138L208.136 158.008C206.623 156.452 205.786 155.301 205.627 154.555C205.531 154.379 205.412 154.261 205.268 154.2L205.052 154.109C204.994 154.085 204.947 154.116 204.911 154.202ZM206.606 154.766L206.477 154.711C206.379 154.941 206.776 155.448 207.666 156.232L209.49 157.817L209.921 158L210.167 157.9L210.222 157.77L210.179 157.752C209.603 157.509 209.156 157.082 208.837 156.472L208.255 155.921L208.169 155.885L207.8 156.034L207.757 156.016C207.556 155.931 207.172 155.514 206.606 154.766ZM214.614 159.78L214.7 159.816C215.407 159.911 216.038 159.822 216.595 159.549L216.613 159.505L216.527 159.469C216.239 159.347 215.601 159.451 214.614 159.78ZM213.679 158.621L213.661 158.664L213.747 158.701C214.006 158.81 214.195 158.805 214.313 158.686L214.35 158.599C213.963 158.47 213.74 158.477 213.679 158.621ZM210.458 159.499L210.44 159.542C210.379 159.686 210.639 159.914 211.219 160.227L211.292 160.055L211.285 159.95L211.512 159.894L211.431 159.605L211.172 159.495C210.745 159.382 210.507 159.384 210.458 159.499ZM249.617 134.526C250.25 134.793 250.695 135.185 250.952 135.701C250.217 136.476 249.372 137.832 248.418 139.769L246.35 143.577C246.265 143.779 246.798 144.123 247.949 144.61C251.346 146.045 252.977 146.922 252.843 147.238C252.987 147.299 253.123 147.459 253.252 147.716C252.806 147.969 252.546 148.182 252.473 148.354L252.418 148.484L252.183 149.402L250.818 151.064C250.733 151.266 250.827 151.645 251.101 152.202L251.064 152.288C250.276 152.226 249.666 152.104 249.235 151.922C248.786 151.698 248.586 151.529 248.635 151.414L248.672 151.327L249.078 151.448L249.381 151.576L249.626 151.477L249.663 151.39L249.508 151.274L246.597 150.094L244.241 149.047C244.097 148.986 243.598 149.725 242.744 151.264L242.701 151.246L242.388 150.3L242.058 150.72L241.948 150.979C241.637 151.797 241.555 152.271 241.703 152.402C241.818 152.451 242.029 152.234 242.334 151.753L242.462 151.45L242.591 151.505L242.58 151.653L240.525 155.67C238.352 161.774 237.394 164.881 237.654 164.99C237.408 165.972 237.573 166.585 238.149 166.828C238.38 167.164 238.726 167.429 239.187 167.623L239.964 167.952L242.609 168.918C242.667 168.942 242.445 169.747 241.944 171.334C241.807 171.819 241.566 172.107 241.222 172.199C240.894 172.332 240.443 172.277 239.867 172.033L236.506 170.714C234.693 169.948 233.38 168.799 232.568 167.268C231.884 166.64 231.846 165.606 232.455 164.167C232.726 163.365 233.598 161.02 235.073 157.131L238.073 151.478L239.28 148.985L239.426 148.64C239.735 147.346 239.645 146.596 239.156 146.389L237.861 145.841L236.35 145.202C235.918 145.02 235.444 144.938 234.927 144.957C234.651 144.806 234.455 144.266 234.34 143.335L236.828 139.857C236.877 139.742 238.649 140.406 242.144 141.85C242.302 141.476 242.704 141.086 243.35 140.681C245.364 136.239 246.471 134.061 246.673 134.146L246.727 134.017C246.752 133.959 246.692 133.9 246.548 133.839L246.603 133.709C246.639 133.623 247.644 133.895 249.617 134.526ZM247.483 134.998L247.44 134.979L247.33 135.238L247.46 135.293L247.533 135.121L247.483 134.998ZM249.303 135.869L249.057 135.969L249.021 136.055L248.731 137.103L248.817 137.139C249.308 136.94 249.609 136.711 249.718 136.452L249.791 136.279L249.735 136.051L249.303 135.869ZM247.074 136.809L246.999 136.625C246.82 136.889 246.633 137.251 246.438 137.711L246.365 137.884L246.451 137.92L246.891 137.241L247.074 136.809ZM246.436 138.677L246.35 138.641L244.37 142.842L244.352 142.885L244.427 143.07L244.513 143.106C244.715 143.191 244.968 142.874 245.272 142.155L245.692 141.162L246.5 139.009C246.515 138.812 246.494 138.702 246.436 138.677ZM236.868 140.485C236.783 140.686 236.87 140.842 237.129 140.951L237.777 141.225C238.957 141.724 240.075 142.129 241.131 142.44L241.167 142.353C241.228 142.209 240.553 141.839 239.143 141.243L237.33 140.476C237.071 140.367 236.917 140.37 236.868 140.485ZM250.412 146.007L249.759 145.986L249.241 145.767L248.507 145.456L248.452 145.586C249.013 146.026 249.523 146.344 249.984 146.538L250.977 146.958C251.034 146.983 251.081 146.952 251.118 146.865C251.194 146.524 251.103 146.299 250.844 146.19L250.412 146.007ZM251.438 146.95L251.272 146.981L251.236 147.068L251.347 147.166C251.635 147.287 251.817 147.297 251.895 147.194L251.913 147.151L251.438 146.95ZM237.212 141.597L237.089 141.647L236.98 141.906C236.858 142.194 237.761 142.746 239.69 143.561C240.669 143.975 241.188 144.109 241.249 143.966C241.395 143.62 240.208 142.898 237.687 141.798L237.212 141.597ZM246.244 145.874L246.06 145.948L246.042 145.992C245.981 146.135 246.462 146.441 247.486 146.908L248.239 147.175L249.159 147.767L249.331 147.84C249.533 147.926 249.67 147.882 249.743 147.709L249.7 147.691L246.546 146.001L246.244 145.874ZM250.506 148.795L250.26 148.894L250.242 148.938L250.36 149.14L250.575 149.231C250.834 149.341 251.029 149.322 251.16 149.173L251.067 149.032L250.506 148.795ZM236.962 143.273L236.734 143.329C236.686 143.444 236.733 143.532 236.877 143.593L237.938 144.093L239.122 144.542L239.184 144.517L239.22 144.431C238.924 144.17 238.3 143.839 237.35 143.437L236.962 143.273ZM239.983 145.517L236.497 143.89L236.461 143.977C236.375 144.178 237.427 144.741 239.614 145.666L239.996 145.726L240.014 145.683L239.983 145.517ZM246.102 148.256L245.886 148.165L245.831 148.295C245.836 148.364 246.279 148.721 247.16 149.365L247.246 149.402L247.283 149.315C246.956 148.804 246.563 148.451 246.102 148.256ZM248.121 149.619C248.789 150.207 249.425 150.628 250.03 150.884L250.275 150.784L250.385 150.525L250.31 150.341L249.36 149.939C248.583 149.611 248.17 149.504 248.121 149.619ZM241.463 148.636L241.317 148.982L241.392 149.166C241.519 149.186 241.619 149.109 241.692 148.937L241.765 148.764L241.807 148.425L241.763 148.407C241.636 148.387 241.536 148.463 241.463 148.636ZM242.732 150.089L242.589 149.825L242.534 149.954L242.634 150.2L242.677 150.218L242.732 150.089ZM241.314 149.591L241.227 149.554L241.093 149.752L241.002 149.968L240.935 150.245L241.108 150.318L241.272 149.93L241.364 149.714L241.314 149.591ZM240.141 152.607L240.011 152.552L239.865 152.897L239.922 153.125L240.008 153.161L240.081 152.988L240.141 152.607ZM235.75 157.214L235.369 158.477L234.687 159.97L234.547 160.42L234.677 160.475C234.85 160.548 235.222 159.908 235.794 158.555L236.214 157.562C236.773 156.238 236.996 155.552 236.881 155.503C236.679 155.418 236.302 155.988 235.75 157.214ZM237.115 161.811L237.028 161.774L236.857 162.058L236.711 162.404C236.626 162.605 236.635 162.745 236.738 162.822L236.824 162.859C236.952 162.879 237.052 162.802 237.125 162.63C237.291 162.157 237.287 161.884 237.115 161.811ZM236.675 163.814L236.302 164.215C236.022 164.877 235.989 165.356 236.204 165.65L236.364 165.514L236.528 165.125C236.803 164.394 236.852 163.956 236.675 163.814ZM234.864 163.404L234.734 163.349L234.46 163.997L234.437 164.292L234.48 164.311L234.603 164.261L234.913 163.527L234.864 163.404ZM234.966 166.653L234.948 166.696L234.838 166.956C234.818 167.083 234.87 167.241 234.994 167.429L235.296 167.556L235.333 167.47C235.467 167.153 235.344 166.881 234.966 166.653ZM239.393 169.543L239.566 169.616C240.704 169.893 241.316 169.931 241.401 169.73L241.351 169.607C240.107 169.42 239.454 169.399 239.393 169.543ZM233.777 166.456L233.691 166.42L233.618 166.592C233.4 167.348 233.564 167.842 234.111 168.073L234.543 168.256L234.684 168.163L234.702 168.119C234.727 168.062 234.51 167.852 234.053 167.489L233.777 166.456Z" fill="white"/>
</svg>
