<svg width="491" height="138" viewBox="0 0 491 138" fill="none" xmlns="http://www.w3.org/2000/svg">
<g filter="url(#filter0_d_251_149)">
<path d="M28 99H14.5H6L12 96L26 89L39 80.5L52.5 71.5L61.5 65L68.5 57.5H84.5L96.5 55L111 51.5L131.5 44.5L153 37.5L169 34H180L195 36L212 40L232 46.5L255 53L269.5 55L276 54L297.5 46.5L319 38.5L340 29L357 22L379.5 14L401.5 6L411.5 3L419.5 4L429 6L439.5 11L449.5 16.5L459.5 22L468 25.5L486.5 27L466.5 30L458 32L443 31L428 25.5L418 23L410.5 24L402.5 30L393 40L390.5 45.5L392.5 49L395.5 51.5L399.5 54L405 56L412.5 58.5H420.5L418 60L403 70L392.5 76.5L369.5 89L356 98L338.5 108.5L328 113.5L304.5 121.5L291.5 124L277.5 125L254 123L238.5 120L224.5 118L206.5 112.5L187.5 108L172.5 107L155.5 109.5L144 113.5L121.5 121L102 127H84.5L69.5 124L52.5 115.5L37 105L28 99Z" fill="#F7606F"/>
<path d="M28 99H14.5H6L12 96L26 89L39 80.5L52.5 71.5L61.5 65L68.5 57.5H84.5L96.5 55L111 51.5L131.5 44.5L153 37.5L169 34H180L195 36L212 40L232 46.5L255 53L269.5 55L276 54L297.5 46.5L319 38.5L340 29L357 22L379.5 14L401.5 6L411.5 3L419.5 4L429 6L439.5 11L449.5 16.5L459.5 22L468 25.5L486.5 27L466.5 30L458 32L443 31L428 25.5L418 23L410.5 24L402.5 30L393 40L390.5 45.5L392.5 49L395.5 51.5L399.5 54L405 56L412.5 58.5H420.5L418 60L403 70L392.5 76.5L369.5 89L356 98L338.5 108.5L328 113.5L304.5 121.5L291.5 124L277.5 125L254 123L238.5 120L224.5 118L206.5 112.5L187.5 108L172.5 107L155.5 109.5L144 113.5L121.5 121L102 127H84.5L69.5 124L52.5 115.5L37 105L28 99Z" stroke="white" stroke-width="5"/>
</g>
<path d="M81.7181 89.0223C81.5882 88.6001 81.599 88.1347 81.7506 87.6259C80.9647 87.3748 80.1777 87.3705 79.3897 87.613C78.1514 87.9941 77.2985 88.8266 76.8309 90.1104C76.3828 91.3574 76.4229 92.8393 76.9513 94.556C77.4969 96.3291 78.3424 97.6247 79.4876 98.443C80.6329 99.2613 81.881 99.4626 83.2319 99.0468C84.6109 98.6225 85.3946 97.5649 85.5828 95.874C85.691 94.8241 85.8469 94.1291 86.0504 93.7892C86.3404 93.3302 86.9076 92.9708 87.7519 92.711C88.7088 92.4165 89.5737 92.4739 90.3466 92.883C91.1108 93.264 91.6315 93.9048 91.9087 94.8054C92.4976 96.7191 92.0799 98.6654 90.6555 100.644C89.231 102.623 87.2242 104.011 84.635 104.808C81.3141 105.83 78.3568 105.631 75.7632 104.211C73.1609 102.762 71.3314 100.321 70.2748 96.8879C69.2095 93.4263 69.3782 90.3705 70.7809 87.7206C72.1837 85.0707 74.6018 83.2174 78.0353 82.1607C80.5119 81.3986 82.7342 81.3617 84.7022 82.05C86.6896 82.7016 87.9604 83.9279 88.5147 85.7291C88.8612 86.8549 88.7768 87.8821 88.2616 88.8109C87.7377 89.7115 86.8988 90.3394 85.745 90.6945C84.7881 90.989 83.9405 90.9879 83.2023 90.6914C82.4554 90.3666 81.9607 89.8103 81.7181 89.0223Z" fill="white"/>
<path d="M112.202 95.9765C108.738 97.131 105.73 97.0472 103.179 95.7249C100.656 94.3932 98.8026 91.9535 97.6201 88.4058C96.4469 84.8859 96.4703 81.8364 97.6902 79.2571C98.9007 76.6498 101.196 74.7829 104.576 73.6563C107.901 72.5483 110.838 72.6554 113.39 73.9777C115.969 75.2907 117.827 77.6513 118.963 81.0594C120.154 84.6351 120.15 87.7405 118.948 90.3757C117.775 93.0015 115.526 94.8685 112.202 95.9765ZM106.294 78.8103C105.065 79.22 104.269 80.0906 103.906 81.4222C103.561 82.7165 103.701 84.2995 104.325 86.1711C104.958 88.0707 105.8 89.4349 106.853 90.2637C107.933 91.0831 109.115 91.2787 110.4 90.8504C112.998 89.9845 113.627 87.5402 112.286 83.5175C110.945 79.4948 108.948 77.9258 106.294 78.8103Z" fill="white"/>
<path d="M134.049 68.2105C136.263 67.8851 138.429 68.4448 140.546 69.8896L140.083 66.7432C139.929 65.6944 139.488 65.2236 138.76 65.3306C138.585 65.3563 138.239 65.4368 137.724 65.5722C137.362 65.7443 136.992 65.8583 136.613 65.9139C136.06 65.9953 135.559 65.8307 135.112 65.4203C134.665 65.0098 134.39 64.455 134.287 63.7558C134.013 61.8913 134.866 60.8134 136.848 60.5223C137.488 60.4281 137.957 60.3741 138.252 60.3604C139.435 60.3057 140.23 60.2484 140.638 60.1884C141.017 60.1328 141.566 60.0223 142.286 59.857C143.005 59.6917 143.54 59.5833 143.89 59.5319C144.618 59.4249 145.139 59.5269 145.452 59.838C145.791 60.1156 146.026 60.706 146.159 61.6091L149.081 81.4924C149.3 82.9782 149.686 83.6804 150.239 83.5991C150.414 83.5734 150.626 83.4976 150.876 83.3716C151.042 83.2877 151.271 83.2243 151.562 83.1815C152.815 82.9974 153.55 83.6482 153.769 85.134C153.901 86.0371 153.792 86.8121 153.441 87.459C153.085 88.0768 152.543 88.4392 151.815 88.5462L151.552 88.5847L149.984 88.5473C149.626 88.5404 149.127 88.5841 148.486 88.6783C147.728 88.7896 147.106 88.9108 146.62 89.0419C145.904 89.2363 145.517 89.3378 145.459 89.3464C144.556 89.4791 144.027 89.0211 143.873 87.9723L143.635 86.3554C142.502 89.1709 140.42 90.8013 137.39 91.2466C134.71 91.6405 132.335 90.8734 130.266 88.9454C128.222 86.9839 126.953 84.328 126.461 80.9777C125.96 77.5691 126.4 74.6919 127.782 72.3459C129.192 69.9957 131.281 68.6173 134.049 68.2105ZM136.388 73.4918C135.31 73.6503 134.496 74.2907 133.947 75.4131C133.426 76.5312 133.251 77.9707 133.421 79.7316C133.421 79.7316 133.448 79.9209 133.504 80.2997C133.765 82.0768 134.306 83.4259 135.126 84.3471C135.975 85.264 136.982 85.6368 138.147 85.4655C139.429 85.2771 140.382 84.5716 141.006 83.3489C141.659 82.122 141.851 80.5908 141.581 78.7555C141.32 76.9783 140.717 75.6086 139.772 74.6463C138.827 73.684 137.699 73.2992 136.388 73.4918Z" fill="white"/>
<path d="M182.338 73.662C182.333 74.8987 182.167 75.7224 181.841 76.1332C181.545 76.5441 180.94 76.7475 180.028 76.7433L169.25 76.6942C168.72 76.6918 168.381 76.7491 168.234 76.8663C168.116 76.9541 168.055 77.2041 168.054 77.6163C168.048 78.853 168.441 79.8855 169.232 80.7136C170.023 81.5417 171.023 81.9585 172.23 81.964C173.467 81.9696 174.736 81.2981 176.038 79.9495C176.925 79.0113 177.899 78.5446 178.959 78.5494C179.843 78.5534 180.548 78.8069 181.076 79.3099C181.633 79.813 181.91 80.4474 181.906 81.213C181.899 82.9208 180.95 84.3741 179.06 85.5728C177.199 86.7422 174.929 87.3208 172.25 87.3086C168.746 87.2926 165.953 86.2198 163.872 84.0902C161.791 81.9606 160.759 79.129 160.775 75.5955C160.791 72.0326 161.835 69.1663 163.906 66.9967C166.007 64.7978 168.735 63.706 172.092 63.7213C175.213 63.7355 177.697 64.645 179.544 66.4496C181.421 68.2544 182.352 70.6585 182.338 73.662ZM168.303 71.3896C168.302 71.5662 168.346 71.7137 168.433 71.8318C168.521 71.95 168.83 72.0103 169.36 72.0127L174.307 72.0353C174.749 72.0373 175.014 71.9943 175.103 71.9064C175.221 71.7892 175.281 71.598 175.282 71.333C175.285 70.5674 174.95 69.9034 174.275 69.3408C173.6 68.7488 172.807 68.4507 171.894 68.4466C170.716 68.4412 169.757 68.8932 169.017 69.8027C168.543 70.3895 168.305 70.9184 168.303 71.3896Z" fill="white"/>
<path d="M206.142 81.2325L204.231 84.6182L203.231 86.3047L200.777 90.9958L198.897 94.7875C197.818 96.9238 197.027 98.1939 196.523 98.5978C196.048 99.006 195.097 99.108 193.668 98.904C191.453 98.5875 190.408 97.9921 190.533 97.1176C190.603 96.622 191.368 95.229 192.825 92.9386C193.133 92.4472 193.793 91.3666 194.805 89.6967C196.367 87.094 197.366 85.4074 197.803 84.637L203.375 74.6801L206.573 68.5335L208.328 64.9917C209.044 63.5176 209.686 62.5681 210.252 62.1433C210.847 61.7227 211.684 61.5895 212.763 61.7435C215.182 62.0891 216.321 62.7575 216.18 63.7486C216.122 64.1567 215.784 64.8521 215.168 65.8349L213.725 68.1274C213.567 68.4022 212.851 69.6682 211.576 71.9252C211.185 72.5832 210.286 74.0907 208.878 76.4477C208.407 77.2431 207.496 78.8381 206.142 81.2325Z" fill="white"/>
<path d="M234.538 77.8176C236.768 78.0075 238.748 79.048 240.479 80.939L240.749 77.7703C240.839 76.714 240.517 76.1547 239.783 76.0922C239.607 76.0772 239.253 76.0766 238.72 76.0903C238.328 76.1751 237.942 76.2013 237.56 76.1688C237.003 76.1214 236.553 75.8467 236.212 75.3447C235.871 74.8428 235.73 74.2398 235.79 73.5356C235.95 71.6579 237.027 70.804 239.022 70.9739C239.668 71.0289 240.136 71.0835 240.427 71.1379C241.591 71.3552 242.378 71.4813 242.788 71.5163C243.17 71.5488 243.73 71.5669 244.468 71.5707C245.207 71.5745 245.752 71.5914 246.104 71.6214C246.838 71.6839 247.321 71.9024 247.556 72.277C247.821 72.6247 247.916 73.2533 247.838 74.1629L246.133 94.1873C246.005 95.6836 246.22 96.4555 246.778 96.503C246.954 96.518 247.177 96.4927 247.449 96.4272C247.63 96.3835 247.867 96.3742 248.161 96.3992C249.422 96.5066 249.989 97.3085 249.862 98.8048C249.784 99.7144 249.501 100.444 249.011 100.993C248.523 101.513 247.912 101.742 247.179 101.679L246.915 101.657L245.397 101.262C245.05 101.173 244.554 101.101 243.908 101.046C243.145 100.981 242.512 100.957 242.008 100.973C241.267 100.998 240.867 101.009 240.809 101.004C239.899 100.926 239.489 100.359 239.579 99.3032L239.718 97.6749C237.97 100.156 235.57 101.267 232.519 101.007C229.82 100.777 227.684 99.4869 226.111 97.1364C224.57 94.7592 223.943 91.8835 224.23 88.5094C224.522 85.0767 225.609 82.3765 227.491 80.409C229.402 78.444 231.751 77.5802 234.538 77.8176ZM235.607 83.494C234.521 83.4016 233.582 83.8388 232.791 84.8057C232.028 85.7751 231.528 87.1363 231.29 88.8892C231.29 88.8892 231.274 89.0799 231.242 89.4613C231.089 91.251 231.307 92.6881 231.894 93.7724C232.511 94.8593 233.406 95.4527 234.579 95.5527C235.87 95.6626 236.959 95.1939 237.847 94.1464C238.763 93.1015 239.3 91.6548 239.457 89.8064C239.61 88.0167 239.336 86.5453 238.637 85.3923C237.937 84.2392 236.927 83.6065 235.607 83.494Z" fill="white"/>
<path d="M273.379 87.4678C273.613 88.6823 273.609 89.5225 273.369 89.9885C273.158 90.4489 272.604 90.7653 271.707 90.9376L261.124 92.9718C260.603 93.0719 260.282 93.1936 260.16 93.3371C260.061 93.4461 260.05 93.703 260.128 94.1078C260.361 95.3223 260.946 96.2593 261.883 96.9189C262.819 97.5785 263.88 97.7944 265.065 97.5665C266.28 97.3331 267.396 96.429 268.412 94.8543C269.102 93.7622 269.967 93.1161 271.008 92.916C271.876 92.7493 272.617 92.8617 273.232 93.2532C273.876 93.6392 274.27 94.2081 274.415 94.96C274.737 96.6371 274.087 98.2464 272.464 99.7877C270.865 101.294 268.749 102.301 266.118 102.807C262.677 103.468 259.729 102.955 257.276 101.268C254.823 99.5802 253.263 97.0015 252.596 93.5315C251.923 90.0326 252.393 87.0187 254.006 84.4898C255.643 81.9264 258.109 80.3279 261.405 79.6943C264.471 79.1052 267.084 79.5175 269.244 80.9312C271.434 82.3394 272.812 84.5183 273.379 87.4678ZM259.169 87.9502C259.203 88.1237 259.274 88.26 259.383 88.359C259.492 88.458 259.806 88.4574 260.327 88.3574L265.185 87.4236C265.619 87.3403 265.871 87.2469 265.941 87.1434C266.034 87.0055 266.056 86.8065 266.006 86.5462C265.861 85.7944 265.404 85.2077 264.633 84.7861C263.857 84.3356 263.02 84.1965 262.124 84.3688C260.967 84.5911 260.114 85.22 259.563 86.2553C259.212 86.9226 259.08 87.4876 259.169 87.9502Z" fill="white"/>
<path d="M284.515 74.8004C286.661 74.0697 288.677 74.0522 290.562 74.7478C290.275 73.5391 290.828 72.6975 292.222 72.223C293.644 71.7391 294.525 71.9988 294.867 73.0023C294.981 73.3368 295.053 73.7321 295.084 74.1882C295.171 74.7184 295.291 75.2065 295.443 75.6525C295.471 75.7362 295.561 75.9544 295.712 76.3073C295.836 76.6697 295.945 76.9902 296.04 77.269L296.097 77.4362C296.6 78.9136 296.112 79.9038 294.635 80.4067C293.576 80.7673 292.476 80.5509 291.334 79.7573C289.95 78.7977 288.575 78.5504 287.209 79.0154C285.592 79.5658 284.974 80.3985 285.353 81.5135C285.553 82.0989 285.96 82.4269 286.575 82.4974C287.181 82.5401 288.679 82.3723 291.069 81.9939C293.023 81.7021 294.503 81.6181 295.51 81.7421C296.544 81.8565 297.473 82.2091 298.296 82.7998C299.334 83.5661 300.081 84.6182 300.537 85.9562C301.258 88.0747 301.038 90.1247 299.878 92.1062C298.745 94.0782 296.952 95.4818 294.499 96.3169C292.046 97.152 289.55 97.1306 287.012 96.2529C287.477 97.6188 287.013 98.539 285.619 99.0134C284.114 99.5259 283.152 99.1689 282.735 97.9424C282.64 97.6636 282.52 97.2221 282.377 96.6177C282.233 96.0133 282.114 95.5718 282.019 95.293C281.934 95.0422 281.778 94.6754 281.551 94.1926C281.353 93.7003 281.211 93.3288 281.125 93.0779C280.698 91.8235 281.265 90.9306 282.826 90.3992C283.579 90.143 284.188 90.0599 284.654 90.1501C285.121 90.2402 285.686 90.5299 286.35 91.0192C287.398 91.8134 288.272 92.278 288.971 92.4132C289.661 92.5206 290.577 92.3797 291.72 91.9906C293.727 91.3074 294.517 90.3386 294.09 89.0842C293.796 88.2201 292.783 87.896 291.053 88.1119L288.457 88.4357C286.335 88.6914 284.785 88.7525 283.807 88.619C282.856 88.4761 281.992 88.0393 281.214 87.3086C280.427 86.5501 279.834 85.5854 279.436 84.4147C278.724 82.3241 278.828 80.3912 279.748 78.6161C280.696 76.8315 282.285 75.5596 284.515 74.8004Z" fill="white"/>
<path d="M308.867 65.1036C309.623 64.7751 310.23 65.1376 310.688 66.1909L315.984 78.3854C316.582 79.7629 317.138 80.3402 317.651 80.1173C317.759 80.0704 317.936 79.9613 318.183 79.7899C318.445 79.5799 318.67 79.4338 318.859 79.3517C319.994 78.859 320.866 79.3149 321.476 80.7194C322.285 82.583 321.893 83.8608 320.3 84.5529C320.03 84.6702 319.244 84.9311 317.943 85.3357C317.151 85.5831 316.27 85.9179 315.297 86.3402C314.811 86.5513 314.119 86.9162 313.22 87.4348C312.322 87.9534 311.643 88.3124 311.184 88.5118C310.455 88.8285 309.755 88.8435 309.085 88.5567C308.403 88.2429 307.892 87.6944 307.552 86.9112C306.883 85.3717 307.197 84.3204 308.493 83.7574C308.493 83.7574 308.88 83.6859 309.652 83.543C309.772 83.5231 309.872 83.4955 309.953 83.4603C310.44 83.2492 310.354 82.3874 309.697 80.8749L306.847 74.3117C306.178 72.7722 305.614 72.1022 305.155 72.3016C305.074 72.3368 304.86 72.5099 304.514 72.8209C304.267 72.9922 304.063 73.113 303.901 73.1834C302.605 73.7465 301.628 73.2717 300.971 71.7592C300.619 70.949 300.567 70.201 300.815 69.5155C301.051 68.8029 301.548 68.2824 302.304 67.954C302.601 67.8249 303.051 67.6778 303.653 67.5125C304.657 67.237 305.443 66.976 306.01 66.7297C306.469 66.5303 307.04 66.2182 307.722 65.7935C308.404 65.3687 308.786 65.1388 308.867 65.1036ZM305.889 64.567C304.89 65.001 303.867 65.0117 302.821 64.5992C301.775 64.1867 301.035 63.4807 300.601 62.4814C300.156 61.4551 300.131 60.4383 300.529 59.4311C300.941 58.3852 301.661 57.6393 302.687 57.1936C303.713 56.7478 304.736 56.7371 305.755 57.1614C306.789 57.5469 307.529 58.2528 307.975 59.2791C308.421 60.3055 308.437 61.3416 308.025 62.3876C307.627 63.3948 306.916 64.1213 305.889 64.567Z" fill="white"/>
<path d="M323.978 59.204C323.978 59.204 324.46 58.9182 325.424 58.3465C324.615 57.0806 324.386 55.8352 324.738 54.6102C325.072 53.3606 325.95 52.2622 327.371 51.3148C328.523 50.5471 329.674 50.2041 330.826 50.2858C332.002 50.3511 332.892 50.8371 333.497 51.7436C333.905 52.3561 334.04 53.0094 333.901 53.7036C333.787 54.3815 333.423 54.9246 332.811 55.3329C332.125 55.7903 331.451 55.8678 330.789 55.5657L330.03 55.2227C329.817 55.1165 329.601 55.1369 329.38 55.2839C328.866 55.6269 328.846 56.1537 329.319 56.8642C329.434 57.0357 329.527 57.15 329.601 57.2072C332.508 56.4722 334.795 57.3542 336.461 59.8533C337.719 61.7398 337.997 63.7489 337.294 65.8804C336.616 67.9956 335.089 69.8454 332.713 71.4298C331.439 72.2791 329.94 72.8712 328.217 73.2061L327.984 73.2551C327.812 73.7941 327.841 74.2351 328.07 74.5781C328.625 75.4111 329.556 75.5336 330.863 74.9456C331.304 74.7578 332.223 74.1984 333.619 73.2673L334.023 72.9978L336.351 71.393C338.687 69.8005 340.802 69.0451 342.697 69.1267C344.591 69.2084 346.11 70.1068 347.254 71.8218C348.707 74.0023 348.895 76.3544 347.817 78.878C346.755 81.426 344.583 83.7944 341.3 85.9831C338.36 87.9432 335.628 88.9681 333.105 89.058C330.622 89.156 328.776 88.2984 327.567 86.4854C326.261 84.5254 326.592 82.3407 328.56 79.9315C326.338 80.8462 324.615 80.3848 323.39 78.5472C322.753 77.5917 322.463 76.7056 322.52 75.8889C322.586 75.0314 323.006 73.9901 323.782 72.7651C322.247 72.3731 321.087 71.5891 320.303 70.413C319.16 68.698 318.939 66.7747 319.642 64.6431C320.352 62.4708 321.798 60.6577 323.978 59.204ZM326.845 62.8668C326.159 63.3242 325.738 63.9408 325.583 64.7166C325.436 65.4517 325.591 66.1622 326.048 66.8482C326.506 67.5342 327.11 67.963 327.861 68.1345C328.637 68.2896 329.368 68.1385 330.054 67.6812C330.74 67.2239 331.149 66.6154 331.279 65.8559C331.434 65.0801 331.292 64.3614 330.851 63.6999C330.393 63.0138 329.777 62.5933 329.001 62.4381C328.249 62.2666 327.531 62.4095 326.845 62.8668ZM335.861 77.9837C335.273 78.3757 334.505 78.8167 333.558 79.3067C332.749 80.4828 332.574 81.4138 333.031 82.0998C333.897 83.3983 335.775 83.0839 338.666 81.1565C341.582 79.2128 342.607 77.5917 341.741 76.2931C341.039 75.2396 339.732 75.3499 337.821 76.6239C337.747 76.6729 337.425 76.9057 336.853 77.3222C336.853 77.3222 336.522 77.5427 335.861 77.9837Z" fill="white"/>
<path d="M347.757 49.3462L348.873 51.149C349.406 47.7022 350.887 45.2272 353.316 43.724C355.92 42.1122 358.364 41.9496 360.65 43.2361C361.845 43.8812 363.11 45.2804 364.443 47.4336L367.93 53.0671C368.72 54.344 369.365 54.8275 369.866 54.5176C369.991 54.4401 370.156 54.2863 370.36 54.0562C370.454 53.9286 370.626 53.7874 370.877 53.6324C371.978 52.9505 372.932 53.2605 373.738 54.5625C374.807 56.2901 374.591 57.6188 373.089 58.5487C372.688 58.7966 372.056 59.1185 371.193 59.5143C370.33 59.9101 369.698 60.2319 369.297 60.4799C368.671 60.8673 368.039 61.3281 367.4 61.8622C366.761 62.3963 366.216 62.8028 365.765 63.0818C364.288 63.9961 363.077 63.6897 362.131 62.1623C361.31 60.8353 361.389 59.8166 362.369 59.1061C363.014 58.6376 363.159 58.1154 362.802 57.5395L359.548 52.2816C358.649 50.8294 357.833 49.9316 357.101 49.5882C356.354 49.2197 355.529 49.3145 354.628 49.8724C353.601 50.5078 352.967 51.3852 352.725 52.5047C352.508 53.6087 352.733 54.6991 353.399 55.7757L355.817 59.6816C356.514 60.8083 356.99 61.4658 357.245 61.6542C357.485 61.8175 357.866 61.7895 358.388 61.5702C359.367 61.1375 360.236 61.5345 360.996 62.7614C361.972 64.3388 361.797 65.5381 360.47 66.3595C360.094 66.592 359.608 66.8411 359.01 67.107C358.006 67.5552 357.279 67.9188 356.828 68.1978C356.378 68.4767 355.733 68.9452 354.893 69.6033C354.079 70.2459 353.447 70.7066 352.996 70.9856C351.418 71.9619 350.111 71.6114 349.072 69.9338C348.204 68.5317 348.371 67.4587 349.573 66.7148C349.773 66.5908 350.03 66.5014 350.342 66.4466C350.639 66.3667 350.85 66.2881 350.975 66.2106C351.401 65.9471 351.18 65.1143 350.312 63.7122L346.546 57.628C345.663 56.2009 345.008 55.619 344.582 55.8825C344.482 55.9445 344.313 56.1186 344.075 56.4047C343.846 56.6503 343.656 56.8196 343.506 56.9125C342.304 57.6564 341.277 57.3398 340.425 55.9628C339.96 55.2116 339.78 54.4742 339.886 53.7505C340.018 53.0114 340.421 52.4326 341.097 52.0141C341.297 51.8901 341.762 51.6893 342.49 51.4115C342.912 51.2542 343.261 51.0902 343.537 50.9198C343.837 50.7338 344.319 50.366 344.983 49.8164C345.647 49.2669 346.017 48.9688 346.092 48.9223C346.768 48.5039 347.323 48.6452 347.757 49.3462Z" fill="white"/>
<defs>
<filter id="filter0_d_251_149" x="0.88208" y="0.453857" width="489.989" height="137.046" filterUnits="userSpaceOnUse" color-interpolation-filters="sRGB">
<feFlood flood-opacity="0" result="BackgroundImageFix"/>
<feColorMatrix in="SourceAlpha" type="matrix" values="0 0 0 0 0 0 0 0 0 0 0 0 0 0 0 0 0 0 127 0" result="hardAlpha"/>
<feOffset dy="4"/>
<feGaussianBlur stdDeviation="2"/>
<feComposite in2="hardAlpha" operator="out"/>
<feColorMatrix type="matrix" values="0 0 0 0 0 0 0 0 0 0 0 0 0 0 0 0 0 0 0.67 0"/>
<feBlend mode="normal" in2="BackgroundImageFix" result="effect1_dropShadow_251_149"/>
<feBlend mode="normal" in="SourceGraphic" in2="effect1_dropShadow_251_149" result="shape"/>
</filter>
</defs>
</svg>
