<svg width="304" height="135" viewBox="0 0 304 135" fill="none" xmlns="http://www.w3.org/2000/svg">
<path d="M26.4601 81.4185L12.5461 84.1789L1.39288 87.2917L6.43754 84.4072L16.3369 80.1263L26.2996 75.3493L36.199 71.0684L45.8281 65.2407L56.7111 60.5813L50.1424 60.7509L43.827 58.9366L36.8445 55.0209L30.4488 50.1721L27.8609 44.8011L30.7314 40.631L36.6794 34.3335L42.771 30.5746L49.386 26.3784L57.3984 25.8891L66.2215 30.0397L75.9015 34.8037L84.7879 38.4584L94.451 39.6919L104.891 38.5043L117.171 37.5516L126.691 36.2465L136.924 33.0162L157.389 26.5556L173.731 23.097L186.931 22.2618L196.595 23.4953L208.702 27.5611L220.873 31.131L229.759 34.7856L240.486 38.6752L252.72 41.7491L263.764 43.1588L275.917 43.1981L285.563 40.901L290.832 43.5898L297.084 45.9L290.072 49.5415L283.854 54.2923L277.446 60.5311L269.341 69.0736L259.902 73.4133L264.71 76.0433L272.089 80.5137L280.786 85.6563L292.623 88.1754L290.212 92.4042L278.473 96.4502L266.733 100.496L255.436 101.07L241.315 101.788L216.197 97.0696L192.856 93.082L174.323 91.7244L160.996 93.5516L149.129 98.5896L136.089 105.494L118.178 110.264L106.754 111.83L93.4098 110.127L82.8265 108.776L73.2097 103.516L62.0057 96.0371L51.6586 89.1716L43.4856 83.5918L34.9327 80.9879L26.4601 81.4185Z" fill="#F7606F" stroke="white" stroke-width="5"/>
<path d="M115.38 53.108V55.1398C117.588 52.4897 120.047 51.1646 122.756 51.1646C125.023 51.1646 126.893 52.2688 128.366 54.4773C129.838 53.2111 131.089 52.3424 132.12 51.8713C133.18 51.4002 134.402 51.1646 135.786 51.1646C138.583 51.1646 140.674 52.0922 142.058 53.9473C143 55.2134 143.471 57.2452 143.471 60.0426V66.8004C143.471 68.3022 143.751 69.0531 144.311 69.0531C144.487 69.0531 144.723 69.0089 145.017 68.9206C145.165 68.8617 145.385 68.8322 145.68 68.8322C146.975 68.8322 147.623 69.5978 147.623 71.129C147.623 72.0418 147.388 72.778 146.917 73.3375C146.445 73.8969 145.827 74.1767 145.061 74.1767C144.973 74.1767 144.546 74.1325 143.781 74.0442L142.809 73.9117C142.338 73.8528 141.719 73.8233 140.954 73.8233C140.011 73.8233 139.099 73.8822 138.215 74C137.332 74.1178 136.713 74.1767 136.36 74.1767C135.653 74.1767 135.065 73.9117 134.593 73.3816C134.152 72.8222 133.931 72.1302 133.931 71.3057C133.931 69.9512 134.476 69.1709 135.565 68.9647C136.125 68.8764 136.448 68.7144 136.537 68.4789C136.655 68.2433 136.713 67.5955 136.713 66.5354V61.986C136.713 60.1015 136.507 58.8206 136.095 58.1433C135.712 57.4366 134.961 57.0833 133.843 57.0833C131.34 57.0833 130.088 58.8647 130.088 62.4277V66.5354C130.088 67.5366 130.132 68.1697 130.221 68.4347C130.309 68.6997 130.545 68.8764 130.927 68.9647C131.84 69.1709 132.297 69.907 132.297 71.1732C132.297 73.1755 131.472 74.1767 129.823 74.1767C129.499 74.1767 129.043 74.1325 128.454 74.0442C127.482 73.8969 126.834 73.8233 126.51 73.8233C126.157 73.8233 125.627 73.8822 124.92 74C124.243 74.1178 123.728 74.1767 123.374 74.1767C121.932 74.1767 121.21 73.2491 121.21 71.394C121.21 70.069 121.667 69.2886 122.579 69.0531C123.08 68.9353 123.345 68.5819 123.374 67.993C123.404 67.198 123.419 66.7121 123.419 66.5354V61.5443C123.419 59.8659 123.212 58.7028 122.8 58.055C122.417 57.4072 121.711 57.0833 120.68 57.0833C118.089 57.0833 116.793 58.8647 116.793 62.4277V67.7722C116.793 68.2433 116.852 68.5525 116.97 68.6997C117.088 68.8175 117.382 68.9206 117.853 69.0089C119.002 69.215 119.576 69.9806 119.576 71.3057C119.576 73.2197 118.766 74.1767 117.147 74.1767C116.646 74.1767 115.895 74.1178 114.894 74C113.922 73.8822 113.186 73.8233 112.686 73.8233C112.008 73.8233 111.316 73.8675 110.61 73.9558C109.432 74.1031 108.681 74.1767 108.357 74.1767C107.532 74.1767 106.87 73.9117 106.369 73.3816C105.898 72.8222 105.663 72.1155 105.663 71.2615C105.663 69.5831 106.369 68.7439 107.783 68.7439C108.018 68.7439 108.283 68.8028 108.578 68.9206C108.872 69.0089 109.093 69.0531 109.24 69.0531C109.741 69.0531 109.991 68.2286 109.991 66.5796V59.4242C109.991 57.7458 109.741 56.9066 109.24 56.9066C109.123 56.9066 108.887 56.9655 108.534 57.0833C108.21 57.1716 107.959 57.2158 107.783 57.2158C106.369 57.2158 105.663 56.3913 105.663 54.7423C105.663 53.8884 105.898 53.1817 106.369 52.6222C106.87 52.0627 107.518 51.783 108.313 51.783C108.489 51.783 108.975 51.8566 109.77 52.0038C110.242 52.0922 110.683 52.1363 111.095 52.1363C111.449 52.1363 111.964 52.0774 112.641 51.9597C113.348 51.8419 113.878 51.783 114.231 51.783C114.997 51.783 115.38 52.2247 115.38 53.108ZM165.902 72.7633V71.0407C163.959 73.5141 161.382 74.7509 158.173 74.7509C156.818 74.7509 155.581 74.4564 154.463 73.8675C153.344 73.2786 152.534 72.4983 152.033 71.5265C151.562 70.5254 151.327 68.6997 151.327 66.0496V59.2034C151.327 58.1728 151.253 57.5691 151.106 57.3924C150.988 57.2158 150.782 57.1274 150.487 57.1274H150.046C149.957 57.1569 149.81 57.1716 149.604 57.1716C148.279 57.1716 147.616 56.3618 147.616 54.7423C147.616 52.7694 148.514 51.783 150.311 51.783C150.664 51.783 151.209 51.8419 151.945 51.9597C152.681 52.0774 153.226 52.1363 153.579 52.1363C153.933 52.1363 154.463 52.0774 155.169 51.9597C155.876 51.8419 156.406 51.783 156.759 51.783C157.643 51.783 158.084 52.4013 158.084 53.6381L158.173 65.387C158.261 67.6838 159.174 68.8322 160.911 68.8322C163.561 68.8322 164.886 66.9918 164.886 63.3111V59.2034C164.886 57.7016 164.548 56.9508 163.871 56.9508C163.694 56.9508 163.458 56.9949 163.164 57.0833C162.899 57.1422 162.678 57.1716 162.501 57.1716C161.412 57.1716 160.867 56.3913 160.867 54.8306C160.867 52.7989 161.692 51.783 163.341 51.783C163.753 51.783 164.356 51.8419 165.151 51.9597C165.946 52.0774 166.535 52.1363 166.918 52.1363C167.036 52.1363 167.669 52.0627 168.817 51.9155C169.495 51.8271 169.981 51.783 170.275 51.783C171.217 51.783 171.688 52.313 171.688 53.3731V66.8004C171.688 68.2727 171.968 69.0089 172.528 69.0089C172.763 69.0089 172.969 68.9795 173.146 68.9206C173.323 68.8617 173.573 68.8322 173.897 68.8322C175.163 68.8322 175.796 69.5978 175.796 71.129C175.796 73.1608 174.928 74.1767 173.19 74.1767C172.837 74.1767 172.307 74.1178 171.6 74C170.923 73.8822 170.408 73.8233 170.054 73.8233C169.73 73.8233 169.244 73.8822 168.597 74C167.978 74.1178 167.507 74.1767 167.183 74.1767C166.329 74.1767 165.902 73.7055 165.902 72.7633ZM185.722 51.1646C187.989 51.1646 189.903 51.7977 191.464 53.0639C191.582 51.8271 192.377 51.2088 193.849 51.2088C195.351 51.2088 196.102 51.7388 196.102 52.7989C196.102 53.1522 196.043 53.5497 195.925 53.9914C195.837 54.5215 195.792 55.022 195.792 55.4932C195.792 55.5815 195.807 55.8171 195.837 56.1999C195.837 56.5827 195.837 56.9213 195.837 57.2158V57.3924C195.837 58.9531 195.056 59.7334 193.496 59.7334C192.377 59.7334 191.405 59.1739 190.58 58.055C189.579 56.7005 188.357 56.0232 186.914 56.0232C185.206 56.0232 184.353 56.6121 184.353 57.79C184.353 58.4083 184.632 58.85 185.192 59.115C185.751 59.3506 187.224 59.6745 189.609 60.0868C191.552 60.4401 192.98 60.8376 193.893 61.2793C194.835 61.721 195.601 62.3541 196.19 63.1786C196.926 64.2386 197.294 65.4754 197.294 66.8888C197.294 69.1267 196.425 70.9965 194.688 72.4983C192.98 74 190.831 74.7509 188.239 74.7509C185.648 74.7509 183.292 73.9264 181.172 72.2774C181.172 73.7203 180.436 74.4417 178.964 74.4417C177.374 74.4417 176.579 73.7939 176.579 72.4983C176.579 72.2038 176.608 71.7474 176.667 71.129C176.726 70.5106 176.755 70.0542 176.755 69.7598C176.755 69.4948 176.726 69.0972 176.667 68.5672C176.638 68.0372 176.623 67.6397 176.623 67.3746C176.623 66.0496 177.447 65.387 179.096 65.387C179.891 65.387 180.495 65.5048 180.907 65.7404C181.32 65.976 181.761 66.4324 182.232 67.1096C182.969 68.1991 183.646 68.9206 184.264 69.2739C184.883 69.5978 185.795 69.7598 187.003 69.7598C189.123 69.7598 190.183 69.0972 190.183 67.7722C190.183 66.8593 189.329 66.2262 187.621 65.8729L185.059 65.3429C182.969 64.9012 181.482 64.4595 180.598 64.0178C179.744 63.5761 179.067 62.8841 178.566 61.9419C178.066 60.9701 177.816 59.8659 177.816 58.6292C177.816 56.4207 178.537 54.6245 179.98 53.2406C181.452 51.8566 183.366 51.1646 185.722 51.1646ZM208.9 51.783C209.725 51.783 210.137 52.3572 210.137 53.5056V66.8004C210.137 68.3022 210.417 69.0531 210.976 69.0531C211.094 69.0531 211.3 69.0236 211.594 68.9647C211.918 68.8764 212.183 68.8322 212.39 68.8322C213.626 68.8322 214.245 69.5978 214.245 71.129C214.245 73.1608 213.376 74.1767 211.639 74.1767C211.344 74.1767 210.52 74.1031 209.165 73.9558C208.341 73.8675 207.398 73.8233 206.338 73.8233C205.808 73.8233 205.028 73.8822 203.997 74C202.967 74.1178 202.201 74.1767 201.701 74.1767C200.906 74.1767 200.258 73.9117 199.757 73.3816C199.257 72.8222 199.006 72.1155 199.006 71.2615C199.006 69.5831 199.713 68.7439 201.126 68.7439C201.126 68.7439 201.509 68.8322 202.275 69.0089C202.393 69.0383 202.496 69.0531 202.584 69.0531C203.114 69.0531 203.379 68.2286 203.379 66.5796V59.4242C203.379 57.7458 203.129 56.9066 202.628 56.9066C202.54 56.9066 202.275 56.9802 201.833 57.1274C201.539 57.1863 201.303 57.2158 201.126 57.2158C199.713 57.2158 199.006 56.3913 199.006 54.7423C199.006 53.8589 199.257 53.1522 199.757 52.6222C200.258 52.0627 200.92 51.783 201.745 51.783C202.069 51.783 202.54 51.8271 203.158 51.9155C204.189 52.0627 205.013 52.1363 205.632 52.1363C206.132 52.1363 206.78 52.0774 207.575 51.9597C208.37 51.8419 208.812 51.783 208.9 51.783ZM206.383 50.1046C205.293 50.1046 204.351 49.707 203.556 48.912C202.761 48.1169 202.363 47.1747 202.363 46.0852C202.363 44.9662 202.746 44.0239 203.512 43.2583C204.307 42.4633 205.264 42.0658 206.383 42.0658C207.501 42.0658 208.444 42.4633 209.209 43.2583C210.004 44.0239 210.402 44.9662 210.402 46.0852C210.402 47.2041 210.004 48.1611 209.209 48.9562C208.444 49.7218 207.501 50.1046 206.383 50.1046ZM228.788 58.8059C228.788 58.3642 228.935 57.9225 229.229 57.4808C228.552 57.0096 227.801 56.7741 226.977 56.7741C225.681 56.7741 224.621 57.3188 223.797 58.4083C223.001 59.4684 222.604 60.8965 222.604 62.6927C222.604 64.5478 223.031 66.0349 223.885 67.1538C224.739 68.2727 225.872 68.8322 227.286 68.8322C228.729 68.8322 229.789 68.0519 230.466 66.4913C230.878 65.5195 231.232 64.9012 231.526 64.6362C231.938 64.2828 232.586 64.1061 233.47 64.1061C234.471 64.1061 235.28 64.4153 235.899 65.0337C236.517 65.6226 236.826 66.3882 236.826 67.3305C236.826 69.3328 235.855 71.0701 233.911 72.5424C231.968 74.0147 229.642 74.7509 226.933 74.7509C223.458 74.7509 220.69 73.6908 218.629 71.5707C216.568 69.4211 215.537 66.5502 215.537 62.9577C215.537 59.3359 216.597 56.4649 218.717 54.3448C220.837 52.2247 223.693 51.1646 227.286 51.1646C229.877 51.1646 232.012 51.783 233.69 53.0197C235.398 54.227 236.252 55.7729 236.252 57.6575C236.252 58.8353 235.869 59.7923 235.104 60.5284C234.338 61.2351 233.352 61.5885 232.144 61.5885C231.143 61.5885 230.334 61.3382 229.715 60.8376C229.097 60.3076 228.788 59.6303 228.788 58.8059Z" fill="white"/>
</svg>
