<svg width="178" height="128" viewBox="0 0 178 128" fill="none" xmlns="http://www.w3.org/2000/svg">
<g filter="url(#filter0_d_243_71)">
<g filter="url(#filter1_d_243_71)">
<path d="M61.5 91V85.8028C61.5 84.9533 61.2486 84.1228 60.7774 83.416C59.9793 82.219 58.6359 81.5 57.1972 81.5H55.5H50.6815C50.2293 81.5 49.7791 81.4386 49.3433 81.3176L41.4656 79.1293C41.1559 79.0433 40.8553 78.9276 40.5678 78.7839L34.433 75.7165C32.916 74.958 31.8869 73.4822 31.6996 71.7965L30 56.5L28.7141 46.2126C28.5754 45.103 28.8127 43.9789 29.388 43.02L30.9215 40.4641C31.3024 39.8293 31.8195 39.287 32.4355 38.8763L36 36.5L39.0809 34.7884C42.0219 33.1545 42.5424 29.1407 40.1153 26.8107L34.8013 21.7093C33.4429 20.4051 31.3792 20.1725 29.7645 21.1413C28.3816 21.971 26.6445 21.9297 25.3027 21.0352L23.3196 19.7131C23.1068 19.5712 22.8835 19.4459 22.6516 19.3383L9.87036 13.4041C9.30415 13.1412 8.83363 12.7089 8.52391 12.1668C7.6872 10.7026 8.21597 8.83674 9.69648 8.02919L11.7314 6.91925C12.2399 6.64186 12.7928 6.45495 13.3653 6.36687L19 5.5L26.6869 4.14349C27.2253 4.04847 27.7757 4.04241 28.3161 4.12555L32.4085 4.75515C33.4425 4.91423 34.3989 5.39885 35.1386 6.13861C36.3015 7.3015 37.9686 7.80627 39.5813 7.48374L41.0194 7.19612C41.6667 7.06665 42.3333 7.06665 42.9806 7.19612L46.2113 7.84226C46.7295 7.94591 47.2154 8.1723 47.6281 8.50246L48.0232 8.81859C48.9041 9.5233 49.2321 10.7145 48.836 11.7708C48.3625 13.0334 48.9297 14.4488 50.1441 15.0351L62.5 21L70.2996 25.7664C71.0846 26.2462 71.9868 26.5 72.9068 26.5H79H87.8448C88.2797 26.5 88.7128 26.5568 89.1331 26.6688L96 28.5L106.994 31.368C107.33 31.4557 107.657 31.5784 107.968 31.7339L112.312 33.9062C113.091 34.2953 113.754 34.8808 114.237 35.6048L116.5 39L118.074 42.1476C118.667 43.3337 119.707 44.2356 120.965 44.6549L123.5 45.5L129.5 47.5L139.5 50.5L151 53.5L158.03 55.8434C158.343 55.9476 158.644 56.0823 158.93 56.2456L165.162 59.8066C165.387 59.9353 165.602 60.0814 165.804 60.2435L168.623 62.4988C169.81 63.4476 170.5 64.8842 170.5 66.4031V91.8845C170.5 92.2933 170.45 92.7005 170.351 93.0972L170.108 94.0665C169.726 95.5979 168.642 96.8586 167.186 97.4672L136.4 110.333C136.134 110.444 135.858 110.532 135.577 110.596L110.045 116.377C109.683 116.459 109.313 116.5 108.941 116.5H101L86.0344 114.569C85.6792 114.523 85.3299 114.439 84.9926 114.319L78.8872 112.138C78.6295 112.046 78.3798 111.933 78.1406 111.8L74 109.5L67.8777 105.564C67.2988 105.192 66.803 104.704 66.4212 104.132L62.7248 98.5872C62.2496 97.8744 61.9655 97.0514 61.8998 96.1972L61.5 91Z" stroke="white" stroke-width="7" shape-rendering="crispEdges"/>
</g>
</g>
<defs>
<filter id="filter0_d_243_71" x="0.625916" y="0.567383" width="177.374" height="127.433" filterUnits="userSpaceOnUse" color-interpolation-filters="sRGB">
<feFlood flood-opacity="0" result="BackgroundImageFix"/>
<feColorMatrix in="SourceAlpha" type="matrix" values="0 0 0 0 0 0 0 0 0 0 0 0 0 0 0 0 0 0 127 0" result="hardAlpha"/>
<feOffset dy="4"/>
<feGaussianBlur stdDeviation="2"/>
<feComposite in2="hardAlpha" operator="out"/>
<feColorMatrix type="matrix" values="0 0 0 0 0 0 0 0 0 0 0 0 0 0 0 0 0 0 0.25 0"/>
<feBlend mode="normal" in2="BackgroundImageFix" result="effect1_dropShadow_243_71"/>
<feBlend mode="normal" in="SourceGraphic" in2="effect1_dropShadow_243_71" result="shape"/>
</filter>
<filter id="filter1_d_243_71" x="0.625916" y="0.567383" width="177.374" height="127.433" filterUnits="userSpaceOnUse" color-interpolation-filters="sRGB">
<feFlood flood-opacity="0" result="BackgroundImageFix"/>
<feColorMatrix in="SourceAlpha" type="matrix" values="0 0 0 0 0 0 0 0 0 0 0 0 0 0 0 0 0 0 127 0" result="hardAlpha"/>
<feOffset dy="4"/>
<feGaussianBlur stdDeviation="2"/>
<feComposite in2="hardAlpha" operator="out"/>
<feColorMatrix type="matrix" values="0 0 0 0 0 0 0 0 0 0 0 0 0 0 0 0 0 0 0.25 0"/>
<feBlend mode="normal" in2="BackgroundImageFix" result="effect1_dropShadow_243_71"/>
<feBlend mode="normal" in="SourceGraphic" in2="effect1_dropShadow_243_71" result="shape"/>
</filter>
</defs>
</svg>
