<svg width="362" height="96" viewBox="0 0 362 96" fill="none" xmlns="http://www.w3.org/2000/svg">
<g filter="url(#filter0_d_11_11)">
<path d="M355.129 2.70312V85.2441H70.4902L69.9121 84.9131L11.7568 51.5703L8.84473 49.9004L11.2783 47.5889L57.8027 3.39062L58.5264 2.70312H355.129Z" fill="#F97574" stroke="white" stroke-width="5"/>
<path d="M352.629 82.744V5.20312H59.5245L13 49.4014L71.1557 82.744H352.629Z" fill="#F97574"/>
<path d="M171.594 54.1215L163.794 54.6972L163.562 48.1073L159.97 48.1997L159.927 55.0468L152.929 55.2267L152.958 33.25L160.402 33.4024L160.222 44.6295L163.689 44.5403L163.418 32.7934L170.546 32.7977L171.594 54.1215ZM193.692 42.2057C193.717 43.1533 193.631 44.0725 193.435 44.9632C193.239 45.8435 192.942 46.6744 192.546 47.4556C192.159 48.2367 191.678 48.9576 191.101 49.6185C190.534 50.2687 189.887 50.8324 189.159 51.3096C188.442 51.7865 187.655 52.1663 186.797 52.4488C185.939 52.721 185.026 52.8695 184.058 52.8944C183.121 52.9185 182.222 52.8218 181.362 52.6043C180.512 52.3864 179.712 52.0736 178.962 51.6656C178.211 51.2473 177.526 50.7439 176.907 50.1555C176.297 49.5564 175.77 48.8926 175.324 48.1643C174.888 47.4252 174.539 46.6319 174.278 45.7841C174.027 44.9361 173.889 44.0488 173.866 43.122C173.842 42.216 173.929 41.3281 174.125 40.4582C174.321 39.5778 174.613 38.7472 174.999 37.9661C175.396 37.1848 175.877 36.4639 176.444 35.8033C177.01 35.1427 177.647 34.5688 178.353 34.0817C179.07 33.5944 179.847 33.2097 180.684 32.9277C181.521 32.6457 182.408 32.4926 183.345 32.4685C184.855 32.4297 186.235 32.6286 187.487 33.0653C188.748 33.5018 189.828 34.1461 190.725 34.9983C191.632 35.8399 192.341 36.8741 192.852 38.1009C193.373 39.3171 193.653 40.6854 193.692 42.2057ZM186.768 42.7902C186.756 42.3424 186.677 41.912 186.531 41.4989C186.395 41.0752 186.198 40.7052 185.94 40.3888C185.681 40.062 185.362 39.8045 184.982 39.6163C184.612 39.4174 184.188 39.3241 183.709 39.3364C183.22 39.349 182.785 39.4488 182.404 39.6357C182.023 39.8226 181.696 40.0759 181.423 40.3955C181.16 40.7045 180.961 41.0691 180.826 41.4894C180.691 41.8992 180.629 42.3333 180.641 42.7914C180.652 43.2288 180.726 43.6645 180.862 44.0987C180.998 44.5328 181.196 44.9237 181.455 45.2713C181.714 45.6189 182.028 45.8974 182.398 46.1067C182.779 46.3158 183.214 46.414 183.703 46.4014C184.193 46.3888 184.628 46.2838 185.008 46.0865C185.399 45.8785 185.725 45.6096 185.988 45.2798C186.25 44.9396 186.448 44.5542 186.583 44.1235C186.718 43.6928 186.779 43.2483 186.768 42.7902ZM223.443 42.816C223.481 44.3051 223.472 45.7902 223.417 47.2713C223.361 48.7524 223.29 50.2391 223.203 51.7314L215.184 52.3127C215.377 50.4947 215.544 48.6773 215.685 46.8605C215.836 45.0331 215.888 43.2083 215.841 41.386C215.838 41.2714 215.828 41.0737 215.81 40.7928C215.792 40.5015 215.763 40.174 215.722 39.8104C215.692 39.4465 215.646 39.0725 215.584 38.6886C215.532 38.2939 215.461 37.9363 215.369 37.6156C215.288 37.2843 215.187 37.0159 215.067 36.8106C214.947 36.6053 214.809 36.5046 214.653 36.5087C214.288 36.518 214.006 36.666 213.805 36.9525C213.603 37.2286 213.455 37.5606 213.361 37.9486C213.277 38.3363 213.23 38.7335 213.22 39.1401C213.209 39.5364 213.207 39.8594 213.214 40.1094C213.225 40.5467 213.247 40.9838 213.279 41.4206C213.311 41.8574 213.333 42.3049 213.344 42.7631C213.386 44.3772 213.386 45.9871 213.344 47.5929C213.312 49.1984 213.26 50.8096 213.187 52.4266L205.79 52.8982C205.983 51.0801 206.145 49.2681 206.275 47.462C206.416 45.6453 206.463 43.8258 206.416 42.0035C206.413 41.8889 206.403 41.6808 206.385 41.3791C206.366 41.0774 206.337 40.7395 206.296 40.3654C206.266 39.9911 206.219 39.6015 206.157 39.1967C206.094 38.792 206.017 38.424 205.925 38.0929C205.843 37.7512 205.742 37.4724 205.622 37.2567C205.502 37.041 205.359 36.9353 205.192 36.9395C204.932 36.9462 204.716 37.056 204.544 37.2688C204.372 37.4712 204.233 37.7353 204.127 38.061C204.031 38.3865 203.957 38.7479 203.905 39.1452C203.862 39.5319 203.83 39.913 203.809 40.2887C203.798 40.6641 203.791 41.0134 203.789 41.3364C203.797 41.6488 203.798 41.8833 203.791 42.0397L203.741 53.4511L195.869 53.6535C195.99 51.8894 196.111 50.1201 196.232 48.3455C196.364 46.5707 196.469 44.8018 196.549 43.0388C196.639 41.265 196.703 39.492 196.74 37.7196C196.778 35.9472 196.774 34.1759 196.729 32.4056L204.156 31.902L204.171 33.7147C204.393 33.4173 204.646 33.119 204.93 32.8199C205.214 32.5104 205.514 32.237 205.831 31.9996C206.158 31.7515 206.502 31.5499 206.862 31.3948C207.234 31.2393 207.617 31.1565 208.013 31.1464C208.523 31.1332 208.982 31.1631 209.39 31.236C209.798 31.2984 210.166 31.4192 210.494 31.5983C210.832 31.7772 211.13 32.03 211.389 32.3568C211.647 32.6732 211.876 33.0789 212.076 33.5739C212.4 33.2009 212.725 32.8539 213.05 32.5329C213.386 32.2117 213.738 31.9369 214.107 31.7086C214.476 31.4699 214.878 31.2824 215.312 31.1462C215.746 31.01 216.229 30.9351 216.76 30.9214C217.77 30.8954 218.634 31.0712 219.352 31.4487C220.07 31.8157 220.672 32.3161 221.157 32.9496C221.653 33.5829 222.041 34.3128 222.323 35.1391C222.615 35.9652 222.841 36.8243 222.999 37.7164C223.157 38.6084 223.264 39.4966 223.318 40.3809C223.382 41.265 223.424 42.0767 223.443 42.816ZM243.859 40.259C243.882 41.165 243.843 42.0725 243.741 42.9817C241.964 43.142 240.198 43.375 238.445 43.6806C236.692 43.9758 234.938 44.2709 233.185 44.5661C233.475 45.3089 233.912 45.8968 234.496 46.3299C235.091 46.7626 235.789 46.9687 236.591 46.9481C237.007 46.9374 237.458 46.8476 237.944 46.6788C238.44 46.5098 238.929 46.3044 239.413 46.0627C239.896 45.8107 240.358 45.5435 240.799 45.2612C241.24 44.979 241.619 44.7243 241.936 44.4974L241.369 51.608C240.97 51.9309 240.535 52.2078 240.061 52.4388C239.598 52.6695 239.114 52.8591 238.607 53.0076C238.1 53.1561 237.587 53.2683 237.068 53.3442C236.549 53.4201 236.04 53.4644 235.54 53.4773C234.509 53.5038 233.563 53.3874 232.702 53.1282C231.841 52.8691 231.055 52.4985 230.344 52.0166C229.644 51.524 229.024 50.9408 228.486 50.2669C227.948 49.5931 227.496 48.8544 227.132 48.051C226.767 47.2476 226.485 46.3952 226.285 45.4938C226.084 44.5924 225.972 43.6783 225.948 42.7516C225.923 41.7831 225.987 40.8124 226.139 39.8395C226.291 38.8665 226.533 37.9277 226.864 37.023C227.205 36.1181 227.637 35.2786 228.159 34.5045C228.691 33.7197 229.314 33.0316 230.028 32.4401C230.742 31.8487 231.554 31.3797 232.462 31.0334C233.38 30.6867 234.396 30.4991 235.511 30.4704C236.437 30.4466 237.284 30.5551 238.051 30.7958C238.828 31.0259 239.519 31.3624 240.125 31.8054C240.74 32.2376 241.275 32.7605 241.728 33.374C242.192 33.9873 242.574 34.6652 242.874 35.4077C243.185 36.1396 243.419 36.9203 243.576 37.7499C243.742 38.5687 243.837 39.4051 243.859 40.259ZM237.59 39.6075C237.583 39.3159 237.544 39.0199 237.473 38.7196C237.403 38.4088 237.292 38.1303 237.139 37.8841C236.998 37.6377 236.81 37.4393 236.577 37.289C236.344 37.1283 236.055 37.0523 235.711 37.0612C235.295 37.0719 234.928 37.1959 234.611 37.4333C234.305 37.6601 234.041 37.9482 233.821 38.2977C233.6 38.6368 233.422 39.0061 233.287 39.4055C233.151 39.805 233.051 40.1723 232.987 40.5074L237.599 39.9511L237.59 39.6075Z" fill="white"/>
</g>
<defs>
<filter id="filter0_d_11_11" x="0.689209" y="0.203125" width="360.94" height="95.5408" filterUnits="userSpaceOnUse" color-interpolation-filters="sRGB">
<feFlood flood-opacity="0" result="BackgroundImageFix"/>
<feColorMatrix in="SourceAlpha" type="matrix" values="0 0 0 0 0 0 0 0 0 0 0 0 0 0 0 0 0 0 127 0" result="hardAlpha"/>
<feOffset dy="4"/>
<feGaussianBlur stdDeviation="2"/>
<feComposite in2="hardAlpha" operator="out"/>
<feColorMatrix type="matrix" values="0 0 0 0 0 0 0 0 0 0 0 0 0 0 0 0 0 0 0.52 0"/>
<feBlend mode="normal" in2="BackgroundImageFix" result="effect1_dropShadow_11_11"/>
<feBlend mode="normal" in="SourceGraphic" in2="effect1_dropShadow_11_11" result="shape"/>
</filter>
</defs>
</svg>
