<svg width="354" height="103" viewBox="0 0 354 103" fill="none" xmlns="http://www.w3.org/2000/svg">
<g filter="url(#filter0_d_11_7)">
<path d="M346.639 85.8455L344.194 85.8992L63.416 92.1082L62.5859 92.1267L61.9102 91.6453L11.5498 55.7722L8.89258 53.8796L11.4111 51.8054L58.3223 13.1726L58.9805 12.6306L59.832 12.6042L344.06 3.6355L346.639 3.55444V85.8455Z" fill="#F97574" stroke="white" stroke-width="5"/>
<path d="M344.139 83.4002V6.13452L59.9113 15.1029L13 53.7357L63.3607 89.6091L344.139 83.4002Z" fill="#F97574"/>
<path d="M61.1272 34.6958L60.5647 41.2896C60.2626 41.2062 59.9657 41.1489 59.6741 41.1177C59.3824 41.0864 59.0855 41.0708 58.7834 41.0708C58.0439 41.0708 57.3355 41.1646 56.6584 41.3521C55.9918 41.5396 55.398 41.826 54.8772 42.2114C54.3668 42.5968 53.9553 43.0864 53.6428 43.6802C53.3407 44.2635 53.1897 44.9562 53.1897 45.7583C53.1897 46.3416 53.273 46.8521 53.4397 47.2896C53.6168 47.7166 53.8616 48.076 54.1741 48.3677C54.497 48.6489 54.8824 48.8625 55.3303 49.0083C55.7887 49.1541 56.2939 49.2271 56.8459 49.2271C57.2314 49.2271 57.6272 49.1906 58.0334 49.1177C58.4397 49.0343 58.8459 48.925 59.2522 48.7896C59.6584 48.6541 60.0491 48.4979 60.4241 48.3208C60.7991 48.1437 61.148 47.9562 61.4709 47.7583L61.2209 55.1021C60.8147 55.3104 60.3772 55.4979 59.9084 55.6646C59.4397 55.8208 58.9553 55.9562 58.4553 56.0708C57.9657 56.1958 57.4709 56.2896 56.9709 56.3521C56.4814 56.4146 56.0126 56.4458 55.5647 56.4458C54.0855 56.4458 52.7366 56.1698 51.5178 55.6177C50.3095 55.0656 49.2678 54.3156 48.3928 53.3677C47.5282 52.4093 46.8564 51.3 46.3772 50.0396C45.898 48.7791 45.6584 47.4354 45.6584 46.0083C45.6584 44.3 45.898 42.7062 46.3772 41.2271C46.8668 39.7479 47.5803 38.4666 48.5178 37.3833C49.4657 36.2896 50.6324 35.4354 52.0178 34.8208C53.4137 34.1958 55.0126 33.8833 56.8147 33.8833C57.5334 33.8833 58.2626 33.9406 59.0022 34.0552C59.7418 34.1698 60.4501 34.3833 61.1272 34.6958ZM83.2584 44.0708C83.2584 45.0187 83.1491 45.9354 82.9303 46.8208C82.7116 47.6958 82.3939 48.5187 81.9772 49.2896C81.5709 50.0604 81.0709 50.7687 80.4772 51.4146C79.8939 52.05 79.2324 52.5968 78.4928 53.0552C77.7637 53.5135 76.9668 53.8729 76.1022 54.1333C75.2376 54.3833 74.3209 54.5083 73.3522 54.5083C72.4147 54.5083 71.5189 54.3885 70.6647 54.1489C69.8209 53.9093 69.0293 53.576 68.2897 53.1489C67.5501 52.7114 66.8782 52.1906 66.2741 51.5864C65.6803 50.9718 65.1699 50.2948 64.7428 49.5552C64.3262 48.8052 63.998 48.0031 63.7584 47.1489C63.5293 46.2948 63.4147 45.4041 63.4147 44.4771C63.4147 43.5708 63.5241 42.6854 63.7428 41.8208C63.9616 40.9458 64.2741 40.1229 64.6803 39.3521C65.097 38.5812 65.597 37.8729 66.1803 37.2271C66.7637 36.5812 67.4147 36.0239 68.1334 35.5552C68.8626 35.0864 69.6491 34.7218 70.4928 34.4614C71.3366 34.201 72.2272 34.0708 73.1647 34.0708C74.6751 34.0708 76.0501 34.3052 77.2897 34.7739C78.5397 35.2427 79.6022 35.9146 80.4772 36.7896C81.3626 37.6541 82.0449 38.7062 82.5241 39.9458C83.0137 41.175 83.2584 42.55 83.2584 44.0708ZM76.3209 44.4771C76.3209 44.0291 76.2532 43.5968 76.1178 43.1802C75.9928 42.7531 75.8053 42.3781 75.5553 42.0552C75.3053 41.7218 74.9928 41.4562 74.6178 41.2583C74.2532 41.05 73.8314 40.9458 73.3522 40.9458C72.8626 40.9458 72.4251 41.0343 72.0397 41.2114C71.6543 41.3885 71.3209 41.6333 71.0397 41.9458C70.7689 42.2479 70.5605 42.6073 70.4147 43.0239C70.2689 43.4302 70.1959 43.8625 70.1959 44.3208C70.1959 44.7583 70.2584 45.1958 70.3834 45.6333C70.5084 46.0708 70.6959 46.4666 70.9459 46.8208C71.1959 47.175 71.5032 47.4614 71.8678 47.6802C72.2428 47.8989 72.6751 48.0083 73.1647 48.0083C73.6543 48.0083 74.0918 47.9146 74.4772 47.7271C74.873 47.5291 75.2064 47.2687 75.4772 46.9458C75.748 46.6125 75.9564 46.2323 76.1022 45.8052C76.248 45.3781 76.3209 44.9354 76.3209 44.4771ZM103.655 43.6333C103.655 45.0916 103.468 46.3989 103.093 47.5552C102.718 48.7114 102.192 49.7375 101.515 50.6333C100.848 51.5187 100.051 52.2739 99.1241 52.8989C98.197 53.5239 97.1814 54.0396 96.0772 54.4458C94.973 54.8416 93.7959 55.1333 92.5459 55.3208C91.3064 55.5083 90.0303 55.6021 88.7178 55.6021C88.2282 55.6021 87.7491 55.5916 87.2803 55.5708C86.8116 55.5396 86.3324 55.4979 85.8428 55.4458L86.2803 35.1021C87.4262 34.7375 88.6032 34.4823 89.8116 34.3364C91.0303 34.1802 92.2387 34.1021 93.4366 34.1021C94.9262 34.1021 96.2959 34.3104 97.5459 34.7271C98.7959 35.1437 99.8741 35.7583 100.78 36.5708C101.687 37.3729 102.39 38.3677 102.89 39.5552C103.4 40.7323 103.655 42.0916 103.655 43.6333ZM93.0303 49.6333C93.6553 49.5396 94.223 49.3521 94.7334 49.0708C95.2543 48.7791 95.7022 48.425 96.0772 48.0083C96.4522 47.5812 96.7387 47.1021 96.9366 46.5708C97.1449 46.0291 97.2491 45.4562 97.2491 44.8521C97.2491 44.2583 97.1866 43.7062 97.0616 43.1958C96.9366 42.675 96.7334 42.2271 96.4522 41.8521C96.1709 41.4666 95.8012 41.1646 95.3428 40.9458C94.8845 40.7166 94.322 40.5916 93.6553 40.5708L93.0303 49.6333ZM123.677 43.4146C123.677 44.3208 123.615 45.2271 123.49 46.1333C121.708 46.2479 119.938 46.4354 118.177 46.6958C116.417 46.9458 114.656 47.1958 112.896 47.4458C113.167 48.1958 113.589 48.7948 114.162 49.2427C114.745 49.6906 115.438 49.9146 116.24 49.9146C116.656 49.9146 117.109 49.8364 117.599 49.6802C118.099 49.5239 118.594 49.3312 119.083 49.1021C119.573 48.8625 120.042 48.6073 120.49 48.3364C120.938 48.0656 121.323 47.8208 121.646 47.6021L120.896 54.6958C120.49 55.0083 120.047 55.2739 119.568 55.4927C119.099 55.7114 118.609 55.8885 118.099 56.0239C117.589 56.1593 117.073 56.2583 116.552 56.3208C116.031 56.3833 115.521 56.4146 115.021 56.4146C113.99 56.4146 113.047 56.2739 112.193 55.9927C111.339 55.7114 110.563 55.3208 109.865 54.8208C109.177 54.3104 108.573 53.7114 108.052 53.0239C107.531 52.3364 107.099 51.5864 106.755 50.7739C106.412 49.9614 106.151 49.1021 105.974 48.1958C105.797 47.2896 105.708 46.3729 105.708 45.4458C105.708 44.4771 105.797 43.5083 105.974 42.5396C106.151 41.5708 106.417 40.6385 106.771 39.7427C107.136 38.8468 107.589 38.0187 108.13 37.2583C108.682 36.4875 109.323 35.8156 110.052 35.2427C110.781 34.6698 111.604 34.2218 112.521 33.8989C113.448 33.576 114.469 33.4146 115.583 33.4146C116.511 33.4146 117.354 33.5448 118.115 33.8052C118.886 34.0552 119.568 34.4093 120.162 34.8677C120.766 35.3156 121.287 35.8521 121.724 36.4771C122.172 37.1021 122.537 37.7896 122.818 38.5396C123.109 39.2791 123.323 40.0656 123.458 40.8989C123.604 41.7218 123.677 42.5604 123.677 43.4146ZM117.427 42.6021C117.427 42.3104 117.396 42.0135 117.333 41.7114C117.271 41.3989 117.167 41.1177 117.021 40.8677C116.886 40.6177 116.703 40.4146 116.474 40.2583C116.245 40.0916 115.958 40.0083 115.615 40.0083C115.198 40.0083 114.828 40.1229 114.505 40.3521C114.193 40.5708 113.922 40.8521 113.693 41.1958C113.464 41.5291 113.276 41.8937 113.13 42.2896C112.984 42.6854 112.875 43.05 112.802 43.3833L117.427 42.9458V42.6021ZM139.496 34.7896C137.819 38.425 136.267 42.1229 134.84 45.8833C133.423 49.6333 132.1 53.425 130.871 57.2583L124.621 54.8208C125.381 52.9354 126.142 51.0552 126.902 49.1802C127.663 47.2948 128.439 45.425 129.23 43.5708C130.032 41.7062 130.866 39.8573 131.73 38.0239C132.595 36.1906 133.517 34.3833 134.496 32.6021L139.496 34.7896ZM159.424 43.6333C159.424 45.0916 159.237 46.3989 158.862 47.5552C158.487 48.7114 157.961 49.7375 157.283 50.6333C156.617 51.5187 155.82 52.2739 154.893 52.8989C153.966 53.5239 152.95 54.0396 151.846 54.4458C150.742 54.8416 149.565 55.1333 148.315 55.3208C147.075 55.5083 145.799 55.6021 144.487 55.6021C143.997 55.6021 143.518 55.5916 143.049 55.5708C142.58 55.5396 142.101 55.4979 141.612 55.4458L142.049 35.1021C143.195 34.7375 144.372 34.4823 145.58 34.3364C146.799 34.1802 148.007 34.1021 149.205 34.1021C150.695 34.1021 152.065 34.3104 153.315 34.7271C154.565 35.1437 155.643 35.7583 156.549 36.5708C157.455 37.3729 158.158 38.3677 158.658 39.5552C159.169 40.7323 159.424 42.0916 159.424 43.6333ZM148.799 49.6333C149.424 49.5396 149.992 49.3521 150.502 49.0708C151.023 48.7791 151.471 48.425 151.846 48.0083C152.221 47.5812 152.507 47.1021 152.705 46.5708C152.914 46.0291 153.018 45.4562 153.018 44.8521C153.018 44.2583 152.955 43.7062 152.83 43.1958C152.705 42.675 152.502 42.2271 152.221 41.8521C151.94 41.4666 151.57 41.1646 151.112 40.9458C150.653 40.7166 150.091 40.5916 149.424 40.5708L148.799 49.6333ZM179.446 43.4146C179.446 44.3208 179.383 45.2271 179.258 46.1333C177.477 46.2479 175.706 46.4354 173.946 46.6958C172.186 46.9458 170.425 47.1958 168.665 47.4458C168.936 48.1958 169.357 48.7948 169.93 49.2427C170.514 49.6906 171.206 49.9146 172.008 49.9146C172.425 49.9146 172.878 49.8364 173.368 49.6802C173.868 49.5239 174.363 49.3312 174.852 49.1021C175.342 48.8625 175.811 48.6073 176.258 48.3364C176.706 48.0656 177.092 47.8208 177.415 47.6021L176.665 54.6958C176.258 55.0083 175.816 55.2739 175.337 55.4927C174.868 55.7114 174.378 55.8885 173.868 56.0239C173.357 56.1593 172.842 56.2583 172.321 56.3208C171.8 56.3833 171.29 56.4146 170.79 56.4146C169.758 56.4146 168.816 56.2739 167.962 55.9927C167.107 55.7114 166.331 55.3208 165.633 54.8208C164.946 54.3104 164.342 53.7114 163.821 53.0239C163.3 52.3364 162.868 51.5864 162.524 50.7739C162.18 49.9614 161.92 49.1021 161.743 48.1958C161.566 47.2896 161.477 46.3729 161.477 45.4458C161.477 44.4771 161.566 43.5083 161.743 42.5396C161.92 41.5708 162.186 40.6385 162.54 39.7427C162.904 38.8468 163.357 38.0187 163.899 37.2583C164.451 36.4875 165.092 35.8156 165.821 35.2427C166.55 34.6698 167.373 34.2218 168.29 33.8989C169.217 33.576 170.238 33.4146 171.352 33.4146C172.279 33.4146 173.123 33.5448 173.883 33.8052C174.654 34.0552 175.337 34.4093 175.93 34.8677C176.534 35.3156 177.055 35.8521 177.493 36.4771C177.941 37.1021 178.305 37.7896 178.587 38.5396C178.878 39.2791 179.092 40.0656 179.227 40.8989C179.373 41.7218 179.446 42.5604 179.446 43.4146ZM173.196 42.6021C173.196 42.3104 173.165 42.0135 173.102 41.7114C173.04 41.3989 172.936 41.1177 172.79 40.8677C172.654 40.6177 172.472 40.4146 172.243 40.2583C172.014 40.0916 171.727 40.0083 171.383 40.0083C170.967 40.0083 170.597 40.1229 170.274 40.3521C169.962 40.5708 169.691 40.8521 169.462 41.1958C169.232 41.5291 169.045 41.8937 168.899 42.2896C168.753 42.6854 168.644 43.05 168.571 43.3833L173.196 42.9458V42.6021ZM198.093 48.0396C198.093 49.4666 197.843 50.701 197.343 51.7427C196.853 52.7739 196.176 53.6281 195.312 54.3052C194.457 54.9718 193.452 55.4666 192.296 55.7896C191.15 56.1021 189.916 56.2583 188.593 56.2583C188.082 56.2583 187.52 56.1906 186.905 56.0552C186.301 55.9198 185.687 55.7531 185.062 55.5552C184.437 55.3468 183.832 55.1281 183.249 54.8989C182.676 54.6593 182.166 54.4354 181.718 54.2271L182.405 48.1021C183.291 48.6333 184.27 49.0396 185.343 49.3208C186.426 49.5916 187.489 49.7271 188.53 49.7271C188.728 49.7271 188.968 49.7218 189.249 49.7114C189.53 49.6906 189.796 49.6437 190.046 49.5708C190.306 49.4875 190.525 49.3677 190.702 49.2114C190.879 49.0552 190.968 48.8312 190.968 48.5396C190.968 48.3416 190.905 48.175 190.78 48.0396C190.655 47.8937 190.494 47.7791 190.296 47.6958C190.098 47.6021 189.874 47.5343 189.624 47.4927C189.374 47.4406 189.129 47.4041 188.89 47.3833C188.65 47.3625 188.426 47.3521 188.218 47.3521C188.009 47.3521 187.843 47.3521 187.718 47.3521C186.822 47.3521 186.004 47.2114 185.265 46.9302C184.536 46.6489 183.905 46.2531 183.374 45.7427C182.853 45.2218 182.447 44.5968 182.155 43.8677C181.864 43.1281 181.718 42.3104 181.718 41.4146C181.718 40.1854 181.963 39.0864 182.452 38.1177C182.952 37.1385 183.614 36.3104 184.437 35.6333C185.27 34.9458 186.223 34.4198 187.296 34.0552C188.369 33.6906 189.478 33.5083 190.624 33.5083C191.134 33.5083 191.661 33.5291 192.202 33.5708C192.744 33.6021 193.28 33.6646 193.812 33.7583C194.353 33.8521 194.879 33.9718 195.39 34.1177C195.9 34.2635 196.384 34.4458 196.843 34.6646L196.249 41.0083C195.541 40.7687 194.796 40.5708 194.015 40.4146C193.244 40.2479 192.489 40.1646 191.749 40.1646C191.614 40.1646 191.437 40.1698 191.218 40.1802C191.009 40.1802 190.786 40.1958 190.546 40.2271C190.317 40.2479 190.082 40.2843 189.843 40.3364C189.603 40.3885 189.39 40.4614 189.202 40.5552C189.015 40.6385 188.864 40.7531 188.749 40.8989C188.634 41.0448 188.582 41.2166 188.593 41.4146C188.603 41.6437 188.687 41.8208 188.843 41.9458C189.009 42.0708 189.218 42.1646 189.468 42.2271C189.728 42.2791 190.009 42.3052 190.312 42.3052C190.624 42.3052 190.931 42.3 191.233 42.2896C191.536 42.2687 191.817 42.2531 192.077 42.2427C192.338 42.2218 192.551 42.2166 192.718 42.2271C193.551 42.2791 194.301 42.4562 194.968 42.7583C195.634 43.0604 196.197 43.4614 196.655 43.9614C197.124 44.4614 197.478 45.0604 197.718 45.7583C197.968 46.4458 198.093 47.2062 198.093 48.0396ZM208.865 34.0396L207.771 55.3208L201.177 55.6646L200.552 34.4771L208.865 34.0396ZM230.637 52.5396C230.147 53.1541 229.543 53.6906 228.824 54.1489C228.105 54.6073 227.334 54.9875 226.512 55.2896C225.689 55.5916 224.845 55.8208 223.98 55.9771C223.116 56.1229 222.293 56.1958 221.512 56.1958C220.001 56.1958 218.611 55.9406 217.34 55.4302C216.069 54.9198 214.97 54.2114 214.043 53.3052C213.126 52.3885 212.407 51.3 211.887 50.0396C211.366 48.7791 211.105 47.4041 211.105 45.9146C211.105 44.7791 211.236 43.675 211.496 42.6021C211.756 41.5291 212.126 40.5239 212.605 39.5864C213.095 38.6489 213.689 37.7896 214.387 37.0083C215.084 36.2271 215.876 35.5552 216.762 34.9927C217.647 34.4302 218.616 33.9979 219.668 33.6958C220.73 33.3833 221.855 33.2271 223.043 33.2271C223.491 33.2271 223.97 33.2479 224.48 33.2896C224.991 33.3208 225.496 33.3833 225.996 33.4771C226.506 33.5604 227.001 33.6802 227.48 33.8364C227.959 33.9927 228.397 34.1854 228.793 34.4146L228.355 40.3833C227.772 40.1646 227.168 40.0187 226.543 39.9458C225.928 39.8625 225.324 39.8208 224.73 39.8208C223.897 39.8208 223.116 39.9354 222.387 40.1646C221.668 40.3833 221.038 40.7114 220.496 41.1489C219.965 41.5864 219.543 42.1333 219.23 42.7896C218.918 43.4458 218.762 44.2062 218.762 45.0708C218.762 45.6125 218.834 46.1385 218.98 46.6489C219.126 47.1489 219.345 47.5968 219.637 47.9927C219.939 48.3781 220.308 48.6906 220.746 48.9302C221.194 49.1698 221.709 49.2896 222.293 49.2896C222.689 49.2896 223.095 49.2375 223.512 49.1333C223.939 49.0291 224.303 48.8521 224.605 48.6021L224.668 47.3833L220.918 47.3208L221.105 42.6333C222.657 42.5812 224.209 42.5396 225.762 42.5083C227.314 42.4666 228.876 42.4146 230.449 42.3521L230.637 52.5396ZM252.83 48.1333C252.83 49.3104 252.815 50.4771 252.783 51.6333C252.763 52.7791 252.726 53.9354 252.674 55.1021L243.674 54.9458C243.987 53.1021 244.257 51.2635 244.487 49.4302C244.716 47.5864 244.83 45.7271 244.83 43.8521C244.83 43.7166 244.825 43.4979 244.815 43.1958C244.804 42.8937 244.783 42.5552 244.752 42.1802C244.721 41.7948 244.674 41.4041 244.612 41.0083C244.559 40.6021 244.481 40.2323 244.377 39.8989C244.283 39.5656 244.164 39.2948 244.018 39.0864C243.882 38.8677 243.716 38.7583 243.518 38.7583C243.164 38.7583 242.862 38.8625 242.612 39.0708C242.372 39.2791 242.169 39.55 242.002 39.8833C241.846 40.2062 241.721 40.5708 241.627 40.9771C241.533 41.3833 241.461 41.7896 241.408 42.1958C241.367 42.6021 241.336 42.9875 241.315 43.3521C241.304 43.7062 241.299 43.9979 241.299 44.2271C241.247 46.0708 241.205 47.9041 241.174 49.7271C241.143 51.5396 241.101 53.3729 241.049 55.2271L233.08 55.5708C233.289 51.8937 233.487 48.2375 233.674 44.6021C233.872 40.9666 234.028 37.3104 234.143 33.6333L241.518 33.2583L241.455 35.7583C241.747 35.4041 242.059 35.0708 242.393 34.7583C242.737 34.4458 243.101 34.1802 243.487 33.9614C243.872 33.7323 244.278 33.5552 244.705 33.4302C245.143 33.2948 245.601 33.2271 246.08 33.2271C246.966 33.2271 247.742 33.3729 248.408 33.6646C249.075 33.9562 249.648 34.3521 250.127 34.8521C250.606 35.3521 251.007 35.9458 251.33 36.6333C251.653 37.3104 251.914 38.0343 252.112 38.8052C252.309 39.576 252.461 40.3833 252.565 41.2271C252.669 42.0604 252.737 42.8833 252.768 43.6958C252.809 44.5083 252.83 45.2948 252.83 46.0552C252.83 46.8156 252.83 47.5083 252.83 48.1333Z" fill="white"/>
</g>
<defs>
<filter id="filter0_d_11_7" x="0.785645" y="0.974365" width="352.353" height="101.67" filterUnits="userSpaceOnUse" color-interpolation-filters="sRGB">
<feFlood flood-opacity="0" result="BackgroundImageFix"/>
<feColorMatrix in="SourceAlpha" type="matrix" values="0 0 0 0 0 0 0 0 0 0 0 0 0 0 0 0 0 0 127 0" result="hardAlpha"/>
<feOffset dy="4"/>
<feGaussianBlur stdDeviation="2"/>
<feComposite in2="hardAlpha" operator="out"/>
<feColorMatrix type="matrix" values="0 0 0 0 0 0 0 0 0 0 0 0 0 0 0 0 0 0 0.52 0"/>
<feBlend mode="normal" in2="BackgroundImageFix" result="effect1_dropShadow_11_7"/>
<feBlend mode="normal" in="SourceGraphic" in2="effect1_dropShadow_11_7" result="shape"/>
</filter>
</defs>
</svg>
