<svg width="349" height="112" viewBox="0 0 349 112" fill="none" xmlns="http://www.w3.org/2000/svg">
<g filter="url(#filter0_d_11_3)">
<path d="M65.0461 3.39404L339.062 8.58057L341.614 8.62939L341.513 11.1792L338.055 98.4839L337.957 100.966L335.475 100.884L73.5598 92.2397L72.7913 92.2144L72.1702 91.7622L11.6624 47.6772L8.95825 45.7075L11.6125 43.6724L63.4768 3.90967L64.1711 3.37842L65.0461 3.39404Z" fill="#F97574" stroke="white" stroke-width="5"/>
<path d="M146.912 37.3232L142.502 58.8387L133.626 58.7163L132.112 47.4379L129.844 57.7713L120.963 57.7739L118.023 36.3144L125.792 35.8978L126.901 48.9132L129.446 36.0254L135.536 36.2381L137.514 49.4402L139.222 36.3668L146.912 37.3232ZM167.268 44.6631C167.24 45.4751 167.141 46.2117 166.972 46.8729C166.814 47.524 166.574 48.1202 166.253 48.6614C165.932 49.2026 165.523 49.6991 165.028 50.1508C164.533 50.6026 163.939 51.03 163.248 51.4332L166.733 58.184L159.658 59.3127L157.486 52.5766L155.547 52.5714L155.039 59.0576L148.325 58.8232C148.46 56.4514 148.589 54.0899 148.713 51.7386C148.847 49.3877 148.987 47.0266 149.132 44.6552C149.195 43.4587 149.257 42.2727 149.319 41.0971C149.381 39.9214 149.464 38.7361 149.568 37.5411C150.306 37.2959 151.032 37.0971 151.747 36.9449C152.461 36.7926 153.173 36.682 153.884 36.613C154.606 36.534 155.332 36.4916 156.062 36.4858C156.803 36.47 157.558 36.4755 158.328 36.5024C159.515 36.5439 160.655 36.7504 161.746 37.1221C162.849 37.4837 163.816 38.0074 164.647 38.693C165.477 39.3787 166.131 40.2197 166.607 41.2161C167.093 42.2128 167.313 43.3618 167.268 44.6631ZM160.255 44.9185C160.27 44.4813 160.221 44.0783 160.109 43.7096C160.008 43.3412 159.841 43.0227 159.611 42.7541C159.392 42.4755 159.107 42.2571 158.758 42.099C158.42 41.9308 158.017 41.8386 157.549 41.8222C157.34 41.8149 157.137 41.8235 156.938 41.8478C156.739 41.8617 156.546 41.8914 156.356 41.9369L155.904 47.7372L156.278 47.7502C156.726 47.7659 157.181 47.7244 157.643 47.6259C158.115 47.5278 158.538 47.3653 158.911 47.1386C159.294 46.9123 159.607 46.6157 159.849 46.2489C160.101 45.8825 160.237 45.439 160.255 44.9185ZM178.634 38.1183L176.174 59.3266L169.572 59.4401L170.312 38.2655L178.634 38.1183ZM197.844 38.4452L197.457 45.0607L192.797 45.0856L191.093 59.8476L184.491 59.961L185.04 45.1587L180.377 45.246L180.822 37.882L197.844 38.4452ZM208.722 39.169L206.262 60.3773L199.66 60.4908L200.4 39.3162L208.722 39.169ZM232.666 39.5986L230.802 60.734L222.593 61.1978L218.617 49.7083L217.526 61.2397L210.499 60.9943L211.835 38.8712L219.655 38.7691L224.666 50.2009L225.286 39.5911L232.666 39.5986ZM253.722 59.5644C253.212 60.1616 252.589 60.6766 251.855 61.1096C251.121 61.5425 250.337 61.8956 249.504 62.1688C248.671 62.442 247.82 62.6363 246.951 62.7519C246.081 62.8779 245.256 62.9273 244.475 62.9C242.966 62.8473 241.586 62.5281 240.334 61.9424C239.083 61.3567 238.011 60.574 237.117 59.5943C236.235 58.6046 235.556 57.4552 235.08 56.1461C234.605 54.8371 234.393 53.4382 234.445 51.9495C234.485 50.8148 234.654 49.7106 234.952 48.6371C235.25 47.5531 235.655 46.5406 236.168 45.5995C236.691 44.6485 237.315 43.7843 238.041 43.0071C238.767 42.2194 239.582 41.5495 240.487 40.9975C241.393 40.4454 242.376 40.0264 243.439 39.7404C244.502 39.4543 245.632 39.3322 246.829 39.3741C247.277 39.3897 247.755 39.4272 248.263 39.4867C248.773 39.5357 249.275 39.6158 249.772 39.727C250.279 39.8281 250.769 39.965 251.243 40.1379C251.716 40.3108 252.147 40.5187 252.534 40.7615L251.889 46.7114C251.313 46.4724 250.715 46.3055 250.092 46.2109C249.481 46.1061 248.879 46.0434 248.285 46.0227C247.453 45.9936 246.667 46.0965 245.929 46.3313C245.202 46.556 244.56 46.8984 244.002 47.3584C243.454 47.8187 243.012 48.387 242.676 49.0631C242.34 49.7393 242.156 50.5094 242.126 51.3735C242.107 51.9148 242.162 52.4431 242.29 52.9583C242.418 53.4631 242.621 53.9183 242.899 54.3241C243.187 54.7198 243.546 55.0451 243.975 55.2998C244.414 55.5548 244.925 55.6925 245.508 55.7129C245.904 55.7267 246.311 55.6888 246.731 55.5993C247.162 55.5101 247.532 55.3458 247.843 55.1065L247.948 53.8907L244.203 53.6974L244.554 49.0193C246.107 49.0214 247.659 49.0339 249.211 49.0568C250.764 49.0694 252.327 49.0718 253.901 49.0643L253.722 59.5644Z" fill="white"/>
</g>
<defs>
<filter id="filter0_d_11_3" x="0.783203" y="0.861816" width="347.43" height="110.685" filterUnits="userSpaceOnUse" color-interpolation-filters="sRGB">
<feFlood flood-opacity="0" result="BackgroundImageFix"/>
<feColorMatrix in="SourceAlpha" type="matrix" values="0 0 0 0 0 0 0 0 0 0 0 0 0 0 0 0 0 0 127 0" result="hardAlpha"/>
<feOffset dy="4"/>
<feGaussianBlur stdDeviation="2"/>
<feComposite in2="hardAlpha" operator="out"/>
<feColorMatrix type="matrix" values="0 0 0 0 0 0 0 0 0 0 0 0 0 0 0 0 0 0 0.52 0"/>
<feBlend mode="normal" in2="BackgroundImageFix" result="effect1_dropShadow_11_3"/>
<feBlend mode="normal" in="SourceGraphic" in2="effect1_dropShadow_11_3" result="shape"/>
</filter>
</defs>
</svg>
