<svg width="361" height="138" viewBox="0 0 361 138" fill="none" xmlns="http://www.w3.org/2000/svg">
<g filter="url(#filter0_d_11_15)">
<path d="M281.465 3.95508L350.067 52.2324L352.786 54.1445L350.194 56.2256L290.061 104.502L289.456 104.987L288.685 105.046L9.18848 126.22L6.5 126.424V30.8398L8.75098 30.6152L279.777 3.5127L280.703 3.41992L281.465 3.95508Z" fill="#DD9551" stroke="white" stroke-width="5"/>
<path d="M9 123.727V33.1026L280.026 6L348.629 54.2765L288.495 102.553L9 123.727Z" fill="#F97574"/>
<path d="M118.786 59.0087L118.765 65.6264C118.457 65.5681 118.157 65.5353 117.863 65.528C117.57 65.5207 117.273 65.5295 116.972 65.5542C116.235 65.6147 115.537 65.7661 114.877 66.0084C114.228 66.2499 113.66 66.5839 113.172 67.0107C112.695 67.4366 112.325 67.9582 112.062 68.5756C111.809 69.1817 111.715 69.8844 111.781 70.6838C111.828 71.2652 111.953 71.7671 112.155 72.1894C112.367 72.6006 112.64 72.9387 112.975 73.2038C113.32 73.4577 113.722 73.639 114.18 73.7477C114.649 73.8555 115.158 73.8868 115.708 73.8417C116.093 73.8101 116.484 73.7414 116.883 73.6354C117.281 73.5191 117.677 73.3769 118.071 73.2087C118.465 73.0405 118.841 72.8528 119.2 72.6456C119.56 72.4384 119.892 72.223 120.198 71.9993L120.55 79.3389C120.162 79.5797 119.741 79.8024 119.288 80.0069C118.833 80.201 118.362 80.3756 117.873 80.5307C117.395 80.6954 116.909 80.8293 116.416 80.9325C115.933 81.0349 115.469 81.1044 115.022 81.141C113.548 81.2621 112.181 81.0974 110.921 80.6469C109.672 80.1956 108.572 79.5334 107.623 78.6602C106.682 77.7759 105.922 76.7252 105.341 75.5083C104.761 74.2913 104.412 72.9717 104.295 71.5494C104.155 69.8468 104.264 68.2388 104.62 66.7253C104.987 65.2111 105.593 63.8757 106.439 62.7193C107.294 61.5516 108.387 60.6048 109.717 59.8789C111.057 59.1418 112.625 58.6994 114.421 58.5519C115.138 58.4931 115.869 58.4905 116.616 58.5442C117.362 58.5979 118.086 58.7527 118.786 59.0087ZM141.61 66.5409C141.688 67.4856 141.654 68.4082 141.508 69.3085C141.362 70.1985 141.113 71.0447 140.761 71.847C140.419 72.6485 139.978 73.3954 139.439 74.0877C138.91 74.7687 138.296 75.3679 137.596 75.8852C136.907 76.4017 136.142 76.8251 135.302 77.1554C134.46 77.4753 133.557 77.6749 132.592 77.7542C131.657 77.8309 130.755 77.7849 129.884 77.616C129.023 77.4463 128.207 77.1788 127.435 76.8137C126.662 76.4382 125.95 75.9741 125.298 75.4214C124.656 74.8575 124.092 74.2245 123.606 73.5223C123.129 72.809 122.736 72.0364 122.428 71.2047C122.129 70.3722 121.942 69.4939 121.866 68.57C121.792 67.6667 121.829 66.7753 121.976 65.8958C122.122 65.0058 122.367 64.1601 122.708 63.3586C123.06 62.5562 123.501 61.8093 124.029 61.1179C124.558 60.4265 125.161 59.8178 125.839 59.2918C126.527 58.7649 127.281 58.3372 128.101 58.0086C128.921 57.68 129.798 57.4773 130.732 57.4006C132.237 57.277 133.627 57.398 134.901 57.7638C136.185 58.1286 137.299 58.7113 138.242 59.5117C139.196 60.3009 139.962 61.2936 140.541 62.4899C141.129 63.6748 141.486 65.0252 141.61 66.5409ZM134.729 67.5136C134.693 67.0672 134.59 66.6419 134.421 66.2377C134.261 65.8223 134.044 65.4639 133.768 65.1625C133.492 64.8508 133.158 64.6116 132.768 64.4451C132.388 64.2673 131.959 64.198 131.482 64.2372C130.994 64.2773 130.565 64.4013 130.195 64.6094C129.826 64.8174 129.513 65.0886 129.259 65.4231C129.013 65.7463 128.835 66.1216 128.724 66.5488C128.612 66.9656 128.575 67.4024 128.612 67.8592C128.648 68.2952 128.746 68.7261 128.906 69.152C129.067 69.5778 129.286 69.9569 129.564 70.2894C129.842 70.6219 130.172 70.8823 130.553 71.0705C130.945 71.2578 131.385 71.3314 131.873 71.2913C132.361 71.2513 132.789 71.122 133.158 70.9036C133.536 70.674 133.847 70.3871 134.09 70.0431C134.333 69.6888 134.51 69.2928 134.62 68.8552C134.73 68.4176 134.767 67.9704 134.729 67.5136ZM163.766 68.7976C163.863 69.9707 163.942 71.1347 164.006 72.2897C164.079 73.4334 164.137 74.5887 164.181 75.7557L155.198 76.3366C155.359 74.4735 155.478 72.619 155.557 70.773C155.634 68.9167 155.596 67.0542 155.443 65.1855C155.432 65.0505 155.408 64.8329 155.373 64.5327C155.338 64.2325 155.29 63.8968 155.228 63.5256C155.165 63.144 155.087 62.7586 154.992 62.3692C154.907 61.9685 154.799 61.6064 154.668 61.2827C154.547 60.9582 154.405 60.698 154.243 60.5023C154.09 60.2954 153.915 60.2 153.718 60.2162C153.365 60.2452 153.072 60.3738 152.84 60.6019C152.618 60.8291 152.438 61.1157 152.299 61.4615C152.17 61.7961 152.075 62.1697 152.015 62.5823C151.955 62.9948 151.915 63.4057 151.897 63.8149C151.888 64.2231 151.889 64.6098 151.898 64.9749C151.917 65.3287 151.935 65.6198 151.954 65.8482C152.053 67.6901 152.161 69.5207 152.28 71.34C152.397 73.149 152.505 74.9796 152.605 76.8318L144.691 77.8266C144.598 74.1448 144.496 70.4846 144.385 66.8461C144.285 63.2066 144.141 59.5499 143.955 55.8757L151.274 54.8984L151.417 57.3951C151.678 57.0183 151.962 56.6605 152.269 56.3217C152.586 55.9821 152.928 55.6876 153.294 55.438C153.659 55.1781 154.05 54.9683 154.465 54.8088C154.89 54.638 155.341 54.533 155.819 54.4938C156.701 54.4213 157.487 54.5032 158.175 54.7393C158.863 54.9754 159.467 55.323 159.985 55.7821C160.504 56.2412 160.952 56.8002 161.33 57.4589C161.707 58.1073 162.026 58.8075 162.286 59.5596C162.547 60.3116 162.763 61.1038 162.936 61.9362C163.108 62.7583 163.243 63.5729 163.341 64.3801C163.449 65.1864 163.534 65.9686 163.596 66.7264C163.658 67.4843 163.715 68.1747 163.766 68.7976ZM182.176 53.1132L182.562 59.7288L177.937 60.2967L178.563 74.7941L172.019 75.6764L170.241 61.2737L165.621 61.9039L165.204 54.5383L182.176 53.1132ZM203.964 72.0811L196.321 73.712L195.098 70.2693L191.548 70.5609L191.058 74.1443L183.052 74.0179L187.546 52.7662L196.169 51.6191L203.964 72.0811ZM194.146 65.5502L192.518 60.2281L191.81 65.742L194.146 65.5502ZM218.7 50.8036L218.679 57.4212C218.371 57.3629 218.07 57.3301 217.777 57.3228C217.484 57.3155 217.187 57.3243 216.886 57.349C216.148 57.4095 215.45 57.5609 214.791 57.8032C214.142 58.0447 213.573 58.3788 213.086 58.8055C212.609 59.2314 212.239 59.753 211.976 60.3704C211.722 60.9765 211.629 61.6792 211.694 62.4786C211.742 63.06 211.867 63.5619 212.069 63.9843C212.28 64.3954 212.554 64.7335 212.889 64.9987C213.234 65.2525 213.635 65.4338 214.094 65.5425C214.562 65.6503 215.072 65.6816 215.622 65.6365C216.006 65.6049 216.398 65.5362 216.797 65.4303C217.195 65.314 217.591 65.1717 217.984 65.0035C218.378 64.8353 218.755 64.6476 219.114 64.4404C219.473 64.2332 219.806 64.0178 220.111 63.7941L220.463 71.1337C220.075 71.3746 219.655 71.5972 219.201 71.8017C218.747 71.9958 218.275 72.1704 217.786 72.3255C217.309 72.4902 216.823 72.6241 216.33 72.7273C215.847 72.8297 215.382 72.8992 214.936 72.9359C213.462 73.0569 212.095 72.8922 210.835 72.4417C209.585 71.9904 208.486 71.3282 207.536 70.4551C206.596 69.5707 205.836 68.52 205.255 67.3031C204.674 66.0861 204.326 64.7665 204.209 63.3442C204.069 61.6416 204.177 60.0336 204.534 58.5201C204.901 57.0059 205.507 55.6705 206.353 54.5141C207.208 53.3464 208.301 52.3996 209.631 51.6737C210.971 50.9366 212.539 50.4942 214.335 50.3467C215.051 50.2879 215.783 50.2853 216.529 50.339C217.276 50.3927 217.999 50.5475 218.7 50.8036ZM238.224 48.5103L238.611 55.1259L233.986 55.6939L234.612 70.1912L228.068 71.0735L226.29 56.6708L221.67 57.301L221.253 49.9354L238.224 48.5103Z" fill="white"/>
</g>
<defs>
<filter id="filter0_d_11_15" x="0" y="0.8396" width="360.944" height="136.28" filterUnits="userSpaceOnUse" color-interpolation-filters="sRGB">
<feFlood flood-opacity="0" result="BackgroundImageFix"/>
<feColorMatrix in="SourceAlpha" type="matrix" values="0 0 0 0 0 0 0 0 0 0 0 0 0 0 0 0 0 0 127 0" result="hardAlpha"/>
<feOffset dy="4"/>
<feGaussianBlur stdDeviation="2"/>
<feComposite in2="hardAlpha" operator="out"/>
<feColorMatrix type="matrix" values="0 0 0 0 0 0 0 0 0 0 0 0 0 0 0 0 0 0 0.52 0"/>
<feBlend mode="normal" in2="BackgroundImageFix" result="effect1_dropShadow_11_15"/>
<feBlend mode="normal" in="SourceGraphic" in2="effect1_dropShadow_11_15" result="shape"/>
</filter>
</defs>
</svg>
