<svg width="218" height="152" viewBox="0 0 218 152" fill="none" xmlns="http://www.w3.org/2000/svg">
<g filter="url(#filter0_d_243_57)">
<path d="M9.93088 35.2476L8.06935 109.244C8.02618 110.959 8.86614 112.577 10.2943 113.53L11.5813 114.388C12.1865 114.791 12.8724 115.058 13.5912 115.169L177.12 140.441C177.373 140.48 177.628 140.5 177.884 140.5H185.157C186.037 140.5 186.901 140.268 187.662 139.827L203.188 130.839C204.633 130.002 205.565 128.5 205.672 126.834L210.446 52.8375C210.482 52.2833 210.422 51.7271 210.269 51.1931C209.793 49.5267 208.464 48.241 206.783 47.8207L205.5 47.5L180.65 43.2156C178.252 42.8021 176.5 40.7219 176.5 38.2883V36L177.417 28.6644C177.472 28.2234 177.468 27.7771 177.405 27.3371L177.032 24.7256C176.717 22.5194 174.98 20.7882 172.773 20.4806L55.7572 4.17518C54.9321 4.06022 54.0915 4.1532 53.3115 4.44569L51.6785 5.05807C50.9049 5.34817 50.2152 5.82543 49.6712 6.4472L47.7145 8.68346C47.2436 9.22156 46.8937 9.85438 46.6882 10.5392L45.7109 13.7971C45.571 14.2632 45.5 14.7472 45.5 15.2338V21.1689C45.5 22.5617 44.1355 23.5452 42.8141 23.1047C42.6061 23.0354 42.3882 23 42.1689 23H34H31.4284C30.8147 23 30.2063 23.113 29.6335 23.3333L17.9053 27.8441C17.6356 27.9478 17.3754 28.0747 17.1277 28.2234L12.3568 31.0859C10.8892 31.9665 9.97392 33.5366 9.93088 35.2476Z" stroke="white" stroke-width="7" shape-rendering="crispEdges"/>
</g>
<defs>
<filter id="filter0_d_243_57" x="0.567749" y="0.627441" width="217.388" height="151.373" filterUnits="userSpaceOnUse" color-interpolation-filters="sRGB">
<feFlood flood-opacity="0" result="BackgroundImageFix"/>
<feColorMatrix in="SourceAlpha" type="matrix" values="0 0 0 0 0 0 0 0 0 0 0 0 0 0 0 0 0 0 127 0" result="hardAlpha"/>
<feOffset dy="4"/>
<feGaussianBlur stdDeviation="2"/>
<feComposite in2="hardAlpha" operator="out"/>
<feColorMatrix type="matrix" values="0 0 0 0 0 0 0 0 0 0 0 0 0 0 0 0 0 0 0.25 0"/>
<feBlend mode="normal" in2="BackgroundImageFix" result="effect1_dropShadow_243_57"/>
<feBlend mode="normal" in="SourceGraphic" in2="effect1_dropShadow_243_57" result="shape"/>
</filter>
</defs>
</svg>
