<svg width="215" height="162" viewBox="0 0 215 162" fill="none" xmlns="http://www.w3.org/2000/svg">
<g filter="url(#filter0_d_243_55)">
<path d="M205.087 101.858L100.176 150.055C98.8693 150.656 97.3669 150.664 96.0531 150.078L18.1029 115.324L9.10156 111.311C8.97809 111.256 8.84442 111.227 8.70924 111.227C8.18499 111.227 7.75697 110.808 7.74604 110.284L7.07565 78.1411C7.03053 75.9779 8.38197 74.0311 10.4245 73.317L36.0489 64.3585C37.074 64.0001 37.9547 63.3176 38.5576 62.4143L39.9257 60.3643L41.6381 56.9434C41.7724 56.675 41.9306 56.4193 42.1108 56.1793L45.2857 51.9509L48.7763 48.1156C49.001 47.8686 49.25 47.6448 49.5194 47.4474L54.5537 43.7597C54.7557 43.6118 54.9685 43.4792 55.1904 43.3631L62.473 39.5527C62.7551 39.4051 63.0507 39.2847 63.3557 39.1933L70.5543 37.0362L79.7429 34.3592L85.8875 32.915C86.1298 32.8581 86.3675 32.7831 86.5986 32.6907L90.08 31.2997L110.573 22.1612C111.198 21.8827 111.759 21.4791 112.221 20.9753L114.639 18.3406C115.349 17.5665 115.798 16.5883 115.92 15.5448L116.796 8.10949C117.069 5.79173 118.909 3.97108 121.23 3.72273L127.304 3.0727C127.754 3.02446 128.21 3.03774 128.657 3.11219L134.874 4.14729L157.978 11.4004C160.154 12.0834 161.592 14.1521 161.474 16.4294L160.67 31.9567C160.58 33.6878 161.394 35.3418 162.819 36.3277L163.347 36.6924C164.697 37.6262 165.503 39.1632 165.503 40.8049V45.3041C165.503 45.8923 165.709 46.4618 166.086 46.9135C166.858 47.8394 168.18 48.0859 169.234 47.5008L173.836 44.9472C174.15 44.7727 174.482 44.6327 174.827 44.5295L178.137 43.5375L181.707 42.9432C182.383 42.8307 183.074 42.8583 183.739 43.0243L185.488 43.461C185.692 43.5119 185.891 43.579 186.084 43.6616L186.184 43.7044C187.573 44.2991 188.474 45.6647 188.474 47.1758C188.474 47.5526 188.418 47.9273 188.307 48.2874L188.129 48.8641C187.437 51.1122 188.405 53.5389 190.455 54.693L205.453 63.1371C207.026 64.0229 208 65.6883 208 67.494V97.314C208 99.2675 206.862 101.042 205.087 101.858Z" stroke="white" stroke-width="6" shape-rendering="crispEdges"/>
</g>
<defs>
<filter id="filter0_d_243_55" x="0.074585" y="0.0443115" width="214.925" height="161.467" filterUnits="userSpaceOnUse" color-interpolation-filters="sRGB">
<feFlood flood-opacity="0" result="BackgroundImageFix"/>
<feColorMatrix in="SourceAlpha" type="matrix" values="0 0 0 0 0 0 0 0 0 0 0 0 0 0 0 0 0 0 127 0" result="hardAlpha"/>
<feOffset dy="4"/>
<feGaussianBlur stdDeviation="2"/>
<feComposite in2="hardAlpha" operator="out"/>
<feColorMatrix type="matrix" values="0 0 0 0 0 0 0 0 0 0 0 0 0 0 0 0 0 0 0.25 0"/>
<feBlend mode="normal" in2="BackgroundImageFix" result="effect1_dropShadow_243_55"/>
<feBlend mode="normal" in="SourceGraphic" in2="effect1_dropShadow_243_55" result="shape"/>
</filter>
</defs>
</svg>
