<svg width="354" height="103" viewBox="0 0 354 103" fill="none" xmlns="http://www.w3.org/2000/svg">
<g filter="url(#filter0_d_11_7)">
<path d="M346.639 85.8455L344.194 85.8992L63.416 92.1082L62.5859 92.1267L61.9102 91.6453L11.5498 55.7722L8.89258 53.8796L11.4111 51.8054L58.3223 13.1726L58.9805 12.6306L59.832 12.6042L344.06 3.6355L346.639 3.55444V85.8455Z" fill="#F97574" stroke="white" stroke-width="5"/>
<path d="M101.313 42.5085L100.95 49.1162C100.645 49.042 100.347 48.9937 100.054 48.9713C99.762 48.9489 99.4647 48.9422 99.1628 48.9513C98.4236 48.9736 97.7184 49.0887 97.0473 49.2966C96.3866 49.5041 95.8017 49.8084 95.2928 50.2093C94.7942 50.61 94.3977 51.1117 94.1033 51.7147C93.8189 52.3068 93.6889 53.0038 93.7131 53.8055C93.7307 54.3886 93.8294 54.8962 94.0092 55.3285C94.199 55.7501 94.4546 56.1019 94.7757 56.384C95.107 56.6554 95.4987 56.8572 95.9508 56.9894C96.4133 57.1214 96.9205 57.179 97.4723 57.1623C97.8576 57.1507 98.2521 57.1023 98.656 57.0172C99.0595 56.9216 99.4623 56.8 99.8643 56.6524C100.266 56.5048 100.652 56.3368 101.021 56.1485C101.391 55.9602 101.734 55.7623 102.051 55.5547L102.023 62.9026C101.623 63.1231 101.191 63.3237 100.728 63.5045C100.264 63.6748 99.7838 63.8248 99.2875 63.9544C98.8019 64.0941 98.3102 64.2028 97.8123 64.2803C97.3248 64.3576 96.8572 64.4029 96.4095 64.4165C94.931 64.4611 93.5743 64.2259 92.3395 63.7108C91.115 63.1955 90.0512 62.4773 89.148 61.5562C88.2549 60.6244 87.5499 59.5358 87.0329 58.2904C86.5159 57.045 86.2359 55.7091 86.1928 54.2827C86.1412 52.5751 86.3326 50.9749 86.7669 49.4819C87.2116 47.9886 87.8862 46.6864 88.7906 45.5753C89.705 44.4535 90.8454 43.5645 92.2116 42.9084C93.588 42.2415 95.1768 41.8809 96.978 41.8265C97.6965 41.8048 98.427 41.8401 99.1697 41.9323C99.9124 42.0245 100.627 42.2166 101.313 42.5085ZM123.717 51.2113C123.746 52.1588 123.664 53.0784 123.472 53.97C123.28 54.8512 122.987 55.6833 122.594 56.4664C122.211 57.2491 121.733 57.9722 121.159 58.6357C120.595 59.2884 119.95 59.855 119.225 60.3354C118.51 60.8156 117.724 61.1988 116.868 61.4852C116.011 61.7612 115.099 61.9138 114.13 61.943C113.193 61.9713 112.294 61.8786 111.433 61.6649C110.583 61.4509 109.781 61.1416 109.029 60.7371C108.277 60.3221 107.589 59.8218 106.967 59.2361C106.355 58.6397 105.825 57.9784 105.376 57.252C104.936 56.5149 104.584 55.7231 104.319 54.8765C104.064 54.0297 103.923 53.1429 103.895 52.2163C103.867 51.3104 103.95 50.4221 104.143 49.5513C104.335 48.6701 104.622 47.8381 105.005 47.0554C105.398 46.2723 105.877 45.5492 106.44 44.8861C107.004 44.223 107.638 43.6463 108.342 43.156C109.057 42.6655 109.832 42.2774 110.667 41.9916C111.503 41.7058 112.389 41.5488 113.326 41.5205C114.836 41.4749 116.217 41.6677 117.471 42.0988C118.734 42.5296 119.816 43.1691 120.717 44.0173C121.629 44.8548 122.342 45.8858 122.859 47.1104C123.385 48.3242 123.671 49.6912 123.717 51.2113ZM116.795 51.8268C116.782 51.3791 116.701 50.949 116.553 50.5366C116.415 50.1135 116.216 49.7443 115.957 49.4291C115.697 49.1035 115.376 48.8474 114.996 48.6609C114.625 48.4637 114.2 48.3723 113.721 48.3867C113.232 48.4015 112.797 48.5032 112.417 48.6918C112.037 48.8805 111.712 49.1352 111.44 49.4561C111.178 49.7662 110.981 50.1317 110.848 50.5526C110.714 50.963 110.654 51.3973 110.668 51.8554C110.681 52.2927 110.757 52.7282 110.895 53.1617C111.033 53.5952 111.233 53.9852 111.493 54.3317C111.754 54.6781 112.07 54.9552 112.441 55.1628C112.822 55.3702 113.258 55.4664 113.747 55.4517C114.236 55.4369 114.671 55.33 115.05 55.1309C115.44 54.9212 115.765 54.6508 116.026 54.3199C116.287 53.9785 116.484 53.5922 116.617 53.1609C116.749 52.7296 116.809 52.2849 116.795 51.8268ZM144.092 50.1585C144.136 51.6162 143.988 52.9285 143.648 54.0956C143.308 55.2626 142.813 56.3041 142.163 57.2199C141.524 58.125 140.75 58.904 139.842 59.5566C138.934 60.2093 137.935 60.7554 136.843 61.1948C135.751 61.6237 134.584 61.9508 133.34 62.1759C132.107 62.4008 130.834 62.533 129.522 62.5726C129.033 62.5874 128.553 62.5914 128.084 62.5847C127.615 62.5676 127.135 62.5405 126.644 62.5032L126.467 42.1555C127.601 41.7565 128.77 41.4659 129.974 41.2836C131.187 41.0907 132.392 40.9761 133.59 40.94C135.079 40.895 136.454 41.0619 137.716 41.4407C138.978 41.8194 140.074 42.4012 141.005 43.186C141.935 43.9603 142.668 44.9335 143.203 46.1053C143.749 47.2665 144.045 48.6175 144.092 50.1585ZM133.652 56.4764C134.274 56.3638 134.836 56.1593 135.338 55.8628C135.85 55.5555 136.287 55.188 136.649 54.7602C137.011 54.322 137.283 53.8344 137.465 53.2974C137.656 52.7497 137.743 52.1739 137.725 51.57C137.707 50.9765 137.628 50.4266 137.488 49.9202C137.347 49.4034 137.13 48.9618 136.838 48.5954C136.545 48.2187 136.166 47.9279 135.702 47.7231C135.237 47.5078 134.671 47.3999 134.004 47.3992L133.652 56.4764ZM164.098 49.3356C164.125 50.2415 164.09 51.1492 163.992 52.0588C162.215 52.2271 160.451 52.4679 158.699 52.7814C156.947 53.0844 155.195 53.3874 153.443 53.6904C153.736 54.4319 154.176 55.0178 154.762 55.4483C155.359 55.8784 156.058 56.0813 156.86 56.0571C157.276 56.0445 157.727 55.9528 158.211 55.7818C158.707 55.6105 159.195 55.403 159.678 55.1592C160.16 54.9049 160.621 54.6357 161.06 54.3514C161.5 54.0672 161.878 53.8109 162.194 53.5825L161.658 60.6957C161.262 61.0203 160.827 61.2991 160.355 61.5323C159.893 61.7651 159.409 61.9568 158.903 62.1076C158.397 62.2583 157.884 62.3728 157.365 62.451C156.847 62.5292 156.338 62.5758 155.838 62.5909C154.807 62.622 153.86 62.5099 152.998 62.2546C152.136 61.9992 151.348 61.6322 150.636 61.1535C149.933 60.6641 149.311 60.0836 148.77 59.4122C148.228 58.7407 147.774 58.0041 147.406 57.2023C147.038 56.4006 146.751 55.5494 146.547 54.6489C146.343 53.7484 146.226 52.8349 146.198 51.9082C146.169 50.9399 146.228 49.9689 146.376 48.9953C146.524 48.0216 146.761 47.0817 147.088 46.1756C147.426 45.2692 147.854 44.4278 148.372 43.6514C148.901 42.8642 149.521 42.1733 150.232 41.5786C150.944 40.984 151.753 40.5114 152.659 40.161C153.576 39.8103 154.592 39.6181 155.706 39.5844C156.633 39.5565 157.48 39.6611 158.248 39.8985C159.026 40.1251 159.718 40.4585 160.326 40.8987C160.943 41.3282 161.48 41.8487 161.936 42.4602C162.403 43.0714 162.788 43.7476 163.092 44.4888C163.405 45.2192 163.643 45.9989 163.803 46.8277C163.974 47.6459 164.072 48.4818 164.098 49.3356ZM157.826 48.7121C157.817 48.4206 157.777 48.1248 157.705 47.8247C157.634 47.5142 157.521 47.2363 157.368 46.9908C157.225 46.745 157.036 46.5474 156.803 46.3982C156.569 46.2385 156.28 46.1639 155.936 46.1742C155.52 46.1868 155.153 46.3125 154.838 46.5513C154.532 46.7794 154.27 47.0687 154.051 47.4192C153.832 47.7593 153.656 48.1294 153.522 48.5294C153.388 48.9295 153.29 49.2972 153.227 49.6326L157.836 49.0557L157.826 48.7121ZM179.649 40.2372C178.082 43.9215 176.643 47.6646 175.33 51.4664C174.027 55.2574 172.819 59.0873 171.706 62.956L165.385 60.7082C166.088 58.8007 166.792 56.8984 167.495 55.0013C168.198 53.0938 168.918 51.2014 169.653 49.3242C170.398 47.4363 171.176 45.563 171.984 43.7044C172.793 41.8458 173.66 40.0115 174.585 38.2015L179.649 40.2372ZM199.835 48.4755C199.879 49.9331 199.731 51.2455 199.391 52.4125C199.051 53.5796 198.556 54.621 197.907 55.5369C197.267 56.442 196.493 57.2209 195.585 57.8736C194.678 58.5263 193.678 59.0724 192.587 59.5118C191.495 59.9407 190.327 60.2678 189.083 60.4929C187.85 60.7177 186.577 60.85 185.265 60.8896C184.776 60.9043 184.297 60.9084 183.828 60.9017C183.358 60.8846 182.878 60.8574 182.387 60.8202L182.21 40.4725C183.345 40.0735 184.514 39.7829 185.717 39.6006C186.93 39.4077 188.136 39.2931 189.333 39.257C190.822 39.212 192.198 39.3789 193.46 39.7577C194.722 40.1364 195.818 40.7182 196.748 41.503C197.678 42.2773 198.411 43.2504 198.947 44.4223C199.492 45.5835 199.788 46.9345 199.835 48.4755ZM189.396 54.7934C190.018 54.6808 190.58 54.4763 191.081 54.1798C191.593 53.8725 192.03 53.505 192.392 53.0772C192.754 52.639 193.026 52.1514 193.208 51.6144C193.4 51.0667 193.487 50.4909 193.468 49.887C193.45 49.2935 193.371 48.7436 193.231 48.2372C193.09 47.7203 192.874 47.2788 192.581 46.9124C192.289 46.5357 191.91 46.2449 191.445 46.0401C190.98 45.8248 190.414 45.7169 189.747 45.7162L189.396 54.7934ZM219.841 47.6526C219.868 48.5584 219.833 49.4662 219.736 50.3758C217.959 50.5441 216.194 50.7849 214.443 51.0983C212.691 51.4013 210.938 51.7044 209.186 52.0074C209.48 52.7489 209.919 53.3348 210.506 53.7652C211.102 54.1953 211.801 54.3983 212.603 54.3741C213.02 54.3615 213.47 54.2698 213.955 54.0988C214.45 53.9275 214.939 53.72 215.421 53.4761C215.903 53.2219 216.364 52.9527 216.804 52.6684C217.243 52.3842 217.621 52.1279 217.937 51.8995L217.402 59.0126C217.005 59.3373 216.57 59.6161 216.098 59.8492C215.636 60.082 215.152 60.2738 214.646 60.4246C214.14 60.5753 213.628 60.6898 213.109 60.768C212.59 60.8462 212.081 60.8928 211.581 60.9079C210.55 60.939 209.604 60.8269 208.742 60.5716C207.879 60.3162 207.092 59.9492 206.379 59.4705C205.676 58.9811 205.055 58.4006 204.513 57.7291C203.972 57.0577 203.517 56.3211 203.149 55.5193C202.781 54.7175 202.495 53.8664 202.29 52.9659C202.086 52.0654 201.97 51.1519 201.942 50.2252C201.913 49.2569 201.972 48.2859 202.12 47.3123C202.267 46.3386 202.505 45.3987 202.832 44.4926C203.169 43.5862 203.597 42.7448 204.115 41.9683C204.644 41.1812 205.264 40.4903 205.976 39.8956C206.687 39.301 207.496 38.8284 208.403 38.478C209.32 38.1272 210.335 37.935 211.449 37.9014C212.376 37.8734 213.223 37.9781 213.991 38.2155C214.769 38.4421 215.462 38.7755 216.069 39.2157C216.687 39.6452 217.223 40.1657 217.679 40.7772C218.146 41.3884 218.531 42.0646 218.835 42.8058C219.149 43.5362 219.386 44.3159 219.546 45.1447C219.717 45.9629 219.815 46.7988 219.841 47.6526ZM213.569 47.0291C213.561 46.7376 213.52 46.4418 213.449 46.1417C213.377 45.8312 213.264 45.5532 213.111 45.3078C212.968 45.062 212.78 44.8644 212.546 44.7152C212.312 44.5555 212.023 44.4808 211.679 44.4912C211.263 44.5038 210.897 44.6295 210.581 44.8683C210.275 45.0964 210.013 45.3857 209.794 45.7362C209.575 46.0763 209.399 46.4463 209.265 46.8464C209.131 47.2465 209.033 47.6142 208.97 47.9496L213.58 47.3727L213.569 47.0291ZM238.619 51.7128C238.662 53.1392 238.449 54.3805 237.981 55.4368C237.523 56.4824 236.872 57.3566 236.028 58.0595C235.194 58.7516 234.205 59.2765 233.059 59.6342C231.923 59.9811 230.694 60.1745 229.371 60.2145C228.861 60.2299 228.297 60.1792 227.679 60.0624C227.071 59.9452 226.451 59.7972 225.821 59.6182C225.19 59.4288 224.579 59.2284 223.989 59.017C223.409 58.7948 222.892 58.5863 222.438 58.3916L222.941 52.2487C223.842 52.7529 224.833 53.1295 225.913 53.3782C227.005 53.6162 228.071 53.7195 229.112 53.6881C229.31 53.6821 229.549 53.6697 229.83 53.6508C230.11 53.6214 230.374 53.5666 230.622 53.4862C230.88 53.395 231.095 53.2687 231.267 53.1071C231.439 52.9456 231.521 52.7191 231.512 52.4276C231.506 52.2297 231.439 52.065 231.31 51.9334C231.181 51.7914 231.016 51.6818 230.815 51.6045C230.615 51.5167 230.389 51.4558 230.138 51.4217C229.886 51.3772 229.64 51.3481 229.4 51.3345C229.16 51.3209 228.936 51.3173 228.728 51.3236C228.52 51.3299 228.353 51.3349 228.228 51.3387C227.333 51.3657 226.511 51.2498 225.763 50.991C225.026 50.7319 224.384 50.3553 223.838 49.8611C223.301 49.3562 222.876 48.7438 222.563 48.0238C222.249 47.2933 222.079 46.4804 222.052 45.5849C222.014 44.3563 222.226 43.2505 222.686 42.2674C223.156 41.2736 223.792 40.4259 224.595 39.7243C225.407 39.0119 226.344 38.4574 227.405 38.0606C228.466 37.6638 229.57 37.4481 230.715 37.4135C231.225 37.3981 231.752 37.4031 232.294 37.4284C232.837 37.4433 233.375 37.4895 233.909 37.5672C234.453 37.6446 234.982 37.7484 235.497 37.8788C236.012 38.0092 236.501 38.1768 236.966 38.3816L236.564 44.7404C235.849 44.5223 235.098 44.3469 234.313 44.2143C233.537 44.071 232.78 44.0105 232.041 44.0328C231.905 44.0369 231.728 44.0474 231.51 44.0644C231.302 44.0707 231.078 44.0931 230.84 44.1316C230.611 44.1593 230.378 44.2028 230.14 44.2621C229.902 44.3214 229.691 44.4007 229.507 44.5001C229.322 44.5891 229.174 44.7081 229.064 44.8574C228.954 45.0066 228.907 45.18 228.923 45.3775C228.941 45.6062 229.029 45.7807 229.189 45.9009C229.36 46.0208 229.571 46.1083 229.823 46.1632C230.084 46.2074 230.366 46.2249 230.668 46.2158C230.981 46.2064 231.288 46.1919 231.589 46.1724C231.891 46.1424 232.171 46.1183 232.431 46.1001C232.691 46.0714 232.904 46.0597 233.071 46.0651C233.906 46.092 234.661 46.2464 235.336 46.5282C236.012 46.81 236.586 47.1939 237.059 47.6799C237.543 48.1655 237.915 48.7535 238.175 49.4439C238.446 50.1235 238.594 50.8798 238.619 51.7128ZM248.963 37.3941L248.512 58.6986L241.932 59.2412L240.668 38.0822L248.963 37.3941ZM271.284 55.2286C270.813 55.8577 270.225 56.4121 269.521 56.8919C268.816 57.3717 268.057 57.775 267.244 58.1018C266.43 58.4286 265.594 58.6831 264.734 58.8654C263.874 59.0373 263.054 59.135 262.273 59.1585C260.764 59.2041 259.366 58.991 258.08 58.5192C256.795 58.0473 255.675 57.3725 254.721 56.4946C253.777 55.6061 253.025 54.5397 252.467 53.2956C251.908 52.0514 251.606 50.6849 251.561 49.196C251.527 48.0611 251.624 46.9535 251.852 45.8732C252.08 44.793 252.419 43.7771 252.87 42.8255C253.331 41.8737 253.898 40.9968 254.572 40.1948C255.246 39.3929 256.017 38.6974 256.886 38.1084C257.754 37.5195 258.709 37.0581 259.751 36.7244C260.804 36.38 261.924 36.1899 263.111 36.1541C263.558 36.1405 264.038 36.1469 264.549 36.1731C265.06 36.189 265.567 36.2362 266.07 36.3148C266.583 36.3827 267.081 36.4875 267.565 36.6292C268.048 36.7709 268.491 36.9504 268.894 37.1675L268.637 43.1467C268.047 42.9457 267.439 42.8181 266.812 42.7641C266.195 42.6994 265.59 42.676 264.996 42.6939C264.163 42.719 263.386 42.8571 262.664 43.1082C261.952 43.3485 261.332 43.6955 260.804 44.1492C260.286 44.6025 259.881 45.1619 259.588 45.8273C259.296 46.4926 259.163 47.2574 259.189 48.1216C259.205 48.663 259.294 49.1866 259.455 49.6924C259.616 50.1878 259.848 50.6289 260.152 51.0157C260.465 51.3919 260.844 51.6931 261.289 51.9193C261.744 52.1453 262.263 52.2495 262.846 52.2319C263.241 52.2199 263.646 52.1556 264.059 52.0389C264.483 51.9219 264.842 51.7339 265.136 51.4749L265.162 50.2548L261.412 50.3055L261.458 45.6145C263.008 45.5156 264.558 45.4271 266.108 45.349C267.658 45.2605 269.219 45.1613 270.789 45.0514L271.284 55.2286ZM293.334 50.1546C293.37 51.3311 293.39 52.4977 293.393 53.6544C293.407 54.8003 293.405 55.9572 293.389 57.1249L284.388 57.2403C284.645 55.3879 284.86 53.5421 285.034 51.7027C285.207 49.8528 285.265 47.9908 285.209 46.1167C285.205 45.9813 285.193 45.7628 285.173 45.4612C285.154 45.1596 285.123 44.8218 285.08 44.4479C285.037 44.0636 284.979 43.6746 284.904 43.2808C284.84 42.8763 284.751 42.5091 284.637 42.179C284.533 41.8487 284.405 41.5816 284.253 41.3778C284.111 41.1632 283.941 41.0589 283.743 41.0649C283.389 41.0756 283.09 41.1888 282.847 41.4046C282.614 41.6201 282.419 41.8969 282.262 42.2351C282.116 42.5626 282.002 42.9308 281.92 43.3397C281.839 43.7486 281.778 44.1568 281.739 44.5645C281.709 44.9718 281.69 45.358 281.68 45.723C281.68 46.0773 281.684 46.369 281.691 46.5981C281.694 48.4426 281.708 50.2763 281.732 52.0994C281.755 53.912 281.769 55.7457 281.773 57.6006L273.818 58.1847C273.915 54.503 274.003 50.8425 274.08 47.203C274.168 43.5633 274.214 39.904 274.218 36.2251L281.578 35.6277L281.591 38.1285C281.872 37.7657 282.174 37.4231 282.498 37.1006C282.832 36.7779 283.189 36.5014 283.567 36.2711C283.946 36.0304 284.346 35.8412 284.769 35.7033C285.203 35.5548 285.659 35.4733 286.138 35.4588C287.023 35.4321 287.803 35.5544 288.478 35.8259C289.153 36.0973 289.738 36.4756 290.232 36.9609C290.726 37.4463 291.145 38.0276 291.488 38.7051C291.831 39.3721 292.113 40.0879 292.334 40.8524C292.556 41.6169 292.731 42.4193 292.86 43.2595C292.99 44.0893 293.082 44.9098 293.138 45.721C293.204 46.5318 293.249 47.3173 293.272 48.0774C293.295 48.8375 293.316 49.5299 293.334 50.1546Z" fill="white"/>
</g>
<defs>
<filter id="filter0_d_11_7" x="0.785645" y="0.974365" width="352.353" height="101.67" filterUnits="userSpaceOnUse" color-interpolation-filters="sRGB">
<feFlood flood-opacity="0" result="BackgroundImageFix"/>
<feColorMatrix in="SourceAlpha" type="matrix" values="0 0 0 0 0 0 0 0 0 0 0 0 0 0 0 0 0 0 127 0" result="hardAlpha"/>
<feOffset dy="4"/>
<feGaussianBlur stdDeviation="2"/>
<feComposite in2="hardAlpha" operator="out"/>
<feColorMatrix type="matrix" values="0 0 0 0 0 0 0 0 0 0 0 0 0 0 0 0 0 0 0.52 0"/>
<feBlend mode="normal" in2="BackgroundImageFix" result="effect1_dropShadow_11_7"/>
<feBlend mode="normal" in="SourceGraphic" in2="effect1_dropShadow_11_7" result="shape"/>
</filter>
</defs>
</svg>
