<svg width="202" height="93" viewBox="0 0 202 93" fill="none" xmlns="http://www.w3.org/2000/svg">
<g filter="url(#filter0_d_223_39)">
<path d="M37 18L20 12L7 62L28 71.5L51 78L75.5 80.5L99.5 82L125 79L148 73.5L171.5 64.5L190 53L195 47L190 29L183.5 9.5L179 3.5L169.5 5L159 8L144 12L126 18L114.5 21L96 23H75.5L55 21L37 18Z" fill="#F79544"/>
<path d="M37 18L20 12L7 62L28 71.5L51 78L75.5 80.5L99.5 82L125 79L148 73.5L171.5 64.5L190 53L195 47L190 29L183.5 9.5L179 3.5L169.5 5L159 8L144 12L126 18L114.5 21L96 23H75.5L55 21L37 18Z" fill="white" fill-opacity="0.2"/>
<path d="M37 18L20 12L7 62L28 71.5L51 78L75.5 80.5L99.5 82L125 79L148 73.5L171.5 64.5L190 53L195 47L190 29L183.5 9.5L179 3.5L169.5 5L159 8L144 12L126 18L114.5 21L96 23H75.5L55 21L37 18Z" stroke="white" stroke-width="5"/>
</g>
<path d="M41.603 53.2C40.6696 53.2 39.8496 53.0267 39.143 52.68C38.4496 52.32 37.9096 51.82 37.523 51.18C37.1363 50.5267 36.943 49.76 36.943 48.88V46.12C36.943 45.2267 37.1363 44.46 37.523 43.82C37.9096 43.18 38.4496 42.6867 39.143 42.34C39.8496 41.98 40.6696 41.8 41.603 41.8C42.9896 41.8 44.0963 42.16 44.923 42.88C45.7496 43.5867 46.183 44.5533 46.223 45.78H43.723C43.683 45.2067 43.4763 44.7667 43.103 44.46C42.743 44.14 42.243 43.98 41.603 43.98C40.9363 43.98 40.4096 44.1667 40.023 44.54C39.6363 44.9 39.443 45.42 39.443 46.1V48.88C39.443 49.56 39.6363 50.0867 40.023 50.46C40.4096 50.8333 40.9363 51.02 41.603 51.02C42.243 51.02 42.743 50.8667 43.103 50.56C43.4763 50.24 43.683 49.7933 43.723 49.22H46.223C46.183 50.4467 45.7496 51.42 44.923 52.14C44.0963 52.8467 42.9896 53.2 41.603 53.2ZM53.5352 53.18C52.6018 53.18 51.7885 53.0067 51.0952 52.66C50.4152 52.3 49.8818 51.8 49.4952 51.16C49.1218 50.5067 48.9352 49.74 48.9352 48.86V46.14C48.9352 45.26 49.1218 44.5 49.4952 43.86C49.8818 43.2067 50.4152 42.7067 51.0952 42.36C51.7885 42 52.6018 41.82 53.5352 41.82C54.4818 41.82 55.2952 42 55.9752 42.36C56.6552 42.7067 57.1818 43.2067 57.5552 43.86C57.9418 44.5 58.1352 45.2533 58.1352 46.12V48.86C58.1352 49.74 57.9418 50.5067 57.5552 51.16C57.1818 51.8 56.6552 52.3 55.9752 52.66C55.2952 53.0067 54.4818 53.18 53.5352 53.18ZM53.5352 51C54.2018 51 54.7152 50.82 55.0752 50.46C55.4485 50.0867 55.6352 49.5533 55.6352 48.86V46.14C55.6352 45.4333 55.4485 44.9 55.0752 44.54C54.7152 44.18 54.2018 44 53.5352 44C52.8818 44 52.3685 44.18 51.9952 44.54C51.6218 44.9 51.4352 45.4333 51.4352 46.14V48.86C51.4352 49.5533 51.6218 50.0867 51.9952 50.46C52.3685 50.82 52.8818 51 53.5352 51ZM64.5873 53.2C63.494 53.2 62.6073 52.82 61.9273 52.06C61.2607 51.3 60.9273 50.28 60.9273 49V46.02C60.9273 44.7267 61.2607 43.7 61.9273 42.94C62.594 42.18 63.4807 41.8 64.5873 41.8C65.494 41.8 66.214 42.06 66.7473 42.58C67.2807 43.0867 67.5473 43.7867 67.5473 44.68L66.9873 44.1H67.5673L67.4873 41.48V38.4H69.9873V53H67.5473V50.9H66.9873L67.5473 50.32C67.5473 51.2133 67.2807 51.92 66.7473 52.44C66.214 52.9467 65.494 53.2 64.5873 53.2ZM65.4673 51.04C66.1073 51.04 66.6007 50.8533 66.9473 50.48C67.3073 50.0933 67.4873 49.56 67.4873 48.88V46.12C67.4873 45.44 67.3073 44.9133 66.9473 44.54C66.6007 44.1533 66.1073 43.96 65.4673 43.96C64.8273 43.96 64.3273 44.1467 63.9673 44.52C63.6073 44.8933 63.4273 45.4267 63.4273 46.12V48.88C63.4273 49.5733 63.6073 50.1067 63.9673 50.48C64.3273 50.8533 64.8273 51.04 65.4673 51.04ZM77.5395 53.2C76.6062 53.2 75.7929 53.02 75.0995 52.66C74.4062 52.3 73.8662 51.8 73.4795 51.16C73.1062 50.5067 72.9195 49.7467 72.9195 48.88V46.12C72.9195 45.2533 73.1062 44.5 73.4795 43.86C73.8662 43.2067 74.4062 42.7 75.0995 42.34C75.7929 41.98 76.6062 41.8 77.5395 41.8C78.4595 41.8 79.2595 41.98 79.9395 42.34C80.6329 42.7 81.1662 43.2067 81.5395 43.86C81.9262 44.5 82.1195 45.2533 82.1195 46.12V48.1H75.3395V48.88C75.3395 49.6533 75.5262 50.24 75.8995 50.64C76.2729 51.0267 76.8262 51.22 77.5595 51.22C78.1195 51.22 78.5729 51.1267 78.9195 50.94C79.2662 50.74 79.4862 50.4533 79.5795 50.08H82.0395C81.8529 51.0267 81.3462 51.7867 80.5195 52.36C79.7062 52.92 78.7129 53.2 77.5395 53.2ZM79.6995 46.7V46.1C79.6995 45.34 79.5195 44.76 79.1595 44.36C78.7995 43.9467 78.2595 43.74 77.5395 43.74C76.8195 43.74 76.2729 43.9467 75.8995 44.36C75.5262 44.7733 75.3395 45.36 75.3395 46.12V46.54L79.8795 46.5L79.6995 46.7ZM84.7117 55.2L91.7117 36.4H94.3117L87.3117 55.2H84.7117ZM100.564 53.2C99.4706 53.2 98.5839 52.82 97.9039 52.06C97.2372 51.3 96.9039 50.28 96.9039 49V46.02C96.9039 44.7267 97.2372 43.7 97.9039 42.94C98.5706 42.18 99.4572 41.8 100.564 41.8C101.471 41.8 102.191 42.06 102.724 42.58C103.257 43.0867 103.524 43.7867 103.524 44.68L102.964 44.1H103.544L103.464 41.48V38.4H105.964V53H103.524V50.9H102.964L103.524 50.32C103.524 51.2133 103.257 51.92 102.724 52.44C102.191 52.9467 101.471 53.2 100.564 53.2ZM101.444 51.04C102.084 51.04 102.577 50.8533 102.924 50.48C103.284 50.0933 103.464 49.56 103.464 48.88V46.12C103.464 45.44 103.284 44.9133 102.924 44.54C102.577 44.1533 102.084 43.96 101.444 43.96C100.804 43.96 100.304 44.1467 99.9439 44.52C99.5839 44.8933 99.4039 45.4267 99.4039 46.12V48.88C99.4039 49.5733 99.5839 50.1067 99.9439 50.48C100.304 50.8533 100.804 51.04 101.444 51.04ZM113.516 53.2C112.583 53.2 111.769 53.02 111.076 52.66C110.383 52.3 109.843 51.8 109.456 51.16C109.083 50.5067 108.896 49.7467 108.896 48.88V46.12C108.896 45.2533 109.083 44.5 109.456 43.86C109.843 43.2067 110.383 42.7 111.076 42.34C111.769 41.98 112.583 41.8 113.516 41.8C114.436 41.8 115.236 41.98 115.916 42.34C116.609 42.7 117.143 43.2067 117.516 43.86C117.903 44.5 118.096 45.2533 118.096 46.12V48.1H111.316V48.88C111.316 49.6533 111.503 50.24 111.876 50.64C112.249 51.0267 112.803 51.22 113.536 51.22C114.096 51.22 114.549 51.1267 114.896 50.94C115.243 50.74 115.463 50.4533 115.556 50.08H118.016C117.829 51.0267 117.323 51.7867 116.496 52.36C115.683 52.92 114.689 53.2 113.516 53.2ZM115.676 46.7V46.1C115.676 45.34 115.496 44.76 115.136 44.36C114.776 43.9467 114.236 43.74 113.516 43.74C112.796 43.74 112.249 43.9467 111.876 44.36C111.503 44.7733 111.316 45.36 111.316 46.12V46.54L115.856 46.5L115.676 46.7ZM125.068 53.18C124.228 53.18 123.495 53.0467 122.868 52.78C122.242 52.5133 121.748 52.1467 121.388 51.68C121.042 51.2 120.855 50.64 120.828 50H123.328C123.355 50.3467 123.522 50.6267 123.828 50.84C124.148 51.0533 124.562 51.16 125.068 51.16H125.948C126.562 51.16 127.022 51.04 127.328 50.8C127.635 50.56 127.788 50.2333 127.788 49.82C127.788 49.4333 127.648 49.1333 127.368 48.92C127.102 48.6933 126.682 48.5467 126.108 48.48L124.748 48.28C123.495 48.1067 122.575 47.7733 121.988 47.28C121.402 46.7867 121.108 46.0467 121.108 45.06C121.108 44.0333 121.455 43.24 122.148 42.68C122.842 42.1067 123.862 41.82 125.208 41.82H125.968C127.195 41.82 128.175 42.0933 128.908 42.64C129.642 43.1867 130.035 43.92 130.088 44.84H127.588C127.548 44.5467 127.382 44.3067 127.088 44.12C126.808 43.9333 126.435 43.84 125.968 43.84H125.208C124.635 43.84 124.215 43.9467 123.948 44.16C123.695 44.36 123.568 44.66 123.568 45.06C123.568 45.4333 123.682 45.7133 123.908 45.9C124.135 46.0733 124.502 46.2 125.008 46.28L126.428 46.48C127.735 46.6667 128.695 47.02 129.308 47.54C129.935 48.0467 130.248 48.8 130.248 49.8C130.248 50.8667 129.882 51.7 129.148 52.3C128.428 52.8867 127.362 53.18 125.948 53.18H125.068ZM133 53V50.72H136.84V44.26H133.5V42H139.24V50.72H142.64V53H133ZM137.84 40.16C137.334 40.16 136.934 40.0333 136.64 39.78C136.347 39.5133 136.2 39.16 136.2 38.72C136.2 38.28 136.347 37.9333 136.64 37.68C136.934 37.4133 137.334 37.28 137.84 37.28C138.347 37.28 138.747 37.4133 139.04 37.68C139.334 37.9333 139.48 38.28 139.48 38.72C139.48 39.16 139.334 39.5133 139.04 39.78C138.747 40.0333 138.347 40.16 137.84 40.16ZM146.513 56.6V54.52H149.773C150.333 54.52 150.753 54.38 151.033 54.1C151.313 53.8333 151.453 53.4467 151.453 52.94V52.12L151.493 50.06H150.953L151.493 49.52C151.493 50.4133 151.226 51.1133 150.693 51.62C150.173 52.1133 149.466 52.36 148.573 52.36C147.453 52.36 146.559 51.98 145.893 51.22C145.239 50.46 144.913 49.4333 144.913 48.14V46C144.913 44.72 145.239 43.7 145.893 42.94C146.559 42.18 147.453 41.8 148.573 41.8C149.466 41.8 150.173 42.0533 150.693 42.56C151.226 43.0533 151.493 43.7467 151.493 44.64L150.953 44.1H151.493L151.433 42H153.933V53C153.933 54.1067 153.566 54.98 152.833 55.62C152.099 56.2733 151.093 56.6 149.813 56.6H146.513ZM149.413 50.2C150.053 50.2 150.546 50.0133 150.893 49.64C151.253 49.2533 151.433 48.72 151.433 48.04V46.12C151.433 45.44 151.253 44.9133 150.893 44.54C150.546 44.1533 150.053 43.96 149.413 43.96C148.773 43.96 148.279 44.1467 147.933 44.52C147.586 44.8933 147.413 45.4267 147.413 46.12V48.04C147.413 48.7333 147.586 49.2667 147.933 49.64C148.279 50.0133 148.773 50.2 149.413 50.2ZM157.005 53V42H159.445V44.1H160.125L159.445 44.68C159.445 43.7733 159.705 43.0667 160.225 42.56C160.758 42.0533 161.485 41.8 162.405 41.8C163.485 41.8 164.345 42.16 164.985 42.88C165.638 43.6 165.965 44.5667 165.965 45.78V53H163.465V46.04C163.465 45.3733 163.292 44.86 162.945 44.5C162.598 44.14 162.112 43.96 161.485 43.96C160.872 43.96 160.385 44.1467 160.025 44.52C159.678 44.8933 159.505 45.4267 159.505 46.12V53H157.005Z" fill="#113E3E"/>
<defs>
<filter id="filter0_d_223_39" x="0.050415" y="0.795898" width="201.709" height="91.7134" filterUnits="userSpaceOnUse" color-interpolation-filters="sRGB">
<feFlood flood-opacity="0" result="BackgroundImageFix"/>
<feColorMatrix in="SourceAlpha" type="matrix" values="0 0 0 0 0 0 0 0 0 0 0 0 0 0 0 0 0 0 127 0" result="hardAlpha"/>
<feOffset dy="4"/>
<feGaussianBlur stdDeviation="2"/>
<feComposite in2="hardAlpha" operator="out"/>
<feColorMatrix type="matrix" values="0 0 0 0 0 0 0 0 0 0 0 0 0 0 0 0 0 0 0.25 0"/>
<feBlend mode="normal" in2="BackgroundImageFix" result="effect1_dropShadow_223_39"/>
<feBlend mode="normal" in="SourceGraphic" in2="effect1_dropShadow_223_39" result="shape"/>
</filter>
</defs>
</svg>
