<svg width="124" height="294" viewBox="0 0 124 294" fill="none" xmlns="http://www.w3.org/2000/svg">
<g filter="url(#filter0_d_227_76)">
<path d="M53 22L7 239V256L7.25199 256.571L14.5 273L33.5 276.5L45.5 282.5L67.5 262.5L75 239L117.5 42V24L109 11.5L96 3H80L66.5 8.5L53 22Z" stroke="white" stroke-width="5"/>
<path d="M34.951 188.155C34.3486 188.083 33.8375 187.904 33.4176 187.619C32.9978 187.333 32.6876 186.969 32.4872 186.526C32.2964 186.076 32.2343 185.571 32.3009 185.011L32.5129 183.23C32.5795 182.671 32.7578 182.199 33.0479 181.814C33.3477 181.422 33.7352 181.137 34.2103 180.958C34.6855 180.779 35.2243 180.725 35.8267 180.797C36.4205 180.867 36.923 181.045 37.3343 181.329C37.7541 181.615 38.0594 181.983 38.2502 182.433C38.4506 182.876 38.5176 183.377 38.451 183.937L38.2989 185.215L33.9228 184.694L33.8629 185.197C33.8035 185.696 33.8789 186.089 34.0891 186.376C34.3004 186.655 34.6427 186.822 35.116 186.878C35.4775 186.921 35.7772 186.896 36.0153 186.802C36.2544 186.699 36.4185 186.531 36.5074 186.297L38.0952 186.486C37.902 187.083 37.5166 187.535 36.939 187.841C36.371 188.14 35.7083 188.245 34.951 188.155ZM36.8445 184.125L36.8905 183.738C36.9489 183.247 36.8773 182.859 36.6757 182.573C36.475 182.279 36.1424 182.104 35.6777 182.049C35.2129 181.993 34.8442 182.085 34.5715 182.323C34.2988 182.561 34.1332 182.925 34.0749 183.416L34.0426 183.687L36.976 184.01L36.8445 184.125ZM39.4924 188.564L40.3373 181.464L41.654 181.621L41.5403 182.576L41.8114 182.608L41.5643 182.815C41.6114 182.419 41.7612 182.114 42.0136 181.899C42.2661 181.685 42.5687 181.599 42.9215 181.641C43.3002 181.686 43.5744 181.876 43.744 182.21C43.9223 182.545 43.9802 182.976 43.9177 183.501L43.709 182.834L44.1479 182.887L43.9525 183.099C43.9996 182.703 44.1493 182.398 44.4018 182.184C44.6542 181.969 44.9654 181.884 45.3355 181.928C45.7744 181.98 46.1035 182.185 46.3227 182.543C46.542 182.901 46.6184 183.359 46.5518 183.919L45.9081 189.328L44.4881 189.159L45.1241 183.814C45.1518 183.582 45.1216 183.395 45.0337 183.254C44.9468 183.104 44.8044 183.017 44.6065 182.993C44.4172 182.971 44.2589 183.018 44.1316 183.133C44.013 183.25 43.9394 183.429 43.9107 183.67L43.2747 189.014L42.1129 188.876L42.7489 183.532C42.7776 183.291 42.7479 183.1 42.66 182.958C42.5721 182.817 42.4292 182.734 42.2313 182.711C42.0333 182.687 41.875 182.734 41.7564 182.851C41.6464 182.968 41.577 183.148 41.5484 183.389L40.9123 188.733L39.4924 188.564ZM49.6313 189.902C48.8998 189.815 48.3462 189.552 47.9706 189.115C47.595 188.677 47.4461 188.132 47.524 187.478C47.6069 186.781 47.9033 186.27 48.4131 185.947C48.9229 185.624 49.6037 185.513 50.4557 185.614L52.2242 185.824L52.2965 185.218C52.3374 184.874 52.2573 184.593 52.0561 184.377C51.8559 184.153 51.5621 184.018 51.1749 183.972C50.822 183.93 50.5202 183.972 50.2694 184.099C50.0186 184.227 49.8558 184.421 49.781 184.683L48.2062 184.495C48.3635 183.833 48.7282 183.336 49.3003 183.002C49.8724 182.669 50.5672 182.551 51.3847 182.648C52.2539 182.751 52.912 183.052 53.3589 183.551C53.8154 184.041 53.9997 184.657 53.9116 185.397L53.3386 190.212L51.7766 190.026L51.9241 188.787L51.6659 188.756L51.9656 188.438C51.9031 188.963 51.6598 189.358 51.2356 189.621C50.8115 189.885 50.2767 189.978 49.6313 189.902ZM50.3049 188.751C50.7611 188.805 51.1449 188.733 51.4566 188.535C51.7768 188.337 51.959 188.053 52.003 187.683L52.106 186.818L50.3633 186.611C50.0362 186.572 49.7625 186.636 49.542 186.801C49.3215 186.967 49.1929 187.205 49.156 187.515C49.1161 187.85 49.1962 188.13 49.3964 188.355C49.6062 188.572 49.9091 188.704 50.3049 188.751ZM55.2828 190.443L55.4579 188.972L57.9364 189.267L58.4326 185.097L56.2768 184.841L56.4504 183.382L60.1553 183.823L59.4855 189.451L61.68 189.712L61.5049 191.184L55.2828 190.443ZM59.393 182.528C59.066 182.489 58.8175 182.376 58.6477 182.19C58.4788 181.995 58.4113 181.756 58.4451 181.472C58.4789 181.188 58.6002 180.976 58.809 180.835C59.0188 180.685 59.2872 180.63 59.6142 180.669C59.9413 180.708 60.1892 180.824 60.358 181.019C60.5279 181.205 60.5959 181.44 60.5622 181.724C60.5284 182.008 60.4065 182.225 60.1967 182.374C59.9879 182.515 59.72 182.566 59.393 182.528ZM66.999 191.838C66.5343 191.782 66.1368 191.639 65.8065 191.408C65.4848 191.177 65.2454 190.878 65.0885 190.511C64.9325 190.134 64.8817 189.718 64.936 189.262L65.6104 183.595L63.3384 183.324L63.512 181.866L67.3976 182.328L66.5496 189.454C66.5189 189.712 66.5674 189.927 66.6953 190.1C66.8328 190.264 67.0306 190.362 67.2888 190.393L69.4317 190.648L69.2581 192.106L66.999 191.838Z" fill="white"/>
</g>
<defs>
<filter id="filter0_d_227_76" x="0.5" y="0.5" width="123.5" height="293.002" filterUnits="userSpaceOnUse" color-interpolation-filters="sRGB">
<feFlood flood-opacity="0" result="BackgroundImageFix"/>
<feColorMatrix in="SourceAlpha" type="matrix" values="0 0 0 0 0 0 0 0 0 0 0 0 0 0 0 0 0 0 127 0" result="hardAlpha"/>
<feOffset dy="4"/>
<feGaussianBlur stdDeviation="2"/>
<feComposite in2="hardAlpha" operator="out"/>
<feColorMatrix type="matrix" values="0 0 0 0 0 0 0 0 0 0 0 0 0 0 0 0 0 0 0.25 0"/>
<feBlend mode="normal" in2="BackgroundImageFix" result="effect1_dropShadow_227_76"/>
<feBlend mode="normal" in="SourceGraphic" in2="effect1_dropShadow_227_76" result="shape"/>
</filter>
</defs>
</svg>
