<svg width="190" height="89" viewBox="0 0 190 89" fill="none" xmlns="http://www.w3.org/2000/svg">
<g filter="url(#filter0_d_223_59)">
<path d="M7 63L17 15L54.5 19.5L88 21.5L123 17L149 7.5L169.5 2.5H172L183 55L163 64.5L141.5 70.5L120.5 76.5L97 78H74L51.5 74.5L27.5 70.5L7 63Z" fill="#F79544"/>
<path d="M7 63L17 15L54.5 19.5L88 21.5L123 17L149 7.5L169.5 2.5H172L183 55L163 64.5L141.5 70.5L120.5 76.5L97 78H74L51.5 74.5L27.5 70.5L7 63Z" fill="white" fill-opacity="0.2"/>
<path d="M7 63L17 15L54.5 19.5L88 21.5L123 17L149 7.5L169.5 2.5H172L183 55L163 64.5L141.5 70.5L120.5 76.5L97 78H74L51.5 74.5L27.5 70.5L7 63Z" stroke="white" stroke-width="5"/>
<path d="M54.6001 61.5V35.22H59.1001V41.7L58.9921 45.48H60.2161L58.9921 46.524C58.9921 44.892 59.4601 43.62 60.3961 42.708C61.3561 41.796 62.6641 41.34 64.3201 41.34C66.2641 41.34 67.8121 41.988 68.9641 43.284C70.1401 44.58 70.7281 46.32 70.7281 48.504V61.5H66.2281V48.972C66.2281 47.772 65.9161 46.848 65.2921 46.2C64.6681 45.552 63.7921 45.228 62.6641 45.228C61.5601 45.228 60.6841 45.564 60.0361 46.236C59.4121 46.908 59.1001 47.868 59.1001 49.116V61.5H54.6001ZM84.2141 61.824C82.5341 61.824 81.0701 61.512 79.8221 60.888C78.5981 60.24 77.6381 59.34 76.9421 58.188C76.2701 57.012 75.9341 55.632 75.9341 54.048V49.152C75.9341 47.568 76.2701 46.2 76.9421 45.048C77.6381 43.872 78.5981 42.972 79.8221 42.348C81.0701 41.7 82.5341 41.376 84.2141 41.376C85.9181 41.376 87.3821 41.7 88.6061 42.348C89.8301 42.972 90.7781 43.872 91.4501 45.048C92.1461 46.2 92.4941 47.556 92.4941 49.116V54.048C92.4941 55.632 92.1461 57.012 91.4501 58.188C90.7781 59.34 89.8301 60.24 88.6061 60.888C87.3821 61.512 85.9181 61.824 84.2141 61.824ZM84.2141 57.9C85.4141 57.9 86.3381 57.576 86.9861 56.928C87.6581 56.256 87.9941 55.296 87.9941 54.048V49.152C87.9941 47.88 87.6581 46.92 86.9861 46.272C86.3381 45.624 85.4141 45.3 84.2141 45.3C83.0381 45.3 82.1141 45.624 81.4421 46.272C80.7701 46.92 80.4341 47.88 80.4341 49.152V54.048C80.4341 55.296 80.7701 56.256 81.4421 56.928C82.1141 57.576 83.0381 57.9 84.2141 57.9ZM96.872 61.5V41.7H100.544V44.364H101.3L100.688 45.012C100.688 43.908 101 43.02 101.624 42.348C102.248 41.676 103.052 41.34 104.036 41.34C105.092 41.34 105.908 41.772 106.484 42.636C107.084 43.5 107.384 44.664 107.384 46.128L106.592 44.364H107.816L107.348 45.012C107.348 43.908 107.66 43.02 108.284 42.348C108.908 41.676 109.736 41.34 110.768 41.34C111.992 41.34 112.964 41.796 113.684 42.708C114.404 43.62 114.764 44.856 114.764 46.416V61.5H110.804V46.596C110.804 45.948 110.66 45.444 110.372 45.084C110.084 44.7 109.664 44.508 109.112 44.508C108.584 44.508 108.164 44.688 107.852 45.048C107.564 45.408 107.42 45.924 107.42 46.596V61.5H104.18V46.596C104.18 45.924 104.036 45.408 103.748 45.048C103.46 44.688 103.04 44.508 102.488 44.508C101.936 44.508 101.516 44.688 101.228 45.048C100.964 45.408 100.832 45.924 100.832 46.596V61.5H96.872ZM127.422 61.86C125.742 61.86 124.278 61.536 123.03 60.888C121.782 60.24 120.81 59.34 120.114 58.188C119.442 57.012 119.106 55.644 119.106 54.084V49.116C119.106 47.556 119.442 46.2 120.114 45.048C120.81 43.872 121.782 42.96 123.03 42.312C124.278 41.664 125.742 41.34 127.422 41.34C129.078 41.34 130.518 41.664 131.742 42.312C132.99 42.96 133.95 43.872 134.622 45.048C135.318 46.2 135.666 47.556 135.666 49.116V52.68H123.462V54.084C123.462 55.476 123.798 56.532 124.47 57.252C125.142 57.948 126.138 58.296 127.458 58.296C128.466 58.296 129.282 58.128 129.906 57.792C130.53 57.432 130.926 56.916 131.094 56.244H135.522C135.186 57.948 134.274 59.316 132.786 60.348C131.322 61.356 129.534 61.86 127.422 61.86ZM131.31 50.16V49.08C131.31 47.712 130.986 46.668 130.338 45.948C129.69 45.204 128.718 44.832 127.422 44.832C126.126 44.832 125.142 45.204 124.47 45.948C123.798 46.692 123.462 47.748 123.462 49.116V49.872L131.634 49.8L131.31 50.16Z" fill="#113E3E"/>
</g>
<defs>
<filter id="filter0_d_223_59" x="0.111877" y="0" width="189.739" height="88.5" filterUnits="userSpaceOnUse" color-interpolation-filters="sRGB">
<feFlood flood-opacity="0" result="BackgroundImageFix"/>
<feColorMatrix in="SourceAlpha" type="matrix" values="0 0 0 0 0 0 0 0 0 0 0 0 0 0 0 0 0 0 127 0" result="hardAlpha"/>
<feOffset dy="4"/>
<feGaussianBlur stdDeviation="2"/>
<feComposite in2="hardAlpha" operator="out"/>
<feColorMatrix type="matrix" values="0 0 0 0 0 0 0 0 0 0 0 0 0 0 0 0 0 0 0.25 0"/>
<feBlend mode="normal" in2="BackgroundImageFix" result="effect1_dropShadow_223_59"/>
<feBlend mode="normal" in="SourceGraphic" in2="effect1_dropShadow_223_59" result="shape"/>
</filter>
</defs>
</svg>
