<svg width="124" height="298" viewBox="0 0 124 298" fill="none" xmlns="http://www.w3.org/2000/svg">
<g filter="url(#filter0_d_227_103)">
<path d="M14 275.5L58.5 287L73.5 270.5L81.5 249L117 30L106.5 11.5L87.5 3L62 8L48 24L7 232V255.5L14 275.5Z" stroke="white" stroke-width="5"/>
<path d="M20.1637 190.24L20.3253 188.882L22.6132 189.154L23.0712 185.305L21.0813 185.068L21.2415 183.722L24.6614 184.129L24.0431 189.324L26.0688 189.565L25.9072 190.923L20.1637 190.24ZM23.9577 182.933C23.6559 182.897 23.4265 182.793 23.2697 182.622C23.1139 182.442 23.0515 182.221 23.0827 181.959C23.1139 181.697 23.2259 181.501 23.4186 181.37C23.6123 181.232 23.8601 181.181 24.1619 181.217C24.4638 181.253 24.6927 181.361 24.8485 181.541C25.0053 181.712 25.0681 181.929 25.0369 182.191C25.0057 182.454 24.8933 182.654 24.6996 182.792C24.5069 182.922 24.2596 182.969 23.9577 182.933ZM27.3205 191.092L28.1004 184.538L29.5542 184.711L29.4053 185.962L29.8104 186.01L29.3642 186.308C29.4284 185.767 29.6335 185.365 29.9792 185.1C30.3329 184.836 30.7838 184.736 31.3319 184.802C31.9754 184.878 32.4622 185.154 32.7925 185.628C33.1307 186.103 33.2568 186.702 33.1707 187.425L32.6588 191.727L31.1693 191.55L31.6628 187.403C31.7101 187.006 31.6432 186.688 31.4622 186.449C31.2812 186.209 31.004 186.068 30.6306 186.023C30.2652 185.98 29.962 186.057 29.7211 186.253C29.488 186.451 29.347 186.757 29.2978 187.17L28.81 191.269L27.3205 191.092ZM36.8596 192.336C36.3592 192.276 35.9317 192.145 35.5772 191.941C35.2228 191.738 34.9549 191.485 34.7735 191.181C34.601 190.87 34.5294 190.524 34.5589 190.14L36.0484 190.318C36.0397 190.526 36.1192 190.705 36.2868 190.854C36.4623 191.003 36.701 191.096 37.0029 191.132L37.5272 191.195C37.8926 191.238 38.1752 191.199 38.3749 191.078C38.5746 190.957 38.6891 190.773 38.7184 190.527C38.7459 190.296 38.6837 190.108 38.532 189.961C38.3892 189.807 38.1494 189.69 37.8125 189.609L37.0164 189.394C36.282 189.201 35.7575 188.938 35.4429 188.602C35.1284 188.267 35.0061 187.805 35.076 187.217C35.1488 186.605 35.4116 186.157 35.8644 185.873C36.3181 185.58 36.9462 185.482 37.7485 185.577L38.2013 185.631C38.9322 185.718 39.4967 185.951 39.8948 186.328C40.293 186.706 40.4753 187.171 40.4419 187.723L38.9524 187.545C38.9493 187.368 38.8671 187.213 38.7055 187.081C38.5519 186.95 38.3361 186.868 38.0581 186.835L37.6053 186.781C37.2637 186.74 37.0059 186.774 36.8319 186.882C36.6668 186.983 36.57 187.153 36.5417 187.391C36.5152 187.614 36.5629 187.789 36.6847 187.916C36.8075 188.035 37.0169 188.137 37.3131 188.22L38.145 188.44C38.9102 188.644 39.4572 188.923 39.7857 189.276C40.1232 189.622 40.2564 190.093 40.1855 190.689C40.1099 191.325 39.8323 191.795 39.3529 192.101C38.8823 192.399 38.226 192.498 37.3839 192.398L36.8596 192.336ZM44.9825 193.194C44.3549 193.119 43.8832 192.885 43.5673 192.493C43.2594 192.102 43.1418 191.601 43.2146 190.989L43.6003 187.748L41.8248 187.537L41.9851 186.19L43.7606 186.402L43.9804 184.555L45.4818 184.733L45.262 186.58L47.7762 186.879L47.616 188.226L45.1017 187.927L44.716 191.168C44.6668 191.581 44.8448 191.812 45.25 191.86L47.0374 192.073L46.8771 193.419L44.9825 193.194ZM50.6714 193.991C49.9961 193.911 49.4852 193.669 49.1385 193.265C48.7917 192.861 48.6543 192.358 48.7262 191.754C48.8027 191.11 49.0763 190.639 49.5469 190.341C50.0174 190.042 50.646 189.94 51.4324 190.034L53.0649 190.228L53.1315 189.668C53.1694 189.35 53.0954 189.092 52.9096 188.892C52.7248 188.685 52.4537 188.56 52.0962 188.517C51.7705 188.479 51.4919 188.518 51.2604 188.635C51.0289 188.753 50.8787 188.932 50.8096 189.174L49.3559 189.001C49.5011 188.39 49.8378 187.93 50.3658 187.623C50.8939 187.315 51.5353 187.206 52.29 187.296C53.0923 187.391 53.6997 187.669 54.1123 188.129C54.5337 188.582 54.7038 189.15 54.6224 189.833L54.0935 194.278L52.6517 194.106L52.7878 192.962L52.5495 192.934L52.8261 192.641C52.7684 193.125 52.5438 193.489 52.1523 193.733C51.7608 193.976 51.2672 194.062 50.6714 193.991ZM51.2932 192.929C51.7143 192.98 52.0686 192.913 52.3563 192.73C52.6519 192.547 52.82 192.285 52.8607 191.944L52.9557 191.145L51.3471 190.954C51.0452 190.918 50.7925 190.977 50.589 191.13C50.3855 191.283 50.2667 191.502 50.2327 191.788C50.1958 192.098 50.2698 192.356 50.4546 192.564C50.6482 192.764 50.9278 192.886 51.2932 192.929ZM56.5385 196.744L56.686 195.505L58.6283 195.736C58.9619 195.776 59.2221 195.722 59.4088 195.575C59.5945 195.436 59.7053 195.216 59.7412 194.914L59.7994 194.425L59.9693 193.201L59.6476 193.162L60.0076 192.879C59.9442 193.411 59.7357 193.809 59.382 194.073C59.0372 194.33 58.5987 194.427 58.0665 194.364C57.3992 194.285 56.8939 193.995 56.5506 193.495C56.2152 192.996 56.0934 192.361 56.1851 191.59L56.3368 190.315C56.4276 189.553 56.6945 188.968 57.1377 188.561C57.5887 188.156 58.1479 187.993 58.8152 188.072C59.3475 188.136 59.7505 188.337 60.0244 188.675C60.3072 189.007 60.4169 189.439 60.3536 189.971L60.0701 189.611L60.3919 189.65L60.505 188.394L61.9945 188.572L61.2146 195.125C61.1361 195.785 60.8557 196.279 60.3734 196.608C59.8902 196.946 59.2673 197.069 58.5046 196.978L56.5385 196.744ZM58.7201 193.137C59.1014 193.182 59.4086 193.106 59.6416 192.908C59.8835 192.703 60.0285 192.398 60.0768 191.993L60.2129 190.849C60.2611 190.444 60.1912 190.117 60.0032 189.869C59.8241 189.614 59.5439 189.464 59.1625 189.419C58.7812 189.373 58.4741 189.45 58.2411 189.648C58.008 189.845 57.867 190.151 57.8178 190.564L57.6817 191.708C57.6325 192.121 57.698 192.451 57.878 192.698C58.0581 192.945 58.3388 193.091 58.7201 193.137ZM63.2475 195.367L64.0275 188.813L65.4336 188.981L65.2847 190.232L65.6541 190.276L65.1224 190.986C65.2065 190.279 65.4288 189.766 65.7891 189.446C66.1494 189.126 66.6393 189.003 67.259 189.077C67.966 189.161 68.496 189.446 68.8492 189.931C69.2023 190.416 69.3331 191.044 69.2414 191.815L69.1846 192.291L67.6236 192.105L67.6676 191.736C67.7177 191.315 67.6453 190.976 67.4502 190.719C67.2632 190.463 66.979 190.313 66.5977 190.267C66.2084 190.221 65.8928 190.3 65.6509 190.505C65.417 190.711 65.2749 191.024 65.2248 191.445L64.737 195.544L63.2475 195.367ZM72.1061 196.542C71.4308 196.462 70.9198 196.22 70.5731 195.816C70.2264 195.412 70.089 194.908 70.1608 194.305C70.2374 193.661 70.511 193.19 70.9816 192.892C71.4521 192.593 72.0806 192.491 72.8671 192.584L74.4996 192.779L74.5662 192.219C74.604 191.901 74.5301 191.642 74.3443 191.443C74.1595 191.236 73.8884 191.111 73.5309 191.068C73.2052 191.03 72.9266 191.069 72.6951 191.186C72.4636 191.304 72.3133 191.483 72.2443 191.725L70.7906 191.552C70.9358 190.941 71.2725 190.481 71.8005 190.174C72.3286 189.866 72.97 189.757 73.7246 189.847C74.527 189.942 75.1344 190.22 75.547 190.68C75.9684 191.133 76.1384 191.701 76.0571 192.384L75.5282 196.829L74.0864 196.657L74.2225 195.513L73.9842 195.485L74.2608 195.191C74.2031 195.676 73.9785 196.04 73.587 196.283C73.1955 196.527 72.7019 196.613 72.1061 196.542ZM72.7279 195.48C73.1489 195.53 73.5033 195.464 73.791 195.281C74.0866 195.098 74.2547 194.836 74.2954 194.495L74.3904 193.696L72.7817 193.505C72.4799 193.469 72.2272 193.527 72.0237 193.68C71.8202 193.834 71.7014 194.053 71.6674 194.339C71.6305 194.649 71.7044 194.907 71.8892 195.115C72.0829 195.315 72.3625 195.437 72.7279 195.48ZM77.0369 197.008L77.8168 190.454L79.0322 190.599L78.9273 191.481L79.1775 191.511L78.9494 191.701C78.9929 191.336 79.1312 191.054 79.3642 190.856C79.5972 190.658 79.8765 190.579 80.2022 190.618C80.5518 190.659 80.8049 190.834 80.9615 191.143C81.126 191.453 81.1795 191.85 81.1218 192.334L80.9292 191.719L81.3343 191.767L81.1539 191.963C81.1974 191.598 81.3356 191.316 81.5686 191.118C81.8016 190.921 82.0889 190.842 82.4305 190.883C82.8357 190.931 83.1394 191.12 83.3418 191.45C83.5442 191.781 83.6147 192.204 83.5532 192.72L82.9591 197.713L81.6483 197.557L82.2354 192.624C82.2609 192.409 82.2331 192.237 82.152 192.106C82.0718 191.968 81.9403 191.888 81.7576 191.866C81.5828 191.845 81.4367 191.888 81.3193 191.995C81.2098 192.103 81.1418 192.268 81.1153 192.491L80.5282 197.424L79.4558 197.296L80.0429 192.363C80.0693 192.14 80.042 191.964 79.9609 191.834C79.8797 191.703 79.7478 191.627 79.5651 191.605C79.3824 191.583 79.2363 191.626 79.1267 191.734C79.0252 191.843 78.9612 192.009 78.9347 192.231L78.3476 197.164L77.0369 197.008Z" fill="white"/>
</g>
<defs>
<filter id="filter0_d_227_103" x="0.5" y="0.394043" width="123.109" height="297.404" filterUnits="userSpaceOnUse" color-interpolation-filters="sRGB">
<feFlood flood-opacity="0" result="BackgroundImageFix"/>
<feColorMatrix in="SourceAlpha" type="matrix" values="0 0 0 0 0 0 0 0 0 0 0 0 0 0 0 0 0 0 127 0" result="hardAlpha"/>
<feOffset dy="4"/>
<feGaussianBlur stdDeviation="2"/>
<feComposite in2="hardAlpha" operator="out"/>
<feColorMatrix type="matrix" values="0 0 0 0 0 0 0 0 0 0 0 0 0 0 0 0 0 0 0.25 0"/>
<feBlend mode="normal" in2="BackgroundImageFix" result="effect1_dropShadow_227_103"/>
<feBlend mode="normal" in="SourceGraphic" in2="effect1_dropShadow_227_103" result="shape"/>
</filter>
</defs>
</svg>
