<svg width="118" height="300" viewBox="0 0 118 300" fill="none" xmlns="http://www.w3.org/2000/svg">
<g filter="url(#filter0_d_188_19)">
<path d="M7 267.5L13 282H26.5H36L43.5 284.5L50 289.5H57.5L61.5 284.5L67 276L72.5 263.5L77 255.5L79 244.5L83 231.5L109.5 65.5L111.5 43.5V29L108.5 18L100.5 7.5L95.5 3H85.5H72.5L61.5 6L52.5 11.5L45 25L9.5 216L7 233.5V252.5V267.5Z" stroke="white" stroke-width="5" shape-rendering="crispEdges"/>
</g>
<path d="M23.7999 176.34L24.9214 166.916L26.535 167.108L25.5918 175.034L29.5935 175.51L29.4153 177.008L23.7999 176.34ZM31.1917 177.219L31.3668 175.748L33.8454 176.043L34.3416 171.873L32.1858 171.616L32.3594 170.158L36.0642 170.599L35.3944 176.227L37.5889 176.488L37.4138 177.96L31.1917 177.219ZM35.3019 169.304C34.9749 169.265 34.7265 169.152 34.5566 168.966C34.3877 168.771 34.3202 168.532 34.354 168.248C34.3878 167.964 34.5091 167.752 34.7179 167.611C34.9277 167.461 35.1961 167.406 35.5232 167.445C35.8502 167.484 36.0981 167.6 36.267 167.795C36.4368 167.981 36.5049 168.216 36.4711 168.5C36.4373 168.784 36.3155 169.001 36.1057 169.15C35.8969 169.291 35.629 169.342 35.3019 169.304ZM38.9449 178.142L39.7899 171.042L41.3647 171.229L41.2034 172.585L41.6423 172.637L41.1589 172.959C41.2285 172.374 41.4506 171.938 41.8252 171.651C42.2083 171.365 42.6968 171.257 43.2906 171.328C43.9877 171.411 44.5151 171.709 44.8729 172.223C45.2393 172.738 45.3759 173.387 45.2827 174.17L44.7281 178.83L43.1145 178.638L43.6491 174.146C43.7003 173.716 43.6279 173.371 43.4318 173.112C43.2357 172.853 42.9354 172.699 42.5309 172.651C42.135 172.604 41.8066 172.687 41.5455 172.901C41.2931 173.115 41.1403 173.446 41.087 173.893L40.5585 178.334L38.9449 178.142ZM46.7239 179.068L47.8454 169.644L49.459 169.836L48.8507 174.948L49.9737 175.082L52.0354 172.499L53.8426 172.714L51.2911 175.893L53.0364 179.819L51.1904 179.599L49.8109 176.45L48.6878 176.317L48.3376 179.26L46.7239 179.068ZM57.3018 180.457C56.6993 180.386 56.1882 180.207 55.7683 179.922C55.3485 179.636 55.0384 179.272 54.8379 178.829C54.6472 178.379 54.5851 177.874 54.6516 177.314L54.8636 175.533C54.9302 174.973 55.1086 174.502 55.3987 174.117C55.6984 173.725 56.0859 173.44 56.5611 173.261C57.0362 173.081 57.575 173.028 58.1774 173.099C58.7712 173.17 59.2738 173.348 59.685 173.632C60.1049 173.918 60.4102 174.286 60.601 174.736C60.8014 175.179 60.8683 175.68 60.8017 176.24L60.6496 177.517L56.2735 176.997L56.2136 177.5C56.1542 177.999 56.2296 178.392 56.4399 178.679C56.6511 178.957 56.9934 179.125 57.4668 179.181C57.8282 179.224 58.128 179.199 58.3661 179.105C58.6052 179.002 58.7692 178.834 58.8581 178.6L60.4459 178.789C60.2527 179.386 59.8673 179.838 59.2897 180.144C58.7217 180.443 58.0591 180.548 57.3018 180.457ZM59.1952 176.428L59.2413 176.041C59.2997 175.55 59.228 175.162 59.0264 174.876C58.8258 174.582 58.4931 174.407 58.0284 174.352C57.5637 174.296 57.195 174.388 56.9222 174.626C56.6495 174.864 56.484 175.228 56.4256 175.719L56.3933 175.99L59.3267 176.313L59.1952 176.428ZM64.4224 181.305C63.7167 181.221 63.1736 180.908 62.7931 180.365C62.4212 179.823 62.2844 179.139 62.3827 178.313L62.6116 176.389C62.711 175.555 63.005 174.918 63.4936 174.478C63.9823 174.039 64.5838 173.862 65.2981 173.947C65.8833 174.016 66.328 174.24 66.6323 174.616C66.9377 174.984 67.056 175.456 66.9874 176.033L66.6705 175.616L67.0449 175.66L67.1945 173.963L67.431 171.975L69.0447 172.167L67.9232 181.591L66.3483 181.403L66.5096 180.048L66.1482 180.005L66.5542 179.673C66.4856 180.25 66.2592 180.686 65.875 180.98C65.4918 181.266 65.0076 181.375 64.4224 181.305ZM65.1563 179.978C65.5694 180.027 65.9022 179.945 66.1546 179.731C66.4167 179.509 66.5738 179.178 66.6261 178.739L66.8381 176.958C66.8903 176.519 66.8146 176.165 66.6109 175.897C66.4168 175.62 66.1133 175.458 65.7002 175.409C65.2871 175.359 64.95 175.441 64.689 175.655C64.428 175.868 64.2708 176.199 64.2175 176.646L64.0055 178.427C63.9523 178.875 64.0275 179.233 64.2312 179.502C64.4349 179.77 64.7433 179.929 65.1563 179.978ZM69.8932 181.825L70.0684 180.353L72.5469 180.648L73.0431 176.479L70.8873 176.222L71.0609 174.764L74.7657 175.204L74.0959 180.833L76.2904 181.094L76.1153 182.565L69.8932 181.825ZM74.0034 173.909C73.6764 173.87 73.428 173.758 73.2581 173.572C73.0893 173.377 73.0217 173.138 73.0555 172.854C73.0893 172.57 73.2106 172.357 73.4194 172.216C73.6292 172.067 73.8976 172.011 74.2247 172.05C74.5517 172.089 74.7996 172.206 74.9685 172.401C75.1384 172.587 75.2064 172.822 75.1726 173.106C75.1388 173.39 75.017 173.607 74.8072 173.756C74.5984 173.897 74.3305 173.948 74.0034 173.909ZM77.6464 182.748L78.4914 175.648L80.0663 175.835L79.905 177.191L80.3439 177.243L79.8604 177.565C79.93 176.98 80.1521 176.544 80.5267 176.257C80.9098 175.971 81.3983 175.863 81.9921 175.934C82.6892 176.016 83.2167 176.315 83.5744 176.829C83.9408 177.344 84.0774 177.993 83.9842 178.776L83.4296 183.436L81.816 183.244L82.3506 178.752C82.4018 178.321 82.3294 177.977 82.1333 177.718C81.9372 177.459 81.6369 177.305 81.2324 177.257C80.8365 177.21 80.5081 177.293 80.247 177.506C79.9946 177.721 79.8418 178.052 79.7885 178.499L79.26 182.94L77.6464 182.748Z" fill="white"/>
<defs>
<filter id="filter0_d_188_19" x="0.5" y="0.5" width="117.5" height="299.5" filterUnits="userSpaceOnUse" color-interpolation-filters="sRGB">
<feFlood flood-opacity="0" result="BackgroundImageFix"/>
<feColorMatrix in="SourceAlpha" type="matrix" values="0 0 0 0 0 0 0 0 0 0 0 0 0 0 0 0 0 0 127 0" result="hardAlpha"/>
<feOffset dy="4"/>
<feGaussianBlur stdDeviation="2"/>
<feComposite in2="hardAlpha" operator="out"/>
<feColorMatrix type="matrix" values="0 0 0 0 0 0 0 0 0 0 0 0 0 0 0 0 0 0 0.25 0"/>
<feBlend mode="normal" in2="BackgroundImageFix" result="effect1_dropShadow_188_19"/>
<feBlend mode="normal" in="SourceGraphic" in2="effect1_dropShadow_188_19" result="shape"/>
</filter>
</defs>
</svg>
