<svg width="195" height="93" viewBox="0 0 195 93" fill="none" xmlns="http://www.w3.org/2000/svg">
<g filter="url(#filter0_d_227_57)">
<path d="M7 64.5L19 15L56.5 19.5H76H96L133.5 15L173 4L188 59L167.5 69L145 77L96 82L50.5 77L27.5 72.5L7 64.5Z" fill="#F79544"/>
<path d="M7 64.5L19 15L56.5 19.5H76H96L133.5 15L173 4L188 59L167.5 69L145 77L96 82L50.5 77L27.5 72.5L7 64.5Z" fill="white" fill-opacity="0.2"/>
<path d="M7 64.5L19 15L56.5 19.5H76H96L133.5 15L173 4L188 59L167.5 69L145 77L96 82L50.5 77L27.5 72.5L7 64.5Z" stroke="white" stroke-width="5"/>
<path d="M38.9072 59.5V39.7H42.5792V42.364H43.3352L42.7232 43.012C42.7232 41.908 43.0352 41.02 43.6592 40.348C44.2832 39.676 45.0872 39.34 46.0712 39.34C47.1272 39.34 47.9432 39.772 48.5192 40.636C49.1192 41.5 49.4192 42.664 49.4192 44.128L48.6272 42.364H49.8512L49.3832 43.012C49.3832 41.908 49.6952 41.02 50.3192 40.348C50.9432 39.676 51.7712 39.34 52.8032 39.34C54.0272 39.34 54.9992 39.796 55.7192 40.708C56.4392 41.62 56.7992 42.856 56.7992 44.416V59.5H52.8392V44.596C52.8392 43.948 52.6952 43.444 52.4072 43.084C52.1192 42.7 51.6992 42.508 51.1472 42.508C50.6192 42.508 50.1992 42.688 49.8872 43.048C49.5992 43.408 49.4552 43.924 49.4552 44.596V59.5H46.2152V44.596C46.2152 43.924 46.0712 43.408 45.7832 43.048C45.4952 42.688 45.0752 42.508 44.5232 42.508C43.9712 42.508 43.5512 42.688 43.2632 43.048C42.9992 43.408 42.8672 43.924 42.8672 44.596V59.5H38.9072ZM69.4211 59.86C66.9011 59.86 64.9211 59.164 63.4811 57.772C62.0411 56.356 61.3211 54.436 61.3211 52.012V39.7H65.8211V51.976C65.8211 53.248 66.1331 54.232 66.7571 54.928C67.3811 55.6 68.2691 55.936 69.4211 55.936C70.5491 55.936 71.4251 55.6 72.0491 54.928C72.6971 54.232 73.0211 53.248 73.0211 51.976V39.7H77.5211V52.012C77.5211 54.436 76.7891 56.356 75.3251 57.772C73.8611 59.164 71.8931 59.86 69.4211 59.86ZM90.251 59.824C88.739 59.824 87.419 59.584 86.291 59.104C85.163 58.624 84.275 57.964 83.627 57.124C83.003 56.26 82.667 55.252 82.619 54.1H87.119C87.167 54.724 87.467 55.228 88.019 55.612C88.595 55.996 89.339 56.188 90.251 56.188H91.835C92.939 56.188 93.767 55.972 94.319 55.54C94.871 55.108 95.147 54.52 95.147 53.776C95.147 53.08 94.895 52.54 94.391 52.156C93.911 51.748 93.155 51.484 92.123 51.364L89.675 51.004C87.419 50.692 85.763 50.092 84.707 49.204C83.651 48.316 83.123 46.984 83.123 45.208C83.123 43.36 83.747 41.932 84.995 40.924C86.243 39.892 88.079 39.376 90.503 39.376H91.871C94.079 39.376 95.843 39.868 97.163 40.852C98.483 41.836 99.191 43.156 99.287 44.812H94.787C94.715 44.284 94.415 43.852 93.887 43.516C93.383 43.18 92.711 43.012 91.871 43.012H90.503C89.471 43.012 88.715 43.204 88.235 43.588C87.779 43.948 87.551 44.488 87.551 45.208C87.551 45.88 87.755 46.384 88.163 46.72C88.571 47.032 89.231 47.26 90.143 47.404L92.699 47.764C95.051 48.1 96.779 48.736 97.883 49.672C99.011 50.584 99.575 51.94 99.575 53.74C99.575 55.66 98.915 57.16 97.595 58.24C96.299 59.296 94.379 59.824 91.835 59.824H90.251ZM104.529 59.5V55.396H111.441V43.768H105.429V39.7H115.761V55.396H121.881V59.5H104.529ZM113.241 36.388C112.329 36.388 111.609 36.16 111.081 35.704C110.553 35.224 110.289 34.588 110.289 33.796C110.289 33.004 110.553 32.38 111.081 31.924C111.609 31.444 112.329 31.204 113.241 31.204C114.153 31.204 114.873 31.444 115.401 31.924C115.929 32.38 116.193 33.004 116.193 33.796C116.193 34.588 115.929 35.224 115.401 35.704C114.873 36.16 114.153 36.388 113.241 36.388ZM134.287 59.86C132.607 59.86 131.131 59.548 129.859 58.924C128.611 58.276 127.639 57.376 126.943 56.224C126.247 55.048 125.899 53.668 125.899 52.084V47.116C125.899 45.508 126.247 44.128 126.943 42.976C127.639 41.824 128.611 40.936 129.859 40.312C131.131 39.664 132.607 39.34 134.287 39.34C136.783 39.34 138.775 39.988 140.263 41.284C141.751 42.556 142.531 44.296 142.603 46.504H138.103C138.031 45.472 137.659 44.68 136.987 44.128C136.339 43.552 135.439 43.264 134.287 43.264C133.087 43.264 132.139 43.6 131.443 44.272C130.747 44.92 130.399 45.856 130.399 47.08V52.084C130.399 53.308 130.747 54.256 131.443 54.928C132.139 55.6 133.087 55.936 134.287 55.936C135.439 55.936 136.339 55.66 136.987 55.108C137.659 54.532 138.031 53.728 138.103 52.696H142.603C142.531 54.904 141.751 56.656 140.263 57.952C138.775 59.224 136.783 59.86 134.287 59.86Z" fill="#113E3E"/>
</g>
<defs>
<filter id="filter0_d_227_57" x="0.055542" y="0.91748" width="194.901" height="91.5964" filterUnits="userSpaceOnUse" color-interpolation-filters="sRGB">
<feFlood flood-opacity="0" result="BackgroundImageFix"/>
<feColorMatrix in="SourceAlpha" type="matrix" values="0 0 0 0 0 0 0 0 0 0 0 0 0 0 0 0 0 0 127 0" result="hardAlpha"/>
<feOffset dy="4"/>
<feGaussianBlur stdDeviation="2"/>
<feComposite in2="hardAlpha" operator="out"/>
<feColorMatrix type="matrix" values="0 0 0 0 0 0 0 0 0 0 0 0 0 0 0 0 0 0 0.25 0"/>
<feBlend mode="normal" in2="BackgroundImageFix" result="effect1_dropShadow_227_57"/>
<feBlend mode="normal" in="SourceGraphic" in2="effect1_dropShadow_227_57" result="shape"/>
</filter>
</defs>
</svg>
