<svg width="135" height="49" viewBox="0 0 135 49" fill="none" xmlns="http://www.w3.org/2000/svg">
<path d="M11.6741 25.6831L11.9053 27.7017C13.7978 24.8174 16.0898 23.2212 18.7812 22.9129C21.0338 22.6548 23.0172 23.5391 24.7313 25.5656C26.0499 24.1401 27.1944 23.1347 28.1647 22.5493C29.1642 21.9606 30.3515 21.5875 31.7265 21.43C34.5057 21.1117 36.6883 21.7953 38.2744 23.4808C39.3546 24.6315 40.0539 26.5965 40.3723 29.3757L41.1413 36.0897C41.3122 37.5817 41.6756 38.2958 42.2315 38.2321C42.407 38.212 42.636 38.1414 42.9185 38.0201C43.0581 37.9448 43.2741 37.8904 43.5667 37.8569C44.8539 37.7095 45.5846 38.3964 45.7589 39.9176C45.8627 40.8245 45.7125 41.5827 45.3081 42.1921C44.9037 42.8016 44.3211 43.1499 43.5605 43.237C43.4728 43.2471 43.0435 43.2518 42.2729 43.2511L41.2924 43.2301C40.8176 43.2252 40.1999 43.2663 39.4393 43.3534C38.5031 43.4607 37.6029 43.6231 36.7387 43.8406C35.8745 44.0582 35.2668 44.187 34.9158 44.2272C34.2136 44.3077 33.5984 44.1114 33.07 43.6384C32.5675 43.1329 32.2693 42.4705 32.1755 41.6514C32.0214 40.3057 32.4738 39.4684 33.5327 39.1396C34.0785 38.9882 34.3819 38.7904 34.4429 38.5464C34.5331 38.2989 34.5179 37.6486 34.3972 36.5954L33.8795 32.0756C33.665 30.2033 33.3145 28.9542 32.8278 28.3282C32.3671 27.6697 31.5809 27.4041 30.4692 27.5314C27.9825 27.8162 26.942 29.7286 27.3474 33.2684L27.8149 37.3494C27.9288 38.3441 28.0448 38.968 28.1627 39.2213C28.2806 39.4745 28.5348 39.6232 28.9251 39.6674C29.8555 39.7683 30.3927 40.4478 30.5368 41.7057C30.7647 43.695 30.0595 44.7835 28.4212 44.9712C28.0994 45.008 27.6409 45.0161 27.0458 44.9954C26.0636 44.9597 25.4116 44.9603 25.0898 44.9971C24.7388 45.0373 24.2189 45.1562 23.5302 45.3536C22.8707 45.5477 22.3655 45.6648 22.0144 45.7051C20.5809 45.8693 19.7586 45.0298 19.5475 43.1868C19.3967 41.8703 19.7614 41.0431 20.6415 40.7052C21.1254 40.5312 21.3485 40.15 21.3107 39.5616C21.2495 38.7683 21.2088 38.284 21.1887 38.1084L20.6207 33.1498C20.4297 31.4822 20.0925 30.3501 19.6093 29.7534C19.1552 29.1534 18.4163 28.912 17.3923 29.0293C14.8179 29.3242 13.7334 31.2416 14.1389 34.7814L14.7471 40.0911C14.8008 40.5592 14.8945 40.8597 15.0282 40.9925C15.1586 41.0961 15.4629 41.165 15.9411 41.1992C17.1054 41.2733 17.763 41.9685 17.9138 43.285C18.1317 45.1866 17.4361 46.2295 15.827 46.4138C15.3297 46.4708 14.577 46.4977 13.569 46.4946C12.5901 46.4882 11.8521 46.5135 11.3547 46.5704C10.6819 46.6475 9.99942 46.7701 9.30736 46.9383C8.15393 47.2186 7.41631 47.3772 7.09451 47.4141C6.27538 47.5079 5.58699 47.32 5.02934 46.8504C4.49759 46.3482 4.18313 45.6729 4.08595 44.8245C3.89494 43.157 4.50155 42.2428 5.90578 42.0819C6.13981 42.0551 6.40981 42.0835 6.71576 42.167C7.01836 42.2212 7.2428 42.24 7.38907 42.2232C7.8864 42.1663 8.04124 41.3186 7.85358 39.6804L7.03928 32.5715C6.84827 30.904 6.5041 30.0987 6.00677 30.1557C5.88975 30.1691 5.66241 30.2544 5.32476 30.4116C5.01301 30.5362 4.76937 30.6086 4.59384 30.6287C3.18962 30.7896 2.39367 30.0509 2.20602 28.4126C2.10884 27.5642 2.26245 26.8353 2.66686 26.2258C3.10052 25.613 3.71229 25.2614 4.50216 25.1709C4.67769 25.1508 5.16877 25.1686 5.9754 25.2244C6.45353 25.2586 6.89738 25.2522 7.30695 25.2053C7.658 25.1651 8.16326 25.0479 8.82271 24.8538C9.51142 24.6564 10.0313 24.5375 10.3824 24.4973C11.143 24.4102 11.5736 24.8055 11.6741 25.6831ZM64.1052 39.461L63.9091 37.7496C62.2598 40.4282 59.8408 41.9501 56.652 42.3154C55.3063 42.4695 54.0441 42.3177 52.8654 41.86C51.6867 41.4022 50.7934 40.7191 50.1854 39.8107C49.6034 38.8696 49.1616 37.0827 48.86 34.4497L48.0809 27.648C47.9636 26.6241 47.8218 26.0327 47.6554 25.874C47.5183 25.7118 47.3035 25.6475 47.0109 25.681L46.5721 25.7313C46.4877 25.7706 46.3431 25.802 46.1383 25.8255C44.8218 25.9763 44.0715 25.2472 43.8871 23.6381C43.6626 21.6781 44.4426 20.5958 46.2272 20.3914C46.5782 20.3512 47.1261 20.3477 47.8709 20.381C48.6157 20.4142 49.1636 20.4107 49.5147 20.3705C49.8657 20.3303 50.3856 20.2115 51.0743 20.014C51.763 19.8166 52.2829 19.6978 52.634 19.6575C53.5116 19.557 54.0208 20.1211 54.1615 21.3498L55.5864 33.0124C55.9355 35.2842 56.9731 36.3212 58.6991 36.1235C61.3321 35.8219 62.4391 33.8427 62.0202 30.1859L61.5527 26.1049C61.3818 24.6129 60.9599 23.9054 60.2871 23.9825C60.1116 24.0026 59.8825 24.0733 59.6 24.1945C59.3435 24.2832 59.1274 24.3376 58.9519 24.3577C57.8694 24.4817 57.2394 23.7684 57.0618 22.2179C56.8306 20.1994 57.5341 19.0962 59.1724 18.9086C59.582 18.8617 60.1884 18.8515 60.9917 18.878C61.7949 18.9046 62.3867 18.8961 62.767 18.8525C62.8841 18.8391 63.5047 18.6939 64.6288 18.4169C65.2917 18.2521 65.7693 18.1529 66.0619 18.1194C66.998 18.0122 67.5264 18.4852 67.6471 19.5383L69.1751 32.8785C69.3427 34.3412 69.7044 35.0408 70.2602 34.9771C70.4943 34.9503 70.6957 34.8976 70.8645 34.8189C71.0333 34.7403 71.2787 34.6826 71.6005 34.6457C72.8584 34.5016 73.5745 35.1902 73.7488 36.7115C73.98 38.73 73.2326 39.8382 71.5066 40.0359C71.1555 40.0761 70.6222 40.0779 69.9067 40.0413C69.2204 40.0014 68.7018 40.0015 68.3507 40.0417C68.0289 40.0786 67.5529 40.1924 66.9227 40.3831C66.3218 40.5705 65.8604 40.6826 65.5386 40.7195C64.6902 40.8167 64.2124 40.3972 64.1052 39.461ZM81.3379 15.7472C83.5905 15.4892 85.5641 15.9003 87.2587 16.9807C87.235 15.7386 87.9545 15.0337 89.4172 14.8662C90.9092 14.6953 91.7155 15.1364 91.8362 16.1896C91.8764 16.5406 91.8631 16.9423 91.7964 17.3945C91.7689 17.9311 91.782 18.4335 91.8356 18.9016C91.8457 18.9893 91.8871 19.2217 91.9599 19.5987C92.0035 19.979 92.042 20.3154 92.0755 20.608L92.0956 20.7835C92.2732 22.334 91.5868 23.198 90.0363 23.3756C88.9246 23.503 87.8955 23.0577 86.9491 22.0399C85.8003 20.8081 84.5091 20.2743 83.0756 20.4385C81.3789 20.6329 80.5975 21.3151 80.7315 22.4853C80.8019 23.0997 81.1301 23.5067 81.7161 23.7063C82.2987 23.8767 83.7983 24.0309 86.2149 24.169C88.1859 24.2989 89.65 24.5313 90.6072 24.8663C91.5936 25.1979 92.4262 25.7397 93.1052 26.4918C93.9572 27.4612 94.4636 28.648 94.6245 30.0523C94.8791 32.2756 94.2289 34.2321 92.6738 35.9218C91.1479 37.6082 89.0978 38.5988 86.5234 38.8937C83.9489 39.1886 81.5147 38.6376 79.2207 37.2406C79.3849 38.674 78.7357 39.4746 77.2729 39.6421C75.6932 39.8231 74.8296 39.2699 74.6821 37.9827C74.6486 37.6902 74.6259 37.2334 74.6141 36.6123C74.6022 35.9913 74.5795 35.5345 74.546 35.2419C74.5158 34.9786 74.4414 34.5871 74.3225 34.0672C74.233 33.5439 74.1731 33.1507 74.1429 32.8874C73.9921 31.5709 74.7359 30.8189 76.3741 30.6312C77.164 30.5407 77.7771 30.5891 78.2135 30.7762C78.6499 30.9633 79.1406 31.3665 79.6858 31.9857C80.5411 32.9844 81.2961 33.624 81.9507 33.9047C82.6019 34.1562 83.5272 34.2132 84.7267 34.0758C86.833 33.8345 87.8108 33.0556 87.66 31.7392C87.5561 30.8323 86.6357 30.3005 84.8987 30.1438L82.2932 29.9087C80.1658 29.7078 78.6382 29.4382 77.7103 29.1C76.8116 28.7583 76.06 28.1479 75.4555 27.2687C74.8476 26.3603 74.4732 25.2917 74.3325 24.063C74.0812 21.8689 74.5935 20.0023 75.8695 18.4631C77.1747 16.9206 78.9975 16.0153 81.3379 15.7472ZM104.436 13.7238C105.255 13.6299 105.73 14.1535 105.861 15.2944L107.374 28.5029C107.545 29.9949 107.908 30.7091 108.464 30.6454C108.581 30.632 108.782 30.5793 109.068 30.4873C109.38 30.3627 109.638 30.2886 109.843 30.2652C111.072 30.1244 111.773 30.8147 111.947 32.3359C112.179 34.3545 111.431 35.4626 109.705 35.6603C109.413 35.6939 108.585 35.7145 107.223 35.7224C106.394 35.7285 105.452 35.7918 104.399 35.9125C103.873 35.9728 103.104 36.1201 102.094 36.3544C101.083 36.5887 100.329 36.7344 99.8318 36.7913C99.0419 36.8818 98.3681 36.6922 97.8105 36.2226C97.2495 35.7237 96.9204 35.0501 96.8232 34.2017C96.6322 32.5342 97.2388 31.62 98.643 31.4592C98.643 31.4592 99.0334 31.5034 99.8141 31.5918C99.9345 31.6076 100.039 31.6105 100.126 31.6005C100.653 31.5402 100.822 30.6909 100.635 29.0526L99.8204 21.9437C99.6294 20.2762 99.2852 19.4709 98.7879 19.5279C98.7001 19.5379 98.4452 19.6412 98.0232 19.8378C97.7373 19.9298 97.5066 19.9858 97.3311 20.0059C95.9269 20.1668 95.1309 19.4281 94.9433 17.7898C94.8427 16.9122 95.011 16.1816 95.448 15.598C95.8816 14.9852 96.508 14.6319 97.3272 14.5381C97.649 14.5012 98.1221 14.4915 98.7465 14.5089C99.7872 14.5379 100.615 14.5172 101.229 14.4468C101.726 14.3898 102.363 14.2576 103.14 14.0501C103.916 13.8426 104.348 13.7338 104.436 13.7238ZM101.744 12.3428C100.661 12.4668 99.68 12.1791 98.7996 11.4797C97.9193 10.7803 97.4171 9.88934 97.2931 8.80692C97.1658 7.69524 97.4388 6.71552 98.1123 5.86777C98.8117 4.98741 99.7173 4.48357 100.829 4.35623C101.941 4.22889 102.922 4.51659 103.773 5.21934C104.65 5.88949 105.152 6.7804 105.28 7.89208C105.407 9.00376 105.121 9.99978 104.422 10.8801C103.748 11.7279 102.855 12.2154 101.744 12.3428ZM124.994 18.4378C124.943 17.999 125.039 17.5434 125.282 17.0711C124.555 16.68 123.782 16.5315 122.963 16.6253C121.676 16.7727 120.685 17.4346 119.99 18.6108C119.32 19.7545 119.088 21.2186 119.292 23.0031C119.504 24.8462 120.097 26.2749 121.073 27.2894C122.048 28.3039 123.238 28.7308 124.643 28.5699C126.076 28.4057 127.04 27.5098 127.536 25.8823C127.835 24.8699 128.115 24.2154 128.378 23.9186C128.747 23.5206 129.371 23.2713 130.248 23.1708C131.243 23.0569 132.083 23.2719 132.767 23.8159C133.449 24.3306 133.843 25.056 133.95 25.9922C134.178 27.9815 133.41 29.8181 131.647 31.502C129.884 33.1859 127.657 34.182 124.965 34.4903C121.513 34.8858 118.642 34.1476 116.353 32.2758C114.061 30.3748 112.71 27.6397 112.301 24.0707C111.889 20.4723 112.616 17.4994 114.481 15.1517C116.346 12.8041 119.063 11.4259 122.632 11.0171C125.206 10.7222 127.398 11.0936 129.206 12.1313C131.04 13.1364 132.064 14.5751 132.279 16.4474C132.413 17.6175 132.142 18.6119 131.465 19.4304C130.785 20.2196 129.845 20.6829 128.645 20.8203C127.651 20.9343 126.818 20.7778 126.146 20.3508C125.472 19.8946 125.087 19.2569 124.994 18.4378Z" fill="white"/>
</svg>
