<svg width="131" height="301" viewBox="0 0 131 301" fill="none" xmlns="http://www.w3.org/2000/svg">
<g filter="url(#filter0_d_227_125)">
<path d="M7 244.5L11 285H40L72 290L90 244.5L124 26.5L119.5 18L112.5 10.5L101 5L90 3H75.5L64.5 7L54.5 18L47 30L7 244.5Z" stroke="white" stroke-width="5"/>
<path d="M37.4239 168.747L38.2688 161.647L39.792 161.828L39.6307 163.184L40.0309 163.231L39.455 164.001C39.5461 163.235 39.7869 162.679 40.1772 162.332C40.5675 161.986 41.0983 161.853 41.7696 161.933C42.5355 162.024 43.1097 162.332 43.4923 162.858C43.8749 163.383 44.0165 164.064 43.9172 164.898L43.8557 165.415L42.1646 165.213L42.2123 164.813C42.2665 164.357 42.1881 163.99 41.9768 163.712C41.7741 163.434 41.4663 163.271 41.0532 163.222C40.6315 163.172 40.2896 163.258 40.0275 163.48C39.7741 163.703 39.6202 164.042 39.5659 164.498L39.0375 168.939L37.4239 168.747ZM47.8209 170.115C47.2185 170.043 46.7074 169.865 46.2875 169.579C45.8677 169.294 45.5575 168.929 45.3571 168.487C45.1663 168.036 45.1042 167.531 45.1708 166.972L45.3828 165.191C45.4494 164.631 45.6277 164.159 45.9179 163.775C46.2176 163.383 46.6051 163.097 47.0802 162.918C47.5554 162.739 48.0942 162.685 48.6966 162.757C49.2904 162.828 49.7929 163.005 50.2042 163.29C50.624 163.576 50.9294 163.944 51.1201 164.394C51.3206 164.837 51.3875 165.338 51.3209 165.897L51.1688 167.175L46.7927 166.654L46.7328 167.158C46.6734 167.657 46.7488 168.05 46.959 168.337C47.1703 168.615 47.5126 168.782 47.9859 168.839C48.3474 168.882 48.6472 168.856 48.8852 168.762C49.1244 168.66 49.2884 168.492 49.3773 168.258L50.9651 168.447C50.7719 169.044 50.3865 169.495 49.8089 169.802C49.2409 170.101 48.5783 170.205 47.8209 170.115ZM49.7144 166.086L49.7605 165.698C49.8188 165.208 49.7472 164.82 49.5456 164.534C49.345 164.239 49.0123 164.065 48.5476 164.009C48.0829 163.954 47.7141 164.045 47.4414 164.283C47.1687 164.522 47.0032 164.886 46.9448 165.376L46.9125 165.648L49.8459 165.97L49.7144 166.086ZM55.2788 170.99C54.7366 170.925 54.2735 170.783 53.8895 170.562C53.5055 170.342 53.2153 170.068 53.0188 169.739C52.8319 169.402 52.7544 169.027 52.7864 168.611L54.4 168.803C54.3906 169.029 54.4766 169.223 54.6582 169.384C54.8483 169.546 55.1069 169.647 55.4339 169.686L56.0019 169.753C56.3978 169.801 56.7039 169.758 56.9203 169.627C57.1367 169.496 57.2607 169.297 57.2925 169.03C57.3222 168.78 57.2549 168.576 57.0905 168.417C56.9358 168.25 56.676 168.123 56.3111 168.036L55.4486 167.802C54.653 167.594 54.0848 167.308 53.744 166.945C53.4032 166.581 53.2707 166.081 53.3465 165.444C53.4254 164.782 53.7101 164.296 54.2006 163.988C54.6922 163.671 55.3725 163.565 56.2417 163.668L56.7323 163.726C57.524 163.821 58.1356 164.072 58.5669 164.482C58.9982 164.891 59.1958 165.394 59.1595 165.992L57.5459 165.8C57.5426 165.608 57.4535 165.44 57.2785 165.297C57.1121 165.155 56.8783 165.066 56.5771 165.03L56.0866 164.972C55.7165 164.928 55.4372 164.964 55.2487 165.082C55.0699 165.191 54.9651 165.375 54.9343 165.633C54.9057 165.874 54.9573 166.064 55.0893 166.202C55.2222 166.331 55.4492 166.441 55.7701 166.531L56.6712 166.77C57.5003 166.99 58.0928 167.292 58.4487 167.675C58.8143 168.05 58.9586 168.56 58.8818 169.206C58.7999 169.894 58.4992 170.404 57.9798 170.735C57.47 171.058 56.759 171.166 55.8468 171.057L55.2788 170.99ZM63.2886 171.956C62.385 171.848 61.7047 171.514 61.2478 170.954C60.7918 170.385 60.6156 169.665 60.719 168.796L61.2444 164.381L62.858 164.573L62.3342 168.975C62.2799 169.431 62.3498 169.798 62.5438 170.074C62.7389 170.341 63.043 170.5 63.4561 170.549C63.8606 170.597 64.189 170.514 64.4415 170.3C64.7035 170.078 64.8617 169.739 64.916 169.283L65.4398 164.881L67.0534 165.073L66.528 169.487C66.4246 170.357 66.0802 171.014 65.4948 171.459C64.9104 171.896 64.175 172.061 63.2886 171.956ZM67.8429 172.367L68.6878 165.267L70.0045 165.424L69.8909 166.379L70.1619 166.411L69.9148 166.618C69.9619 166.222 70.1117 165.917 70.3642 165.702C70.6166 165.488 70.9192 165.402 71.2721 165.444C71.6507 165.489 71.9249 165.679 72.0946 166.013C72.2728 166.348 72.3307 166.779 72.2683 167.303L72.0596 166.637L72.4985 166.689L72.303 166.902C72.3501 166.506 72.4999 166.201 72.7523 165.986C73.0047 165.772 73.316 165.687 73.686 165.731C74.1249 165.783 74.454 165.988 74.6733 166.346C74.8925 166.704 74.9689 167.162 74.9023 167.722L74.2586 173.131L72.8386 172.962L73.4746 167.617C73.5023 167.385 73.4722 167.198 73.3843 167.057C73.2974 166.907 73.155 166.82 72.957 166.796C72.7677 166.774 72.6094 166.82 72.4822 166.936C72.3635 167.053 72.2899 167.232 72.2612 167.473L71.6252 172.817L70.4634 172.679L71.0994 167.335C71.1281 167.094 71.0985 166.902 71.0106 166.761C70.9227 166.62 70.7797 166.537 70.5818 166.514C70.3839 166.49 70.2256 166.537 70.1069 166.654C69.9969 166.771 69.9276 166.951 69.8989 167.192L69.2629 172.536L67.8429 172.367ZM78.7822 173.8C78.1797 173.728 77.6686 173.549 77.2487 173.264C76.8289 172.978 76.5188 172.614 76.3183 172.171C76.1276 171.721 76.0655 171.216 76.132 170.657L76.344 168.875C76.4106 168.316 76.5889 167.844 76.8791 167.459C77.1788 167.067 77.5663 166.782 78.0414 166.603C78.5166 166.424 79.0554 166.37 79.6578 166.442C80.2516 166.512 80.7542 166.69 81.1654 166.975C81.5853 167.26 81.8906 167.628 82.0814 168.079C82.2818 168.521 82.3487 169.022 82.2821 169.582L82.13 170.86L77.7539 170.339L77.694 170.842C77.6346 171.342 77.71 171.735 77.9203 172.021C78.1315 172.3 78.4738 172.467 78.9471 172.523C79.3086 172.566 79.6084 172.541 79.8465 172.447C80.0856 172.345 80.2496 172.176 80.3385 171.943L81.9263 172.132C81.7331 172.728 81.3477 173.18 80.7701 173.486C80.2021 173.785 79.5395 173.89 78.7822 173.8ZM80.6756 169.77L80.7217 169.383C80.7801 168.892 80.7084 168.504 80.5068 168.218C80.3062 167.924 79.9735 167.749 79.5088 167.694C79.0441 167.639 78.6754 167.73 78.4026 167.968C78.1299 168.206 77.9644 168.57 77.906 169.061L77.8737 169.332L80.8071 169.655L80.6756 169.77Z" fill="white"/>
</g>
<defs>
<filter id="filter0_d_227_125" x="0.477127" y="0.5" width="130.121" height="300.279" filterUnits="userSpaceOnUse" color-interpolation-filters="sRGB">
<feFlood flood-opacity="0" result="BackgroundImageFix"/>
<feColorMatrix in="SourceAlpha" type="matrix" values="0 0 0 0 0 0 0 0 0 0 0 0 0 0 0 0 0 0 127 0" result="hardAlpha"/>
<feOffset dy="4"/>
<feGaussianBlur stdDeviation="2"/>
<feComposite in2="hardAlpha" operator="out"/>
<feColorMatrix type="matrix" values="0 0 0 0 0 0 0 0 0 0 0 0 0 0 0 0 0 0 0.25 0"/>
<feBlend mode="normal" in2="BackgroundImageFix" result="effect1_dropShadow_227_125"/>
<feBlend mode="normal" in="SourceGraphic" in2="effect1_dropShadow_227_125" result="shape"/>
</filter>
</defs>
</svg>
