<svg width="168" height="76" viewBox="0 0 168 76" fill="none" xmlns="http://www.w3.org/2000/svg">
<g filter="url(#filter0_d_219_36)">
<path d="M160.5 44.5L148 3L116.5 9L82.5 13.5H47L17 12L16 13.5L7 50.5L21 57.5L37.5 62L60 65H84.5L106 62L126.5 60L145.5 54.5L160.5 44.5Z" fill="#F79544"/>
<path d="M160.5 44.5L148 3L116.5 9L82.5 13.5H47L17 12L16 13.5L7 50.5L21 57.5L37.5 62L60 65H84.5L106 62L126.5 60L145.5 54.5L160.5 44.5Z" fill="white" fill-opacity="0.2"/>
<path d="M160.5 44.5L148 3L116.5 9L82.5 13.5H47L17 12L16 13.5L7 50.5L21 57.5L37.5 62L60 65H84.5L106 62L126.5 60L145.5 54.5L160.5 44.5Z" stroke="white" stroke-width="5"/>
<path d="M28.6503 47L26.2983 31.6H29.2103L30.4983 41.036C30.5729 41.5773 30.6383 42.1747 30.6943 42.828C30.7689 43.4813 30.8249 44.0227 30.8623 44.452C30.9183 44.0227 30.9929 43.4813 31.0863 42.828C31.1796 42.1747 31.2636 41.5773 31.3383 41.036L32.7943 31.6H35.5103L36.9383 41.036C37.0129 41.5773 37.0969 42.184 37.1903 42.856C37.2836 43.5093 37.3583 44.0507 37.4143 44.48C37.4516 44.032 37.5076 43.4813 37.5823 42.828C37.6756 42.156 37.7503 41.5587 37.8063 41.036L39.1783 31.6H41.9783L39.5703 47H35.9583L34.6143 37.508C34.5396 36.9853 34.4556 36.4067 34.3623 35.772C34.2689 35.1187 34.1943 34.5867 34.1383 34.176C34.0823 34.5867 34.0076 35.1187 33.9143 35.772C33.8396 36.4067 33.7556 36.9853 33.6623 37.508L32.2623 47H28.6503ZM45.1593 47V31.6H48.4633V34.54H49.3313L48.2953 36.332C48.2953 34.6707 48.6687 33.42 49.4153 32.58C50.162 31.74 51.2633 31.32 52.7193 31.32C54.3807 31.32 55.6873 31.8333 56.6393 32.86C57.5913 33.8867 58.0673 35.3053 58.0673 37.116V38.236H54.3993V37.368C54.3993 36.3787 54.138 35.6133 53.6153 35.072C53.1113 34.5307 52.4113 34.26 51.5153 34.26C50.6007 34.26 49.8913 34.5307 49.3873 35.072C48.902 35.6133 48.6593 36.3787 48.6593 37.368V47H45.1593ZM61.4444 47V43.808H66.8204V34.764H62.1444V31.6H70.1804V43.808H74.9404V47H61.4444ZM68.2204 29.024C67.5111 29.024 66.9511 28.8467 66.5404 28.492C66.1297 28.1187 65.9244 27.624 65.9244 27.008C65.9244 26.392 66.1297 25.9067 66.5404 25.552C66.9511 25.1787 67.5111 24.992 68.2204 24.992C68.9297 24.992 69.4897 25.1787 69.9004 25.552C70.3111 25.9067 70.5164 26.392 70.5164 27.008C70.5164 27.624 70.3111 28.1187 69.9004 28.492C69.4897 28.8467 68.9297 29.024 68.2204 29.024ZM86.1855 47C84.7108 47 83.5535 46.5893 82.7135 45.768C81.8921 44.9467 81.4815 43.8173 81.4815 42.38V34.764H77.3095V31.6H81.4815V27.26H85.0095V31.6H90.9175V34.764H85.0095V42.38C85.0095 43.3507 85.4855 43.836 86.4375 43.836H90.6375V47H86.1855ZM95.0225 47V43.808H100.399V34.764H95.7225V31.6H103.759V43.808H108.519V47H95.0225ZM101.799 29.024C101.089 29.024 100.529 28.8467 100.119 28.492C99.7079 28.1187 99.5025 27.624 99.5025 27.008C99.5025 26.392 99.7079 25.9067 100.119 25.552C100.529 25.1787 101.089 24.992 101.799 24.992C102.508 24.992 103.068 25.1787 103.479 25.552C103.889 25.9067 104.095 26.392 104.095 27.008C104.095 27.624 103.889 28.1187 103.479 28.492C103.068 28.8467 102.508 29.024 101.799 29.024ZM111.84 47V31.6H115.256V34.54H116.208L115.256 35.352C115.256 34.0827 115.62 33.0933 116.348 32.384C117.094 31.6747 118.112 31.32 119.4 31.32C120.912 31.32 122.116 31.824 123.012 32.832C123.926 33.84 124.384 35.1933 124.384 36.892V47H120.884V37.256C120.884 36.3227 120.641 35.604 120.156 35.1C119.67 34.596 118.989 34.344 118.112 34.344C117.253 34.344 116.572 34.6053 116.068 35.128C115.582 35.6507 115.34 36.3973 115.34 37.368V47H111.84ZM130.729 52.04V49.128H135.293C136.077 49.128 136.665 48.932 137.057 48.54C137.449 48.1667 137.645 47.6253 137.645 46.916V45.768L137.701 42.884H136.945L137.701 42.128C137.701 43.3787 137.327 44.3587 136.581 45.068C135.853 45.7587 134.863 46.104 133.613 46.104C132.045 46.104 130.794 45.572 129.861 44.508C128.946 43.444 128.489 42.0067 128.489 40.196V37.2C128.489 35.408 128.946 33.98 129.861 32.916C130.794 31.852 132.045 31.32 133.613 31.32C134.863 31.32 135.853 31.6747 136.581 32.384C137.327 33.0747 137.701 34.0453 137.701 35.296L136.945 34.54H137.701L137.617 31.6H141.117V47C141.117 48.5493 140.603 49.772 139.577 50.668C138.55 51.5827 137.141 52.04 135.349 52.04H130.729ZM134.789 43.08C135.685 43.08 136.375 42.8187 136.861 42.296C137.365 41.7547 137.617 41.008 137.617 40.056V37.368C137.617 36.416 137.365 35.6787 136.861 35.156C136.375 34.6147 135.685 34.344 134.789 34.344C133.893 34.344 133.202 34.6053 132.717 35.128C132.231 35.6507 131.989 36.3973 131.989 37.368V40.056C131.989 41.0267 132.231 41.7733 132.717 42.296C133.202 42.8187 133.893 43.08 134.789 43.08Z" fill="#113E3E"/>
</g>
<defs>
<filter id="filter0_d_219_36" x="0.0999146" y="0.122803" width="167.328" height="75.3772" filterUnits="userSpaceOnUse" color-interpolation-filters="sRGB">
<feFlood flood-opacity="0" result="BackgroundImageFix"/>
<feColorMatrix in="SourceAlpha" type="matrix" values="0 0 0 0 0 0 0 0 0 0 0 0 0 0 0 0 0 0 127 0" result="hardAlpha"/>
<feOffset dy="4"/>
<feGaussianBlur stdDeviation="2"/>
<feComposite in2="hardAlpha" operator="out"/>
<feColorMatrix type="matrix" values="0 0 0 0 0 0 0 0 0 0 0 0 0 0 0 0 0 0 0.25 0"/>
<feBlend mode="normal" in2="BackgroundImageFix" result="effect1_dropShadow_219_36"/>
<feBlend mode="normal" in="SourceGraphic" in2="effect1_dropShadow_219_36" result="shape"/>
</filter>
</defs>
</svg>
