<svg width="176" height="165" viewBox="0 0 176 165" fill="none" xmlns="http://www.w3.org/2000/svg">
<g filter="url(#filter0_d_193_49)">
<path d="M6.5 151.5V3L169.5 23.5V153.5L6.5 151.5Z" fill="#DF8D72" stroke="white" stroke-width="5"/>
<path d="M44.6252 74.3C43.2252 74.3 41.9952 74.04 40.9352 73.52C39.8952 72.98 39.0852 72.23 38.5052 71.27C37.9252 70.29 37.6352 69.14 37.6352 67.82V63.68C37.6352 62.34 37.9252 61.19 38.5052 60.23C39.0852 59.27 39.8952 58.53 40.9352 58.01C41.9952 57.47 43.2252 57.2 44.6252 57.2C46.7052 57.2 48.3652 57.74 49.6052 58.82C50.8452 59.88 51.4952 61.33 51.5552 63.17H47.8052C47.7452 62.31 47.4352 61.65 46.8752 61.19C46.3352 60.71 45.5852 60.47 44.6252 60.47C43.6252 60.47 42.8352 60.75 42.2552 61.31C41.6752 61.85 41.3852 62.63 41.3852 63.65V67.82C41.3852 68.84 41.6752 69.63 42.2552 70.19C42.8352 70.75 43.6252 71.03 44.6252 71.03C45.5852 71.03 46.3352 70.8 46.8752 70.34C47.4352 69.86 47.7452 69.19 47.8052 68.33H51.5552C51.4952 70.17 50.8452 71.63 49.6052 72.71C48.3652 73.77 46.7052 74.3 44.6252 74.3ZM62.5234 74.27C61.1234 74.27 59.9034 74.01 58.8634 73.49C57.8434 72.95 57.0434 72.2 56.4634 71.24C55.9034 70.26 55.6234 69.11 55.6234 67.79V63.71C55.6234 62.39 55.9034 61.25 56.4634 60.29C57.0434 59.31 57.8434 58.56 58.8634 58.04C59.9034 57.5 61.1234 57.23 62.5234 57.23C63.9434 57.23 65.1634 57.5 66.1834 58.04C67.2034 58.56 67.9934 59.31 68.5534 60.29C69.1334 61.25 69.4234 62.38 69.4234 63.68V67.79C69.4234 69.11 69.1334 70.26 68.5534 71.24C67.9934 72.2 67.2034 72.95 66.1834 73.49C65.1634 74.01 63.9434 74.27 62.5234 74.27ZM62.5234 71C63.5234 71 64.2934 70.73 64.8334 70.19C65.3934 69.63 65.6734 68.83 65.6734 67.79V63.71C65.6734 62.65 65.3934 61.85 64.8334 61.31C64.2934 60.77 63.5234 60.5 62.5234 60.5C61.5434 60.5 60.7734 60.77 60.2134 61.31C59.6534 61.85 59.3734 62.65 59.3734 63.71V67.79C59.3734 68.83 59.6534 69.63 60.2134 70.19C60.7734 70.73 61.5434 71 62.5234 71ZM79.1017 74.3C77.4617 74.3 76.1317 73.73 75.1117 72.59C74.1117 71.45 73.6117 69.92 73.6117 68V63.53C73.6117 61.59 74.1117 60.05 75.1117 58.91C76.1117 57.77 77.4417 57.2 79.1017 57.2C80.4617 57.2 81.5417 57.59 82.3417 58.37C83.1417 59.13 83.5417 60.18 83.5417 61.52L82.7017 60.65H83.5717L83.4517 56.72V52.1H87.2017V74H83.5417V70.85H82.7017L83.5417 69.98C83.5417 71.32 83.1417 72.38 82.3417 73.16C81.5417 73.92 80.4617 74.3 79.1017 74.3ZM80.4217 71.06C81.3817 71.06 82.1217 70.78 82.6417 70.22C83.1817 69.64 83.4517 68.84 83.4517 67.82V63.68C83.4517 62.66 83.1817 61.87 82.6417 61.31C82.1217 60.73 81.3817 60.44 80.4217 60.44C79.4617 60.44 78.7117 60.72 78.1717 61.28C77.6317 61.84 77.3617 62.64 77.3617 63.68V67.82C77.3617 68.86 77.6317 69.66 78.1717 70.22C78.7117 70.78 79.4617 71.06 80.4217 71.06ZM91.78 74V70.58H97.54V60.89H92.53V57.5H101.14V70.58H106.24V74H91.78ZM99.04 54.74C98.28 54.74 97.68 54.55 97.24 54.17C96.8 53.77 96.58 53.24 96.58 52.58C96.58 51.92 96.8 51.4 97.24 51.02C97.68 50.62 98.28 50.42 99.04 50.42C99.8 50.42 100.4 50.62 100.84 51.02C101.28 51.4 101.5 51.92 101.5 52.58C101.5 53.24 101.28 53.77 100.84 54.17C100.4 54.55 99.8 54.74 99.04 54.74ZM109.798 74V57.5H113.458V60.65H114.478L113.458 61.52C113.458 60.16 113.848 59.1 114.628 58.34C115.428 57.58 116.518 57.2 117.898 57.2C119.518 57.2 120.808 57.74 121.768 58.82C122.748 59.9 123.238 61.35 123.238 63.17V74H119.488V63.56C119.488 62.56 119.228 61.79 118.708 61.25C118.188 60.71 117.458 60.44 116.518 60.44C115.598 60.44 114.868 60.72 114.328 61.28C113.808 61.84 113.548 62.64 113.548 63.68V74H109.798ZM130.037 79.4V76.28H134.927C135.767 76.28 136.397 76.07 136.817 75.65C137.237 75.25 137.447 74.67 137.447 73.91V72.68L137.507 69.59H136.697L137.507 68.78C137.507 70.12 137.107 71.17 136.307 71.93C135.527 72.67 134.467 73.04 133.127 73.04C131.447 73.04 130.107 72.47 129.107 71.33C128.127 70.19 127.637 68.65 127.637 66.71V63.5C127.637 61.58 128.127 60.05 129.107 58.91C130.107 57.77 131.447 57.2 133.127 57.2C134.467 57.2 135.527 57.58 136.307 58.34C137.107 59.08 137.507 60.12 137.507 61.46L136.697 60.65H137.507L137.417 57.5H141.167V74C141.167 75.66 140.617 76.97 139.517 77.93C138.417 78.91 136.907 79.4 134.987 79.4H130.037ZM134.387 69.8C135.347 69.8 136.087 69.52 136.607 68.96C137.147 68.38 137.417 67.58 137.417 66.56V63.68C137.417 62.66 137.147 61.87 136.607 61.31C136.087 60.73 135.347 60.44 134.387 60.44C133.427 60.44 132.687 60.72 132.167 61.28C131.647 61.84 131.387 62.64 131.387 63.68V66.56C131.387 67.6 131.647 68.4 132.167 68.96C132.687 69.52 133.427 69.8 134.387 69.8ZM19.8569 119.4V97.5H23.5169V100.65H24.3569L23.5169 101.52C23.5169 100.18 23.9169 99.13 24.7169 98.37C25.5169 97.59 26.5969 97.2 27.9569 97.2C29.6169 97.2 30.9469 97.77 31.9469 98.91C32.9469 100.05 33.4469 101.58 33.4469 103.5V107.97C33.4469 109.25 33.2169 110.37 32.7569 111.33C32.3169 112.27 31.6869 113 30.8669 113.52C30.0469 114.04 29.0769 114.3 27.9569 114.3C26.5969 114.3 25.5169 113.92 24.7169 113.16C23.9169 112.38 23.5169 111.32 23.5169 109.98L24.3569 110.85H23.4869L23.6069 114.78V119.4H19.8569ZM26.6369 111.06C27.5969 111.06 28.3469 110.78 28.8869 110.22C29.4269 109.66 29.6969 108.86 29.6969 107.82V103.68C29.6969 102.64 29.4269 101.84 28.8869 101.28C28.3469 100.72 27.5969 100.44 26.6369 100.44C25.6969 100.44 24.9569 100.73 24.4169 101.31C23.8769 101.87 23.6069 102.66 23.6069 103.68V107.82C23.6069 108.84 23.8769 109.64 24.4169 110.22C24.9569 110.78 25.6969 111.06 26.6369 111.06ZM38.3552 114V97.5H41.8952V100.65H42.8252L41.7152 102.57C41.7152 100.79 42.1152 99.45 42.9152 98.55C43.7152 97.65 44.8952 97.2 46.4552 97.2C48.2352 97.2 49.6352 97.75 50.6552 98.85C51.6752 99.95 52.1852 101.47 52.1852 103.41V104.61H48.2552V103.68C48.2552 102.62 47.9752 101.8 47.4152 101.22C46.8752 100.64 46.1252 100.35 45.1652 100.35C44.1852 100.35 43.4252 100.64 42.8852 101.22C42.3652 101.8 42.1052 102.62 42.1052 103.68V114H38.3552ZM62.5234 114.27C61.1234 114.27 59.9034 114.01 58.8634 113.49C57.8434 112.95 57.0434 112.2 56.4634 111.24C55.9034 110.26 55.6234 109.11 55.6234 107.79V103.71C55.6234 102.39 55.9034 101.25 56.4634 100.29C57.0434 99.31 57.8434 98.56 58.8634 98.04C59.9034 97.5 61.1234 97.23 62.5234 97.23C63.9434 97.23 65.1634 97.5 66.1834 98.04C67.2034 98.56 67.9934 99.31 68.5534 100.29C69.1334 101.25 69.4234 102.38 69.4234 103.68V107.79C69.4234 109.11 69.1334 110.26 68.5534 111.24C67.9934 112.2 67.2034 112.95 66.1834 113.49C65.1634 114.01 63.9434 114.27 62.5234 114.27ZM62.5234 111C63.5234 111 64.2934 110.73 64.8334 110.19C65.3934 109.63 65.6734 108.83 65.6734 107.79V103.71C65.6734 102.65 65.3934 101.85 64.8334 101.31C64.2934 100.77 63.5234 100.5 62.5234 100.5C61.5434 100.5 60.7734 100.77 60.2134 101.31C59.6534 101.85 59.3734 102.65 59.3734 103.71V107.79C59.3734 108.83 59.6534 109.63 60.2134 110.19C60.7734 110.73 61.5434 111 62.5234 111ZM73.9717 119.4V115.92H78.3817C79.3817 115.92 80.1517 115.65 80.6917 115.11C81.2317 114.57 81.5017 113.81 81.5017 112.83V100.98H74.8717V97.5H85.2517V112.92C85.2517 114.92 84.6517 116.5 83.4517 117.66C82.2517 118.82 80.6317 119.4 78.5917 119.4H73.9717ZM83.2417 94.74C82.4817 94.74 81.8817 94.55 81.4417 94.17C81.0017 93.77 80.7817 93.24 80.7817 92.58C80.7817 91.92 81.0017 91.4 81.4417 91.02C81.8817 90.62 82.4817 90.42 83.2417 90.42C84.0017 90.42 84.6017 90.62 85.0417 91.02C85.4817 91.4 85.7017 91.92 85.7017 92.58C85.7017 93.24 85.4817 93.77 85.0417 94.17C84.6017 94.55 84.0017 94.74 83.2417 94.74ZM98.53 114.3C97.13 114.3 95.91 114.03 94.87 113.49C93.83 112.95 93.02 112.2 92.44 111.24C91.88 110.26 91.6 109.12 91.6 107.82V103.68C91.6 102.38 91.88 101.25 92.44 100.29C93.02 99.31 93.83 98.55 94.87 98.01C95.91 97.47 97.13 97.2 98.53 97.2C99.91 97.2 101.11 97.47 102.13 98.01C103.17 98.55 103.97 99.31 104.53 100.29C105.11 101.25 105.4 102.38 105.4 103.68V106.65H95.23V107.82C95.23 108.98 95.51 109.86 96.07 110.46C96.63 111.04 97.46 111.33 98.56 111.33C99.4 111.33 100.08 111.19 100.6 110.91C101.12 110.61 101.45 110.18 101.59 109.62H105.28C105 111.04 104.24 112.18 103 113.04C101.78 113.88 100.29 114.3 98.53 114.3ZM101.77 104.55V103.65C101.77 102.51 101.5 101.64 100.96 101.04C100.42 100.42 99.61 100.11 98.53 100.11C97.45 100.11 96.63 100.42 96.07 101.04C95.51 101.66 95.23 102.54 95.23 103.68V104.31L102.04 104.25L101.77 104.55ZM116.578 114.3C115.178 114.3 113.948 114.04 112.888 113.52C111.848 112.98 111.038 112.23 110.458 111.27C109.878 110.29 109.588 109.14 109.588 107.82V103.68C109.588 102.34 109.878 101.19 110.458 100.23C111.038 99.27 111.848 98.53 112.888 98.01C113.948 97.47 115.178 97.2 116.578 97.2C118.658 97.2 120.318 97.74 121.558 98.82C122.798 99.88 123.448 101.33 123.508 103.17H119.758C119.698 102.31 119.388 101.65 118.828 101.19C118.288 100.71 117.538 100.47 116.578 100.47C115.578 100.47 114.788 100.75 114.208 101.31C113.628 101.85 113.338 102.63 113.338 103.65V107.82C113.338 108.84 113.628 109.63 114.208 110.19C114.788 110.75 115.578 111.03 116.578 111.03C117.538 111.03 118.288 110.8 118.828 110.34C119.388 109.86 119.698 109.19 119.758 108.33H123.508C123.448 110.17 122.798 111.63 121.558 112.71C120.318 113.77 118.658 114.3 116.578 114.3ZM136.277 114C134.697 114 133.457 113.56 132.557 112.68C131.677 111.8 131.237 110.59 131.237 109.05V100.89H126.767V97.5H131.237V92.85H135.017V97.5H141.347V100.89H135.017V109.05C135.017 110.09 135.527 110.61 136.547 110.61H141.047V114H136.277ZM151.835 114.27C150.575 114.27 149.475 114.07 148.535 113.67C147.595 113.27 146.855 112.72 146.315 112.02C145.795 111.3 145.515 110.46 145.475 109.5H149.225C149.265 110.02 149.515 110.44 149.975 110.76C150.455 111.08 151.075 111.24 151.835 111.24H153.155C154.075 111.24 154.765 111.06 155.225 110.7C155.685 110.34 155.915 109.85 155.915 109.23C155.915 108.65 155.705 108.2 155.285 107.88C154.885 107.54 154.255 107.32 153.395 107.22L151.355 106.92C149.475 106.66 148.095 106.16 147.215 105.42C146.335 104.68 145.895 103.57 145.895 102.09C145.895 100.55 146.415 99.36 147.455 98.52C148.495 97.66 150.025 97.23 152.045 97.23H153.185C155.025 97.23 156.495 97.64 157.595 98.46C158.695 99.28 159.285 100.38 159.365 101.76H155.615C155.555 101.32 155.305 100.96 154.865 100.68C154.445 100.4 153.885 100.26 153.185 100.26H152.045C151.185 100.26 150.555 100.42 150.155 100.74C149.775 101.04 149.585 101.49 149.585 102.09C149.585 102.65 149.755 103.07 150.095 103.35C150.435 103.61 150.985 103.8 151.745 103.92L153.875 104.22C155.835 104.5 157.275 105.03 158.195 105.81C159.135 106.57 159.605 107.7 159.605 109.2C159.605 110.8 159.055 112.05 157.955 112.95C156.875 113.83 155.275 114.27 153.155 114.27H151.835Z" fill="white"/>
</g>
<defs>
<filter id="filter0_d_193_49" x="0" y="0.165771" width="176" height="163.865" filterUnits="userSpaceOnUse" color-interpolation-filters="sRGB">
<feFlood flood-opacity="0" result="BackgroundImageFix"/>
<feColorMatrix in="SourceAlpha" type="matrix" values="0 0 0 0 0 0 0 0 0 0 0 0 0 0 0 0 0 0 127 0" result="hardAlpha"/>
<feOffset dy="4"/>
<feGaussianBlur stdDeviation="2"/>
<feComposite in2="hardAlpha" operator="out"/>
<feColorMatrix type="matrix" values="0 0 0 0 0 0 0 0 0 0 0 0 0 0 0 0 0 0 0.25 0"/>
<feBlend mode="normal" in2="BackgroundImageFix" result="effect1_dropShadow_193_49"/>
<feBlend mode="normal" in="SourceGraphic" in2="effect1_dropShadow_193_49" result="shape"/>
</filter>
</defs>
</svg>
