<svg width="152" height="85" viewBox="0 0 152 85" fill="none" xmlns="http://www.w3.org/2000/svg">
<g filter="url(#filter0_d_288_117)">
<path d="M13.5901 56.1508L8.84073 51.718C7.68284 50.6373 7.10546 49.0719 7.2843 47.4982L9.26066 30.1062C9.41363 28.76 10.1063 27.5336 11.1801 26.7076L15.2591 23.5699C15.7488 23.1932 16.3041 22.9106 16.8968 22.7362L23.6524 20.7493C24.2131 20.5844 24.7406 20.3224 25.2108 19.9753L44.7036 5.58778C45.2294 5.19969 45.8262 4.91844 46.4602 4.75994L52.7979 3.17554C53.2635 3.05912 53.7435 3.01036 54.2231 3.03077L99.6819 4.96519C100.224 4.98824 100.758 5.09928 101.264 5.29394L106.221 7.20045C106.737 7.39878 107.216 7.6812 107.639 8.03622L121.67 19.8035C122.217 20.2625 122.856 20.5989 123.544 20.7901L131.5 23L142.182 26.8149C144.172 27.5256 145.5 29.4105 145.5 31.5236V49.8962C145.5 52.0484 144.123 53.959 142.081 54.6396L137.027 56.3244C135.816 56.7278 135 57.8606 135 59.1366C135 60.002 134.622 60.8241 133.965 61.3873L132.244 62.8626C131.753 63.2835 131.184 63.6052 130.571 63.8097L128.581 64.473C127.555 64.8151 126.445 64.8151 125.419 64.473L124.818 64.2726C123.363 63.7877 122.232 62.6303 121.782 61.1649C121.057 58.8093 118.65 57.4001 116.241 57.9209L85.0782 64.6588C84.1573 64.8579 83.5 65.6724 83.5 66.6146C83.5 66.8692 83.4514 67.1214 83.3569 67.3578L81.7752 71.3121C81.5927 71.7682 81.344 72.195 81.0371 72.5786L81.0012 72.6235C80.0524 73.8095 78.6158 74.5 77.0969 74.5H73C70.9098 74.5 69.0542 73.1625 68.3932 71.1796L68 70L67.569 68.5633C66.9345 66.4483 64.9879 65 62.7798 65H56.5L40.3614 63.5329C40.1208 63.511 39.8821 63.4717 39.6472 63.4153L27.5 60.5L15.7018 57.3236C14.9127 57.1111 14.1876 56.7084 13.5901 56.1508Z" stroke="white" stroke-width="5" shape-rendering="crispEdges"/>
</g>
<path d="M76.602 48.2066C75.9545 48.2932 75.3694 48.2491 74.847 48.0742C74.3325 47.8888 73.9114 47.592 73.5837 47.1839C73.2548 46.7665 73.0495 46.2525 72.9678 45.6419L72.7115 43.727C72.6286 43.1072 72.6915 42.5573 72.9004 42.0774C73.1092 41.5974 73.4381 41.205 73.887 40.9001C74.3438 40.5847 74.8961 40.3837 75.5436 40.2971C76.5057 40.1683 77.307 40.3154 77.9474 40.7381C78.5865 41.1517 78.9769 41.7821 79.1186 42.6295L77.384 42.8616C77.303 42.4676 77.1188 42.1815 76.8313 42.0034C76.5518 41.8148 76.1901 41.7502 75.746 41.8096C75.2835 41.8715 74.9354 42.0499 74.7018 42.3448C74.4669 42.6305 74.3811 43.0092 74.4442 43.481L74.7023 45.4098C74.7654 45.8816 74.9485 46.2291 75.2514 46.4522C75.5543 46.6753 75.9371 46.7559 76.3996 46.694C76.8437 46.6346 77.1763 46.4818 77.3976 46.2356C77.627 45.9789 77.7289 45.6499 77.7034 45.2483L79.4379 45.0162C79.5241 45.871 79.3138 46.5866 78.8071 47.1629C78.2991 47.7299 77.5641 48.0778 76.602 48.2066ZM84.8789 47.0849C84.2313 47.1715 83.651 47.1268 83.1377 46.9506C82.6325 46.764 82.216 46.4666 81.8884 46.0584C81.5687 45.6398 81.368 45.1252 81.2863 44.5147L81.0337 42.6275C80.952 42.0169 81.011 41.4723 81.2106 40.9936C81.4182 40.5044 81.7418 40.108 82.1814 39.8043C82.6291 39.4902 83.1766 39.2898 83.8242 39.2031C84.481 39.1152 85.062 39.1646 85.5673 39.3512C86.0712 39.5286 86.4831 39.8266 86.8027 40.2453C87.1304 40.6534 87.3345 41.1581 87.415 41.7594L87.6694 43.6605C87.7511 44.2711 87.6881 44.8209 87.4805 45.3101C87.2809 45.7888 86.9619 46.1846 86.5235 46.4975C86.0839 46.8012 85.5357 46.997 84.8789 47.0849ZM84.6765 45.5723C85.1391 45.5104 85.4785 45.3379 85.6949 45.0547C85.9192 44.761 85.9992 44.3737 85.9348 43.8926L85.6823 42.0054C85.6167 41.5151 85.4377 41.1624 85.1452 40.9473C84.862 40.731 84.4892 40.6537 84.0266 40.7156C83.5733 40.7763 83.2339 40.9488 83.0083 41.2333C82.7827 41.5177 82.7027 41.9051 82.7683 42.3954L83.0208 44.2826C83.0852 44.7636 83.2642 45.1163 83.5579 45.3407C83.8503 45.5558 84.2232 45.633 84.6765 45.5723ZM90.0881 46.2607L89.0669 38.6287L90.7598 38.4022L90.9547 39.8592L91.4265 39.796L91.0086 40.2616C90.9244 39.6325 91.0392 39.1181 91.3529 38.7183C91.6759 38.3172 92.1566 38.074 92.7949 37.9886C93.5442 37.8883 94.1743 38.0582 94.6852 38.4984C95.2054 38.9372 95.5218 39.5776 95.6344 40.4194L96.3047 45.4288L94.5702 45.6609L93.924 40.8319C93.8621 40.3694 93.6942 40.0293 93.4202 39.8117C93.1463 39.5942 92.7919 39.5144 92.3571 39.5726C91.9316 39.6296 91.6113 39.8043 91.3962 40.0967C91.1903 40.3879 91.1196 40.7741 91.1839 41.2551L91.8227 46.0286L90.0881 46.2607ZM102.336 44.6218C101.605 44.7196 101.004 44.5928 100.533 44.2415C100.072 43.8889 99.7932 43.3565 99.6979 42.6441L99.1928 38.8698L97.1253 39.1465L96.9154 37.5784L98.983 37.3018L98.6952 35.1509L100.444 34.917L100.731 37.0678L103.659 36.676L103.869 38.244L100.941 38.6358L101.446 42.4102C101.511 42.8912 101.779 43.1002 102.251 43.037L104.332 42.7585L104.542 44.3265L102.336 44.6218ZM108.995 43.8718C108.209 43.977 107.561 43.8518 107.052 43.4962C106.543 43.1406 106.242 42.6112 106.148 41.9082C106.048 41.1588 106.22 40.5472 106.665 40.0734C107.11 39.5995 107.791 39.3012 108.706 39.1787L110.607 38.9243L110.52 38.2721C110.471 37.9021 110.312 37.6314 110.044 37.4601C109.775 37.2795 109.433 37.217 109.016 37.2727C108.637 37.3235 108.334 37.4488 108.106 37.6488C107.879 37.8487 107.761 38.0952 107.753 38.3881L106.06 38.6147C106.047 37.882 106.294 37.2651 106.801 36.764C107.309 36.263 108.002 35.9537 108.881 35.8361C109.815 35.711 110.582 35.8485 111.182 36.2485C111.789 36.638 112.146 37.2306 112.253 38.0261L112.945 43.202L111.266 43.4267L111.088 42.0945L110.811 42.1317L111.038 41.7199C111.114 42.2842 110.965 42.7607 110.594 43.1494C110.222 43.5382 109.689 43.779 108.995 43.8718ZM109.39 42.4913C109.88 42.4257 110.261 42.2476 110.533 41.957C110.814 41.6651 110.928 41.3203 110.875 40.9225L110.75 39.9928L108.877 40.2435C108.526 40.2905 108.257 40.43 108.072 40.662C107.886 40.894 107.815 41.1765 107.86 41.5095C107.908 41.8703 108.067 42.141 108.336 42.3216C108.613 42.4917 108.964 42.5483 109.39 42.4913ZM118.204 42.6396C117.556 42.7262 116.971 42.6821 116.449 42.5072C115.934 42.3218 115.513 42.025 115.186 41.6169C114.857 41.1995 114.651 40.6855 114.57 40.075L114.313 38.16C114.23 37.5402 114.293 36.9903 114.502 36.5104C114.711 36.0305 115.04 35.638 115.489 35.3331C115.946 35.0178 116.498 34.8167 117.145 34.7301C118.108 34.6013 118.909 34.7484 119.549 35.1712C120.188 35.5847 120.579 36.2152 120.72 37.0625L118.986 37.2946C118.905 36.9006 118.721 36.6145 118.433 36.4364C118.154 36.2478 117.792 36.1832 117.348 36.2426C116.885 36.3045 116.537 36.4829 116.304 36.7778C116.069 37.0635 115.983 37.4422 116.046 37.914L116.304 39.8428C116.367 40.3146 116.55 40.6621 116.853 40.8852C117.156 41.1083 117.539 41.189 118.001 41.1271C118.446 41.0676 118.778 40.9148 118.999 40.6686C119.229 40.412 119.331 40.0829 119.305 39.6814L121.04 39.4493C121.126 40.3041 120.916 41.0196 120.409 41.5959C119.901 42.1629 119.166 42.5108 118.204 42.6396ZM127.297 41.2816C126.566 41.3794 125.965 41.2526 125.494 40.9013C125.033 40.5487 124.754 40.0163 124.659 39.3039L124.154 35.5296L122.086 35.8063L121.877 34.2382L123.944 33.9616L123.656 31.8107L125.405 31.5768L125.693 33.7276L128.62 33.3358L128.83 34.9038L125.902 35.2956L126.407 39.07C126.472 39.551 126.74 39.76 127.212 39.6969L129.293 39.4183L129.503 40.9863L127.297 41.2816Z" fill="white"/>
<defs>
<filter id="filter0_d_288_117" x="0.752197" y="0.526367" width="151.248" height="84.4736" filterUnits="userSpaceOnUse" color-interpolation-filters="sRGB">
<feFlood flood-opacity="0" result="BackgroundImageFix"/>
<feColorMatrix in="SourceAlpha" type="matrix" values="0 0 0 0 0 0 0 0 0 0 0 0 0 0 0 0 0 0 127 0" result="hardAlpha"/>
<feOffset dy="4"/>
<feGaussianBlur stdDeviation="2"/>
<feComposite in2="hardAlpha" operator="out"/>
<feColorMatrix type="matrix" values="0 0 0 0 0 0 0 0 0 0 0 0 0 0 0 0 0 0 0.25 0"/>
<feBlend mode="normal" in2="BackgroundImageFix" result="effect1_dropShadow_288_117"/>
<feBlend mode="normal" in="SourceGraphic" in2="effect1_dropShadow_288_117" result="shape"/>
</filter>
</defs>
</svg>
