<svg width="223" height="188" viewBox="0 0 223 188" fill="none" xmlns="http://www.w3.org/2000/svg">
<g filter="url(#filter0_d_193_37)">
<path d="M7 173.5V7.5V3L216.5 27.5V177L7 173.5Z" fill="#52A28E" stroke="white" stroke-width="5"/>
<path d="M59.7852 84.5V62.6H66.2952C67.7752 62.6 69.0552 62.88 70.1352 63.44C71.2352 64 72.0852 64.79 72.6852 65.81C73.2852 66.83 73.5852 68.04 73.5852 69.44V77.63C73.5852 79.01 73.2852 80.22 72.6852 81.26C72.0852 82.28 71.2352 83.08 70.1352 83.66C69.0552 84.22 67.7752 84.5 66.2952 84.5H59.7852ZM63.5352 81.05H66.2952C67.3752 81.05 68.2352 80.75 68.8752 80.15C69.5152 79.53 69.8352 78.69 69.8352 77.63V69.44C69.8352 68.4 69.5152 67.58 68.8752 66.98C68.2352 66.36 67.3752 66.05 66.2952 66.05H63.5352V81.05ZM84.5534 84.8C83.1534 84.8 81.9334 84.53 80.8934 83.99C79.8534 83.45 79.0434 82.7 78.4634 81.74C77.9034 80.76 77.6234 79.62 77.6234 78.32V74.18C77.6234 72.88 77.9034 71.75 78.4634 70.79C79.0434 69.81 79.8534 69.05 80.8934 68.51C81.9334 67.97 83.1534 67.7 84.5534 67.7C85.9334 67.7 87.1334 67.97 88.1534 68.51C89.1934 69.05 89.9934 69.81 90.5534 70.79C91.1334 71.75 91.4234 72.88 91.4234 74.18V77.15H81.2534V78.32C81.2534 79.48 81.5334 80.36 82.0934 80.96C82.6534 81.54 83.4834 81.83 84.5834 81.83C85.4234 81.83 86.1034 81.69 86.6234 81.41C87.1434 81.11 87.4734 80.68 87.6134 80.12H91.3034C91.0234 81.54 90.2634 82.68 89.0234 83.54C87.8034 84.38 86.3134 84.8 84.5534 84.8ZM87.7934 75.05V74.15C87.7934 73.01 87.5234 72.14 86.9834 71.54C86.4434 70.92 85.6334 70.61 84.5534 70.61C83.4734 70.61 82.6534 70.92 82.0934 71.54C81.5334 72.16 81.2534 73.04 81.2534 74.18V74.81L88.0634 74.75L87.7934 75.05ZM101.882 84.77C100.622 84.77 99.5217 84.57 98.5817 84.17C97.6417 83.77 96.9017 83.22 96.3617 82.52C95.8417 81.8 95.5617 80.96 95.5217 80H99.2717C99.3117 80.52 99.5617 80.94 100.022 81.26C100.502 81.58 101.122 81.74 101.882 81.74H103.202C104.122 81.74 104.812 81.56 105.272 81.2C105.732 80.84 105.962 80.35 105.962 79.73C105.962 79.15 105.752 78.7 105.332 78.38C104.932 78.04 104.302 77.82 103.442 77.72L101.402 77.42C99.5217 77.16 98.1417 76.66 97.2617 75.92C96.3817 75.18 95.9417 74.07 95.9417 72.59C95.9417 71.05 96.4617 69.86 97.5017 69.02C98.5417 68.16 100.072 67.73 102.092 67.73H103.232C105.072 67.73 106.542 68.14 107.642 68.96C108.742 69.78 109.332 70.88 109.412 72.26H105.662C105.602 71.82 105.352 71.46 104.912 71.18C104.492 70.9 103.932 70.76 103.232 70.76H102.092C101.232 70.76 100.602 70.92 100.202 71.24C99.8217 71.54 99.6317 71.99 99.6317 72.59C99.6317 73.15 99.8017 73.57 100.142 73.85C100.482 74.11 101.032 74.3 101.792 74.42L103.922 74.72C105.882 75 107.322 75.53 108.242 76.31C109.182 77.07 109.652 78.2 109.652 79.7C109.652 81.3 109.102 82.55 108.002 83.45C106.922 84.33 105.322 84.77 103.202 84.77H101.882ZM113.78 84.5V81.08H119.54V71.39H114.53V68H123.14V81.08H128.24V84.5H113.78ZM121.04 65.24C120.28 65.24 119.68 65.05 119.24 64.67C118.8 64.27 118.58 63.74 118.58 63.08C118.58 62.42 118.8 61.9 119.24 61.52C119.68 61.12 120.28 60.92 121.04 60.92C121.8 60.92 122.4 61.12 122.84 61.52C123.28 61.9 123.5 62.42 123.5 63.08C123.5 63.74 123.28 64.27 122.84 64.67C122.4 65.05 121.8 65.24 121.04 65.24ZM134.048 89.9V86.78H138.938C139.778 86.78 140.408 86.57 140.828 86.15C141.248 85.75 141.458 85.17 141.458 84.41V83.18L141.518 80.09H140.708L141.518 79.28C141.518 80.62 141.118 81.67 140.318 82.43C139.538 83.17 138.478 83.54 137.138 83.54C135.458 83.54 134.118 82.97 133.118 81.83C132.138 80.69 131.648 79.15 131.648 77.21V74C131.648 72.08 132.138 70.55 133.118 69.41C134.118 68.27 135.458 67.7 137.138 67.7C138.478 67.7 139.538 68.08 140.318 68.84C141.118 69.58 141.518 70.62 141.518 71.96L140.708 71.15H141.518L141.428 68H145.178V84.5C145.178 86.16 144.628 87.47 143.528 88.43C142.428 89.41 140.918 89.9 138.998 89.9H134.048ZM138.398 80.3C139.358 80.3 140.098 80.02 140.618 79.46C141.158 78.88 141.428 78.08 141.428 77.06V74.18C141.428 73.16 141.158 72.37 140.618 71.81C140.098 71.23 139.358 70.94 138.398 70.94C137.438 70.94 136.698 71.22 136.178 71.78C135.658 72.34 135.398 73.14 135.398 74.18V77.06C135.398 78.1 135.658 78.9 136.178 79.46C136.698 80.02 137.438 80.3 138.398 80.3ZM149.787 84.5V68H153.447V71.15H154.467L153.447 72.02C153.447 70.66 153.837 69.6 154.617 68.84C155.417 68.08 156.507 67.7 157.887 67.7C159.507 67.7 160.797 68.24 161.757 69.32C162.737 70.4 163.227 71.85 163.227 73.67V84.5H159.477V74.06C159.477 73.06 159.217 72.29 158.697 71.75C158.177 71.21 157.447 70.94 156.507 70.94C155.587 70.94 154.857 71.22 154.317 71.78C153.797 72.34 153.537 73.14 153.537 74.18V84.5H149.787ZM41.8569 129.9V108H45.5169V111.15H46.3569L45.5169 112.02C45.5169 110.68 45.9169 109.63 46.7169 108.87C47.5169 108.09 48.5969 107.7 49.9569 107.7C51.6169 107.7 52.9469 108.27 53.9469 109.41C54.9469 110.55 55.4469 112.08 55.4469 114V118.47C55.4469 119.75 55.2169 120.87 54.7569 121.83C54.3169 122.77 53.6869 123.5 52.8669 124.02C52.0469 124.54 51.0769 124.8 49.9569 124.8C48.5969 124.8 47.5169 124.42 46.7169 123.66C45.9169 122.88 45.5169 121.82 45.5169 120.48L46.3569 121.35H45.4869L45.6069 125.28V129.9H41.8569ZM48.6369 121.56C49.5969 121.56 50.3469 121.28 50.8869 120.72C51.4269 120.16 51.6969 119.36 51.6969 118.32V114.18C51.6969 113.14 51.4269 112.34 50.8869 111.78C50.3469 111.22 49.5969 110.94 48.6369 110.94C47.6969 110.94 46.9569 111.23 46.4169 111.81C45.8769 112.37 45.6069 113.16 45.6069 114.18V118.32C45.6069 119.34 45.8769 120.14 46.4169 120.72C46.9569 121.28 47.6969 121.56 48.6369 121.56ZM60.3552 124.5V108H63.8952V111.15H64.8252L63.7152 113.07C63.7152 111.29 64.1152 109.95 64.9152 109.05C65.7152 108.15 66.8952 107.7 68.4552 107.7C70.2352 107.7 71.6352 108.25 72.6552 109.35C73.6752 110.45 74.1852 111.97 74.1852 113.91V115.11H70.2552V114.18C70.2552 113.12 69.9752 112.3 69.4152 111.72C68.8752 111.14 68.1252 110.85 67.1652 110.85C66.1852 110.85 65.4252 111.14 64.8852 111.72C64.3652 112.3 64.1052 113.12 64.1052 114.18V124.5H60.3552ZM84.5234 124.77C83.1234 124.77 81.9034 124.51 80.8634 123.99C79.8434 123.45 79.0434 122.7 78.4634 121.74C77.9034 120.76 77.6234 119.61 77.6234 118.29V114.21C77.6234 112.89 77.9034 111.75 78.4634 110.79C79.0434 109.81 79.8434 109.06 80.8634 108.54C81.9034 108 83.1234 107.73 84.5234 107.73C85.9434 107.73 87.1634 108 88.1834 108.54C89.2034 109.06 89.9934 109.81 90.5534 110.79C91.1334 111.75 91.4234 112.88 91.4234 114.18V118.29C91.4234 119.61 91.1334 120.76 90.5534 121.74C89.9934 122.7 89.2034 123.45 88.1834 123.99C87.1634 124.51 85.9434 124.77 84.5234 124.77ZM84.5234 121.5C85.5234 121.5 86.2934 121.23 86.8334 120.69C87.3934 120.13 87.6734 119.33 87.6734 118.29V114.21C87.6734 113.15 87.3934 112.35 86.8334 111.81C86.2934 111.27 85.5234 111 84.5234 111C83.5434 111 82.7734 111.27 82.2134 111.81C81.6534 112.35 81.3734 113.15 81.3734 114.21V118.29C81.3734 119.33 81.6534 120.13 82.2134 120.69C82.7734 121.23 83.5434 121.5 84.5234 121.5ZM95.9717 129.9V126.42H100.382C101.382 126.42 102.152 126.15 102.692 125.61C103.232 125.07 103.502 124.31 103.502 123.33V111.48H96.8717V108H107.252V123.42C107.252 125.42 106.652 127 105.452 128.16C104.252 129.32 102.632 129.9 100.592 129.9H95.9717ZM105.242 105.24C104.482 105.24 103.882 105.05 103.442 104.67C103.002 104.27 102.782 103.74 102.782 103.08C102.782 102.42 103.002 101.9 103.442 101.52C103.882 101.12 104.482 100.92 105.242 100.92C106.002 100.92 106.602 101.12 107.042 101.52C107.482 101.9 107.702 102.42 107.702 103.08C107.702 103.74 107.482 104.27 107.042 104.67C106.602 105.05 106.002 105.24 105.242 105.24ZM120.53 124.8C119.13 124.8 117.91 124.53 116.87 123.99C115.83 123.45 115.02 122.7 114.44 121.74C113.88 120.76 113.6 119.62 113.6 118.32V114.18C113.6 112.88 113.88 111.75 114.44 110.79C115.02 109.81 115.83 109.05 116.87 108.51C117.91 107.97 119.13 107.7 120.53 107.7C121.91 107.7 123.11 107.97 124.13 108.51C125.17 109.05 125.97 109.81 126.53 110.79C127.11 111.75 127.4 112.88 127.4 114.18V117.15H117.23V118.32C117.23 119.48 117.51 120.36 118.07 120.96C118.63 121.54 119.46 121.83 120.56 121.83C121.4 121.83 122.08 121.69 122.6 121.41C123.12 121.11 123.45 120.68 123.59 120.12H127.28C127 121.54 126.24 122.68 125 123.54C123.78 124.38 122.29 124.8 120.53 124.8ZM123.77 115.05V114.15C123.77 113.01 123.5 112.14 122.96 111.54C122.42 110.92 121.61 110.61 120.53 110.61C119.45 110.61 118.63 110.92 118.07 111.54C117.51 112.16 117.23 113.04 117.23 114.18V114.81L124.04 114.75L123.77 115.05ZM138.578 124.8C137.178 124.8 135.948 124.54 134.888 124.02C133.848 123.48 133.038 122.73 132.458 121.77C131.878 120.79 131.588 119.64 131.588 118.32V114.18C131.588 112.84 131.878 111.69 132.458 110.73C133.038 109.77 133.848 109.03 134.888 108.51C135.948 107.97 137.178 107.7 138.578 107.7C140.658 107.7 142.318 108.24 143.558 109.32C144.798 110.38 145.448 111.83 145.508 113.67H141.758C141.698 112.81 141.388 112.15 140.828 111.69C140.288 111.21 139.538 110.97 138.578 110.97C137.578 110.97 136.788 111.25 136.208 111.81C135.628 112.35 135.338 113.13 135.338 114.15V118.32C135.338 119.34 135.628 120.13 136.208 120.69C136.788 121.25 137.578 121.53 138.578 121.53C139.538 121.53 140.288 121.3 140.828 120.84C141.388 120.36 141.698 119.69 141.758 118.83H145.508C145.448 120.67 144.798 122.13 143.558 123.21C142.318 124.27 140.658 124.8 138.578 124.8ZM158.277 124.5C156.697 124.5 155.457 124.06 154.557 123.18C153.677 122.3 153.237 121.09 153.237 119.55V111.39H148.767V108H153.237V103.35H157.017V108H163.347V111.39H157.017V119.55C157.017 120.59 157.527 121.11 158.547 121.11H163.047V124.5H158.277ZM173.835 124.77C172.575 124.77 171.475 124.57 170.535 124.17C169.595 123.77 168.855 123.22 168.315 122.52C167.795 121.8 167.515 120.96 167.475 120H171.225C171.265 120.52 171.515 120.94 171.975 121.26C172.455 121.58 173.075 121.74 173.835 121.74H175.155C176.075 121.74 176.765 121.56 177.225 121.2C177.685 120.84 177.915 120.35 177.915 119.73C177.915 119.15 177.705 118.7 177.285 118.38C176.885 118.04 176.255 117.82 175.395 117.72L173.355 117.42C171.475 117.16 170.095 116.66 169.215 115.92C168.335 115.18 167.895 114.07 167.895 112.59C167.895 111.05 168.415 109.86 169.455 109.02C170.495 108.16 172.025 107.73 174.045 107.73H175.185C177.025 107.73 178.495 108.14 179.595 108.96C180.695 109.78 181.285 110.88 181.365 112.26H177.615C177.555 111.82 177.305 111.46 176.865 111.18C176.445 110.9 175.885 110.76 175.185 110.76H174.045C173.185 110.76 172.555 110.92 172.155 111.24C171.775 111.54 171.585 111.99 171.585 112.59C171.585 113.15 171.755 113.57 172.095 113.85C172.435 114.11 172.985 114.3 173.745 114.42L175.875 114.72C177.835 115 179.275 115.53 180.195 116.31C181.135 117.07 181.605 118.2 181.605 119.7C181.605 121.3 181.055 122.55 179.955 123.45C178.875 124.33 177.275 124.77 175.155 124.77H173.835Z" fill="white"/>
</g>
<defs>
<filter id="filter0_d_193_37" x="0.5" y="0.190674" width="222.5" height="187.351" filterUnits="userSpaceOnUse" color-interpolation-filters="sRGB">
<feFlood flood-opacity="0" result="BackgroundImageFix"/>
<feColorMatrix in="SourceAlpha" type="matrix" values="0 0 0 0 0 0 0 0 0 0 0 0 0 0 0 0 0 0 127 0" result="hardAlpha"/>
<feOffset dy="4"/>
<feGaussianBlur stdDeviation="2"/>
<feComposite in2="hardAlpha" operator="out"/>
<feColorMatrix type="matrix" values="0 0 0 0 0 0 0 0 0 0 0 0 0 0 0 0 0 0 0.25 0"/>
<feBlend mode="normal" in2="BackgroundImageFix" result="effect1_dropShadow_193_37"/>
<feBlend mode="normal" in="SourceGraphic" in2="effect1_dropShadow_193_37" result="shape"/>
</filter>
</defs>
</svg>
