<svg width="306" height="146" viewBox="0 0 306 146" fill="none" xmlns="http://www.w3.org/2000/svg">
<g filter="url(#filter0_d_288_99)">
<path d="M254.628 98.7506L163.07 116.502C161.46 116.814 160.106 117.896 159.446 119.397L155.794 127.695C155.284 128.855 154.352 129.778 153.187 130.277L142.57 134.827C141.552 135.263 140.418 135.349 139.346 135.071L129.429 132.5C128.19 132.179 127.122 131.395 126.444 130.31L121.721 122.754C120.674 121.079 118.74 120.177 116.784 120.453L85.4648 124.864C84.8276 124.954 84.1791 124.92 83.5548 124.764L52.5 117L10.7233 102.309C8.54021 101.542 7.16915 99.3761 7.40892 97.0744L9.4231 77.7382C9.47409 77.2487 9.59705 76.7695 9.78802 76.316L13.2734 68.0383C13.4239 67.6806 13.6156 67.3418 13.8446 67.0285L22.3648 55.3692C22.7835 54.7963 23.3193 54.3191 23.9367 53.9692L37.3771 46.353C37.7903 46.1189 38.2347 45.9448 38.6969 45.836L62.5981 40.2122C63.1943 40.0719 63.7596 39.8233 64.266 39.4787L99.5 15.5L107.225 10.5017C107.737 10.17 108.306 9.93505 108.903 9.80837L140.487 3.10883C140.828 3.03647 141.176 3 141.524 3H183.5L221.98 5.92251C222.653 5.97364 223.309 6.16058 223.908 6.47207L235.066 12.2741C235.355 12.4243 235.628 12.6024 235.882 12.8059L264.13 35.4043C265.017 36.1136 266.119 36.5 267.254 36.5H273.728C274.874 36.5 275.986 36.8941 276.877 37.6162L292.561 50.3333C293.49 51.0861 294.118 52.1466 294.331 53.3226L299.269 80.4805C299.694 82.8194 298.414 85.1344 296.207 86.0173L292.398 87.541C290.894 88.1426 289.774 89.4355 289.394 91.0102L286.797 101.769C286.602 102.577 286.209 103.323 285.653 103.941L279.588 110.68C278.31 112.1 276.335 112.667 274.498 112.142L265.722 109.635C264.312 109.232 263.15 108.231 262.544 106.896L260.132 101.59C259.175 99.4848 256.899 98.3104 254.628 98.7506Z" stroke="white" stroke-width="5" shape-rendering="crispEdges"/>
</g>
<path d="M177.206 93.742L174.565 76.4223L177.531 75.97L178.182 80.2406L178.491 82.7427L179.298 82.6197L178.596 83.4307C178.432 82.3552 178.612 81.4698 179.138 80.7747C179.679 80.0772 180.495 79.6452 181.586 79.4787C182.867 79.2834 183.953 79.5549 184.842 80.2932C185.747 81.0291 186.31 82.1168 186.529 83.5561L187.835 92.1211L184.87 92.5734L183.611 84.3168C183.49 83.526 183.192 82.9484 182.715 82.584C182.239 82.2197 181.629 82.0942 180.886 82.2076C180.158 82.3185 179.614 82.628 179.255 83.136C178.911 83.6416 178.802 84.3056 178.927 85.1281L180.172 93.2898L177.206 93.742ZM196.756 90.9793C195.649 91.1481 194.653 91.0896 193.767 90.8038C192.896 90.4998 192.172 90.0031 191.598 89.3138C191.037 88.6063 190.677 87.7306 190.518 86.6867L190.025 83.46C189.866 82.4161 189.95 81.4807 190.277 80.654C190.618 79.809 191.16 79.1193 191.904 78.5851C192.661 78.0326 193.594 77.6719 194.701 77.5031C195.824 77.3318 196.821 77.3982 197.693 77.7023C198.562 77.9905 199.278 78.4884 199.839 79.1959C200.413 79.8851 200.779 80.7438 200.936 81.772L201.431 85.0224C201.591 86.0663 201.5 87.0108 201.159 87.8558C200.832 88.6825 200.298 89.3709 199.556 89.921C198.812 90.4553 197.879 90.808 196.756 90.9793ZM196.362 88.3932C197.152 88.2726 197.729 87.9662 198.091 87.474C198.466 86.9636 198.591 86.2971 198.466 85.4746L197.974 82.2479C197.846 81.4096 197.528 80.8107 197.02 80.4512C196.528 80.0892 195.886 79.9686 195.095 80.0892C194.32 80.2074 193.744 80.5138 193.366 81.0084C192.988 81.503 192.863 82.1694 192.991 83.0077L193.483 86.2344C193.609 87.0569 193.927 87.6558 194.437 88.0312C194.945 88.3907 195.587 88.5114 196.362 88.3932ZM205.066 89.4936L203.076 76.4445L205.496 76.0754L205.763 77.8311L206.262 77.7551L205.923 78.2437C205.812 77.5161 205.929 76.8995 206.273 76.3939C206.616 75.8883 207.112 75.5861 207.761 75.4872C208.457 75.3811 209.038 75.5838 209.504 76.0953C209.987 76.6044 210.301 77.3414 210.449 78.3062L209.749 77.2233L210.556 77.1003L210.313 77.5744C210.202 76.8468 210.318 76.2302 210.662 75.7246C211.005 75.219 211.517 74.9143 212.198 74.8106C213.004 74.6876 213.691 74.8904 214.257 75.4191C214.823 75.9478 215.184 76.7262 215.341 77.7543L216.857 87.6954L214.247 88.0934L212.75 78.271C212.684 77.8439 212.539 77.5262 212.313 77.3179C212.084 77.0938 211.788 77.0094 211.425 77.0649C211.077 77.118 210.818 77.2788 210.648 77.5474C210.495 77.8136 210.452 78.1682 210.519 78.6111L212.017 88.4335L209.882 88.7591L208.384 78.9367C208.316 78.4938 208.17 78.1682 207.944 77.9599C207.718 77.7516 207.423 77.6752 207.059 77.7306C206.695 77.7861 206.437 77.947 206.283 78.2132C206.145 78.477 206.11 78.8303 206.177 79.2732L207.675 89.0956L205.066 89.4936ZM225.236 86.6605C224.128 86.8294 223.131 86.763 222.243 86.4613C221.356 86.1597 220.625 85.6642 220.05 84.975C219.489 84.2675 219.13 83.3997 218.973 82.3715L218.474 79.0974C218.317 78.0693 218.403 77.1418 218.73 76.3151C219.07 75.4701 219.619 74.7713 220.376 74.2189C221.134 73.6664 222.066 73.3057 223.173 73.1369C224.265 72.9704 225.246 73.0392 226.118 73.3433C227.006 73.6449 227.73 74.1495 228.291 74.857C228.866 75.5463 229.231 76.405 229.388 77.4331L229.746 79.7819L221.703 81.0084L221.844 81.9337C221.984 82.8511 222.312 83.5133 222.827 83.9203C223.34 84.3115 224.031 84.4407 224.901 84.308C225.565 84.2067 226.086 84.014 226.464 83.7299C226.839 83.4299 227.048 83.05 227.091 82.5903L230.009 82.1452C229.959 83.302 229.496 84.2953 228.619 85.1249C227.755 85.9364 226.627 86.4483 225.236 86.6605ZM226.622 78.5589L226.514 77.8471C226.376 76.9456 226.058 76.2901 225.558 75.8807C225.056 75.4555 224.378 75.308 223.524 75.4383C222.67 75.5685 222.059 75.9126 221.691 76.4704C221.323 77.0283 221.207 77.758 221.345 78.6596L221.421 79.1578L226.799 78.2891L226.622 78.5589Z" fill="white"/>
<defs>
<filter id="filter0_d_288_99" x="0.881592" y="0.5" width="304.969" height="145.231" filterUnits="userSpaceOnUse" color-interpolation-filters="sRGB">
<feFlood flood-opacity="0" result="BackgroundImageFix"/>
<feColorMatrix in="SourceAlpha" type="matrix" values="0 0 0 0 0 0 0 0 0 0 0 0 0 0 0 0 0 0 127 0" result="hardAlpha"/>
<feOffset dy="4"/>
<feGaussianBlur stdDeviation="2"/>
<feComposite in2="hardAlpha" operator="out"/>
<feColorMatrix type="matrix" values="0 0 0 0 0 0 0 0 0 0 0 0 0 0 0 0 0 0 0.25 0"/>
<feBlend mode="normal" in2="BackgroundImageFix" result="effect1_dropShadow_288_99"/>
<feBlend mode="normal" in="SourceGraphic" in2="effect1_dropShadow_288_99" result="shape"/>
</filter>
</defs>
</svg>
