<svg width="218" height="113" viewBox="0 0 218 113" fill="none" xmlns="http://www.w3.org/2000/svg">
<g filter="url(#filter0_d_218_30)">
<path d="M181 75.5L115.5 88L112.5 91V95.5L110 99.5L105.5 102.5H100.5L96.5 99.5L92 95.5L90 91V86.5H68L53 84.5L39 81.5L25 77.5L13.5 71L7 65L10.5 43.5L13.5 40.5L18.5 36.5L29 30.5L39 24.5L43 20.5L50 15.5L62 7L73 5H88.5L103.5 3H115.5L125.5 5H136L146.5 7L154 8.5L162 10.5L181 27.5L187 29L193.5 30.5H199L203.5 33L207 36.5L209.5 40.5L211 43.5L211.5 46.5V50L211 54.5V58.5V62L202.5 67.5V75.5L196.5 81.5L187 80.5L181 75.5Z" stroke="white" stroke-width="5"/>
<path d="M116.802 66.8477L115.387 55.9392L117.41 55.6767L117.6 57.1444L118.017 57.0904L117.726 57.4911C117.647 56.8829 117.755 56.3714 118.051 55.9565C118.347 55.5417 118.766 55.2991 119.308 55.2288C119.89 55.1533 120.37 55.333 120.749 55.7678C121.142 56.2009 121.39 56.8208 121.495 57.6274L120.932 56.7121L121.607 56.6246L121.395 57.0151C121.316 56.4069 121.425 55.8953 121.72 55.4805C122.016 55.0657 122.448 54.8214 123.017 54.7476C123.691 54.6601 124.259 54.8419 124.721 55.2929C125.183 55.7439 125.47 56.3991 125.581 57.2585L126.659 65.5689L124.478 65.8519L123.412 57.6408C123.366 57.2837 123.251 57.0164 123.066 56.8386C122.88 56.6476 122.635 56.5719 122.331 56.6113C122.04 56.6491 121.822 56.7783 121.675 56.9989C121.543 57.2178 121.5 57.5124 121.548 57.8826L122.613 66.0938L120.828 66.3254L119.763 58.1142C119.715 57.744 119.599 57.47 119.414 57.2922C119.23 57.1145 118.986 57.0453 118.682 57.0848C118.377 57.1242 118.159 57.2534 118.026 57.4724C117.906 57.6896 117.87 57.9833 117.919 58.3535L118.984 66.5647L116.802 66.8477ZM133.639 64.8651C132.251 65.0452 131.11 64.8033 130.217 64.1393C129.323 63.4621 128.789 62.4557 128.616 61.1203L127.736 54.3371L130.215 54.0155L131.092 60.7788C131.183 61.4796 131.425 61.9994 131.819 62.3383C132.211 62.6639 132.724 62.7855 133.359 62.7032C133.98 62.6226 134.439 62.3748 134.734 61.96C135.042 61.5302 135.15 60.965 135.059 60.2642L134.182 53.5008L136.661 53.1792L137.541 59.9624C137.714 61.2978 137.448 62.408 136.743 63.2927C136.036 64.1643 135.001 64.6884 133.639 64.8651ZM145.113 63.3564C144.28 63.4645 143.535 63.4266 142.879 63.2428C142.224 63.0589 141.687 62.7588 141.27 62.3423C140.865 61.9109 140.607 61.3796 140.499 60.7483L142.978 60.4267C143.049 60.767 143.25 61.0233 143.582 61.1954C143.927 61.3658 144.35 61.4184 144.853 61.3532L145.725 61.24C146.334 61.1611 146.774 60.9829 147.048 60.7054C147.321 60.428 147.431 60.0843 147.378 59.6744C147.328 59.2909 147.15 59.0114 146.845 58.8359C146.552 58.6454 146.116 58.554 145.539 58.5617L144.165 58.5383C142.9 58.5277 141.944 58.3155 141.299 57.9017C140.654 57.4879 140.268 56.7918 140.141 55.8134C140.009 54.7952 140.25 53.9639 140.866 53.3193C141.48 52.6616 142.454 52.2461 143.79 52.0728L144.544 51.975C145.76 51.8172 146.767 51.9622 147.565 52.41C148.362 52.8577 148.847 53.5344 149.018 54.4399L146.539 54.7615C146.461 54.4757 146.265 54.2592 145.95 54.1118C145.648 53.9627 145.266 53.9182 144.803 53.9782L144.05 54.076C143.481 54.1498 143.078 54.3096 142.841 54.5555C142.616 54.7864 142.529 55.1002 142.58 55.4969C142.628 55.8671 142.777 56.1302 143.026 56.2861C143.273 56.4289 143.653 56.5073 144.165 56.5215L145.599 56.5371C146.919 56.5541 147.917 56.781 148.592 57.2178C149.278 57.6396 149.686 58.3464 149.815 59.338C149.952 60.3959 149.695 61.2694 149.045 61.9588C148.407 62.6332 147.387 63.0613 145.985 63.2432L145.113 63.3564ZM152.956 62.1574L152.662 59.8963L156.47 59.4023L155.639 52.996L152.327 53.4257L152.036 51.1845L157.729 50.446L158.85 59.0935L162.222 58.6561L162.516 60.9171L152.956 62.1574ZM156.103 48.8014C155.601 48.8666 155.188 48.7924 154.865 48.5789C154.539 48.3522 154.348 48.0207 154.292 47.5843C154.235 47.148 154.336 46.7853 154.594 46.4964C154.851 46.1942 155.23 46.0105 155.733 45.9453C156.235 45.8801 156.649 45.9609 156.974 46.1876C157.298 46.4011 157.488 46.726 157.545 47.1624C157.601 47.5987 157.501 47.968 157.245 48.2702C156.986 48.5591 156.606 48.7362 156.103 48.8014ZM169.376 60.2287C168.451 60.3488 167.615 60.2824 166.87 60.0295C166.136 59.7617 165.536 59.3354 165.07 58.7504C164.603 58.1523 164.312 57.4169 164.199 56.5442L163.844 53.8071C163.729 52.9212 163.822 52.136 164.123 51.4516C164.424 50.7672 164.896 50.2085 165.539 49.7755C166.194 49.3276 166.984 49.0436 167.909 48.9235C169.285 48.7451 170.428 48.9597 171.341 49.5674C172.252 50.1618 172.806 51.0647 173.003 52.276L170.524 52.5976C170.41 52.0342 170.149 51.6245 169.739 51.3684C169.341 51.0974 168.825 51.003 168.19 51.0854C167.529 51.1711 167.031 51.424 166.695 51.844C166.358 52.2507 166.233 52.7913 166.321 53.4656L166.678 56.2225C166.766 56.8969 167.025 57.3943 167.457 57.7148C167.888 58.0353 168.435 58.1526 169.096 58.0668C169.73 57.9845 170.206 57.7681 170.524 57.4177C170.853 57.0523 171.001 56.5828 170.966 56.0091L173.446 55.6874C173.564 56.909 173.259 57.93 172.532 58.7504C171.803 59.5575 170.751 60.0503 169.376 60.2287Z" fill="white"/>
</g>
<defs>
<filter id="filter0_d_218_30" x="0.316406" y="0.5" width="217.684" height="112.5" filterUnits="userSpaceOnUse" color-interpolation-filters="sRGB">
<feFlood flood-opacity="0" result="BackgroundImageFix"/>
<feColorMatrix in="SourceAlpha" type="matrix" values="0 0 0 0 0 0 0 0 0 0 0 0 0 0 0 0 0 0 127 0" result="hardAlpha"/>
<feOffset dy="4"/>
<feGaussianBlur stdDeviation="2"/>
<feComposite in2="hardAlpha" operator="out"/>
<feColorMatrix type="matrix" values="0 0 0 0 0 0 0 0 0 0 0 0 0 0 0 0 0 0 0.25 0"/>
<feBlend mode="normal" in2="BackgroundImageFix" result="effect1_dropShadow_218_30"/>
<feBlend mode="normal" in="SourceGraphic" in2="effect1_dropShadow_218_30" result="shape"/>
</filter>
</defs>
</svg>
