<svg width="140" height="131" viewBox="0 0 140 131" fill="none" xmlns="http://www.w3.org/2000/svg">
<g filter="url(#filter0_d_193_58)">
<path d="M7 120.5V3L133 19.5V120.5H7Z" fill="#FFCD71" stroke="white" stroke-width="5"/>
<path d="M13.1695 64.38V52.7H15.1215V54.38H15.5695L15.1215 54.844C15.1215 54.1293 15.3348 53.5693 15.7615 53.164C16.1882 52.748 16.7642 52.54 17.4895 52.54C18.3748 52.54 19.0842 52.844 19.6175 53.452C20.1508 54.06 20.4175 54.876 20.4175 55.9V58.284C20.4175 58.9667 20.2948 59.564 20.0495 60.076C19.8148 60.5773 19.4788 60.9667 19.0415 61.244C18.6042 61.5213 18.0868 61.66 17.4895 61.66C16.7642 61.66 16.1882 61.4573 15.7615 61.052C15.3348 60.636 15.1215 60.0707 15.1215 59.356L15.5695 59.82H15.1055L15.1695 61.916V64.38H13.1695ZM16.7855 59.932C17.2975 59.932 17.6975 59.7827 17.9855 59.484C18.2735 59.1853 18.4175 58.7587 18.4175 58.204V55.996C18.4175 55.4413 18.2735 55.0147 17.9855 54.716C17.6975 54.4173 17.2975 54.268 16.7855 54.268C16.2842 54.268 15.8895 54.4227 15.6015 54.732C15.3135 55.0307 15.1695 55.452 15.1695 55.996V58.204C15.1695 58.748 15.3135 59.1747 15.6015 59.484C15.8895 59.7827 16.2842 59.932 16.7855 59.932ZM23.0353 61.5V52.7H24.9233V54.38H25.4193L24.8273 55.404C24.8273 54.4547 25.0406 53.74 25.4673 53.26C25.8939 52.78 26.5233 52.54 27.3553 52.54C28.3046 52.54 29.0513 52.8333 29.5953 53.42C30.1393 54.0067 30.4113 54.8173 30.4113 55.852V56.492H28.3153V55.996C28.3153 55.4307 28.1659 54.9933 27.8673 54.684C27.5793 54.3747 27.1793 54.22 26.6673 54.22C26.1446 54.22 25.7393 54.3747 25.4513 54.684C25.1739 54.9933 25.0353 55.4307 25.0353 55.996V61.5H23.0353ZM35.925 61.644C35.1783 61.644 34.5277 61.5053 33.973 61.228C33.429 60.94 33.0023 60.54 32.693 60.028C32.3943 59.5053 32.245 58.892 32.245 58.188V56.012C32.245 55.308 32.3943 54.7 32.693 54.188C33.0023 53.6653 33.429 53.2653 33.973 52.988C34.5277 52.7 35.1783 52.556 35.925 52.556C36.6823 52.556 37.333 52.7 37.877 52.988C38.421 53.2653 38.8423 53.6653 39.141 54.188C39.4503 54.7 39.605 55.3027 39.605 55.996V58.188C39.605 58.892 39.4503 59.5053 39.141 60.028C38.8423 60.54 38.421 60.94 37.877 61.228C37.333 61.5053 36.6823 61.644 35.925 61.644ZM35.925 59.9C36.4583 59.9 36.869 59.756 37.157 59.468C37.4557 59.1693 37.605 58.7427 37.605 58.188V56.012C37.605 55.4467 37.4557 55.02 37.157 54.732C36.869 54.444 36.4583 54.3 35.925 54.3C35.4023 54.3 34.9917 54.444 34.693 54.732C34.3943 55.02 34.245 55.4467 34.245 56.012V58.188C34.245 58.7427 34.3943 59.1693 34.693 59.468C34.9917 59.756 35.4023 59.9 35.925 59.9ZM43.9988 61.5V55.484H41.5828V53.676H43.9988V52.348C43.9988 51.58 44.2548 50.9667 44.7668 50.508C45.2788 50.0493 45.9561 49.82 46.7988 49.82H49.3748V51.58H46.8468C46.5908 51.58 46.3828 51.6547 46.2228 51.804C46.0734 51.9427 45.9988 52.1347 45.9988 52.38V53.676H49.3748V55.484H45.9988V61.5H43.9988ZM55.1285 61.66C54.3818 61.66 53.7312 61.516 53.1765 61.228C52.6218 60.94 52.1898 60.54 51.8805 60.028C51.5818 59.5053 51.4325 58.8973 51.4325 58.204V55.996C51.4325 55.3027 51.5818 54.7 51.8805 54.188C52.1898 53.6653 52.6218 53.26 53.1765 52.972C53.7312 52.684 54.3818 52.54 55.1285 52.54C55.8645 52.54 56.5045 52.684 57.0485 52.972C57.6032 53.26 58.0298 53.6653 58.3285 54.188C58.6378 54.7 58.7925 55.3027 58.7925 55.996V57.58H53.3685V58.204C53.3685 58.8227 53.5178 59.292 53.8165 59.612C54.1152 59.9213 54.5578 60.076 55.1445 60.076C55.5925 60.076 55.9552 60.0013 56.2325 59.852C56.5098 59.692 56.6858 59.4627 56.7605 59.164H58.7285C58.5792 59.9213 58.1738 60.5293 57.5125 60.988C56.8618 61.436 56.0672 61.66 55.1285 61.66ZM56.8565 56.46V55.98C56.8565 55.372 56.7125 54.908 56.4245 54.588C56.1365 54.2573 55.7045 54.092 55.1285 54.092C54.5525 54.092 54.1152 54.2573 53.8165 54.588C53.5178 54.9187 53.3685 55.388 53.3685 55.996V56.332L57.0005 56.3L56.8565 56.46ZM64.3703 61.644C63.6983 61.644 63.1116 61.5373 62.6103 61.324C62.1089 61.1107 61.7143 60.8173 61.4263 60.444C61.1489 60.06 60.9996 59.612 60.9783 59.1H62.9783C62.9996 59.3773 63.1329 59.6013 63.3783 59.772C63.6343 59.9427 63.9649 60.028 64.3703 60.028H65.0743C65.5649 60.028 65.9329 59.932 66.1783 59.74C66.4236 59.548 66.5463 59.2867 66.5463 58.956C66.5463 58.6467 66.4343 58.4067 66.2103 58.236C65.9969 58.0547 65.6609 57.9373 65.2023 57.884L64.1143 57.724C63.1116 57.5853 62.3756 57.3187 61.9062 56.924C61.4369 56.5293 61.2023 55.9373 61.2023 55.148C61.2023 54.3267 61.4796 53.692 62.0343 53.244C62.5889 52.7853 63.4049 52.556 64.4823 52.556H65.0903C66.0716 52.556 66.8556 52.7747 67.4423 53.212C68.0289 53.6493 68.3436 54.236 68.3863 54.972H66.3863C66.3543 54.7373 66.2209 54.5453 65.9863 54.396C65.7623 54.2467 65.4636 54.172 65.0903 54.172H64.4823C64.0236 54.172 63.6876 54.2573 63.4743 54.428C63.2716 54.588 63.1703 54.828 63.1703 55.148C63.1703 55.4467 63.2609 55.6707 63.4423 55.82C63.6236 55.9587 63.9169 56.06 64.3223 56.124L65.4583 56.284C66.5036 56.4333 67.2716 56.716 67.7623 57.132C68.2636 57.5373 68.5143 58.14 68.5143 58.94C68.5143 59.7933 68.2209 60.46 67.6343 60.94C67.0583 61.4093 66.2049 61.644 65.0743 61.644H64.3703ZM73.964 61.644C73.292 61.644 72.7053 61.5373 72.204 61.324C71.7027 61.1107 71.308 60.8173 71.02 60.444C70.7427 60.06 70.5933 59.612 70.572 59.1H72.572C72.5933 59.3773 72.7267 59.6013 72.972 59.772C73.228 59.9427 73.5587 60.028 73.964 60.028H74.668C75.1587 60.028 75.5267 59.932 75.772 59.74C76.0173 59.548 76.14 59.2867 76.14 58.956C76.14 58.6467 76.028 58.4067 75.804 58.236C75.5907 58.0547 75.2547 57.9373 74.796 57.884L73.708 57.724C72.7053 57.5853 71.9693 57.3187 71.5 56.924C71.0307 56.5293 70.796 55.9373 70.796 55.148C70.796 54.3267 71.0733 53.692 71.628 53.244C72.1827 52.7853 72.9987 52.556 74.076 52.556H74.684C75.6653 52.556 76.4493 52.7747 77.036 53.212C77.6227 53.6493 77.9373 54.236 77.98 54.972H75.98C75.948 54.7373 75.8147 54.5453 75.58 54.396C75.356 54.2467 75.0573 54.172 74.684 54.172H74.076C73.6173 54.172 73.2813 54.2573 73.068 54.428C72.8653 54.588 72.764 54.828 72.764 55.148C72.764 55.4467 72.8547 55.6707 73.036 55.82C73.2173 55.9587 73.5107 56.06 73.916 56.124L75.052 56.284C76.0973 56.4333 76.8653 56.716 77.356 57.132C77.8573 57.5373 78.108 58.14 78.108 58.94C78.108 59.7933 77.8147 60.46 77.228 60.94C76.652 61.4093 75.7987 61.644 74.668 61.644H73.964ZM80.3098 61.5V59.676H83.3818V54.508H80.7098V52.7H85.3018V59.676H88.0218V61.5H80.3098ZM84.1818 51.228C83.7764 51.228 83.4564 51.1267 83.2218 50.924C82.9871 50.7107 82.8698 50.428 82.8698 50.076C82.8698 49.724 82.9871 49.4467 83.2218 49.244C83.4564 49.0307 83.7764 48.924 84.1818 48.924C84.5871 48.924 84.9071 49.0307 85.1418 49.244C85.3764 49.4467 85.4938 49.724 85.4938 50.076C85.4938 50.428 85.3764 50.7107 85.1418 50.924C84.9071 51.1267 84.5871 51.228 84.1818 51.228ZM93.4875 61.644C92.7408 61.644 92.0902 61.5053 91.5355 61.228C90.9915 60.94 90.5648 60.54 90.2555 60.028C89.9568 59.5053 89.8075 58.892 89.8075 58.188V56.012C89.8075 55.308 89.9568 54.7 90.2555 54.188C90.5648 53.6653 90.9915 53.2653 91.5355 52.988C92.0902 52.7 92.7408 52.556 93.4875 52.556C94.2448 52.556 94.8955 52.7 95.4395 52.988C95.9835 53.2653 96.4048 53.6653 96.7035 54.188C97.0128 54.7 97.1675 55.3027 97.1675 55.996V58.188C97.1675 58.892 97.0128 59.5053 96.7035 60.028C96.4048 60.54 95.9835 60.94 95.4395 61.228C94.8955 61.5053 94.2448 61.644 93.4875 61.644ZM93.4875 59.9C94.0208 59.9 94.4315 59.756 94.7195 59.468C95.0182 59.1693 95.1675 58.7427 95.1675 58.188V56.012C95.1675 55.4467 95.0182 55.02 94.7195 54.732C94.4315 54.444 94.0208 54.3 93.4875 54.3C92.9648 54.3 92.5542 54.444 92.2555 54.732C91.9568 55.02 91.8075 55.4467 91.8075 56.012V58.188C91.8075 58.7427 91.9568 59.1693 92.2555 59.468C92.5542 59.756 92.9648 59.9 93.4875 59.9ZM99.5133 61.5V52.7H101.465V54.38H102.009L101.465 54.844C101.465 54.1187 101.673 53.5533 102.089 53.148C102.516 52.7427 103.097 52.54 103.833 52.54C104.697 52.54 105.385 52.828 105.897 53.404C106.42 53.98 106.681 54.7533 106.681 55.724V61.5H104.681V55.932C104.681 55.3987 104.543 54.988 104.265 54.7C103.988 54.412 103.599 54.268 103.097 54.268C102.607 54.268 102.217 54.4173 101.929 54.716C101.652 55.0147 101.513 55.4413 101.513 55.996V61.5H99.5133ZM111.699 61.66C110.792 61.66 110.078 61.42 109.555 60.94C109.032 60.46 108.771 59.8147 108.771 59.004C108.771 58.14 109.059 57.4733 109.635 57.004C110.211 56.5347 111.027 56.3 112.083 56.3H114.275V55.548C114.275 55.1213 114.136 54.7907 113.859 54.556C113.582 54.3107 113.203 54.188 112.723 54.188C112.286 54.188 111.923 54.284 111.635 54.476C111.347 54.668 111.176 54.9293 111.123 55.26H109.171C109.267 54.428 109.64 53.7667 110.291 53.276C110.942 52.7853 111.774 52.54 112.787 52.54C113.864 52.54 114.712 52.812 115.331 53.356C115.96 53.8893 116.275 54.6147 116.275 55.532V61.5H114.339V59.964H114.019L114.339 59.532C114.339 60.1827 114.099 60.7 113.619 61.084C113.139 61.468 112.499 61.66 111.699 61.66ZM112.355 60.156C112.92 60.156 113.379 60.012 113.731 59.724C114.094 59.436 114.275 59.0627 114.275 58.604V57.532H112.115C111.71 57.532 111.384 57.6493 111.139 57.884C110.894 58.1187 110.771 58.428 110.771 58.812C110.771 59.228 110.91 59.5587 111.187 59.804C111.475 60.0387 111.864 60.156 112.355 60.156ZM123.613 61.5C123.037 61.5 122.53 61.3827 122.093 61.148C121.666 60.9133 121.33 60.5827 121.085 60.156C120.839 59.7187 120.717 59.2173 120.717 58.652V51.628H117.901V49.82H122.717V58.652C122.717 58.972 122.807 59.228 122.989 59.42C123.181 59.6013 123.437 59.692 123.757 59.692H126.413V61.5H123.613ZM26.3473 82.66C25.6006 82.66 24.9499 82.516 24.3953 82.228C23.8406 81.94 23.4086 81.54 23.0993 81.028C22.8006 80.5053 22.6513 79.8973 22.6513 79.204V76.996C22.6513 76.3027 22.8006 75.7 23.0993 75.188C23.4086 74.6653 23.8406 74.26 24.3953 73.972C24.9499 73.684 25.6006 73.54 26.3473 73.54C27.0833 73.54 27.7233 73.684 28.2673 73.972C28.8219 74.26 29.2486 74.6653 29.5473 75.188C29.8566 75.7 30.0113 76.3027 30.0113 76.996V78.58H24.5873V79.204C24.5873 79.8227 24.7366 80.292 25.0353 80.612C25.3339 80.9213 25.7766 81.076 26.3633 81.076C26.8113 81.076 27.1739 81.0013 27.4513 80.852C27.7286 80.692 27.9046 80.4627 27.9793 80.164H29.9473C29.7979 80.9213 29.3926 81.5293 28.7313 81.988C28.0806 82.436 27.2859 82.66 26.3473 82.66ZM28.0753 77.46V76.98C28.0753 76.372 27.9313 75.908 27.6433 75.588C27.3553 75.2573 26.9233 75.092 26.3473 75.092C25.7713 75.092 25.3339 75.2573 25.0353 75.588C24.7366 75.9187 24.5873 76.388 24.5873 76.996V77.332L28.2193 77.3L28.0753 77.46ZM31.701 82.5L34.773 77.956L31.909 73.7H34.165L35.525 75.86C35.6103 75.988 35.685 76.132 35.749 76.292C35.8237 76.452 35.8823 76.58 35.925 76.676C35.9677 76.58 36.0263 76.452 36.101 76.292C36.1757 76.132 36.2503 75.988 36.325 75.86L37.701 73.7H39.957L37.093 77.956L40.149 82.5H37.877L36.357 80.084C36.2717 79.9453 36.1917 79.796 36.117 79.636C36.0423 79.476 35.9783 79.348 35.925 79.252C35.8823 79.348 35.8237 79.476 35.749 79.636C35.6743 79.796 35.5943 79.9453 35.509 80.084L33.957 82.5H31.701ZM41.9508 85.38V73.7H43.9028V75.38H44.3508L43.9028 75.844C43.9028 75.1293 44.1161 74.5693 44.5428 74.164C44.9694 73.748 45.5454 73.54 46.2708 73.54C47.1561 73.54 47.8654 73.844 48.3988 74.452C48.9321 75.06 49.1988 75.876 49.1988 76.9V79.284C49.1988 79.9667 49.0761 80.564 48.8308 81.076C48.5961 81.5773 48.2601 81.9667 47.8228 82.244C47.3854 82.5213 46.8681 82.66 46.2708 82.66C45.5454 82.66 44.9694 82.4573 44.5428 82.052C44.1161 81.636 43.9028 81.0707 43.9028 80.356L44.3508 80.82H43.8868L43.9508 82.916V85.38H41.9508ZM45.5668 80.932C46.0788 80.932 46.4788 80.7827 46.7668 80.484C47.0548 80.1853 47.1988 79.7587 47.1988 79.204V76.996C47.1988 76.4413 47.0548 76.0147 46.7668 75.716C46.4788 75.4173 46.0788 75.268 45.5668 75.268C45.0654 75.268 44.6708 75.4227 44.3828 75.732C44.0948 76.0307 43.9508 76.452 43.9508 76.996V79.204C43.9508 79.748 44.0948 80.1747 44.3828 80.484C44.6708 80.7827 45.0654 80.932 45.5668 80.932ZM55.1285 82.66C54.3818 82.66 53.7312 82.516 53.1765 82.228C52.6218 81.94 52.1898 81.54 51.8805 81.028C51.5818 80.5053 51.4325 79.8973 51.4325 79.204V76.996C51.4325 76.3027 51.5818 75.7 51.8805 75.188C52.1898 74.6653 52.6218 74.26 53.1765 73.972C53.7312 73.684 54.3818 73.54 55.1285 73.54C55.8645 73.54 56.5045 73.684 57.0485 73.972C57.6032 74.26 58.0298 74.6653 58.3285 75.188C58.6378 75.7 58.7925 76.3027 58.7925 76.996V78.58H53.3685V79.204C53.3685 79.8227 53.5178 80.292 53.8165 80.612C54.1152 80.9213 54.5578 81.076 55.1445 81.076C55.5925 81.076 55.9552 81.0013 56.2325 80.852C56.5098 80.692 56.6858 80.4627 56.7605 80.164H58.7285C58.5792 80.9213 58.1738 81.5293 57.5125 81.988C56.8618 82.436 56.0672 82.66 55.1285 82.66ZM56.8565 77.46V76.98C56.8565 76.372 56.7125 75.908 56.4245 75.588C56.1365 75.2573 55.7045 75.092 55.1285 75.092C54.5525 75.092 54.1152 75.2573 53.8165 75.588C53.5178 75.9187 53.3685 76.388 53.3685 76.996V77.332L57.0005 77.3L56.8565 77.46ZM61.4103 82.5V73.7H63.2983V75.38H63.7943L63.2023 76.404C63.2023 75.4547 63.4156 74.74 63.8423 74.26C64.2689 73.78 64.8983 73.54 65.7303 73.54C66.6796 73.54 67.4263 73.8333 67.9703 74.42C68.5143 75.0067 68.7863 75.8173 68.7863 76.852V77.492H66.6903V76.996C66.6903 76.4307 66.5409 75.9933 66.2423 75.684C65.9543 75.3747 65.5543 75.22 65.0423 75.22C64.5196 75.22 64.1143 75.3747 63.8263 75.684C63.5489 75.9933 63.4103 76.4307 63.4103 76.996V82.5H61.4103ZM70.716 82.5V80.676H73.788V75.508H71.116V73.7H75.708V80.676H78.428V82.5H70.716ZM74.588 72.228C74.1827 72.228 73.8627 72.1267 73.628 71.924C73.3933 71.7107 73.276 71.428 73.276 71.076C73.276 70.724 73.3933 70.4467 73.628 70.244C73.8627 70.0307 74.1827 69.924 74.588 69.924C74.9933 69.924 75.3133 70.0307 75.548 70.244C75.7827 70.4467 75.9 70.724 75.9 71.076C75.9 71.428 75.7827 71.7107 75.548 71.924C75.3133 72.1267 74.9933 72.228 74.588 72.228ZM83.9098 82.66C83.1631 82.66 82.5124 82.516 81.9578 82.228C81.4031 81.94 80.9711 81.54 80.6618 81.028C80.3631 80.5053 80.2138 79.8973 80.2138 79.204V76.996C80.2138 76.3027 80.3631 75.7 80.6618 75.188C80.9711 74.6653 81.4031 74.26 81.9578 73.972C82.5124 73.684 83.1631 73.54 83.9098 73.54C84.6458 73.54 85.2858 73.684 85.8298 73.972C86.3844 74.26 86.8111 74.6653 87.1098 75.188C87.4191 75.7 87.5738 76.3027 87.5738 76.996V78.58H82.1498V79.204C82.1498 79.8227 82.2991 80.292 82.5978 80.612C82.8964 80.9213 83.3391 81.076 83.9258 81.076C84.3738 81.076 84.7364 81.0013 85.0138 80.852C85.2911 80.692 85.4671 80.4627 85.5418 80.164H87.5098C87.3604 80.9213 86.9551 81.5293 86.2938 81.988C85.6431 82.436 84.8484 82.66 83.9098 82.66ZM85.6378 77.46V76.98C85.6378 76.372 85.4938 75.908 85.2058 75.588C84.9178 75.2573 84.4858 75.092 83.9098 75.092C83.3338 75.092 82.8964 75.2573 82.5978 75.588C82.2991 75.9187 82.1498 76.388 82.1498 76.996V77.332L85.7818 77.3L85.6378 77.46ZM89.9195 82.5V73.7H91.8715V75.38H92.4155L91.8715 75.844C91.8715 75.1187 92.0795 74.5533 92.4955 74.148C92.9222 73.7427 93.5035 73.54 94.2395 73.54C95.1035 73.54 95.7915 73.828 96.3035 74.404C96.8262 74.98 97.0875 75.7533 97.0875 76.724V82.5H95.0875V76.932C95.0875 76.3987 94.9488 75.988 94.6715 75.7C94.3942 75.412 94.0048 75.268 93.5035 75.268C93.0128 75.268 92.6235 75.4173 92.3355 75.716C92.0582 76.0147 91.9195 76.4413 91.9195 76.996V82.5H89.9195ZM103.129 82.66C102.383 82.66 101.727 82.5213 101.161 82.244C100.607 81.956 100.175 81.556 99.8653 81.044C99.5559 80.5213 99.4013 79.908 99.4013 79.204V76.996C99.4013 76.2813 99.5559 75.668 99.8653 75.156C100.175 74.644 100.607 74.2493 101.161 73.972C101.727 73.684 102.383 73.54 103.129 73.54C104.239 73.54 105.124 73.828 105.785 74.404C106.447 74.9693 106.793 75.7427 106.825 76.724H104.825C104.793 76.2653 104.628 75.9133 104.329 75.668C104.041 75.412 103.641 75.284 103.129 75.284C102.596 75.284 102.175 75.4333 101.865 75.732C101.556 76.02 101.401 76.436 101.401 76.98V79.204C101.401 79.748 101.556 80.1693 101.865 80.468C102.175 80.7667 102.596 80.916 103.129 80.916C103.641 80.916 104.041 80.7933 104.329 80.548C104.628 80.292 104.793 79.9347 104.825 79.476H106.825C106.793 80.4573 106.447 81.236 105.785 81.812C105.124 82.3773 104.239 82.66 103.129 82.66ZM112.691 82.66C111.944 82.66 111.294 82.516 110.739 82.228C110.184 81.94 109.752 81.54 109.443 81.028C109.144 80.5053 108.995 79.8973 108.995 79.204V76.996C108.995 76.3027 109.144 75.7 109.443 75.188C109.752 74.6653 110.184 74.26 110.739 73.972C111.294 73.684 111.944 73.54 112.691 73.54C113.427 73.54 114.067 73.684 114.611 73.972C115.166 74.26 115.592 74.6653 115.891 75.188C116.2 75.7 116.355 76.3027 116.355 76.996V78.58H110.931V79.204C110.931 79.8227 111.08 80.292 111.379 80.612C111.678 80.9213 112.12 81.076 112.707 81.076C113.155 81.076 113.518 81.0013 113.795 80.852C114.072 80.692 114.248 80.4627 114.323 80.164H116.291C116.142 80.9213 115.736 81.5293 115.075 81.988C114.424 82.436 113.63 82.66 112.691 82.66ZM114.419 77.46V76.98C114.419 76.372 114.275 75.908 113.987 75.588C113.699 75.2573 113.267 75.092 112.691 75.092C112.115 75.092 111.678 75.2573 111.379 75.588C111.08 75.9187 110.931 76.388 110.931 76.996V77.332L114.563 77.3L114.419 77.46Z" fill="white"/>
</g>
<defs>
<filter id="filter0_d_193_58" x="0.5" y="0.151367" width="139" height="130.849" filterUnits="userSpaceOnUse" color-interpolation-filters="sRGB">
<feFlood flood-opacity="0" result="BackgroundImageFix"/>
<feColorMatrix in="SourceAlpha" type="matrix" values="0 0 0 0 0 0 0 0 0 0 0 0 0 0 0 0 0 0 127 0" result="hardAlpha"/>
<feOffset dy="4"/>
<feGaussianBlur stdDeviation="2"/>
<feComposite in2="hardAlpha" operator="out"/>
<feColorMatrix type="matrix" values="0 0 0 0 0 0 0 0 0 0 0 0 0 0 0 0 0 0 0.25 0"/>
<feBlend mode="normal" in2="BackgroundImageFix" result="effect1_dropShadow_193_58"/>
<feBlend mode="normal" in="SourceGraphic" in2="effect1_dropShadow_193_58" result="shape"/>
</filter>
</defs>
</svg>
