<svg width="345" height="149" viewBox="0 0 345 149" fill="none" xmlns="http://www.w3.org/2000/svg">
<g filter="url(#filter0_d_288_82)">
<path d="M280.307 122.393L190.945 138.42C190.649 138.473 190.349 138.5 190.048 138.499L13.3828 138.013C10.6675 138.006 8.45454 135.833 8.39759 133.118L7.06375 69.5389C7.02459 67.6719 8.02904 65.9387 9.66839 65.0445L18 60.5L28 56L37.5 53L43.6419 51.6839C44.2096 51.5622 44.7518 51.3426 45.2442 51.0349L51.9018 46.8738C52.2986 46.6258 52.7283 46.4348 53.1782 46.3062L56 45.5L61 43.5L69.4199 39.2901C69.805 39.0975 70.1637 38.856 70.4869 38.5715L82.2087 28.2564C82.4026 28.0857 82.6095 27.9303 82.8274 27.7916L88 24.5L94.5 21L103.468 16.2802C103.821 16.0941 104.196 15.951 104.584 15.8541L118 12.5L127.505 10.6895C128.162 10.5645 128.787 10.3089 129.343 9.9381L133.24 7.33975C134.062 6.79219 135.027 6.5 136.014 6.5H145.118C145.372 6.5 145.626 6.51944 145.878 6.55814L150.129 7.21209C151.334 7.3976 152.566 7.13585 153.593 6.47613L157.765 3.79411C158.571 3.27565 159.51 3 160.469 3H173.852C174.894 3 175.879 3.47355 176.53 4.28704C177.146 5.05798 178.065 5.5257 179.052 5.57053L199.5 6.5L222.5 7.5L238 9.5L244.276 10.3966C244.756 10.4652 245.224 10.6033 245.664 10.8065L251.5 13.5L260.059 17.3039C260.352 17.4343 260.632 17.5927 260.895 17.7768L265.5 21L272.658 27.2628C273.212 27.7483 273.868 28.105 274.576 28.3075L275.802 28.6579C276.589 28.8825 277.308 29.2966 277.897 29.8639L290.139 41.6524C290.379 41.8835 290.642 42.0901 290.923 42.2691L294.772 44.7183C295.574 45.2288 296.505 45.5 297.456 45.5H301.986C302.973 45.5 303.938 45.7922 304.76 46.3397L328.698 62.2984C329.848 63.0651 330.629 64.2734 330.856 65.6367L331.31 68.3579C331.435 69.1094 331.73 69.8223 332.173 70.4421L333.48 72.2722C333.824 72.7536 334.08 73.2921 334.235 73.8628L335.5 78.5L337.797 86.3092C337.932 86.7674 338 87.2425 338 87.72V93V100.5V103.929C338 105.255 337.473 106.527 336.536 107.464L334.766 109.234C334.261 109.739 333.654 110.13 332.986 110.38L327.897 112.289C326.756 112.717 326 113.807 326 115.026C326 115.658 325.795 116.274 325.415 116.779L322.5 120.667C321.851 121.532 321.5 122.585 321.5 123.667V124.32C321.5 125.096 321.319 125.861 320.972 126.556L319.202 130.097C319.067 130.365 318.909 130.621 318.729 130.861L315.281 135.459C314.769 136.142 314.091 136.682 313.311 137.028L310.97 138.069C310.33 138.353 309.639 138.5 308.939 138.5H303.5H296.881C296.298 138.5 295.72 138.398 295.172 138.199L292.199 137.118C291.101 136.719 290.178 135.947 289.589 134.938L287.681 131.668C287.235 130.903 287 130.034 287 129.148V127.945C287 126.402 286.288 124.946 285.07 123.999L284.259 123.368C283.139 122.497 281.703 122.143 280.307 122.393Z" stroke="white" stroke-width="5"/>
<path d="M182.048 114.586L177.841 101.913L180.302 101.493L182.75 109.281C182.891 109.727 183.032 110.223 183.174 110.767C183.331 111.308 183.456 111.757 183.55 112.115C183.535 111.744 183.52 111.276 183.505 110.71C183.49 110.145 183.474 109.628 183.459 109.16L183.33 100.977L185.625 100.586L188.191 108.353C188.332 108.799 188.491 109.3 188.666 109.854C188.839 110.393 188.98 110.839 189.09 111.194C189.057 110.81 189.025 110.337 188.994 109.774C188.976 109.193 188.953 108.677 188.925 108.228L188.724 100.057L191.09 99.6535L191.275 113.013L188.223 113.533L185.719 105.707C185.581 105.276 185.426 104.799 185.256 104.276C185.083 103.738 184.943 103.299 184.837 102.96C184.849 103.315 184.862 103.775 184.877 104.341C184.906 104.888 184.918 105.389 184.915 105.844L185.1 114.066L182.048 114.586ZM195.997 112.207L193.778 99.1951L196.569 98.7189L196.993 101.203L197.726 101.078L197.109 102.741C196.87 101.338 197.005 100.227 197.515 99.4098C198.025 98.5924 198.895 98.0788 200.125 97.869C201.529 97.6296 202.707 97.875 203.659 98.6053C204.612 99.3356 205.218 100.466 205.479 101.996L205.64 102.942L202.541 103.471L202.416 102.737C202.274 101.901 201.942 101.292 201.423 100.91C200.919 100.525 200.289 100.398 199.531 100.527C198.759 100.658 198.198 100.989 197.85 101.519C197.518 102.047 197.424 102.728 197.566 103.564L198.954 111.703L195.997 112.207ZM209.757 109.86L209.297 107.163L213.839 106.389L212.536 98.7469L208.585 99.4207L208.129 96.7474L214.919 95.5893L216.678 105.904L220.7 105.218L221.16 107.915L209.757 109.86ZM212.892 93.6952C212.292 93.7974 211.794 93.7283 211.396 93.4878C210.995 93.2315 210.75 92.8431 210.661 92.3226C210.572 91.8022 210.676 91.3625 210.972 91.0036C211.265 90.629 211.711 90.3906 212.311 90.2884C212.91 90.1862 213.41 90.2632 213.811 90.5194C214.209 90.7599 214.452 91.1404 214.541 91.6609C214.63 92.1814 214.528 92.6289 214.235 93.0036C213.939 93.3624 213.491 93.593 212.892 93.6952ZM230.662 106.295C229.416 106.507 228.379 106.327 227.55 105.754C226.738 105.179 226.228 104.284 226.021 103.069L224.924 96.6341L221.399 97.2353L220.943 94.5619L224.468 93.9607L223.842 90.2937L226.823 89.7852L227.449 93.4523L232.441 92.6009L232.897 95.2743L227.905 96.1257L229.002 102.561C229.142 103.381 229.614 103.722 230.419 103.585L233.967 102.98L234.423 105.653L230.662 106.295ZM238.128 105.021L237.668 102.324L242.211 101.55L240.908 93.908L236.957 94.5818L236.501 91.9084L243.291 90.7504L245.05 101.065L249.072 100.379L249.532 103.077L238.128 105.021ZM241.263 88.8563C240.664 88.9585 240.165 88.8894 239.767 88.6489C239.366 88.3926 239.122 88.0042 239.033 87.4837C238.944 86.9633 239.048 86.5236 239.343 86.1647C239.637 85.7901 240.083 85.5517 240.682 85.4495C241.282 85.3472 241.782 85.4243 242.182 85.6805C242.581 85.921 242.824 86.3015 242.913 86.822C243.001 87.3425 242.899 87.79 242.606 88.1647C242.31 88.5235 241.863 88.7541 241.263 88.8563ZM252.338 102.598L250.119 89.5858L253.005 89.0936L253.429 91.5777L254.233 91.4405L253.546 92.2638C253.363 91.1913 253.528 90.3029 254.041 89.5986C254.569 88.8917 255.378 88.4454 256.466 88.2598C257.744 88.0419 258.833 88.2942 259.736 89.0168C260.654 89.7367 261.235 90.8143 261.48 92.2496L262.937 100.79L259.98 101.295L258.575 93.0615C258.441 92.2729 258.132 91.7006 257.65 91.3447C257.167 90.9888 256.555 90.8741 255.814 91.0005C255.088 91.1242 254.55 91.4432 254.199 91.9575C253.865 92.4691 253.767 93.1349 253.907 93.9551L255.295 102.094L252.338 102.598ZM269.024 104.134L268.605 101.674L272.461 101.016C273.123 100.903 273.592 100.653 273.867 100.265C274.144 99.8932 274.232 99.4076 274.13 98.8082L273.964 97.8382L273.596 95.3934L272.957 95.5023L273.487 94.7546C273.667 95.8113 273.493 96.6932 272.964 97.4001C272.449 98.0886 271.662 98.5229 270.606 98.7032C269.281 98.9291 268.147 98.6599 267.206 97.8954C266.279 97.1281 265.686 95.9796 265.425 94.4497L264.993 91.9182C264.735 90.4041 264.915 89.1316 265.535 88.1008C266.17 87.0673 267.15 86.4375 268.475 86.2116C269.532 86.0313 270.419 86.1884 271.136 86.6829C271.867 87.1588 272.322 87.9252 272.502 88.9819L271.755 88.4521L272.393 88.3432L271.899 85.8711L274.856 85.3668L277.075 98.3789C277.299 99.688 277.041 100.795 276.303 101.7C275.567 102.621 274.442 103.21 272.928 103.469L269.024 104.134ZM271.164 95.9786C271.921 95.8495 272.467 95.5291 272.801 95.0176C273.149 94.4876 273.254 93.8203 273.117 93.016L272.73 90.7448C272.593 89.9404 272.274 89.3537 271.772 88.9847C271.284 88.5972 270.662 88.4681 269.905 88.5972C269.148 88.7263 268.602 89.0467 268.267 89.5582C267.932 90.0698 267.835 90.7356 267.975 91.5558L268.362 93.827C268.502 94.6472 268.814 95.2431 269.3 95.6148C269.785 95.9864 270.407 96.1077 271.164 95.9786Z" fill="white"/>
</g>
<defs>
<filter id="filter0_d_288_82" x="0.5625" y="0.5" width="343.938" height="148.5" filterUnits="userSpaceOnUse" color-interpolation-filters="sRGB">
<feFlood flood-opacity="0" result="BackgroundImageFix"/>
<feColorMatrix in="SourceAlpha" type="matrix" values="0 0 0 0 0 0 0 0 0 0 0 0 0 0 0 0 0 0 127 0" result="hardAlpha"/>
<feOffset dy="4"/>
<feGaussianBlur stdDeviation="2"/>
<feComposite in2="hardAlpha" operator="out"/>
<feColorMatrix type="matrix" values="0 0 0 0 0 0 0 0 0 0 0 0 0 0 0 0 0 0 0.25 0"/>
<feBlend mode="normal" in2="BackgroundImageFix" result="effect1_dropShadow_288_82"/>
<feBlend mode="normal" in="SourceGraphic" in2="effect1_dropShadow_288_82" result="shape"/>
</filter>
</defs>
</svg>
